<?xml version="1.0" encoding="UTF-8"?><svg id="a" xmlns="http://www.w3.org/2000/svg" viewBox="0 0 2500 2500"><defs><style>.b{fill:#0071bc;}</style></defs><g><path class="b" d="M1617.77,1447.17v18.09h-24.56v74.61h-22.58v-74.61h-24.56v-18.09h71.71Z"/><path class="b" d="M1658.98,1498.38c3.2,3.51,4.81,8.33,4.81,14.47v27.03h-14.09v-25.12c0-3.09-.8-5.5-2.4-7.21-1.6-1.71-3.76-2.57-6.47-2.57s-4.86,.86-6.47,2.57c-1.6,1.71-2.4,4.12-2.4,7.21v25.12h-14.18v-61.35h14.18v21.31c1.44-2.04,3.4-3.67,5.89-4.89,2.49-1.22,5.28-1.82,8.37-1.82,5.31,0,9.56,1.76,12.77,5.26Z"/><path class="b" d="M1723.23,1519.48h-32.08c.22,2.87,1.15,5.07,2.78,6.59,1.63,1.52,3.63,2.28,6.01,2.28,3.54,0,6-1.49,7.38-4.48h15.09c-.77,3.04-2.17,5.78-4.19,8.21-2.02,2.43-4.55,4.34-7.59,5.72-3.04,1.38-6.44,2.07-10.2,2.07-4.53,0-8.57-.97-12.1-2.9-3.54-1.93-6.3-4.7-8.29-8.29-1.99-3.59-2.98-7.79-2.98-12.6s.98-9.01,2.94-12.6c1.96-3.59,4.71-6.36,8.25-8.29,3.54-1.93,7.6-2.9,12.19-2.9s8.46,.94,11.94,2.82c3.48,1.88,6.2,4.56,8.17,8.04,1.96,3.48,2.94,7.54,2.94,12.19,0,1.33-.08,2.71-.25,4.15Zm-14.26-7.88c0-2.43-.83-4.37-2.49-5.8-1.66-1.44-3.73-2.16-6.22-2.16s-4.38,.69-6.01,2.07c-1.63,1.38-2.64,3.34-3.03,5.89h17.74Z"/><path class="b" d="M1757.55,1495.32c2.49-1.46,5.25-2.2,8.29-2.2v15.01h-3.9c-3.54,0-6.19,.76-7.96,2.28-1.77,1.52-2.65,4.19-2.65,8v21.47h-14.18v-46.26h14.18v7.71c1.66-2.54,3.73-4.55,6.22-6.01Z"/><path class="b" d="M1778.73,1503.48c1.8-3.59,4.24-6.36,7.34-8.29,3.09-1.93,6.55-2.9,10.36-2.9,3.26,0,6.12,.66,8.58,1.99,2.46,1.33,4.35,3.07,5.68,5.22v-6.55h14.18v46.26h-14.18v-6.55c-1.38,2.16-3.3,3.9-5.76,5.22-2.46,1.33-5.32,1.99-8.58,1.99-3.76,0-7.18-.98-10.28-2.94-3.1-1.96-5.54-4.75-7.34-8.37-1.8-3.62-2.69-7.81-2.69-12.56s.9-8.92,2.69-12.52Zm29.02,4.23c-1.96-2.04-4.35-3.07-7.17-3.07s-5.21,1.01-7.17,3.03c-1.96,2.02-2.94,4.8-2.94,8.33s.98,6.34,2.94,8.41c1.96,2.07,4.35,3.11,7.17,3.11s5.21-1.02,7.17-3.07c1.96-2.04,2.94-4.84,2.94-8.37s-.98-6.33-2.94-8.37Z"/><path class="b" d="M1861.26,1494.64c2.43-1.33,5.28-1.99,8.54-1.99,3.81,0,7.27,.97,10.36,2.9,3.09,1.94,5.54,4.7,7.34,8.29,1.8,3.59,2.69,7.77,2.69,12.52s-.9,8.94-2.69,12.56c-1.8,3.62-4.24,6.41-7.34,8.37-3.1,1.96-6.55,2.94-10.36,2.94-3.21,0-6.04-.66-8.5-1.99-2.46-1.33-4.38-3.04-5.76-5.14v28.52h-14.18v-68.31h14.18v6.55c1.38-2.16,3.29-3.9,5.72-5.22Zm11.56,13.39c-1.96-2.02-4.38-3.03-7.25-3.03s-5.21,1.02-7.17,3.07c-1.96,2.05-2.94,4.84-2.94,8.37s.98,6.33,2.94,8.37c1.96,2.05,4.35,3.07,7.17,3.07s5.22-1.04,7.21-3.11c1.99-2.07,2.98-4.88,2.98-8.41s-.98-6.31-2.94-8.33Z"/><path class="b" d="M1947.23,1519.48h-32.08c.22,2.87,1.15,5.07,2.78,6.59,1.63,1.52,3.63,2.28,6.01,2.28,3.54,0,6-1.49,7.38-4.48h15.09c-.77,3.04-2.17,5.78-4.19,8.21-2.02,2.43-4.55,4.34-7.59,5.72-3.04,1.38-6.44,2.07-10.2,2.07-4.53,0-8.57-.97-12.1-2.9-3.54-1.93-6.3-4.7-8.29-8.29-1.99-3.59-2.98-7.79-2.98-12.6s.98-9.01,2.94-12.6c1.96-3.59,4.71-6.36,8.25-8.29,3.54-1.93,7.6-2.9,12.19-2.9s8.46,.94,11.94,2.82c3.48,1.88,6.2,4.56,8.17,8.04,1.96,3.48,2.94,7.54,2.94,12.19,0,1.33-.08,2.71-.25,4.15Zm-14.26-7.88c0-2.43-.83-4.37-2.49-5.8-1.66-1.44-3.73-2.16-6.22-2.16s-4.38,.69-6.01,2.07c-1.63,1.38-2.64,3.34-3.03,5.89h17.74Z"/><path class="b" d="M2006.83,1493.12v46.26h-14.18v-6.3c-1.44,2.05-3.39,3.69-5.84,4.93-2.46,1.24-5.18,1.87-8.17,1.87-3.54,0-6.66-.79-9.37-2.36-2.71-1.58-4.81-3.85-6.3-6.84-1.49-2.98-2.24-6.49-2.24-10.53v-27.03h14.09v25.12c0,3.1,.8,5.5,2.4,7.21,1.6,1.71,3.76,2.57,6.47,2.57s4.95-.86,6.55-2.57c1.6-1.71,2.4-4.12,2.4-7.21v-25.12h14.18Z"/><path class="b" d="M2049.03,1527.86v12.02h-7.21c-5.14,0-9.15-1.26-12.02-3.77-2.87-2.51-4.31-6.62-4.31-12.31v-18.4h-5.64v-11.77h5.64v-11.27h14.18v11.27h9.29v11.77h-9.29v18.57c0,1.38,.33,2.38,.99,2.98,.66,.61,1.77,.91,3.32,.91h5.06Z"/><path class="b" d="M2064.16,1486.61c-1.58-1.46-2.36-3.27-2.36-5.43s.79-4.05,2.36-5.51c1.58-1.46,3.61-2.2,6.09-2.2s4.44,.73,6.01,2.2c1.58,1.47,2.36,3.3,2.36,5.51s-.79,3.97-2.36,5.43c-1.58,1.47-3.58,2.2-6.01,2.2s-4.52-.73-6.09-2.2Zm13.14,7.01v46.26h-14.18v-46.26h14.18Z"/><path class="b" d="M2093.92,1503.48c1.96-3.59,4.7-6.36,8.21-8.29,3.51-1.93,7.53-2.9,12.06-2.9,5.8,0,10.65,1.52,14.55,4.56,3.9,3.04,6.45,7.32,7.67,12.85h-15.09c-1.27-3.54-3.73-5.31-7.38-5.31-2.6,0-4.67,1.01-6.22,3.03-1.55,2.02-2.32,4.91-2.32,8.66s.77,6.65,2.32,8.66c1.55,2.02,3.62,3.03,6.22,3.03,3.65,0,6.11-1.77,7.38-5.31h15.09c-1.22,5.42-3.79,9.67-7.71,12.77-3.93,3.1-8.76,4.64-14.51,4.64-4.53,0-8.55-.97-12.06-2.9-3.51-1.93-6.25-4.7-8.21-8.29-1.96-3.59-2.94-7.79-2.94-12.6s.98-9.01,2.94-12.6Z"/><path class="b" d="M2158.21,1537.8c-3.15-1.38-5.64-3.27-7.46-5.68-1.82-2.4-2.85-5.1-3.07-8.08h14.01c.17,1.6,.91,2.9,2.24,3.9,1.33,.99,2.96,1.49,4.89,1.49,1.77,0,3.14-.34,4.1-1.04,.97-.69,1.45-1.59,1.45-2.69,0-1.33-.69-2.31-2.07-2.94-1.38-.63-3.62-1.34-6.72-2.11-3.32-.77-6.08-1.59-8.29-2.45-2.21-.86-4.12-2.21-5.72-4.06-1.6-1.85-2.4-4.35-2.4-7.5,0-2.65,.73-5.07,2.2-7.25,1.46-2.18,3.62-3.91,6.47-5.18,2.85-1.27,6.23-1.91,10.16-1.91,5.8,0,10.38,1.44,13.72,4.31,3.34,2.87,5.26,6.69,5.76,11.44h-13.1c-.22-1.6-.93-2.87-2.11-3.81-1.19-.94-2.75-1.41-4.68-1.41-1.66,0-2.93,.32-3.81,.95-.88,.64-1.33,1.51-1.33,2.61,0,1.33,.7,2.32,2.11,2.98,1.41,.66,3.61,1.33,6.59,1.99,3.43,.88,6.22,1.76,8.37,2.61,2.16,.86,4.05,2.24,5.68,4.15,1.63,1.91,2.47,4.46,2.53,7.67,0,2.71-.76,5.13-2.28,7.25-1.52,2.13-3.7,3.8-6.55,5.02-2.85,1.22-6.15,1.82-9.91,1.82-4.04,0-7.63-.69-10.78-2.07Z"/></g><g><path class="b" d="M215.48,1362.01c-18.63,0-35.94-3.05-51.93-9.14-15.99-6.09-29.84-14.78-41.58-26.05-11.73-11.27-20.87-24.5-27.43-39.68-6.56-15.18-9.83-31.86-9.83-50.03s3.28-34.85,9.83-50.03c6.56-15.18,15.75-28.41,27.6-39.68,11.84-11.27,25.76-19.95,41.75-26.05,15.98-6.09,33.29-9.14,51.93-9.14,20.93,0,39.9,3.62,56.93,10.87,17.02,7.25,31.28,17.89,42.78,31.91l-36.23,33.12c-8.05-9.43-17.2-16.56-27.43-21.39-10.24-4.83-21.34-7.25-33.29-7.25-11.27,0-21.62,1.9-31.05,5.69-9.43,3.8-17.6,9.14-24.5,16.04-6.9,6.9-12.25,15.07-16.04,24.5-3.8,9.43-5.69,19.9-5.69,31.4s1.9,21.97,5.69,31.4c3.8,9.43,9.14,17.6,16.04,24.5,6.9,6.9,15.06,12.25,24.5,16.04,9.43,3.8,19.78,5.69,31.05,5.69,11.96,0,23.06-2.47,33.29-7.42,10.23-4.94,19.38-12.13,27.43-21.56l36.23,33.12c-11.5,14.03-25.76,24.73-42.78,32.09-17.02,7.36-36.11,11.04-57.27,11.04Z"/><path class="b" d="M355.22,1357.87l107.3-241.52h55.2l108.34,241.52h-58.65l-88.67-213.22h22.43l-88.67,213.22h-57.27Zm54.17-51.75l14.15-42.44h124.9l14.49,42.44h-153.53Z"/><path class="b" d="M685.74,1357.87v-241.52h104.54c21.62,0,40.25,3.51,55.89,10.52,15.64,7.02,27.71,17.08,36.23,30.19,8.51,13.11,12.77,28.64,12.77,46.58s-4.26,33.76-12.77,46.75c-8.51,13-20.59,22.89-36.23,29.67-15.64,6.79-34.28,10.18-55.89,10.18h-73.83l25.53-24.15v91.78h-56.24Zm56.24-85.57l-25.53-26.57h70.73c17.02,0,29.9-3.68,38.64-11.04,8.74-7.36,13.11-17.71,13.11-31.05s-4.37-23.63-13.11-30.88c-8.74-7.25-21.62-10.87-38.64-10.87h-70.73l25.53-26.57v136.97Zm97.64,85.57l-60.72-87.64h60.03l60.72,87.64h-60.03Z"/></g><path class="b" d="M1271.5,1236.27l16.35,28.37h36.22l18.09-31.38-18.09-31.36h-36.22l-16.35,28.34h-135.47l-39.12-67.75,125.05-125.05h55.4l28.61-49.52-28.61-49.54h-57.18l-28.58,49.54,26.1,45.25-126.36,126.36h-81.31l-42.6,73.73,40.44,70.01-130.28,130.28h-52.47l-28.6,49.54,28.6,49.51h57.19l28.56-49.51-27.19-47.08,128.98-128.98h78.75l129.44,129.44-26.91,46.63,28.6,49.51h57.19l28.56-49.51-28.56-49.54h-53.2l-129.58-129.58,39.05-67.7h135.47Zm-61.97-246.79l19.74-34.2h39.49l19.74,34.2-19.74,34.2h-39.49l-19.74-34.2Zm-317.59,495.87l-19.74,34.2h-39.49l-19.74-34.2,19.74-34.2h39.49l19.74,34.2Zm340.57-34.2h39.49l19.74,34.2-19.74,34.2h-39.49l-19.74-34.2,19.74-34.2Zm-146.9-159.8h-64.51l-32.25-55.87,32.25-55.87h64.51l32.25,55.87-32.25,55.87Z"/><g><path class="b" d="M1512.97,1105.47v50.75h-68.9v209.29h-63.34v-209.29h-68.9v-50.75h201.14Z"/><path class="b" d="M1682.55,1218.09c11.39,12.47,17.08,29.6,17.08,51.4v96.02h-50.07v-89.25c0-11-2.85-19.54-8.54-25.63-5.7-6.08-13.36-9.13-22.97-9.13s-17.28,3.05-22.97,9.13c-5.7,6.09-8.54,14.63-8.54,25.63v89.25h-50.37v-217.96h50.37v75.7c5.1-7.26,12.08-13.06,20.91-17.38,8.84-4.32,18.75-6.48,29.75-6.48,18.85,0,33.97,6.24,45.36,18.7Z"/><path class="b" d="M1910.82,1293.05h-113.99c.78,10.21,4.07,18.02,9.87,23.42,5.79,5.4,12.91,8.1,21.35,8.1,12.56,0,21.3-5.3,26.21-15.91h53.61c-2.75,10.8-7.71,20.52-14.87,29.16-7.17,8.64-16.15,15.42-26.95,20.32-10.8,4.91-22.88,7.36-36.23,7.36-16.1,0-30.44-3.43-43-10.31-12.57-6.87-22.39-16.69-29.45-29.45-7.07-12.76-10.6-27.69-10.6-44.77s3.48-32,10.46-44.77c6.97-12.76,16.74-22.58,29.31-29.45,12.56-6.87,27-10.31,43.3-10.31s30.04,3.34,42.41,10.01c12.37,6.68,22.04,16.2,29.01,28.57,6.97,12.37,10.46,26.8,10.46,43.3,0,4.71-.29,9.62-.88,14.73Zm-50.66-27.98c0-8.64-2.95-15.51-8.84-20.62-5.89-5.1-13.25-7.66-22.09-7.66s-15.56,2.46-21.35,7.36c-5.79,4.91-9.38,11.88-10.75,20.91h63.03Z"/><path class="b" d="M2106.54,1218.09c11.49,12.47,17.23,29.6,17.23,51.4v96.02h-50.07v-89.25c0-11-2.85-19.54-8.54-25.63-5.7-6.08-13.36-9.13-22.97-9.13s-17.28,3.05-22.97,9.13c-5.7,6.09-8.54,14.63-8.54,25.63v89.25h-50.37v-164.36h50.37v21.8c5.1-7.26,11.98-13.01,20.62-17.23,8.64-4.22,18.36-6.33,29.16-6.33,19.24,0,34.61,6.24,46.1,18.7Z"/><path class="b" d="M2180.47,1236.2c6.38-12.76,15.07-22.58,26.07-29.45,11-6.87,23.27-10.31,36.82-10.31,11.58,0,21.75,2.36,30.49,7.07,8.74,4.71,15.46,10.9,20.18,18.56v-23.27h50.37v164.36h-50.37v-23.27c-4.91,7.66-11.73,13.84-20.47,18.56-8.74,4.71-18.9,7.07-30.49,7.07-13.35,0-25.53-3.48-36.52-10.46-11-6.97-19.69-16.89-26.07-29.75-6.38-12.86-9.57-27.73-9.57-44.62s3.19-31.71,9.57-44.48Zm103.09,15.02c-6.97-7.26-15.46-10.9-25.48-10.9s-18.51,3.59-25.48,10.75c-6.97,7.17-10.46,17.04-10.46,29.6s3.48,22.53,10.46,29.9c6.97,7.36,15.46,11.04,25.48,11.04s18.51-3.63,25.48-10.9c6.97-7.26,10.46-17.18,10.46-29.75s-3.49-22.48-10.46-29.75Z"/></g><g><rect class="b" x="1334.42" y="1500.45" width="195.72" height="12.25"/><rect class="b" x="2219.54" y="1500.45" width="195.73" height="12.25"/></g></svg>