<?xml version="1.0" encoding="UTF-8"?><svg id="a" xmlns="http://www.w3.org/2000/svg" xmlns:xlink="http://www.w3.org/1999/xlink" viewBox="0 0 2500 2500"><defs><style>.f{filter:url(#b);}.g{fill:#050027;}.h{filter:url(#d);}</style><filter id="b" filterUnits="userSpaceOnUse"><feOffset dx="7" dy="7"/><feGaussianBlur result="c" stdDeviation="5"/><feFlood flood-color="#000" flood-opacity=".75"/><feComposite in2="c" operator="in"/><feComposite in="SourceGraphic"/></filter><filter id="d" filterUnits="userSpaceOnUse"><feOffset dx="7" dy="7"/><feGaussianBlur result="e" stdDeviation="5"/><feFlood flood-color="#000" flood-opacity=".75"/><feComposite in2="e" operator="in"/><feComposite in="SourceGraphic"/></filter></defs><g class="f"><g><path class="g" d="M404.7,1116.83H177c27.16,31.88,61.03,59.47,97.04,86.53-3.29,2.43-6.6,4.87-9.93,7.32-2.31,1.68-4.62,3.39-6.92,5.09-2.81,2.06-5.62,4.14-8.45,6.22-5.57,4.14-11.16,8.28-16.73,12.47-44.85-34.39-87.34-71.38-118.24-117.64-4.34-6.5-8.45-13.17-12.32-20.07-13.9-24.81-24.48-52.25-30.55-83.15-1.3-6.52-2.38-13.22-3.24-20.07-1.68-13.22-2.56-27.06-2.56-41.56h50.16c0,14.6,1.08,28.42,3.14,41.56,1.08,6.87,2.43,13.57,4.04,20.07,7.7,31.38,21.24,58.59,38.85,83.15H420.43c-4.94,6.9-10.18,13.57-15.73,20.07Z"/><path class="g" d="M516.59,1542.11v.03h-50.16v-.03c0-7.85-.3-15.45-.93-22.85-.55-6.87-1.38-13.54-2.43-20.07-3.03-18.71-8.08-36.02-14.77-52.17H133.41c2.86-6.9,6.02-13.57,9.46-20.07H438.83c-9.96-18.81-22.25-36.04-36.27-52.17-5.97-6.87-12.24-13.54-18.79-20.07-22.82-22.72-48.86-43.52-76.1-63.98,3.29-2.43,6.6-4.87,9.93-7.32,2.31-1.68,4.62-3.39,6.92-5.09,2.81-2.06,5.62-4.14,8.45-6.22,5.57-4.14,11.16-8.28,16.73-12.47,37.3,28.62,72.99,59.02,101.73,95.09,5.17,6.5,10.11,13.17,14.8,20.07,11.04,16.15,20.62,33.46,28.39,52.17,2.71,6.5,5.22,13.19,7.45,20.07,5.34,16.3,9.33,33.64,11.79,52.17,.83,6.55,1.51,13.22,1.96,20.07,.5,7.42,.75,15.05,.75,22.85Z"/></g><path class="g" d="M516.59,951.98c0,14.5-.88,28.34-2.56,41.56-.85,6.85-1.93,13.54-3.24,20.07-6.07,30.9-16.65,58.34-30.55,83.15-3.86,6.9-7.98,13.57-12.32,20.07-30.88,46.25-73.39,83.25-118.21,117.64-5.52,4.24-11.09,8.43-16.65,12.59-5.59,4.19-11.21,8.35-16.83,12.49-2.81,2.08-5.64,4.14-8.45,6.22-.68,.5-1.38,1-2.06,1.5-4.97,3.66-9.93,7.3-14.85,10.96h-.03c-5.67,4.14-11.24,8.3-16.81,12.49-27.26,20.49-53.3,41.29-76.1,64.01h185.83c6.55,6.52,12.82,13.19,18.79,20.07H179.16c-14.05,16.13-26.34,33.36-36.29,52.17-3.44,6.5-6.6,13.17-9.46,20.07-6.7,16.15-11.74,33.46-14.77,52.17H463.06c1.05,6.52,1.88,13.19,2.43,20.07H116.2c-.63,7.4-.93,15-.93,22.85v.03h-50.16v-.03c0-7.8,.25-15.43,.75-22.85,.45-6.85,1.13-13.52,1.96-20.07,2.46-18.54,6.45-35.87,11.79-52.17,2.23-6.87,4.74-13.57,7.45-20.07,7.78-18.71,17.36-36.02,28.39-52.17,4.69-6.9,9.63-13.57,14.8-20.07,28.74-36.07,64.44-66.47,101.76-95.09,5.52-4.24,11.09-8.43,16.65-12.59,5.59-4.19,11.21-8.33,16.81-12.49,2.83-2.06,5.64-4.14,8.48-6.22,.68-.5,1.38-1,2.06-1.5,4.97-3.66,9.93-7.3,14.85-10.94h.03c5.64-4.19,11.24-8.35,16.81-12.54,35.99-27.06,69.85-54.65,97.02-86.53,5.54-6.5,10.79-13.17,15.73-20.07,17.61-24.56,31.13-51.77,38.83-83.15H122.45c-1.61-6.5-2.96-13.19-4.04-20.07H463.29c2.06-13.14,3.14-26.96,3.14-41.56h50.16Z"/></g><g class="h"><g><g><path class="g" d="M728.24,1227.87c-17.65,0-34.06-2.89-49.2-8.66-15.15-5.77-28.28-14-39.39-24.68-11.12-10.68-19.78-23.21-25.99-37.6-6.21-14.38-9.32-30.18-9.32-47.4s3.11-33.02,9.32-47.4c6.21-14.38,14.93-26.91,26.15-37.6,11.22-10.68,24.41-18.91,39.56-24.68,15.15-5.77,31.55-8.66,49.2-8.66,19.83,0,37.81,3.43,53.94,10.3,16.13,6.87,29.64,16.95,40.54,30.24l-34.33,31.38c-7.63-8.93-16.3-15.69-25.99-20.27-9.7-4.58-20.22-6.86-31.55-6.86-10.68,0-20.49,1.8-29.42,5.39-8.94,3.6-16.67,8.66-23.21,15.2-6.54,6.54-11.61,14.28-15.2,23.21-3.6,8.94-5.39,18.85-5.39,29.75s1.8,20.82,5.39,29.75c3.6,8.94,8.66,16.67,15.2,23.21s14.27,11.61,23.21,15.2c8.93,3.6,18.74,5.39,29.42,5.39,11.33,0,21.85-2.34,31.55-7.03,9.7-4.68,18.36-11.49,25.99-20.43l34.33,31.38c-10.9,13.3-24.41,23.43-40.54,30.4-16.13,6.97-34.22,10.46-54.27,10.46Z"/><path class="g" d="M860.64,1223.95l101.67-228.84h52.31l102.65,228.84h-55.58l-84.02-202.03h21.25l-84.02,202.03h-54.27Zm51.33-49.04l13.4-40.21h118.34l13.73,40.21h-145.48Z"/><path class="g" d="M1173.82,1223.95v-228.84h99.06c20.48,0,38.14,3.32,52.96,9.97,14.82,6.65,26.26,16.18,34.33,28.61,8.06,12.42,12.1,27.13,12.1,44.13s-4.04,31.99-12.1,44.3c-8.07,12.31-19.51,21.69-34.33,28.11-14.82,6.43-32.48,9.64-52.96,9.64h-69.96l24.19-22.88v86.96h-53.29Zm53.29-81.08l-24.19-25.17h67.02c16.13,0,28.33-3.48,36.61-10.46,8.28-6.97,12.42-16.78,12.42-29.42s-4.14-22.39-12.42-29.26c-8.29-6.86-20.49-10.3-36.61-10.3h-67.02l24.19-25.17v129.78Zm92.52,81.08l-57.54-83.04h56.88l57.54,83.04h-56.88Z"/></g><g><path class="g" d="M1715.66,1002.92v43.9h-59.6v181.05h-54.79v-181.05h-59.6v-43.9h174Z"/><path class="g" d="M1862.36,1100.34c9.85,10.79,14.78,25.61,14.78,44.46v83.06h-43.32v-77.2c0-9.51-2.46-16.9-7.39-22.17-4.93-5.26-11.55-7.9-19.87-7.9s-14.95,2.64-19.87,7.9c-4.93,5.27-7.39,12.66-7.39,22.17v77.2h-43.57v-188.55h43.57v65.48c4.42-6.28,10.45-11.3,18.09-15.03,7.64-3.73,16.22-5.61,25.73-5.61,16.31,0,29.39,5.39,39.24,16.18Z"/><path class="g" d="M2059.83,1165.19h-98.61c.68,8.83,3.52,15.59,8.54,20.26,5.01,4.67,11.17,7.01,18.47,7.01,10.87,0,18.43-4.59,22.68-13.76h46.37c-2.38,9.34-6.67,17.75-12.87,25.23-6.2,7.48-13.97,13.34-23.31,17.58-9.34,4.25-19.79,6.37-31.34,6.37-13.93,0-26.33-2.97-37.2-8.92-10.87-5.94-19.36-14.44-25.48-25.48-6.12-11.04-9.17-23.95-9.17-38.73s3.01-27.69,9.05-38.73c6.03-11.04,14.48-19.53,25.35-25.48,10.87-5.94,23.35-8.92,37.46-8.92s25.99,2.89,36.69,8.66c10.7,5.78,19.07,14.01,25.1,24.72,6.03,10.7,9.05,23.19,9.05,37.46,0,4.08-.25,8.32-.76,12.74Zm-43.83-24.21c0-7.47-2.55-13.42-7.64-17.84-5.1-4.41-11.47-6.62-19.11-6.62s-13.46,2.13-18.47,6.37c-5.01,4.25-8.11,10.28-9.3,18.09h54.53Z"/><path class="g" d="M2229.14,1100.34c9.94,10.79,14.91,25.61,14.91,44.46v83.06h-43.32v-77.2c0-9.51-2.46-16.9-7.39-22.17-4.93-5.26-11.55-7.9-19.87-7.9s-14.95,2.64-19.87,7.9c-4.93,5.27-7.39,12.66-7.39,22.17v77.2h-43.57v-142.18h43.57v18.86c4.41-6.28,10.36-11.25,17.84-14.91,7.47-3.65,15.88-5.48,25.22-5.48,16.65,0,29.94,5.39,39.88,16.18Z"/><path class="g" d="M2293.1,1116.01c5.52-11.04,13.03-19.53,22.55-25.48,9.51-5.94,20.13-8.92,31.85-8.92,10.02,0,18.81,2.04,26.37,6.12,7.56,4.08,13.38,9.43,17.45,16.05v-20.13h43.57v142.18h-43.57v-20.13c-4.25,6.62-10.15,11.98-17.71,16.05-7.56,4.08-16.35,6.12-26.37,6.12-11.55,0-22.08-3.01-31.59-9.05-9.52-6.03-17.03-14.61-22.55-25.74-5.52-11.12-8.28-23.99-8.28-38.6s2.76-27.43,8.28-38.47Zm89.18,12.99c-6.03-6.28-13.38-9.43-22.04-9.43s-16.01,3.1-22.04,9.3c-6.03,6.2-9.05,14.74-9.05,25.61s3.01,19.49,9.05,25.86c6.03,6.37,13.38,9.55,22.04,9.55s16.01-3.14,22.04-9.43c6.03-6.28,9.05-14.86,9.05-25.73s-3.02-19.45-9.05-25.74Z"/></g><rect class="g" x="1408.78" y="1093.94" width="141.29" height="31.18"/></g><g><g><rect class="g" x="781.04" y="1442.08" width="177.55" height="19.94"/><rect class="g" x="2080.64" y="1442.08" width="177.56" height="19.94"/></g><g><g><path class="g" d="M981.56,1356.07v30.33h41.19v125.14h37.87v-125.14h41.19v-30.33h-120.26Z"/><path class="g" d="M1170.92,1441.96c-5.38-5.89-12.51-8.82-21.41-8.82-5.19,0-9.87,1.01-14.04,3.06-4.17,2.04-7.47,4.77-9.87,8.2v-35.73h-23.78v102.89h23.78v-42.12c0-5.19,1.34-9.22,4.03-12.1,2.68-2.87,6.3-4.3,10.84-4.3s8.16,1.43,10.85,4.3c2.68,2.88,4.03,6.91,4.03,12.1v42.12h23.64v-45.32c0-10.3-2.69-18.38-8.07-24.27Z"/><path class="g" d="M1279.09,1470.39c0-7.79-1.65-14.6-4.94-20.44-3.29-5.85-7.85-10.34-13.69-13.49-5.84-3.14-12.51-4.73-20.02-4.73s-14.51,1.63-20.45,4.87c-5.93,3.25-10.54,7.88-13.83,13.91-3.3,6.03-4.94,13.07-4.94,21.13s1.67,15.11,5,21.13c3.34,6.03,7.98,10.65,13.91,13.9,5.93,3.25,12.7,4.87,20.3,4.87,6.3,0,12-1.16,17.09-3.48,5.1-2.32,9.35-5.51,12.73-9.59,3.38-4.08,5.72-8.67,7.02-13.77h-25.3c-2.32,5.01-6.44,7.51-12.37,7.51-3.99,0-7.35-1.27-10.09-3.82-2.73-2.55-4.28-6.23-4.66-11.05h53.81c.28-2.41,.42-4.73,.42-6.95Zm-54.08-6.25c.65-4.26,2.34-7.56,5.07-9.88,2.73-2.31,6.09-3.47,10.08-3.47s7.64,1.2,10.43,3.61c2.78,2.41,4.17,5.65,4.17,9.73h-29.75Z"/><path class="g" d="M1336.23,1436.81c-4.17,2.46-7.64,5.83-10.42,10.09v-12.94h-23.78v77.59h23.78v-36c0-6.4,1.48-10.87,4.45-13.42,2.97-2.55,7.41-3.82,13.35-3.82h6.54v-25.17c-5.1,0-9.73,1.22-13.91,3.68Z"/><path class="g" d="M1425.35,1432.86v10.99c-2.22-3.61-5.4-6.54-9.52-8.76-4.12-2.22-8.92-3.34-14.39-3.34-6.4,0-12.19,1.63-17.38,4.87-5.2,3.25-9.29,7.88-12.31,13.91-3.01,6.03-4.52,13.02-4.52,20.99s1.51,14.99,4.52,21.07c3.02,6.07,7.11,10.74,12.31,14.03,5.19,3.3,10.93,4.94,17.24,4.94,5.46,0,10.26-1.11,14.39-3.33,4.12-2.23,7.34-5.15,9.66-8.76v10.99h23.78v-77.58h-23.78Zm-4.94,52.84c-3.29,3.43-7.3,5.14-12.02,5.14s-8.74-1.73-12.03-5.21c-3.29-3.48-4.94-8.18-4.94-14.12s1.65-10.59,4.94-13.97c3.29-3.38,7.3-5.07,12.03-5.07s8.73,1.72,12.02,5.15c3.29,3.42,4.94,8.11,4.94,14.04s-1.65,10.61-4.94,14.04Z"/><path class="g" d="M1554.17,1451.12c-3.02-6.03-7.11-10.66-12.3-13.91-5.2-3.24-10.99-4.87-17.39-4.87-5.47,0-10.24,1.12-14.32,3.34-4.08,2.22-7.28,5.15-9.6,8.76v-10.99h-23.78v114.56h23.78v-47.82c2.32,3.52,5.53,6.39,9.66,8.63,4.12,2.22,8.88,3.33,14.25,3.33,6.4,0,12.19-1.64,17.39-4.94,5.19-3.29,9.28-7.97,12.3-14.03,3.01-6.08,4.52-13.09,4.52-21.07s-1.51-14.96-4.52-20.99Zm-24.67,35.11c-3.34,3.48-7.37,5.21-12.1,5.21s-8.74-1.71-12.03-5.14c-3.29-3.44-4.93-8.11-4.93-14.04s1.64-10.62,4.93-14.04c3.29-3.43,7.31-5.15,12.03-5.15s8.88,1.69,12.16,5.07c3.29,3.38,4.94,8.04,4.94,13.97s-1.67,10.64-5,14.12Z"/><path class="g" d="M1654.76,1470.39c0-7.79-1.65-14.6-4.94-20.44-3.29-5.85-7.85-10.34-13.69-13.49-5.84-3.14-12.52-4.73-20.03-4.73s-14.5,1.63-20.44,4.87c-5.93,3.25-10.55,7.88-13.84,13.91-3.29,6.03-4.93,13.07-4.93,21.13s1.67,15.11,5,21.13c3.34,6.03,7.97,10.65,13.91,13.9,5.92,3.25,12.7,4.87,20.29,4.87,6.31,0,12.01-1.16,17.1-3.48,5.1-2.32,9.34-5.51,12.73-9.59,3.37-4.08,5.71-8.67,7.02-13.77h-25.3c-2.32,5.01-6.44,7.51-12.37,7.51-3.99,0-7.35-1.27-10.09-3.82-2.74-2.55-4.28-6.23-4.66-11.05h53.81c.28-2.41,.42-4.73,.42-6.95Zm-54.08-6.25c.65-4.26,2.34-7.56,5.07-9.88,2.73-2.31,6.09-3.47,10.08-3.47s7.64,1.2,10.42,3.61c2.79,2.41,4.18,5.65,4.18,9.73h-29.75Z"/><path class="g" d="M1730.53,1433.14v42.12c0,5.19-1.35,9.22-4.04,12.09-2.68,2.88-6.35,4.31-10.97,4.31s-8.17-1.43-10.85-4.31c-2.69-2.87-4.03-6.9-4.03-12.09v-42.12h-23.64v45.32c0,6.77,1.25,12.66,3.76,17.66,2.51,5.01,6.03,8.83,10.57,11.48,4.54,2.64,9.77,3.96,15.71,3.96,5.01,0,9.58-1.04,13.7-3.12,4.12-2.09,7.39-4.85,9.81-8.28v10.57h23.77v-77.57h-23.77Z"/><path class="g" d="M1816.58,1491.38c-2.59,0-4.45-.5-5.56-1.52-1.12-1.02-1.67-2.68-1.67-5v-31.15h15.57v-19.75h-15.57v-18.9h-23.78v18.9h-9.45v19.75h9.45v30.87c0,9.54,2.41,16.43,7.23,20.64,4.82,4.22,11.55,6.33,20.16,6.33h12.09v-20.16h-8.48Z"/><path class="g" d="M1848.7,1433.96v77.59h23.78v-77.59h-23.78Zm22.03-30.09c-2.64-2.45-6-3.69-10.08-3.69s-7.58,1.23-10.22,3.69c-2.64,2.45-3.96,5.53-3.96,9.24s1.32,6.65,3.96,9.11c2.64,2.46,6.05,3.69,10.22,3.69s7.43-1.22,10.08-3.69c2.64-2.45,3.97-5.49,3.97-9.11s-1.33-6.79-3.97-9.24Z"/><path class="g" d="M1933.93,1491.25c-4.36,0-7.83-1.69-10.43-5.07-2.59-3.38-3.89-8.22-3.89-14.52s1.31-11.14,3.89-14.54c2.6-3.38,6.07-5.07,10.43-5.07,6.12,0,10.23,2.98,12.37,8.91h25.3c-2.04-9.27-6.33-16.46-12.86-21.55-6.53-5.1-14.66-7.65-24.39-7.65-7.6,0-14.35,1.63-20.24,4.87-5.88,3.25-10.47,7.88-13.76,13.91-3.29,6.03-4.93,13.07-4.93,21.13s1.64,15.11,4.93,21.13c3.29,6.03,7.88,10.65,13.76,13.9,5.89,3.25,12.63,4.87,20.24,4.87,9.64,0,17.74-2.59,24.33-7.79,6.58-5.19,10.89-12.32,12.93-21.41h-25.3c-2.14,5.93-6.26,8.9-12.37,8.9Z"/><path class="g" d="M2053.43,1475.05c-2.74-3.2-5.91-5.51-9.52-6.95-3.62-1.43-8.3-2.89-14.04-4.38-5.01-1.12-8.69-2.22-11.06-3.34-2.36-1.11-3.54-2.78-3.54-5,0-1.85,.74-3.31,2.22-4.38,1.48-1.07,3.61-1.61,6.39-1.61,3.25,0,5.87,.79,7.86,2.37,1.98,1.58,3.16,3.71,3.54,6.39h21.97c-.84-7.97-4.06-14.37-9.67-19.18-5.61-4.82-13.27-7.24-23-7.24-6.58,0-12.26,1.08-17.03,3.21-4.78,2.13-8.4,5.02-10.85,8.69s-3.69,7.72-3.69,12.17c0,5.28,1.35,9.48,4.04,12.58,2.68,3.1,5.88,5.38,9.59,6.81,3.71,1.44,8.34,2.81,13.91,4.1,5.19,1.29,8.94,2.49,11.26,3.55,2.32,1.07,3.48,2.7,3.48,4.93,0,1.86-.81,3.36-2.43,4.52-1.62,1.16-3.92,1.73-6.88,1.73-3.25,0-5.98-.82-8.21-2.5-2.22-1.67-3.47-3.84-3.75-6.54h-23.49c.37,5,2.08,9.52,5.14,13.55,3.06,4.03,7.24,7.2,12.52,9.52,5.28,2.32,11.31,3.48,18.07,3.48,6.3,0,11.83-1.02,16.61-3.06,4.77-2.04,8.43-4.85,10.99-8.41,2.55-3.57,3.82-7.62,3.82-12.17-.09-5.38-1.51-9.67-4.24-12.86Z"/></g><polygon class="g" points="1101.82 1386.41 1060.63 1386.41 1060.63 1511.55 1022.75 1511.55 1022.75 1386.41 981.56 1386.41 981.56 1356.07 1101.82 1356.07 1101.82 1386.41"/><path class="g" d="M1170.92,1441.96c5.38,5.89,8.07,13.97,8.07,24.27v45.32h-23.64v-42.12c0-5.19-1.35-9.22-4.03-12.1-2.69-2.87-6.31-4.3-10.85-4.3s-8.16,1.43-10.84,4.3c-2.69,2.88-4.03,6.91-4.03,12.1v42.12h-23.78v-102.89h23.78v35.73c2.4-3.42,5.7-6.16,9.87-8.2,4.18-2.05,8.85-3.06,14.04-3.06,8.9,0,16.03,2.93,21.41,8.82Z"/><path class="g" d="M1279.09,1470.39c0-7.79-1.65-14.6-4.94-20.44-3.29-5.85-7.85-10.34-13.69-13.49-5.84-3.14-12.51-4.73-20.02-4.73s-14.51,1.63-20.45,4.87c-5.93,3.25-10.54,7.88-13.83,13.91-3.3,6.03-4.94,13.07-4.94,21.13s1.67,15.11,5,21.13c3.34,6.03,7.98,10.65,13.91,13.9,5.93,3.25,12.7,4.87,20.3,4.87,6.3,0,12-1.16,17.09-3.48,5.1-2.32,9.35-5.51,12.73-9.59,3.38-4.08,5.72-8.67,7.02-13.77h-25.3c-2.32,5.01-6.44,7.51-12.37,7.51-3.99,0-7.35-1.27-10.09-3.82-2.73-2.55-4.28-6.23-4.66-11.05h53.81c.28-2.41,.42-4.73,.42-6.95Zm-54.08-6.25c.65-4.26,2.34-7.56,5.07-9.88,2.73-2.31,6.09-3.47,10.08-3.47s7.64,1.2,10.43,3.61c2.78,2.41,4.17,5.65,4.17,9.73h-29.75Z"/><path class="g" d="M1336.23,1436.81c4.18-2.45,8.81-3.68,13.91-3.68v25.17h-6.54c-5.93,0-10.38,1.27-13.35,3.82-2.97,2.55-4.45,7.02-4.45,13.42v36h-23.78v-77.59h23.78v12.94c2.78-4.26,6.25-7.62,10.42-10.09Z"/><path class="g" d="M1425.35,1432.86v10.99c-2.22-3.61-5.4-6.54-9.52-8.76-4.12-2.22-8.92-3.34-14.39-3.34-6.4,0-12.19,1.63-17.38,4.87-5.2,3.25-9.29,7.88-12.31,13.91-3.01,6.03-4.52,13.02-4.52,20.99s1.51,14.99,4.52,21.07c3.02,6.07,7.11,10.74,12.31,14.03,5.19,3.3,10.93,4.94,17.24,4.94,5.46,0,10.26-1.11,14.39-3.33,4.12-2.23,7.34-5.15,9.66-8.76v10.99h23.78v-77.58h-23.78Zm-4.94,52.84c-3.29,3.43-7.3,5.14-12.02,5.14s-8.74-1.73-12.03-5.21c-3.29-3.48-4.94-8.18-4.94-14.12s1.65-10.59,4.94-13.97c3.29-3.38,7.3-5.07,12.03-5.07s8.73,1.72,12.02,5.15c3.29,3.42,4.94,8.11,4.94,14.04s-1.65,10.61-4.94,14.04Z"/><path class="g" d="M1554.17,1451.12c-3.02-6.03-7.11-10.66-12.3-13.91-5.2-3.24-10.99-4.87-17.39-4.87-5.47,0-10.24,1.12-14.32,3.34-4.08,2.22-7.28,5.15-9.6,8.76v-10.99h-23.78v114.56h23.78v-47.82c2.32,3.52,5.53,6.39,9.66,8.63,4.12,2.22,8.88,3.33,14.25,3.33,6.4,0,12.19-1.64,17.39-4.94,5.19-3.29,9.28-7.97,12.3-14.03,3.01-6.08,4.52-13.09,4.52-21.07s-1.51-14.96-4.52-20.99Zm-24.67,35.11c-3.34,3.48-7.37,5.21-12.1,5.21s-8.74-1.71-12.03-5.14c-3.29-3.44-4.93-8.11-4.93-14.04s1.64-10.62,4.93-14.04c3.29-3.43,7.31-5.15,12.03-5.15s8.88,1.69,12.16,5.07c3.29,3.38,4.94,8.04,4.94,13.97s-1.67,10.64-5,14.12Z"/><path class="g" d="M1654.76,1470.39c0-7.79-1.65-14.6-4.94-20.44-3.29-5.85-7.85-10.34-13.69-13.49-5.84-3.14-12.52-4.73-20.03-4.73s-14.5,1.63-20.44,4.87c-5.93,3.25-10.55,7.88-13.84,13.91-3.29,6.03-4.93,13.07-4.93,21.13s1.67,15.11,5,21.13c3.34,6.03,7.97,10.65,13.91,13.9,5.92,3.25,12.7,4.87,20.29,4.87,6.31,0,12.01-1.16,17.1-3.48,5.1-2.32,9.34-5.51,12.73-9.59,3.37-4.08,5.71-8.67,7.02-13.77h-25.3c-2.32,5.01-6.44,7.51-12.37,7.51-3.99,0-7.35-1.27-10.09-3.82-2.74-2.55-4.28-6.23-4.66-11.05h53.81c.28-2.41,.42-4.73,.42-6.95Zm-54.08-6.25c.65-4.26,2.34-7.56,5.07-9.88,2.73-2.31,6.09-3.47,10.08-3.47s7.64,1.2,10.42,3.61c2.79,2.41,4.18,5.65,4.18,9.73h-29.75Z"/><path class="g" d="M1730.53,1433.14h23.77v77.57h-23.77v-10.57c-2.41,3.44-5.68,6.19-9.81,8.28-4.12,2.08-8.69,3.12-13.7,3.12-5.93,0-11.16-1.32-15.71-3.96-4.54-2.64-8.06-6.46-10.57-11.48-2.51-5-3.76-10.89-3.76-17.66v-45.32h23.64v42.12c0,5.19,1.34,9.22,4.03,12.09,2.68,2.88,6.3,4.31,10.85,4.31s8.29-1.43,10.97-4.31c2.69-2.87,4.04-6.9,4.04-12.09v-42.12Z"/><path class="g" d="M1816.58,1491.38h8.48v20.16h-12.09c-8.61,0-15.34-2.11-20.16-6.33-4.81-4.22-7.23-11.1-7.23-20.64v-30.87h-9.45v-19.75h9.45v-18.9h23.78v18.9h15.57v19.75h-15.57v31.15c0,2.32,.55,3.98,1.67,5,1.11,1.02,2.97,1.52,5.56,1.52Z"/><rect class="g" x="1848.7" y="1433.96" width="23.78" height="77.59"/><path class="g" d="M1870.74,1403.87c2.64,2.45,3.97,5.53,3.97,9.24s-1.33,6.65-3.97,9.11c-2.64,2.46-6,3.69-10.08,3.69s-7.58-1.22-10.22-3.69c-2.64-2.45-3.96-5.49-3.96-9.11s1.32-6.79,3.96-9.24c2.64-2.45,6.05-3.69,10.22-3.69s7.43,1.23,10.08,3.69Z"/><path class="g" d="M1923.5,1457.11c-2.59,3.39-3.89,8.23-3.89,14.54s1.31,11.14,3.89,14.52c2.6,3.38,6.07,5.07,10.43,5.07,6.12,0,10.23-2.97,12.37-8.9h25.3c-2.04,9.08-6.35,16.22-12.93,21.41-6.59,5.2-14.69,7.79-24.33,7.79-7.6,0-14.35-1.62-20.24-4.87-5.88-3.25-10.47-7.87-13.76-13.9-3.29-6.03-4.93-13.07-4.93-21.13s1.64-15.11,4.93-21.13c3.29-6.03,7.88-10.66,13.76-13.91,5.89-3.24,12.63-4.87,20.24-4.87,9.73,0,17.87,2.56,24.39,7.65,6.54,5.1,10.83,12.28,12.86,21.55h-25.3c-2.14-5.93-6.26-8.91-12.37-8.91-4.36,0-7.83,1.69-10.43,5.07Z"/><path class="g" d="M2053.43,1475.05c2.73,3.2,4.15,7.49,4.24,12.86,0,4.54-1.27,8.59-3.82,12.17-2.56,3.56-6.21,6.37-10.99,8.41-4.78,2.04-10.32,3.06-16.61,3.06-6.77,0-12.79-1.16-18.07-3.48-5.28-2.32-9.46-5.49-12.52-9.52-3.06-4.03-4.77-8.55-5.14-13.55h23.49c.28,2.69,1.52,4.87,3.75,6.54,2.22,1.67,4.96,2.5,8.21,2.5,2.97,0,5.26-.57,6.88-1.73,1.62-1.16,2.43-2.66,2.43-4.52,0-2.22-1.16-3.86-3.48-4.93-2.32-1.07-6.07-2.26-11.26-3.55-5.57-1.29-10.2-2.66-13.91-4.1-3.71-1.43-6.9-3.71-9.59-6.81-2.69-3.1-4.04-7.3-4.04-12.58,0-4.45,1.23-8.5,3.69-12.17s6.07-6.56,10.85-8.69c4.77-2.13,10.45-3.21,17.03-3.21,9.73,0,17.4,2.41,23,7.24,5.61,4.81,8.83,11.21,9.67,19.18h-21.97c-.38-2.68-1.56-4.81-3.54-6.39-1.99-1.58-4.62-2.37-7.86-2.37-2.78,0-4.91,.54-6.39,1.61-1.48,1.07-2.22,2.53-2.22,4.38,0,2.22,1.18,3.89,3.54,5,2.37,1.12,6.05,2.22,11.06,3.34,5.74,1.48,10.42,2.94,14.04,4.38,3.61,1.44,6.79,3.76,9.52,6.95Z"/></g><g><rect class="g" x="781.05" y="1442.08" width="177.52" height="19.94"/><rect class="g" x="2080.66" y="1442.08" width="177.52" height="19.94"/></g></g></g></svg>