<?xml version="1.0" encoding="UTF-8"?><svg id="a" xmlns="http://www.w3.org/2000/svg" xmlns:xlink="http://www.w3.org/1999/xlink" viewBox="0 0 2500 2500"><defs><style>.d{filter:url(#b);}.e{fill:#000045;}</style><filter id="b" filterUnits="userSpaceOnUse"><feOffset dx="7" dy="7"/><feGaussianBlur result="c" stdDeviation="5"/><feFlood flood-color="#000" flood-opacity=".82"/><feComposite in2="c" operator="in"/><feComposite in="SourceGraphic"/></filter></defs><g class="d"><path class="e" d="M1806.54,1266.46l-.03,.33"/><path class="e" d="M2129.64,1541.2h-368.53c-216.9,0-307.73-.11-345.63-1.79,23.13-53.51,41.69-108.45,48.78-167,22.3-31.85,51.27-76.95,54.21-84.62,12.96,1.27,27.84,1.99,45.02,2.2,42.95,.54,49.01-.35,72.88-10.71,46.12-20.02,78.56-36.28,100.96-51.36,16.45-11.08,27.49-21.53,34.54-32.34,3.6-5.48,6.15-11.05,7.89-16.84,4.66-15.54,4.06-17.73-15.15-55.56-11.01-21.66-27.01-50.23-35.54-63.49-4.99-7.74-14-19.44-24.85-32.63-30.61-37.23-75.93-86.46-87.38-93.23-6.23-3.68-32.15-11.19-57.61-16.69-57.16-12.33-62.79-10.4-81.27,28.01-10.44,21.74-10.13,23.55,5.23,30.11,7.27,3.11,15.97,7.86,19.33,10.55,3.35,2.68,14.86,7.26,25.57,10.15,18.18,4.9,20.09,4.68,28.74-3.46,5.1-4.79,14.18-8.7,20.2-8.7,7.57,0,11.01-2.19,11.25-7.12,.25-5.66,.79-5.88,2.63-1.01,1.27,3.35,7.29,11.82,13.36,18.82,7.05,8.12,13.69,23.58,18.35,42.73,9.33,38.29,28.88,96.45,34.83,103.62,2.82,3.4-6.48,1.44-24.08-5.06-31.87-11.77-50.19-11.02-66.48,2.7l-18.41,13.09c-32.15-10.1-88.42-11.87-115.29-2.94-13.92,4.63-30.45,7.06-32.81,10.98-.05,.08-.08,.18-.1,.26-4.99-3.82-11.12-8.24-17.65-12.65-41.42-27.97-44.42-33.34-40.87-73.49,2.73-30.73,2.34-36.89,14.71-39.97,17.79-4.42,20.39-38.83,19.51-48.4-.33-3.67-2.8-5.63-7.02-5.63-6.77,0-7.96-4.13-9.84-34.3-3.57-57.24-18.38-76.71-64.38-84.58-23.48-4.01-28.12-3.61-45.23,3.96-27.07,11.99-47.02,42.64-50.7,77.93-.09,.78-.17,1.55-.25,2.29-2.1,18.89-1.05,31.53-7.09,33.12-6.88,1.79-6.7,4.48-7.55,22.33-.65,13.42,9.62,24.05,17.17,29.2,8.52,5.8,7.11,24.29,6.35,30.74-1.91,16.26-4.9,27.74-31.81,40.97,0-5.13-36.17-37.02-63.46-57.45l1.04,.34,2.79-29.31c0-9.82-1.82-27.42-4.03-39.11-2.65-13.97-12.32-38.86-21.56-58.17-7.89-16.51-15.49-28.94-18.16-27.06,1.45-2.71,2.01-4.47,1.11-4.47-1.38,0,3.97-11.61,11.9-25.8,7.47-13.35,16.93-38.32,24.06-63.07-.2,.03-.37,.06-.52,.08,.32-.2,.63-.51,.81-.98,1.1-2.75,1.48-9.52,5.09-19.03,6.22-22.92,13.08-45.4,16.16-52.79,1.5-3.58,2.96-7.03,4.39-10.35,16.94-39.4,29.57-61.41,43.95-76.63,1.8,.83,4.26,1.23,7.46,1.23,6.03,0,15.12,3.91,20.22,8.7,8.64,8.13,10.56,8.36,28.74,3.45,10.71-2.88,22.21-7.46,25.57-10.14,3.35-2.7,12.05-7.44,19.32-10.55,15.36-6.56,15.67-8.37,5.23-30.11-18.2-37.85-23.94-40.28-78.82-28.53-.8,.17-1.63,.34-2.45,.52-23.22,5.01-46.83,11.71-55.52,15.63-.83,.38-1.54,.74-2.08,1.06-8.85,5.22-37.98,35.87-64.89,66.72-20.21,23.16-39.17,46.43-47.35,59.14-8.53,13.26-24.52,41.83-35.53,63.49-19.22,37.82-17.61,39.27-19.52,55.39-.5,4.15-.69,9.67-.35,15.45-3.26,24.14,4.1,45.76,3.31,93.93-2.33,141.67,8.15,204.9,43.02,246.59h-.04c-.35,0-.75,2.51-1.09,6.66-.59,7.06-1.04,18.84-1,30.96,.02,6.71,.2,13.5,.6,19.67,3.32,51.51,14.17,87.39,32.27,106.79,7.09,7.61,10.34,12.36,7.21,10.57-4.7-2.7-5.19,.4-2.87,17.9,3.98,30.09,25.11,109.52,34.79,130.87,4.5,9.92,8.22,20.33,8.27,23.13,.08,4.03-76.21,5.09-368.12,5.09H370.36v29.9c11.72,1.46,404.46,2.19,881.6,1.63l136.93-.16,740.75-.86"/><g><g><path class="e" d="M372.38,1767.67v-159.6h81.17c21.13,0,36.86,3.88,47.2,11.63,10.33,7.75,15.5,17.78,15.5,30.1,0,8.21-2.13,15.43-6.38,21.66-4.26,6.23-10.34,11.1-18.24,14.59-7.91,3.5-17.18,5.24-27.82,5.24l4.33-10.94c11.09,0,20.86,1.71,29.3,5.13s14.97,8.4,19.61,14.93c4.63,6.54,6.95,14.36,6.95,23.48,0,13.68-5.59,24.4-16.76,32.15-11.17,7.75-27.55,11.63-49.13,11.63h-85.73Zm44.46-32.6h37.85c7.9,0,13.83-1.33,17.78-3.99,3.95-2.66,5.93-6.73,5.93-12.2s-1.98-9.54-5.93-12.2c-3.95-2.66-9.88-3.99-17.78-3.99h-41.04v-31.24h34.2c7.6,0,13.3-1.29,17.1-3.88,3.8-2.58,5.7-6.38,5.7-11.4,0-5.32-1.9-9.23-5.7-11.74-3.8-2.51-9.5-3.76-17.1-3.76h-31.01v94.39Z"/><path class="e" d="M627.74,1770.86c-12.62,0-24.36-2.05-35.23-6.16-10.87-4.1-20.26-9.92-28.16-17.44-7.91-7.52-14.1-16.34-18.58-26.45-4.49-10.11-6.73-21.17-6.73-33.17s2.24-22.8,6.73-32.83c4.48-10.03,10.68-18.81,18.58-26.33,7.9-7.52,17.25-13.34,28.04-17.44,10.79-4.1,22.57-6.16,35.34-6.16s24.55,2.05,35.34,6.16c10.79,4.1,20.14,9.88,28.04,17.33,7.9,7.45,14.1,16.19,18.58,26.22,4.48,10.03,6.73,21.05,6.73,33.06s-2.21,23.29-6.61,33.4c-4.41,10.11-10.6,18.89-18.58,26.33-7.98,7.45-17.37,13.22-28.16,17.33-10.79,4.1-22.57,6.16-35.34,6.16Zm0-37.39c6.08,0,11.74-1.06,16.99-3.19,5.24-2.13,9.8-5.2,13.68-9.23,3.88-4.03,6.92-8.81,9.12-14.36,2.2-5.55,3.31-11.82,3.31-18.81s-1.1-13.26-3.31-18.81c-2.21-5.55-5.24-10.33-9.12-14.36-3.88-4.03-8.44-7.1-13.68-9.23-5.24-2.13-10.91-3.19-16.99-3.19s-11.74,1.06-16.99,3.19c-5.24,2.13-9.84,5.21-13.79,9.23-3.95,4.03-6.99,8.82-9.12,14.36-2.13,5.55-3.19,11.82-3.19,18.81s1.06,13.26,3.19,18.81c2.13,5.55,5.17,10.34,9.12,14.36,3.95,4.03,8.55,7.11,13.79,9.23,5.24,2.13,10.9,3.19,16.99,3.19Z"/><path class="e" d="M740.37,1767.67v-159.6h75.47c17.48,0,32.91,3.27,46.28,9.8,13.37,6.54,23.83,15.73,31.35,27.59s11.29,25.92,11.29,42.18-3.76,30.59-11.29,42.52c-7.52,11.93-17.98,21.17-31.35,27.7-13.38,6.54-28.81,9.8-46.28,9.8h-75.47Zm45.14-36.02h28.04c9.27,0,17.29-1.75,24.05-5.24,6.76-3.49,12.04-8.55,15.85-15.16,3.8-6.61,5.7-14.4,5.7-23.37s-1.9-17.14-5.7-23.6c-3.8-6.46-9.08-11.44-15.85-14.93-6.77-3.49-14.78-5.24-24.05-5.24h-28.04v87.55Z"/><path class="e" d="M968.82,1767.67v-67.49l10.49,27.13-71.59-119.24h47.88l51.3,86.41h-27.36l51.76-86.41h43.78l-70.91,119.24,9.8-27.13v67.49h-45.14Z"/><path class="e" d="M1081.45,1719.33v-33.52h66.58v33.52h-66.58Z"/><path class="e" d="M1220.3,1767.67h-45.14v-159.6h124.94v35.11h-79.8v124.49Zm-3.42-89.6h73.64v34.88h-73.64v-34.88Z"/><path class="e" d="M1321.3,1767.67v-159.6h45.14v159.6h-45.14Z"/><path class="e" d="M1432.34,1767.67v-123.8h-49.02v-35.8h142.96v35.8h-48.79v123.8h-45.14Z"/><path class="e" d="M1689.29,1770.86c-12.77,0-24.47-2.02-35.11-6.04-10.64-4.03-19.92-9.73-27.82-17.1-7.91-7.37-14.06-16.15-18.47-26.33-4.41-10.18-6.61-21.35-6.61-33.52s2.2-23.33,6.61-33.52c4.41-10.18,10.6-18.96,18.58-26.33,7.98-7.37,17.36-13.07,28.16-17.1,10.79-4.03,22.72-6.04,35.8-6.04,14.89,0,28.27,2.51,40.13,7.52,11.86,5.02,21.66,12.24,29.41,21.66l-28.73,25.99c-5.47-6.08-11.36-10.56-17.67-13.45-6.31-2.89-13.34-4.33-21.09-4.33-6.84,0-13.07,1.06-18.7,3.19-5.62,2.13-10.41,5.21-14.36,9.23-3.95,4.03-7.03,8.86-9.23,14.48-2.21,5.63-3.31,11.86-3.31,18.7s1.1,12.85,3.31,18.47c2.2,5.62,5.28,10.45,9.23,14.48,3.95,4.03,8.7,7.15,14.25,9.35,5.55,2.21,11.66,3.31,18.35,3.31s13.22-1.1,19.61-3.31c6.38-2.2,12.84-5.96,19.38-11.29l25.31,31.69c-9.27,6.54-19.88,11.55-31.81,15.05-11.93,3.49-23.68,5.24-35.23,5.24Zm26.9-25.99v-60.42h40.13v66.12l-40.13-5.7Z"/><path class="e" d="M1825.4,1767.67v-67.49l10.49,27.13-71.59-119.24h47.88l51.3,86.41h-27.36l51.76-86.41h43.78l-70.91,119.24,9.8-27.13v67.49h-45.14Z"/><path class="e" d="M1943.28,1767.67v-159.6h37.16l65.89,108.53h-19.61l64.52-108.53h37.16l.23,159.6h-41.5l-.46-96.44h7.07l-48.11,80.71h-20.06l-49.48-80.71h8.66v96.44h-41.5Z"/></g><g><path class="e" d="M863.51,1908.74v-72.7h-28.67v-16.9h78.08v16.9h-28.67v72.7h-20.74Z"/><path class="e" d="M943.89,1909.77c-5.29,0-9.86-.92-13.7-2.75s-6.81-4.33-8.9-7.49c-2.09-3.16-3.14-6.7-3.14-10.62s1-7.57,3.01-10.69c2-3.11,5.18-5.52,9.54-7.23,4.35-1.71,10.07-2.56,17.15-2.56h18.18v11.52h-16.13c-4.69,0-7.92,.77-9.66,2.3-1.75,1.54-2.62,3.46-2.62,5.76,0,2.56,1,4.59,3.01,6.08,2,1.49,4.71,2.24,8.13,2.24s6.46-.77,9.15-2.3,4.59-3.88,5.7-7.04l3.07,9.34c-1.45,4.27-4.1,7.57-7.94,9.92-3.84,2.35-8.79,3.52-14.85,3.52Zm20.99-1.02v-13.44l-1.28-2.94v-24.06c0-4.27-1.3-7.59-3.9-9.98-2.6-2.39-6.59-3.58-11.97-3.58-3.67,0-7.28,.58-10.82,1.73-3.54,1.15-6.59,2.71-9.15,4.67l-7.04-13.95c3.75-2.73,8.28-4.8,13.57-6.21,5.29-1.41,10.67-2.11,16.13-2.11,10.5,0,18.64,2.48,24.45,7.42,5.8,4.95,8.7,12.67,8.7,23.17v39.3h-18.69Z"/><path class="e" d="M1030.8,1905.41c-6.23,0-11.95-1.39-17.15-4.16-5.21-2.77-9.34-6.66-12.42-11.65-3.07-4.99-4.61-10.82-4.61-17.47s1.54-12.61,4.61-17.6c3.07-4.99,7.21-8.85,12.42-11.58,5.2-2.73,10.92-4.1,17.15-4.1s11.16,1.17,15.55,3.52c4.39,2.35,7.83,6,10.3,10.94,2.47,4.95,3.71,11.22,3.71,18.82s-1.24,13.85-3.71,18.75c-2.48,4.91-5.91,8.56-10.3,10.94-4.4,2.39-9.58,3.58-15.55,3.58Zm3.2,29.18c-6.49,0-12.74-.79-18.75-2.37-6.02-1.58-11.03-3.95-15.04-7.1l7.94-14.46c2.99,2.47,6.68,4.42,11.07,5.82,4.39,1.41,8.85,2.11,13.38,2.11,7,0,12.12-1.58,15.36-4.74,3.24-3.16,4.86-7.85,4.86-14.08v-10.24l1.28-17.41-.38-17.54v-14.72h18.94v57.34c0,12.71-3.33,22.12-9.98,28.22-6.66,6.1-16.21,9.15-28.67,9.15Zm.9-45.44c3.5,0,6.61-.72,9.34-2.18,2.73-1.45,4.86-3.46,6.4-6.02,1.54-2.56,2.3-5.5,2.3-8.83s-.77-6.38-2.3-8.9c-1.54-2.52-3.67-4.46-6.4-5.82-2.73-1.36-5.85-2.05-9.34-2.05s-6.51,.68-9.28,2.05c-2.77,1.37-4.95,3.31-6.53,5.82-1.58,2.52-2.37,5.48-2.37,8.9s.79,6.27,2.37,8.83c1.58,2.56,3.75,4.57,6.53,6.02,2.77,1.45,5.87,2.18,9.28,2.18Z"/><path class="e" d="M1091.09,1908.74v-94.98h19.97v94.98h-19.97Z"/><path class="e" d="M1139.6,1830.28c-3.76,0-6.78-1.07-9.09-3.2-2.3-2.13-3.46-4.78-3.46-7.94s1.15-5.8,3.46-7.94c2.3-2.13,5.33-3.2,9.09-3.2s6.68,1,9.02,3.01c2.35,2.01,3.52,4.59,3.52,7.74,0,3.33-1.15,6.08-3.46,8.26-2.3,2.18-5.33,3.26-9.09,3.26Zm-9.98,78.46v-68.86h19.97v68.86h-19.97Z"/><path class="e" d="M1210,1838.85c5.46,0,10.35,1.09,14.66,3.26,4.31,2.18,7.7,5.5,10.18,9.98,2.47,4.48,3.71,10.22,3.71,17.22v39.42h-19.97v-36.35c0-5.55-1.22-9.64-3.65-12.29-2.43-2.64-5.87-3.97-10.3-3.97-3.16,0-6,.68-8.51,2.05-2.52,1.37-4.48,3.37-5.89,6.02-1.41,2.65-2.11,6.14-2.11,10.5v34.05h-19.97v-68.86h19.07v19.07l-3.58-5.76c2.47-4.61,6.02-8.15,10.62-10.62,4.61-2.47,9.86-3.71,15.74-3.71Z"/><path class="e" d="M1290.64,1909.77c-7.85,0-14.72-1.54-20.61-4.61-5.89-3.07-10.45-7.27-13.7-12.61-3.24-5.33-4.86-11.41-4.86-18.24s1.56-12.93,4.67-18.3c3.11-5.38,7.47-9.58,13.06-12.61,5.59-3.03,11.88-4.54,18.88-4.54s12.82,1.45,18.24,4.35c5.42,2.9,9.71,7,12.86,12.29,3.16,5.29,4.74,11.65,4.74,19.07,0,.77-.04,1.64-.13,2.62-.09,.98-.17,1.9-.26,2.75h-55.94v-11.65h45.44l-7.81,3.46c.08-3.58-.6-6.7-2.05-9.34-1.45-2.64-3.46-4.71-6.02-6.21-2.56-1.49-5.55-2.24-8.96-2.24s-6.42,.75-9.02,2.24c-2.6,1.49-4.63,3.58-6.08,6.27-1.45,2.69-2.18,5.87-2.18,9.54v3.07c0,3.84,.85,7.17,2.56,9.98,1.71,2.82,4.05,4.97,7.04,6.46,2.99,1.49,6.57,2.24,10.75,2.24,3.58,0,6.76-.55,9.54-1.66,2.77-1.11,5.31-2.77,7.62-4.99l10.62,11.52c-3.16,3.58-7.13,6.34-11.9,8.26-4.78,1.92-10.28,2.88-16.51,2.88Z"/><path class="e" d="M1415.31,1838.85c5.46,0,10.35,1.09,14.66,3.26,4.31,2.18,7.7,5.5,10.18,9.98,2.47,4.48,3.71,10.22,3.71,17.22v39.42h-19.97v-36.35c0-5.55-1.22-9.64-3.65-12.29-2.43-2.64-5.87-3.97-10.3-3.97-3.16,0-6,.68-8.51,2.05-2.52,1.37-4.48,3.37-5.89,6.02-1.41,2.65-2.11,6.14-2.11,10.5v34.05h-19.97v-94.98h19.97v45.18l-4.48-5.76c2.47-4.61,6.02-8.15,10.62-10.62,4.61-2.47,9.86-3.71,15.74-3.71Z"/><path class="e" d="M1495.95,1909.77c-7.85,0-14.72-1.54-20.61-4.61-5.89-3.07-10.45-7.27-13.7-12.61-3.24-5.33-4.86-11.41-4.86-18.24s1.56-12.93,4.67-18.3c3.11-5.38,7.47-9.58,13.06-12.61,5.59-3.03,11.88-4.54,18.88-4.54s12.82,1.45,18.24,4.35c5.42,2.9,9.71,7,12.86,12.29,3.16,5.29,4.74,11.65,4.74,19.07,0,.77-.04,1.64-.13,2.62-.09,.98-.17,1.9-.26,2.75h-55.94v-11.65h45.44l-7.81,3.46c.08-3.58-.6-6.7-2.05-9.34-1.45-2.64-3.46-4.71-6.02-6.21-2.56-1.49-5.55-2.24-8.96-2.24s-6.42,.75-9.02,2.24c-2.6,1.49-4.63,3.58-6.08,6.27-1.45,2.69-2.18,5.87-2.18,9.54v3.07c0,3.84,.85,7.17,2.56,9.98,1.71,2.82,4.05,4.97,7.04,6.46,2.99,1.49,6.57,2.24,10.75,2.24,3.58,0,6.76-.55,9.54-1.66,2.77-1.11,5.31-2.77,7.62-4.99l10.62,11.52c-3.16,3.58-7.13,6.34-11.9,8.26-4.78,1.92-10.28,2.88-16.51,2.88Z"/><path class="e" d="M1542.54,1908.74v-68.86h19.07v19.58l-2.69-5.76c2.05-4.86,5.33-8.55,9.86-11.07,4.52-2.52,10.03-3.78,16.51-3.78v18.56c-.77-.17-1.52-.3-2.24-.38-.73-.08-1.43-.13-2.11-.13-5.63,0-10.11,1.58-13.44,4.74-3.33,3.16-4.99,8.02-4.99,14.59v32.51h-19.97Z"/><path class="e" d="M1631.88,1909.77c-7.85,0-14.72-1.54-20.61-4.61-5.89-3.07-10.45-7.27-13.7-12.61-3.24-5.33-4.86-11.41-4.86-18.24s1.56-12.93,4.67-18.3c3.11-5.38,7.47-9.58,13.06-12.61,5.59-3.03,11.88-4.54,18.88-4.54s12.82,1.45,18.24,4.35c5.42,2.9,9.71,7,12.86,12.29,3.16,5.29,4.74,11.65,4.74,19.07,0,.77-.04,1.64-.13,2.62-.09,.98-.17,1.9-.26,2.75h-55.94v-11.65h45.44l-7.81,3.46c.08-3.58-.6-6.7-2.05-9.34-1.45-2.64-3.46-4.71-6.02-6.21-2.56-1.49-5.55-2.24-8.96-2.24s-6.42,.75-9.02,2.24c-2.6,1.49-4.63,3.58-6.08,6.27-1.45,2.69-2.18,5.87-2.18,9.54v3.07c0,3.84,.85,7.17,2.56,9.98,1.71,2.82,4.05,4.97,7.04,6.46,2.99,1.49,6.57,2.24,10.75,2.24,3.58,0,6.76-.55,9.54-1.66,2.77-1.11,5.31-2.77,7.62-4.99l10.62,11.52c-3.16,3.58-7.13,6.34-11.9,8.26-4.78,1.92-10.28,2.88-16.51,2.88Z"/></g></g></g></svg>