<?xml version="1.0" encoding="UTF-8"?><svg id="a" xmlns="http://www.w3.org/2000/svg" xmlns:xlink="http://www.w3.org/1999/xlink" viewBox="0 0 2500 2500"><defs><style>.f{filter:url(#b);}.g{filter:url(#d);}.h{fill:#00043e;}</style><filter id="b" filterUnits="userSpaceOnUse"><feOffset dx="7" dy="7"/><feGaussianBlur result="c" stdDeviation="5"/><feFlood flood-color="#000" flood-opacity=".82"/><feComposite in2="c" operator="in"/><feComposite in="SourceGraphic"/></filter><filter id="d" filterUnits="userSpaceOnUse"><feOffset dx="7" dy="7"/><feGaussianBlur result="e" stdDeviation="5"/><feFlood flood-color="#000" flood-opacity=".82"/><feComposite in2="e" operator="in"/><feComposite in="SourceGraphic"/></filter></defs><g class="f"><g><g><g><rect class="h" x="766.51" y="1594.23" width="322.01" height="34.96"/><rect class="h" x="1417.77" y="1590.75" width="322.01" height="34.96"/></g><g><g><g><path class="h" d="M1861.96,1044.81s0,.04,0,.06c-.52,8.6-1.24,17.19-2.15,25.76l-5.32,50.33c0,14.13-14.55,25.58-32.5,25.58s-32.5-11.46-32.5-25.58l5.33-50.33c5.42-51.3,4.06-102.9-4.08-153.97l-5.63-35.33h-.01l-2.44-15.32c0-7.24,3.81-13.77,9.95-18.41,5.85-4.44,13.79-7.18,22.55-7.18s17.1,2.87,22.98,7.5c5.88,4.63,9.52,11.02,9.52,18.09l8.08,50.66c2.01,12.59,3.6,25.21,4.78,37.85,2.81,30.04,3.29,60.2,1.44,90.3Z"/><path class="h" d="M1938.19,1070.63l-5.33,50.33c0,6.96-3.52,13.27-9.26,17.88-5.89,4.75-14.13,7.7-23.23,7.7-6.09,0-11.8-1.32-16.68-3.62-9.47-4.47-15.82-12.63-15.82-21.96l4.17-39.33,1.16-10.99c2.95-27.88,3.89-55.83,2.84-83.75-.89-23.46-3.2-46.89-6.91-70.21l-8.07-50.66c0-13.92,14.1-25.24,31.67-25.58,.27-.01,.54-.01,.82-.01,8.97,0,17.1,2.87,22.98,7.5,5.88,4.63,9.52,11.02,9.52,18.09l8.08,50.66c.11,.68,.21,1.35,.31,2.03,.01,.01,.01,.02,.01,.03,7.84,50.39,9.11,101.29,3.76,151.91Z"/><path class="h" d="M2069.3,1020.3l-5.33,17.5c0,4.91-14.55,8.9-32.5,8.9-7.36,0-14.14-.66-19.59-1.8l-4.29,24.01c0,6.26-8.14,11.63-19.77,13.94-3.91,.78-8.21,1.21-12.73,1.21-17.95,0-32.5-6.78-32.5-15.15l5.32-29.78c5.43-30.35,4.07-60.88-4.08-91.11l-5.64-20.96-.02-.07-2.4-8.94c0-8.37,14.55-15.15,32.5-15.15,8.97,0,17.1,1.7,22.98,4.43,5.88,2.75,9.52,6.53,9.52,10.71l6.36,23.62c5.05-.89,11.07-1.41,17.52-1.41,8.97,0,17.1,1,22.98,2.6,5.88,1.62,9.52,3.83,9.52,6.29l8.08,17.62c8.13,17.75,9.51,35.69,4.08,53.53Z"/></g><g><path class="h" d="M770.51,1070.63l5.32,50.33c0,14.13-14.55,25.58-32.5,25.58s-32.5-11.46-32.5-25.58l-5.32-50.33c-5.43-51.3-4.07-102.9,4.08-153.97l5.68-35.72v-.02l2.38-14.91c0-7.07,3.63-13.46,9.52-18.09,4.49-3.53,10.27-6.04,16.75-7.02,2.02-.31,4.1-.48,6.23-.48,17.95,0,32.5,11.46,32.5,25.59l-8.08,50.66c-8.13,51.07-9.5,102.67-4.07,153.97Z"/><path class="h" d="M692.13,1070.63l5.33,50.33c0,14.13-14.55,25.58-32.5,25.58s-32.5-11.46-32.5-25.58l-4.22-39.88-1.11-10.45c-2.96-28.04-3.9-56.16-2.81-84.25,0,0,.01,0,.01-.01,.9-23.29,3.19-46.56,6.88-69.7l8.08-50.66c0-7.07,3.63-13.46,9.52-18.09,5.88-4.63,14-7.5,22.98-7.5,13.21,0,24.59,6.22,29.66,15.15,1.83,3.19,2.84,6.73,2.84,10.45l-7.01,43.98-1.06,6.68c-8.13,51.07-9.51,102.67-4.08,153.97Z"/><path class="h" d="M617.39,1039.12l5.33,29.78c0,8.37-14.55,15.15-32.5,15.15-.34,0-.68,0-1.01-.01-17.48-.24-31.49-6.92-31.49-15.14l-4.3-24.01c-5.45,1.13-12.23,1.8-19.59,1.8-4.66,0-9.1-.27-13.11-.75-11.42-1.38-19.39-4.51-19.39-8.14l-5.32-17.5c-5.43-17.84-4.07-35.78,4.08-53.53l8.07-17.62c0-2.46,3.63-4.68,9.52-6.29,5.88-1.61,14-2.6,22.98-2.6,5.47,0,10.61,.38,15.14,1.03,.82,.11,1.62,.24,2.39,.38l4.22-15.68,2.14-7.94c0-3.08,1.97-5.94,5.35-8.32,1.22-.88,2.61-1.67,4.17-2.39,5.88-2.74,14.01-4.43,22.98-4.43,17.94,0,32.5,6.78,32.5,15.15l-8.08,29.97c-5.53,20.56-7.93,41.28-7.2,61.98v.04c.34,9.71,1.38,19.4,3.12,29.08Z"/></g></g><path class="h" d="M1150.99,2108.12c17.89,2.52,34.25,4.25,47.74,4.93,10.7,.53,24.99,.68,40.81,.51-29.9-.34-59.44-2.18-88.55-5.44Zm109.6,5.44c15.82,.17,30.1,.02,40.81-.51,13.5-.68,29.85-2.42,47.74-4.93-29.11,3.26-58.65,5.1-88.55,5.44Zm384.58-380.61v2.58c1.24-.98,2.47-1.95,3.7-2.95-1.24,.13-2.47,.25-3.7,.37Z"/></g></g><g><path class="h" d="M572.1,801.12c-1.71-9.15-5.37-16.53-11.2-22.08-3.3-3.15-7.05-5.37-11.24-6.63-4.19-1.26-9.2-1.67-15.02-1.19-5.83,.5-13.4,1.95-22.73,4.53-5.89,1.64-10.91,2.76-15.06,3.31-1.05,.14-2.06,.24-3.04,.29-2.85,.18-5.33-.02-7.46-.6-2.85-.78-5.46-2.17-7.83-4.2-1.89-1.63-3.45-3.94-4.65-6.97-1.2-3.02-1.64-6.2-1.31-9.55,.03-1.84,.42-3.18,1.16-4.02,1.46-1.68,3.93-2.64,7.41-2.85,3.47-.22,7.08,.32,10.8,1.61,3.73,1.27,6.94,3.15,9.61,5.56,1.05,.95,2.13,2.05,3.2,3.28,.89,.99,1.78,2.06,2.68,3.22,1.32,1.72,1.99,2.57,1.99,2.59,2.06,1.86,3.92,1.85,5.62-.02,1.36-1.52,2.58-3.81,3.68-6.89,1.09-3.08,1.92-6.76,2.49-11.02,.71-4.9,.85-9.42,.42-13.56-.11-1.13-.27-2.23-.48-3.3-.95-5.01-2.8-8.88-5.58-11.58-5.81-5.65-13.32-7.14-22.18-4.01-11.58,4.09-21.76,13.11-29.34,22.32-8.89,10.79-15.12,21.09-20.71,34.02-4.11,9.53-6.27,22.81-4.97,33.3,1.24,9.94,5.06,17.43,11.47,22.28,3.93,2.99,8.56,4.6,13.85,4.9,.41,.02,.82,.03,1.24,.04,5.81,.1,13.66-1.34,23.54-4.1,5.32-1.7,9.12-2.94,11.41-3.8,7.78-2.57,12.9-4.04,15.39-4.6s5.05-.83,7.68-.82c8.22-.52,14.57,1.25,19.08,5.14,2.89,2.49,4.48,5.24,4.78,8.25,.3,3.01-.71,5.91-3.05,8.69-1.92,2.3-4.61,3.94-7.89,4.65-3.3,.7-6.43,.83-9.11,.55-2.67-.27-6.47-1.12-11.09-2.7-3.2-1.09-5.97-1.87-8.19-2.14-2.23-.27-4.12-.04-5.68,.64-1.56,.7-3.02,1.91-4.37,3.63-2.34,3-4.44,7.31-6.26,12.92-1.82,5.61-2.73,10.78-2.74,15.48-.01,4.58,1.15,7.69,3.45,9.36,3.76,2.73,10.57,2.52,20.18-.42,9.2-2.81,17.72-6.8,25.53-11.79,7.8-4.99,14.58-10.91,20.4-17.89,6.12-7.31,10.37-15.77,12.88-25.53,2.5-9.76,2.94-19.17,1.23-28.31Z"/><path class="h" d="M650.39,736.46c-2.12-14.02-8.66-27.67-13.97-40.66-.32-.81-.64-1.61-.99-2.36-.33-.76-.7-1.67-1.1-2.74-.41-1.06-.92-2.33-1.53-3.8-.72-1.73-1.07-2.59-1.78-4.33-.65-1.67-.99-2.5-1.64-4.18-.94-2.46-1.41-3.69-2.35-6.16-3.18-8.88-4.89-14.23-5.23-16.01-2.01-6.68-3.58-10.79-4.8-12.31-1.25-1.57-3.3-2.29-6.14-2.13,.8-.86,1.19-1.29,1.98-2.14,.74-.78,1.48-1.46,2.24-2.06,7.9-8,12.31-13.41,13.04-16.41,.71-1.93,.84-4.19,.41-6.76-.33-1.98-.93-3.73-1.81-5.24-.24-.44-.53-.88-.83-1.27-1.25-1.65-3.27-2.66-5.65-2.6-2.76,.07-5.89,1.16-8.95,2.85-3.06,1.67-9.01,5.66-17.72,12.19-1.32,.91-1.98,1.36-3.3,2.28-1.34,.99-2.02,1.48-3.35,2.48-10.35,7.7-18.27,13.99-23.87,18.65-5.6,4.66-9.94,8.43-13.05,11.25-4.83,4.35-8.43,8.69-10.78,12.92-2.36,4.23-4.2,9.61-5.45,16.09-1.7,9.78-1.1,16.03,1.56,18.76,2.36,2.43,5.44,2.78,9.25,1.11h.01c2.88-1.26,6.18-3.67,9.93-7.2,8.97-8.48,17.48-17.43,25.94-26.44,.49,2.9,1.33,7.87,2.63,14.88,1.31,7,2.73,13.47,4.23,19.42,1.51,5.94,3,11.17,4.44,15.69,1.44,4.52,3.27,9.74,5.51,15.62,4.65,12.09,8.85,25.86,17.44,35.38,2.44,2.69,5.86,3.91,9.78,3.67,3.92-.24,7.45-1.84,10.63-4.8,4.58-4.25,8.96-12.13,13.47-23.67,1.38-3.71,1.99-7.02,1.78-9.96Z"/><path class="h" d="M838.71,601.95c-.3-2.08-.73-4.47-1.27-7.15-1.04,.2-1.94,.33-2.68,.39-12.19,1.54-24.59,3.35-36.9,1.86-3.74-.65-6.5-1.24-8.25-1.77-1.76-.54-3.97-1.46-6.61-2.77,4.93-4.48,8.63-8.12,11.05-10.98,2.4-2.86,4.79-6.38,7.15-10.58,3.58-6.3,5.71-12.56,6.34-18.8,.62-6.24-.4-12.13-3.14-17.66-2.56-5.15-6.68-9.05-12.43-11.63-5.76-2.58-12.72-3.91-20.87-3.91s-17.23,1.54-27.02,4.45c-9.88,2.96-20.38,7.6-29.14,13.05-10.76,6.7-21.48,13.62-31.15,21.93-8.25,7.1-13.14,12.65-14.66,16.44-.71,1.73-1,3.76-.89,6.07,.12,2.3,.6,4.07,1.42,5.26,1.92,2.8,4.8,2.87,8.68,.25,2.77-1.87,4.88-3.45,6.3-4.72,2.29-2.04,4.62-3.92,6.9-5.66,.24,3.21,.38,4.82,.64,8.03,.99,11.36,2.39,22.79,4.09,34.03,1.64,10.88,3.72,21.92,6.19,32.66,2.52,10.87,4.86,19.51,6.99,25.87,2.13,6.36,3.99,10.59,5.52,12.73,2.77,3.86,6.06,5.14,9.92,3.89h.01c1.33-.43,2.71-1.15,4.18-2.18,2.92-2.05,6.28-5.83,10.18-11.31,.1-.14,.2-.29,.3-.43,3.72-5.31,6.19-9.72,7.33-13.28,1.19-3.68,1.42-8.86,.75-15.6-.66-6.74-2.4-16.59-5.07-29.63-.72-3.28-1.07-4.92-1.78-8.2-3.88-21.53-7.69-43.07-11.41-64.62,8.05-3.12,14.64-4.09,19.68-2.99,5.04,1.1,9.04,4.38,12.03,9.76,2.53,4.54,3.87,9.68,4.09,15.4,.22,5.72-.56,11.65-2.71,16.9-1.77,4.34-3.8,7.92-5.36,10.4-1.56,2.49-3.79,5.33-6.68,8.28-2.03,2.07-3.38,3.76-3.87,5.03-.48,1.26-.34,2.52,.42,3.76,.54,.89,1.03,1.52,1.47,1.91,2.28,2.02,5.24,4.17,8.85,6.47,3.61,2.3,7.59,4.52,11.9,6.66,4.32,2.15,8.38,3.96,12.17,5.43,2.44,.94,4.94,1.83,7.46,2.57,1.41,.42,2.81,.79,4.22,1.1,4.83,1.07,10.64,1.1,17.01,.39,6.36-.71,11.29-1.97,14.83-3.84,6.42-3.41,10.6-8.75,12.7-16.18,1.11-4.13,1.68-7.71,1.7-10.74,.01-1.66-.18-3.77-.54-6.33Z"/><path class="h" d="M991.17,473.66c-1.79-6.61-4.4-12.64-7.89-18.05-3.48-5.41-6.98-8.82-10.47-10.22-1.46-.74-3.4-1.15-5.79-1.23-2.4-.08-4.6,.18-6.58,.75-3.41,1-7.71,3.63-12.82,7.96-5.11,4.32-9.36,8.93-12.82,13.52-2.99,3.97-4.13,7.34-3.24,10.03,.48,1.44,2.9,3.63,7.23,6.59,8.71,6.63,17.77,13.47,21.12,24.46,1.52,5,1.99,10.63,1.32,16.8-.54,4.91-1.64,9.64-3.29,14.2-.41,1.17-.86,2.35-1.36,3.5-2.42,5.64-5.48,10.59-9.23,14.88-3.75,4.29-7.81,7.22-12.24,8.82-5.46,1.97-10.65,2.26-15.62,.85-3.52-1-6.85-2.85-9.98-5.56-1.31-1.12-2.58-2.39-3.82-3.82-4.21-4.86-8.03-11.49-11.38-19.93-2.38-5.99-3.53-11.33-3.96-15.42-.48-4.52-.64-9.47,.1-14.2,1-6.47,2.27-11.76,3.89-15.66,1.61-3.9,4.51-9.5,8.96-15.87,3.47-4.99,6.96-8.71,9.69-11.08,2.73-2.38,7.38-5.63,13.97-9.48,6.07-3.56,10.5-6.29,13.06-8.33,2.56-2.03,5.4-5.01,8.55-8.93,1.6-2.57,2.26-4.32,1.98-5.25-.7-2.33-6.26-1.97-16.62,1.27-7.37,2.32-15.58,6.07-24.53,11.35-8.95,5.26-16.95,11.17-23.97,17.41-7.68,6.83-15.05,16.02-20.39,24.66-5.36,8.69-10.36,19.27-13.28,29.16-2.93,9.91-4.43,19.53-4.4,28.71,.04,9.19,1.75,17.19,4.83,23.95,2.91,6.42,7.37,11.89,12.89,15.97,3.99,2.95,8.54,5.17,13.47,6.5,7.18,2.06,15.48,2.64,24.94,1.82,9.45-.81,18.43-2.83,26.99-6.03,14.59-5.46,27.73-14.48,38.1-26.08,9.23-10.3,16.32-22.48,20.71-35.59,.6-1.79,1.15-3.6,1.65-5.43,4.17-15.32,4.38-31.63,.21-47Z"/><path class="h" d="M1214.06,393.27c-.1-2.7-.69-4.55-1.76-5.55-1.07-1-2.98-1.45-5.72-1.33-4.53,.19-9.01,1.1-13.41,2.73-4.4,1.63-8.43,3.89-12.09,6.78-1.95,1.73-3.65,3.68-5.07,5.86-7.32,11.74-10.25,25.58-13.53,38.81-2.99,12.08-5.48,21.89-7.63,29.41-2.91-2.91-4.75-4.88-5.48-5.92-2.42-2.81-5.6-7.52-9.62-14.12-4.01-6.59-7.84-13.44-11.47-20.53-5.61-10.43-11.27-24.21-21.25-30.46-4.14-2.59-10.67-3.21-18.57-1.99-3.94,.61-9.02,1.99-15.2,4.21-6.17,2.2-11.61,4.64-16.23,6.96-5.35,2.69-8.04,4.69-7.78,6.04,.21,1.09,1.91,2.06,5.05,2.94,4.79,1.48,7.35,3.24,7.71,5.22,.28,1.5-.53,4.32-2.36,8.47-2.57,5.83-5.16,13.65-7.7,23.41-3.07,10.84-4.53,16.25-7.33,27.1-1.91,8.44-2.83,12.66-4.59,21.11-.82,2.89-1.44,5.4-1.86,7.52h-.01c-.08,.43-.17,.85-.23,1.26-3.07,11.5-5.94,20.7-8.7,27.58-2.39,5.99-3.27,10.06-2.74,12.13,.7,2.76,3.08,3.61,7.15,2.63,4.88-1.2,9.57-3.26,14.14-6.22,4.57-2.96,8.76-6.47,12.03-10.5,2.34-2.9,3.99-5.84,5.06-8.17,1.17-2.56,2.42-5.77,3.47-9.54,1.05-3.78,2.29-9.33,3.77-16.66,.16-.49,.33-1.06,.53-1.73,.07-.25,.16-.52,.23-.8,.29-1.01,.58-1.94,.73-2.73,.19-.96,.4-2.11,.71-3.26,.31-1.14,.49-2.07,.53-2.79,2.76-13.97,5.72-27.9,8.9-41.78,.21-.04,.32-.06,.53-.09,1.47,3.34,3.38,6.86,5.7,10.56,6.88,11.27,14.19,22.04,21.96,32.5,6.27,8.45,12.85,16.7,19.73,24.84,8.85,10.3,16.23,15.16,22.51,14.49,2.46-.27,4.83-1.58,7.17-3.97,1.35-1.38,2.49-2.85,3.42-4.4,7.18-12.68,12.11-26.8,17.07-40.56,.83-2.3,1.66-4.6,2.5-6.88,.44-1.06,.95-2.46,1.54-4.17,.68-1.58,1.02-2.37,1.69-3.96,4.35-11.15,8.75-22.28,13.17-33.38,3.65-9.15,6.56-16.63,8.62-22.44,2.06-5.81,3.51-10.51,4.3-14.15,.33-.99,.47-2.48,.39-4.49Z"/><path class="h" d="M1359.15,431.91c-1.57,4.07-3.99,7.91-6.77,11.31-1.26,1.76-1.92,2.88-1.96,3.36-.18,1.73,1.3,2.74,4.41,3.06,7.63,.79,15.05-.07,22.35-2.57,7.29-2.52,13.43-6.2,18.42-11.17,5-4.95,7.91-10.45,8.86-16.24,3.01-18.24-17.65-26.08-32.08-27.36-15.22-1.35-31.73-.08-46.29,4.7-15.5,5.07-30.33,11.93-43.85,21.72-12.08,8.73-23.67,19.69-30.84,32.11-5.04,8.71-9.53,18.41-10.54,28.91-.16,1.74-.23,3.5-.19,5.27,.2,8.76,1.88,16.53,5.22,23.02,3.35,6.48,8.09,11.46,14.22,14.97,6.14,3.52,13.44,5.38,22.02,5.66,7.19,.24,14.37-.94,21.64-3.56,7.27-2.6,15.26-6.88,24.11-12.75-.95,4.43-3.11,10.65-6.39,18.67-3.28,8.01-6.5,14.76-9.67,20.23-4.9-3.31-9.62-7.37-13.88-12.15-3.6-4.04-6.49-6.24-8.61-6.33-2.03-.08-6.23,1.52-12.46,4.88-3.94,2.11-7.06,4.27-9.34,6.44-2.29,2.18-3.43,4.13-3.46,5.87-.04,2.63,1.87,5.32,5.7,8.09,3.81,2.78,8.7,5.12,14.64,7.08,5.93,1.95,11.76,3.09,17.54,3.42,7.04,.4,13.97-.2,20.89-1.79,6.9-1.6,12.27-3.8,16.05-6.69,11.32-9.17,19.71-21.28,27.69-33.08,7.5-11.09,14.23-22.85,20.53-34.86,3.01-5.74,5.94-11.53,8.8-17.34,.92-2.59,1.41-4.07,1.46-4.4,.63-4.18-1.73-6.68-7.08-7.42-4.57-.64-11.15-.48-19.68,.62s-15.63,2.77-21.31,4.92c-2.09,.76-3.76,1.71-4.95,2.8-1.2,1.11-3.58,3.71-7.07,7.86-1.27,1.56-2.63,3.29-4.03,5.07-6.36,8.01-14.15,17.04-23.98,16.9-4.27-.06-7.98-2.17-10.6-5.73-2.63-3.56-3.84-8-3.6-13.33,.02-.35,.03-.71,.07-1.06,.35-5.31,1.63-11.07,3.86-17.26,2.38-6.6,5.6-13.11,9.68-19.46,4.08-6.36,8.61-11.78,13.3-16.24,5.29-5.02,12-9.69,20.19-13.63,8.19-3.94,14.53-5.64,18.88-5.19,1.85,.2,2.46,3.19,1.83,8.97-.35,3.24-1.51,8.02-3.69,13.71Z"/><path class="h" d="M1691.04,482.82c-1.06-1.25-4.17-3.06-9.34-5.37-9.99-4.45-18.63-6.95-25.81-7.61-2.47-.28-4.52-.37-6.15-.29s-3.14,.31-4.52,.68c-1.37,.38-3.1,.96-5.16,1.78-25.51,12.86-47.69,32.39-69.13,50.93-1.61,1.42-2.42,2.13-4.02,3.56-1.11-2.43-1.71-5.03-1.79-7.79-.09-2.77,.43-8.66,1.47-17.72,.2-.59,.35-1.88,.45-3.89,.18-.52,.28-.96,.3-1.32s.07-.76,.12-1.22c.06-.45,.13-1.1,.22-1.95,1.32-11.43,2.86-23.01,2.37-34.54-.34-8.21-1.81-14.13-4.27-17.65-3.98-5.67-12.25-10.45-24.8-14.01-6.23-1.77-12.2-2.7-17.86-2.8-5.67-.11-8.7,.61-9.07,2.08-.24,.94,.57,2.32,2.3,4.14,2.29,2.4,3.25,4.4,2.87,5.79-.33,1.27-4.27,5.16-11.6,11.74-13.69,12.28-27.3,24.66-40.69,37.31-3.3,3.1-4.94,4.65-8.2,7.77-4.4,4.29-8.78,8.61-13.23,12.85h-.01c-4.37,4.15-8.81,8.24-13.41,12.12-3.6,3.1-5.4,4.68-8.95,7.81-5.06,4.28-8.27,6.95-9.72,7.96-2.54,1.52-3.9,2.87-4.11,4.02-.22,1.3,.32,2.48,1.63,3.56,1.31,1.07,2.93,1.78,4.85,2.14,5.07,.92,10.63,.85,16.7-.16,6.07-1.02,11.91-2.89,17.53-5.64,3.71-2.17,6.37-3.88,7.96-5.16,3.45-2.7,6.7-5.47,9.77-8.32,2.43-2.25,5.54-5.29,9.36-9.11,1.01-1.01,2.06-2.06,3.17-3.18,5.32-5.33,10.53-10.59,15.61-15.79,.62-.63,2.84-2.93,6.73-6.85s6.8-6.79,8.71-8.65c1.89-1.85,4.75-4.63,8.6-8.32,.21,.07,.32,.09,.53,.14-1.87,10.51-3.46,21.22-4.41,31.85-.8,8.81-1.07,16.55-.81,23.23,.01,.25,.02,.51,.03,.76,.3,6.43,1.1,12.94,2.48,19.4,1.36,6.38,3.58,11.97,6.49,16.68,2.91,4.72,5.98,7.6,9.27,8.66,1.19,.38,2.7,.57,4.58,.57,1.87-.01,3.65-.31,5.34-.92,.48-.12,1.04-.34,1.66-.64,.63-.3,1.04-.49,1.24-.57,8.66-5.99,16.75-12.79,24.89-19.47l2.76-2.26c4.65-3.77,8.72-6.97,12.17-9.61,3.45-2.64,7.89-5.94,13.36-9.86,5.48-3.91,12.38-8.75,20.77-14.44,.2,.08,.31,.12,.51,.2-.43,1.32-2.32,7.2-5.82,17.37-3.22,9.38-5.57,17.38-6.79,23.88-.89,4.64-1.25,8.93-1.13,12.84,.04,1.55,.18,3.04,.38,4.47,.72,5.05,2.4,10.07,5.01,15.09,3.79,8.78,12.86,17.88,21.52,21.67,6.65,2.91,14.67,3.58,24.02,1.53,5.63-1.32,8.95-2.9,9.92-4.83,.14-.29,.22-.66,.22-1.12,0-1.22-.52-3-1.61-5.25-1.19-2.46-2.65-6.11-3.92-10.71-1.11-4.04-1.87-9.83-1.8-16.42,.09-7.18,1.14-14.57,2.63-21.15,2.79-12.32,7.61-24.34,12.7-35.81,2.11-4.74,6.18-12.92,12.19-23.69,1.03-1.86,2.01-3.66,2.79-5.35,1.02-2.2,1-3.93-.07-5.17Z"/><path class="h" d="M1869.54,592.71c-2.14-6.98-7.67-13.69-16.51-19.87-8.78-6.12-16.84-10.45-24.1-13.07-1.89-.68-4.12-1.1-6.67-1.27,.11,1.35,.21,2.55,.3,3.66h.01c.3,3.63,.51,6.36,.82,10.77-11.02,3.59-19.71,6.63-26.16,8.96-6.46,2.34-12.17,4.47-17.17,6.37-5,1.91-9.07,3.55-12.25,4.9-3.18,1.34-10.56,4.44-21.92,9.55-6.66-3.86-11.56-6.16-14.63-6.99s-6.87-.84-11.38-.02c-9.44,1.65-14.82,3.93-16.28,6.61-1.77,3.29,1.03,7.68,8.29,13.34-2.45,1.01-6.03,2.26-10.69,3.81-3.59,1.22-6.71,2.37-9.4,3.43-7.21,2.85-11.14,5.09-11.92,6.56-.87,1.66-.65,3.3,.64,4.94,1.31,1.64,3.94,3.52,7.9,5.68,6.89,3.78,13.01,6.25,18.43,7.37,5.3,1.1,10.71,.93,16.27-.53,.11-.02,.23-.06,.34-.09,5.66-1.54,12.63-4.55,20.99-8.95,.84-.44,1.25-.66,2.09-1.11,13.97,8.97,21.62,14.38,23.22,15.6,1.87,1.43,4.19,3.04,6.88,4.85,4.73,3.19,12.27,6.28,22.67,9.53-.3,1.48-.59,2.86-.88,4.1-.29,1.24-.52,2.27-.68,3.09-2.02,8.54-3.3,15.84-3.27,21.4,.02,4.29,1.13,8.28,2.87,11.58,1.74,3.3,4.6,6.47,8.59,9.55,3.25,2.5,7.36,4.58,12.38,6.27,5.01,1.68,11.6,3.24,19.83,4.74,1.16-10.56,2.22-18.89,3.32-24.95,.52-2.78,1.11-5.75,1.74-8.93,.63-3.17,1.09-5.66,1.37-7.47,1.31-6.04,2.3-10.38,3.04-13.03,.73-2.64,2.64-8.52,5.6-17.71,1.17-3.2,3.16-7.83,5.97-13.76,5.51-11.66,9.17-21.25,10.74-28.65,.47-2.16,.78-4.25,.94-6.3,.41-4.99-.03-9.65-1.34-13.96Zm-64.13,49.96c-10.03-6.91-20.11-13.67-30.3-20.33,14.3-6.85,28.7-13.44,43.23-19.8,.18,.12,.28,.19,.45,.31-4.31,13.33-8.78,26.6-13.38,39.82Z"/><path class="h" d="M2097.71,812.44c-2.99-4.06-6.55-7.66-10.66-10.77-4.1-3.11-8.5-5.54-13.19-7.27-2.66-.81-5.34-1.26-8.05-1.34-14.09-.14-27.58,4.91-40.72,9.34-1.56,.52-3.08,1.04-4.57,1.54-9.85,3.3-18.06,5.99-24.65,7.96,.61-4.24,1.1-6.98,1.52-8.21,.83-3.73,2.78-9.2,5.76-16.46,1.05-2.56,2.14-5.11,3.27-7.66h0c2.09-4.69,4.31-9.35,6.68-14.01,5.23-10.9,13.13-23.81,12.14-35.83-.41-5.15-3.93-11.24-9.83-17.48-2.96-3.12-7.25-6.81-12.89-10.97-5.65-4.15-11.02-7.53-15.79-10.25-5.54-3.15-8.84-4.35-9.81-3.37-.76,.8-.54,2.81,.66,6.04,1.72,4.99,1.84,8.19,.42,9.62-1.07,1.09-3.92,1.96-8.5,2.7-3.15,.5-6.7,1.29-10.66,2.33-4.09,1.09-8.6,2.46-13.52,4.13-10.87,3.42-16.28,5.21-26.99,8.89-8.19,3.1-12.25,4.69-20.34,7.92-3.5,1.12-6.35,2.17-8.58,3.15-11.42,3.83-20.81,6.57-28.2,8.09-6.43,1.33-10.34,2.89-11.73,4.51-1.86,2.15-1.12,4.66,2.18,7.58,3.97,3.49,8.54,6.35,13.78,8.6,5.25,2.26,10.74,3.91,16.1,4.45,3.83,.39,7.29,.17,9.88-.21,2.85-.42,6.27-1.15,10.06-2.36,3.78-1.21,9.15-3.25,16.15-6.08,.69-.19,1.55-.44,2.56-.75,1.02-.31,1.97-.59,2.73-.9,.92-.37,1.98-.83,3.14-1.2,1.14-.38,2.03-.74,2.65-1.11,13.32-5.44,26.71-10.66,40.21-15.64,.16,.17,.24,.24,.4,.42-1.86,3.16-3.61,6.78-5.26,10.88-9.33,22.49-16.29,45.11-21.87,68.78-3.07,13.61-2.53,22.88,1.94,28.14,1.74,2.05,4.32,3.43,7.76,4.2,1.99,.45,3.92,.66,5.79,.64,17.37-.83,34.72-5.09,51.68-8.68,1.16-.19,2.64-.5,4.42-.92,1.74-.27,2.62-.4,4.35-.65,6.56-1.22,13.13-2.42,19.69-3.6,5.44-.99,10.88-1.95,16.32-2.91,9.89-1.74,17.94-3.21,24.05-4.54,6.13-1.32,10.96-2.6,14.47-3.89,1.02-.24,2.35-.95,3.98-2.13,2.18-1.6,3.36-3.16,3.51-4.71,.17-1.54-.65-3.56-2.47-6.01Z"/></g></g><path class="h" d="M1997.06,1324.56c-28.1,229.83-159.81,427.65-347,545.33-1.62,1.02-3.25,2.03-4.89,3.04v-46.38c149.94-105.96,255.47-270.63,283.1-460.54,.4-2.7,.78-5.42,1.14-8.14l-58.27,28.69c-34.35,138.73-113.97,259.62-222.28,346.04-1.23,1-2.46,1.97-3.7,2.95v-2.58c-50.47,4.54-88.96-8.56-72.29-25.25,4.01-4.01,18.96-7.17,42.45-8.97,42.03-3.24,51.05-7.77,47.06-23.64l-2.75-10.95-139.76-1.1-139.76-1.09-1.22-30.47c-.8-19.77,1.07-37.41,5.33-50.24,5.86-17.63,10.35-22.35,41.65-43.83,39.03-26.79,60.34-53.22,72.17-89.52l7.17-21.97,36.89-.07c41.17-.07,60.52-7.31,89.6-33.57,8.49-7.66,20.6-15.07,26.92-16.48,43.42-9.62,87.21-31.19,89.93-44.29,11.94-57.64,3.01-108.67-32.33-184.88-29.96-64.61-36.58-79.39-33.58-89.5h0c.76-2.61,2.16-4.89,3.97-7.63,1.06-1.63,2.32-3.18,3.65-4.58,3.04-7.06,4.79-15.42,4.79-24.38,0-2.33-.12-4.62-.35-6.86h88v-40.46h-99.84c-4.93-13.26-23.92-16.41-30.58-2.38,1.11-12.29-2.89-15.49-8.29-14.47-3.14,.59-9.27,3.16-12.33,7.3-1.64-5.12-5.81-9.51-8.79-9.96-6.34-.95-13.54,2.06-16.66,7.83-1.17-18.29-21.64-11.51-27.4,11.05-.06,.21-.11,.42-.18,.63H921.53c-.07-.21-.12-.42-.18-.63-5.93-23.22-27.12-26.61-27.12-6.24,0-9.84-9.73-17.1-16.94-12.64-1.63,1.01-8.13,4.78-10.86,9.61-2.79-3.79-7.41-6.4-10.26-6.95-4.71-.89-11.43,1.1-13.73,9.74-6.38-8.68-20.6-5.53-26.22,7.11h-39.6v40.46h29.82c-.22,2.24-.34,4.53-.34,6.86,0,10.03,2.19,19.3,5.92,26.85,.54,.69,1.05,1.38,1.52,2.11,1.29,1.95,2.36,3.67,3.15,5.44,4.66,10.38-.58,22.29-32.76,91.7-35.35,76.21-44.28,127.24-32.33,184.88,2.71,13.1,46.5,34.67,89.93,44.29,6.33,1.41,18.44,8.82,26.92,16.48,29.08,26.26,48.43,33.51,89.6,33.57l36.89,.07,7.17,21.97c11.83,36.3,33.14,62.72,72.17,89.52,31.3,21.48,35.79,26.2,41.65,43.83,4.25,12.83,6.13,30.47,5.33,50.24l-1.22,30.47-139.76,1.09-139.76,1.1-2.75,10.95c-3.99,15.88,5.03,20.41,47.06,23.64,23.49,1.81,38.44,4.96,42.45,8.97,17.09,17.1-23.72,30.43-75.99,24.89-.08,0-.16-.01-.23-.02l-7.2-.78v-5.22c-106.01-87.22-183.47-207.88-216.26-345.85l-57.56-28.33c.57,4.55,1.17,9.09,1.84,13.61,26.95,185.19,127.94,346.36,271.98,452.53v47.4c-185.33-119.07-315.03-317.22-341.4-546.81l-133.48-65.72c10.43,443.63,348.66,806.15,781.84,854.69l.2,.03c29.11,3.26,58.65,5.1,88.55,5.44,3.45-.04,6.96-.1,10.53-.17,3.57,.07,7.08,.12,10.53,.17,29.9-.34,59.44-2.18,88.55-5.44l.2-.03c431.47-48.35,768.74-408.22,781.69-849.48l-133.98,65.95ZM970.44,1881.56c2.12,5.32,4.85,10.12,8.2,14.42h.01c1.48,1.91,3.09,3.7,4.81,5.4,5.64,5.54,12.29,9.87,19.94,13.02,7.67,3.14,16.11,4.71,25.35,4.71,3.22,0,6.43-.2,9.6-.6,5.53-.68,10.96-1.96,16.3-3.83,3.04-1.06,6.04-2.38,9.01-3.97v-56.97h41v78.67c-1.38,1.05-2.8,2.06-4.23,3.05-9.68,6.63-20.55,11.74-32.61,15.37-8.25,2.48-16.52,4.22-24.77,5.22-5.6,.68-11.18,1.02-16.77,1.02-15.33,0-29.46-2.46-42.38-7.35-12.93-4.89-24.1-11.87-33.52-20.91-3.27-3.14-6.27-6.46-9.03-9.97-5.23-6.63-9.56-13.92-13-21.88-3.91-9.05-6.36-18.77-7.37-29.14-.34-3.6-.52-7.27-.52-11.02,0-14.59,2.63-27.98,7.89-40.16,3.67-8.49,8.39-16.23,14.16-23.19,2.52-3.04,5.23-5.93,8.14-8.66,9.6-9.05,20.86-16.02,33.79-20.92,12.92-4.89,27.15-7.34,42.66-7.34,17.17,0,32.64,2.86,46.39,8.59,13.76,5.72,25.35,14.03,34.77,24.93l-28.53,26.59c-7.2-7.58-14.96-13.16-23.27-16.76-8.31-3.6-17.45-5.4-27.42-5.4-9.24,0-17.73,1.52-25.48,4.57-7.76,3.05-14.45,7.35-20.09,12.89-.49,.48-.96,.98-1.44,1.47-4.93,5.22-8.8,11.27-11.58,18.19-3.05,7.57-4.56,15.97-4.56,25.21s1.52,17.13,4.56,24.79Zm58.78-611.27c-8.38,3.59-26.87,11.99-33.55,16.78-2.11-1.92-4.4-4.15-6.43-6.6-11.28-13.58-37.81-27.08-57.92-29.46-17.72-2.09-24.37-.45-51.26,12.65-17,8.29-33.06,15.07-35.7,15.07s4.82-9.78,16.59-21.75l21.4-21.75-3.35-29c-4.63-40-3.46-92.02,2.64-117.44,4.74-19.77,6.24-21.56,21.21-25.59,26.82-7.22,43.61-30.67,39.54-49.49h615.36c-4.07,18.82,12.72,42.27,39.54,49.49,14.97,4.03,16.46,5.83,21.21,25.59,6.09,25.42,7.27,77.44,2.64,117.44l-3.35,29,21.4,21.75c11.77,11.97,19.22,21.75,16.59,21.75s-18.7-6.78-35.7-15.07c-26.89-13.11-33.54-14.75-51.26-12.65-20.11,2.38-44.76,17.67-57.92,29.46-2.69,2.42-5.78,4.17-8.76,5.51-7.21-4.64-24.14-12.64-31.21-15.68-28.5-12.21-62.17-9.11-81.39,7.5-.93,.81-1.73,1.57-2.4,2.32-8.63-6.05-38.65-20.75-48.44-26.24-20.19-11.29-20.74-12.11-21.96-32.54-.79-13.33,.98-24.43,4.85-30.47,3.36-5.22,9.17-20.19,12.92-33.26,6.19-21.61,6.23-24.6,.32-33.03-4.21-6.01-6.49-18.35-6.49-35.12,0-23.26-1.35-27.41-13.43-41.16-18.26-20.8-41.47-30.78-64.83-30.02-23.36-.76-46.57,9.22-64.83,30.02-12.08,13.75-13.43,17.91-13.43,41.16,0,16.78-2.28,29.12-6.49,35.12-5.91,8.43-5.87,11.42,.32,33.03,3.74,13.07,9.56,28.04,12.92,33.26,3.88,6.04,5.64,17.14,4.85,30.47-1.22,20.43-1.77,21.25-21.96,32.54-11.39,6.38-50.19,20.71-50.85,23.92-19.22-16.61-52.9-19.71-81.39-7.5Zm231.72,601.69l-7.53,12.58v69.17h-45.15v-69.06l-8.79-14.56-66.56-110.28h47.92l51.69,85.86,51.91-85.86h43.77l-67.26,112.15Zm76.09-377.83c-18.29,3.12-27.69,2.73-53.83-2.29-6.6-1.27-15.28-5.93-19.29-10.36-4.88-5.38-9.21-7.92-13.83-7.6-4.62-.32-8.95,2.22-13.83,7.6-4.01,4.43-12.69,9.09-19.29,10.36-26.14,5.02-35.53,5.42-53.83,2.29-24.39-4.18-39.27-12.01-58.64-30.85-15.3-14.88-22.63-30.69-8.15-17.6,4.07,3.68,18.48,11.59,32.02,17.58,21.99,9.72,28.8,10.74,63.42,9.48,34.29-1.24,39.64-2.48,46.31-10.73,5.57-6.89,8.32-9.73,11.98-8.17,3.66-1.56,6.4,1.27,11.98,8.17,6.67,8.24,12.02,9.48,46.31,10.73,34.62,1.25,41.43,.23,63.42-9.48,13.54-5.99,27.95-13.91,32.02-17.58,14.47-13.1,7.15,2.71-8.15,17.6-19.37,18.84-34.25,26.67-58.64,30.85Zm242.67,459.58h-41.83l-.11-25.79-.17-39.13h0l-.22-50.72-41.05,68.19h0l-16.07,26.69h-19.94l-7.14-11.71-42.39-69.52-7.53-12.37v114.37h-41.83v-193.9h37.12l48.98,81.21,23.62,39.17,36.77-62.21,34.38-58.16h37.39v193.9Z"/></g><g class="g"><g><g><g><rect class="h" x="2099.69" y="355.86" width="79.52" height="8.63"/><rect class="h" x="2260.52" y="355" width="79.52" height="8.63"/></g><g><g><g><path class="h" d="M2370.21,220.19s0,.01,0,.01c-.13,2.12-.31,4.24-.53,6.36l-1.31,12.43c0,3.49-3.59,6.32-8.03,6.32s-8.03-2.83-8.03-6.32l1.32-12.43c1.34-12.67,1-25.41-1.01-38.02l-1.39-8.73h0l-.6-3.78c0-1.79,.94-3.4,2.46-4.55,1.44-1.1,3.41-1.77,5.57-1.77s4.22,.71,5.67,1.85,2.35,2.72,2.35,4.47l1.99,12.51c.5,3.11,.89,6.22,1.18,9.35,.69,7.42,.81,14.87,.36,22.3Z"/><path class="h" d="M2389.04,226.56l-1.32,12.43c0,1.72-.87,3.28-2.29,4.42-1.46,1.17-3.49,1.9-5.74,1.9-1.5,0-2.91-.33-4.12-.89-2.34-1.1-3.91-3.12-3.91-5.42l1.03-9.71,.29-2.71c.73-6.88,.96-13.79,.7-20.68-.22-5.79-.79-11.58-1.71-17.34l-1.99-12.51c0-3.44,3.48-6.23,7.82-6.32,.07,0,.13,0,.2,0,2.22,0,4.22,.71,5.67,1.85s2.35,2.72,2.35,4.47l1.99,12.51c.03,.17,.05,.33,.08,.5h0c1.94,12.45,2.25,25.02,.93,37.52Z"/><path class="h" d="M2421.42,214.13l-1.32,4.32c0,1.21-3.59,2.2-8.03,2.2-1.82,0-3.49-.16-4.84-.44l-1.06,5.93c0,1.55-2.01,2.87-4.88,3.44-.97,.19-2.03,.3-3.14,.3-4.43,0-8.03-1.67-8.03-3.74l1.31-7.35c1.34-7.49,1-15.04-1.01-22.5l-1.39-5.18v-.02l-.6-2.21c0-2.07,3.59-3.74,8.03-3.74,2.22,0,4.22,.42,5.67,1.09,1.45,.68,2.35,1.61,2.35,2.65l1.57,5.83c1.25-.22,2.73-.35,4.33-.35,2.22,0,4.22,.25,5.67,.64,1.45,.4,2.35,.95,2.35,1.55l1.99,4.35c2.01,4.38,2.35,8.81,1.01,13.22Z"/></g><g><path class="h" d="M2100.68,226.56l1.31,12.43c0,3.49-3.59,6.32-8.03,6.32s-8.03-2.83-8.03-6.32l-1.31-12.43c-1.34-12.67-1-25.41,1.01-38.02l1.4-8.82h0l.59-3.69c0-1.75,.9-3.32,2.35-4.47,1.11-.87,2.54-1.49,4.14-1.73,.5-.08,1.01-.12,1.54-.12,4.43,0,8.03,2.83,8.03,6.32l-1.99,12.51c-2.01,12.61-2.34,25.35-1,38.02Z"/><path class="h" d="M2081.33,226.56l1.32,12.43c0,3.49-3.59,6.32-8.03,6.32s-8.03-2.83-8.03-6.32l-1.04-9.85-.27-2.58c-.73-6.93-.96-13.87-.69-20.81h0c.22-5.75,.79-11.5,1.7-17.22l1.99-12.51c0-1.75,.9-3.32,2.35-4.47,1.45-1.14,3.46-1.85,5.67-1.85,3.26,0,6.07,1.53,7.32,3.74,.45,.79,.7,1.66,.7,2.58l-1.73,10.86-.26,1.65c-2.01,12.61-2.35,25.35-1.01,38.02Z"/><path class="h" d="M2062.87,218.78l1.32,7.35c0,2.07-3.59,3.74-8.03,3.74-.08,0-.17,0-.25,0-4.32-.06-7.78-1.71-7.78-3.74l-1.06-5.93c-1.35,.28-3.02,.44-4.84,.44-1.15,0-2.25-.07-3.24-.19-2.82-.34-4.79-1.11-4.79-2.01l-1.31-4.32c-1.34-4.41-1-8.84,1.01-13.22l1.99-4.35c0-.61,.9-1.15,2.35-1.55,1.45-.4,3.46-.64,5.67-.64,1.35,0,2.62,.09,3.74,.25,.2,.03,.4,.06,.59,.09l1.04-3.87,.53-1.96c0-.76,.49-1.47,1.32-2.05,.3-.22,.65-.41,1.03-.59,1.45-.68,3.46-1.09,5.67-1.09,4.43,0,8.03,1.67,8.03,3.74l-1.99,7.4c-1.37,5.08-1.96,10.19-1.78,15.31h0c.08,2.41,.34,4.8,.77,7.19Z"/></g></g><path class="h" d="M2194.64,482.77c4.42,.62,8.46,1.05,11.79,1.22,2.64,.13,6.17,.17,10.08,.13-7.38-.08-14.68-.54-21.87-1.34Zm27.07,1.34c3.91,.04,7.43,0,10.08-.13,3.33-.17,7.37-.6,11.79-1.22-7.19,.8-14.48,1.26-21.87,1.34Zm94.97-93.99v.64c.31-.24,.61-.48,.91-.73-.31,.03-.61,.06-.91,.09Z"/></g></g><g><path class="h" d="M2051.68,160.01c-.42-2.26-1.33-4.08-2.77-5.45-.82-.78-1.74-1.33-2.77-1.64-1.03-.31-2.27-.41-3.71-.29-1.44,.12-3.31,.48-5.61,1.12-1.46,.4-2.7,.68-3.72,.82-.26,.04-.51,.06-.75,.07-.7,.04-1.32,0-1.84-.15-.7-.19-1.35-.54-1.93-1.04-.47-.4-.85-.97-1.15-1.72-.3-.75-.4-1.53-.32-2.36,0-.45,.1-.79,.29-.99,.36-.42,.97-.65,1.83-.7,.86-.05,1.75,.08,2.67,.4,.92,.31,1.71,.78,2.37,1.37,.26,.24,.53,.51,.79,.81,.22,.24,.44,.51,.66,.8,.33,.42,.49,.63,.49,.64,.51,.46,.97,.46,1.39,0,.34-.37,.64-.94,.91-1.7,.27-.76,.47-1.67,.62-2.72,.18-1.21,.21-2.33,.1-3.35-.03-.28-.07-.55-.12-.82-.24-1.24-.69-2.19-1.38-2.86-1.43-1.4-3.29-1.76-5.48-.99-2.86,1.01-5.37,3.24-7.25,5.51-2.19,2.67-3.73,5.21-5.11,8.4-1.02,2.35-1.55,5.63-1.23,8.22,.31,2.45,1.25,4.3,2.83,5.5,.97,.74,2.12,1.14,3.42,1.21,.1,0,.2,0,.31,.01,1.43,.02,3.37-.33,5.81-1.01,1.31-.42,2.25-.73,2.82-.94,1.92-.63,3.18-1,3.8-1.14s1.25-.21,1.9-.2c2.03-.13,3.6,.31,4.71,1.27,.71,.62,1.11,1.29,1.18,2.04,.07,.74-.18,1.46-.75,2.15-.47,.57-1.14,.97-1.95,1.15-.82,.17-1.59,.21-2.25,.14-.66-.07-1.6-.28-2.74-.67-.79-.27-1.47-.46-2.02-.53-.55-.07-1.02-.01-1.4,.16-.39,.17-.75,.47-1.08,.9-.58,.74-1.1,1.81-1.55,3.19-.45,1.38-.67,2.66-.68,3.82,0,1.13,.28,1.9,.85,2.31,.93,.67,2.61,.62,4.98-.1,2.27-.69,4.38-1.68,6.3-2.91,1.93-1.23,3.6-2.7,5.04-4.42,1.51-1.81,2.56-3.89,3.18-6.3s.73-4.73,.3-6.99Z"/><path class="h" d="M2071.02,144.04c-.52-3.46-2.14-6.83-3.45-10.04-.08-.2-.16-.4-.24-.58-.08-.19-.17-.41-.27-.68-.1-.26-.23-.57-.38-.94-.18-.43-.27-.64-.44-1.07-.16-.41-.24-.62-.41-1.03-.23-.61-.35-.91-.58-1.52-.79-2.19-1.21-3.51-1.29-3.95-.5-1.65-.88-2.67-1.18-3.04-.31-.39-.82-.57-1.52-.53,.2-.21,.29-.32,.49-.53,.18-.19,.37-.36,.55-.51,1.95-1.98,3.04-3.31,3.22-4.05,.18-.48,.21-1.03,.1-1.67-.08-.49-.23-.92-.45-1.29-.06-.11-.13-.22-.21-.31-.31-.41-.81-.66-1.4-.64-.68,.02-1.46,.29-2.21,.7-.76,.41-2.22,1.4-4.38,3.01-.33,.22-.49,.34-.82,.56-.33,.24-.5,.37-.83,.61-2.56,1.9-4.51,3.46-5.89,4.6-1.38,1.15-2.45,2.08-3.22,2.78-1.19,1.08-2.08,2.15-2.66,3.19-.58,1.05-1.04,2.37-1.35,3.97-.42,2.42-.27,3.96,.39,4.63,.58,.6,1.34,.69,2.28,.27h0c.71-.31,1.53-.91,2.45-1.78,2.22-2.09,4.32-4.3,6.41-6.53,.12,.72,.33,1.94,.65,3.67,.32,1.73,.67,3.33,1.05,4.8,.37,1.47,.74,2.76,1.1,3.87,.36,1.12,.81,2.41,1.36,3.86,1.15,2.99,2.19,6.39,4.31,8.74,.6,.66,1.45,.97,2.42,.91,.97-.06,1.84-.45,2.62-1.18,1.13-1.05,2.21-3,3.33-5.84,.34-.92,.49-1.73,.44-2.46Z"/><path class="h" d="M2117.52,110.82c-.07-.51-.18-1.1-.31-1.76-.26,.05-.48,.08-.66,.1-3.01,.38-6.07,.83-9.11,.46-.92-.16-1.61-.31-2.04-.44-.44-.13-.98-.36-1.63-.68,1.22-1.11,2.13-2.01,2.73-2.71,.59-.71,1.18-1.58,1.76-2.61,.88-1.56,1.41-3.1,1.57-4.64,.15-1.54-.1-3-.77-4.36-.63-1.27-1.65-2.24-3.07-2.87-1.42-.64-3.14-.97-5.15-.97s-4.25,.38-6.67,1.1c-2.44,.73-5.03,1.88-7.2,3.22-2.66,1.66-5.31,3.36-7.69,5.41-2.04,1.75-3.25,3.12-3.62,4.06-.18,.43-.25,.93-.22,1.5,.03,.57,.15,1,.35,1.3,.47,.69,1.18,.71,2.14,.06,.68-.46,1.2-.85,1.56-1.17,.57-.5,1.14-.97,1.7-1.4,.06,.79,.09,1.19,.16,1.98,.24,2.8,.59,5.63,1.01,8.4,.4,2.69,.92,5.41,1.53,8.07,.62,2.68,1.2,4.82,1.73,6.39,.53,1.57,.99,2.62,1.36,3.14,.68,.95,1.5,1.27,2.45,.96h0c.33-.11,.67-.28,1.03-.54,.72-.51,1.55-1.44,2.51-2.79l.07-.11c.92-1.31,1.53-2.4,1.81-3.28,.29-.91,.35-2.19,.19-3.85-.16-1.66-.59-4.1-1.25-7.32-.18-.81-.27-1.21-.44-2.02-.96-5.32-1.9-10.64-2.82-15.96,1.99-.77,3.61-1.01,4.86-.74,1.24,.27,2.23,1.08,2.97,2.41,.62,1.12,.95,2.39,1.01,3.8,.05,1.41-.14,2.88-.67,4.17-.44,1.07-.94,1.96-1.32,2.57-.39,.62-.94,1.32-1.65,2.04-.5,.51-.83,.93-.95,1.24-.12,.31-.08,.62,.1,.93,.13,.22,.25,.37,.36,.47,.56,.5,1.29,1.03,2.19,1.6,.89,.57,1.87,1.12,2.94,1.64,1.07,.53,2.07,.98,3,1.34,.6,.23,1.22,.45,1.84,.63,.35,.1,.69,.19,1.04,.27,1.19,.27,2.63,.27,4.2,.1,1.57-.18,2.79-.49,3.66-.95,1.58-.84,2.62-2.16,3.14-3.99,.27-1.02,.42-1.9,.42-2.65,0-.41-.04-.93-.13-1.56Z"/><path class="h" d="M2155.17,79.14c-.44-1.63-1.09-3.12-1.95-4.46-.86-1.34-1.72-2.18-2.59-2.52-.36-.18-.84-.28-1.43-.3-.59-.02-1.14,.04-1.63,.19-.84,.25-1.9,.9-3.17,1.96-1.26,1.07-2.31,2.21-3.17,3.34-.74,.98-1.02,1.81-.8,2.48,.12,.36,.72,.9,1.79,1.63,2.15,1.64,4.39,3.33,5.22,6.04,.37,1.23,.49,2.62,.33,4.15-.13,1.21-.4,2.38-.81,3.51-.1,.29-.21,.58-.34,.86-.6,1.39-1.35,2.62-2.28,3.67-.92,1.06-1.93,1.78-3.02,2.18-1.35,.49-2.63,.56-3.86,.21-.87-.25-1.69-.7-2.47-1.37-.32-.28-.64-.59-.94-.94-1.04-1.2-1.98-2.84-2.81-4.92-.59-1.48-.87-2.8-.98-3.81-.12-1.12-.16-2.34,.02-3.51,.25-1.6,.56-2.9,.96-3.87,.4-.96,1.11-2.34,2.21-3.92,.86-1.23,1.72-2.15,2.39-2.74,.67-.59,1.82-1.39,3.45-2.34,1.5-.88,2.59-1.55,3.23-2.06,.63-.5,1.33-1.24,2.11-2.21,.39-.63,.56-1.07,.49-1.3-.17-.57-1.55-.49-4.1,.31-1.82,.57-3.85,1.5-6.06,2.8-2.21,1.3-4.19,2.76-5.92,4.3-1.9,1.69-3.72,3.96-5.03,6.09-1.32,2.15-2.56,4.76-3.28,7.2-.72,2.45-1.09,4.82-1.09,7.09,.01,2.27,.43,4.24,1.19,5.92,.72,1.58,1.82,2.94,3.18,3.94,.98,.73,2.11,1.28,3.33,1.61,1.77,.51,3.82,.65,6.16,.45,2.33-.2,4.55-.7,6.67-1.49,3.6-1.35,6.85-3.58,9.41-6.44,2.28-2.54,4.03-5.55,5.11-8.79,.15-.44,.28-.89,.41-1.34,1.03-3.78,1.08-7.81,.05-11.61Z"/><path class="h" d="M2210.22,59.29c-.02-.67-.17-1.12-.44-1.37-.27-.25-.74-.36-1.41-.33-1.12,.05-2.22,.27-3.31,.67-1.09,.4-2.08,.96-2.99,1.67-.48,.43-.9,.91-1.25,1.45-1.81,2.9-2.53,6.32-3.34,9.58-.74,2.98-1.35,5.41-1.89,7.26-.72-.72-1.17-1.2-1.35-1.46-.6-.69-1.38-1.86-2.37-3.49-.99-1.63-1.94-3.32-2.83-5.07-1.38-2.57-2.78-5.98-5.25-7.52-1.02-.64-2.63-.79-4.59-.49-.97,.15-2.23,.49-3.75,1.04-1.52,.54-2.87,1.15-4.01,1.72-1.32,.66-1.99,1.16-1.92,1.49,.05,.27,.47,.51,1.25,.73,1.18,.37,1.81,.8,1.9,1.29,.07,.37-.13,1.07-.58,2.09-.63,1.44-1.28,3.37-1.9,5.78-.76,2.68-1.12,4.01-1.81,6.69-.47,2.08-.7,3.13-1.13,5.21-.2,.71-.36,1.33-.46,1.86h0c-.02,.11-.04,.21-.06,.31-.76,2.84-1.47,5.11-2.15,6.81-.59,1.48-.81,2.48-.68,3,.17,.68,.76,.89,1.76,.65,1.2-.3,2.36-.8,3.49-1.53,1.13-.73,2.16-1.6,2.97-2.59,.58-.72,.98-1.44,1.25-2.02,.29-.63,.6-1.43,.86-2.36,.26-.93,.57-2.3,.93-4.12,.04-.12,.08-.26,.13-.43,.02-.06,.04-.13,.06-.2,.07-.25,.14-.48,.18-.67,.05-.24,.1-.52,.18-.8,.08-.28,.12-.51,.13-.69,.68-3.45,1.41-6.89,2.2-10.32,.05-.01,.08-.01,.13-.02,.36,.82,.83,1.69,1.41,2.61,1.7,2.78,3.5,5.44,5.42,8.03,1.55,2.09,3.17,4.12,4.87,6.13,2.19,2.54,4.01,3.74,5.56,3.58,.61-.07,1.19-.39,1.77-.98,.33-.34,.62-.7,.85-1.09,1.77-3.13,2.99-6.62,4.22-10.02,.21-.57,.41-1.14,.62-1.7,.11-.26,.24-.61,.38-1.03,.17-.39,.25-.59,.42-.98,1.08-2.75,2.16-5.5,3.25-8.24,.9-2.26,1.62-4.11,2.13-5.54,.51-1.43,.87-2.6,1.06-3.49,.08-.24,.11-.61,.1-1.11Z"/><path class="h" d="M2246.05,68.83c-.39,1-.99,1.95-1.67,2.79-.31,.44-.47,.71-.48,.83-.04,.43,.32,.68,1.09,.76,1.89,.19,3.72-.02,5.52-.63,1.8-.62,3.32-1.53,4.55-2.76,1.23-1.22,1.95-2.58,2.19-4.01,.74-4.5-4.36-6.44-7.92-6.76-3.76-.33-7.84-.02-11.43,1.16-3.83,1.25-7.49,2.95-10.83,5.36-2.98,2.16-5.84,4.86-7.61,7.93-1.24,2.15-2.35,4.55-2.6,7.14-.04,.43-.06,.86-.05,1.3,.05,2.16,.47,4.08,1.29,5.69,.83,1.6,2,2.83,3.51,3.7,1.52,.87,3.32,1.33,5.44,1.4,1.78,.06,3.55-.23,5.34-.88,1.79-.64,3.77-1.7,5.95-3.15-.24,1.09-.77,2.63-1.58,4.61-.81,1.98-1.61,3.64-2.39,5-1.21-.82-2.37-1.82-3.43-3-.89-1-1.6-1.54-2.13-1.56-.5-.02-1.54,.37-3.08,1.2-.97,.52-1.74,1.05-2.31,1.59-.57,.54-.85,1.02-.85,1.45-.01,.65,.46,1.31,1.41,2,.94,.69,2.15,1.26,3.61,1.75,1.46,.48,2.9,.76,4.33,.85,1.74,.1,3.45-.05,5.16-.44,1.7-.39,3.03-.94,3.96-1.65,2.8-2.27,4.87-5.26,6.84-8.17,1.85-2.74,3.51-5.64,5.07-8.61,.74-1.42,1.47-2.85,2.17-4.28,.23-.64,.35-1,.36-1.09,.16-1.03-.43-1.65-1.75-1.83-1.13-.16-2.75-.12-4.86,.15s-3.86,.68-5.26,1.21c-.52,.19-.93,.42-1.22,.69-.3,.27-.88,.92-1.75,1.94-.31,.39-.65,.81-1,1.25-1.57,1.98-3.49,4.21-5.92,4.17-1.05-.01-1.97-.54-2.62-1.41-.65-.88-.95-1.98-.89-3.29,0-.09,0-.18,.02-.26,.09-1.31,.4-2.73,.95-4.26,.59-1.63,1.38-3.24,2.39-4.8,1.01-1.57,2.13-2.91,3.28-4.01,1.31-1.24,2.96-2.39,4.99-3.37,2.02-.97,3.59-1.39,4.66-1.28,.46,.05,.61,.79,.45,2.22-.09,.8-.37,1.98-.91,3.38Z"/><path class="h" d="M2328.01,81.4c-.26-.31-1.03-.76-2.31-1.33-2.47-1.1-4.6-1.72-6.37-1.88-.61-.07-1.12-.09-1.52-.07s-.77,.08-1.12,.17c-.34,.09-.77,.24-1.27,.44-6.3,3.18-11.78,8-17.07,12.58-.4,.35-.6,.53-.99,.88-.27-.6-.42-1.24-.44-1.92-.02-.68,.11-2.14,.36-4.38,.05-.15,.09-.47,.11-.96,.04-.13,.07-.24,.07-.33s.02-.19,.03-.3c.01-.11,.03-.27,.05-.48,.33-2.82,.71-5.68,.59-8.53-.08-2.03-.45-3.49-1.05-4.36-.98-1.4-3.03-2.58-6.12-3.46-1.54-.44-3.01-.67-4.41-.69-1.4-.03-2.15,.15-2.24,.51-.06,.23,.14,.57,.57,1.02,.57,.59,.8,1.09,.71,1.43-.08,.31-1.05,1.28-2.86,2.9-3.38,3.03-6.74,6.09-10.05,9.21-.82,.77-1.22,1.15-2.02,1.92-1.09,1.06-2.17,2.13-3.27,3.17h0c-1.08,1.03-2.18,2.04-3.31,2.99-.89,.77-1.33,1.15-2.21,1.93-1.25,1.06-2.04,1.72-2.4,1.96-.63,.37-.96,.71-1.02,.99-.05,.32,.08,.61,.4,.88,.32,.27,.72,.44,1.2,.53,1.25,.23,2.62,.21,4.12-.04,1.5-.25,2.94-.71,4.33-1.39,.92-.54,1.57-.96,1.96-1.28,.85-.67,1.66-1.35,2.41-2.05,.6-.56,1.37-1.31,2.31-2.25,.25-.25,.51-.51,.78-.79,1.31-1.32,2.6-2.62,3.86-3.9,.15-.16,.7-.72,1.66-1.69s1.68-1.68,2.15-2.14c.47-.46,1.17-1.14,2.12-2.05,.05,.02,.08,.02,.13,.04-.46,2.6-.85,5.24-1.09,7.87-.2,2.18-.27,4.09-.2,5.74v.19c.08,1.59,.28,3.2,.62,4.79,.34,1.58,.88,2.96,1.6,4.12,.72,1.17,1.48,1.88,2.29,2.14,.29,.09,.67,.14,1.13,.14,.46,0,.9-.08,1.32-.23,.12-.03,.26-.08,.41-.16,.16-.07,.26-.12,.31-.14,2.14-1.48,4.14-3.16,6.15-4.81l.68-.56c1.15-.93,2.15-1.72,3-2.37,.85-.65,1.95-1.47,3.3-2.44,1.35-.97,3.06-2.16,5.13-3.57l.13,.05c-.11,.33-.57,1.78-1.44,4.29-.8,2.32-1.38,4.29-1.68,5.9-.22,1.15-.31,2.21-.28,3.17,.01,.38,.04,.75,.09,1.1,.18,1.25,.59,2.49,1.24,3.73,.94,2.17,3.18,4.42,5.31,5.35,1.64,.72,3.62,.88,5.93,.38,1.39-.33,2.21-.72,2.45-1.19,.04-.07,.05-.16,.05-.28,0-.3-.13-.74-.4-1.3-.29-.61-.65-1.51-.97-2.65-.27-1-.46-2.43-.44-4.05,.02-1.77,.28-3.6,.65-5.22,.69-3.04,1.88-6.01,3.14-8.84,.52-1.17,1.53-3.19,3.01-5.85,.25-.46,.5-.9,.69-1.32,.25-.54,.25-.97-.02-1.28Z"/><path class="h" d="M2372.09,108.54c-.53-1.72-1.89-3.38-4.08-4.91-2.17-1.51-4.16-2.58-5.95-3.23-.47-.17-1.02-.27-1.65-.31,.03,.33,.05,.63,.07,.9h0c.07,.9,.13,1.57,.2,2.66-2.72,.89-4.87,1.64-6.46,2.21-1.6,.58-3,1.1-4.24,1.57-1.23,.47-2.24,.88-3.03,1.21-.79,.33-2.61,1.1-5.41,2.36-1.64-.95-2.85-1.52-3.61-1.73s-1.7-.21-2.81,0c-2.33,.41-3.66,.97-4.02,1.63-.44,.81,.25,1.9,2.05,3.29-.6,.25-1.49,.56-2.64,.94-.89,.3-1.66,.59-2.32,.85-1.78,.7-2.75,1.26-2.94,1.62-.22,.41-.16,.82,.16,1.22,.32,.4,.97,.87,1.95,1.4,1.7,.93,3.21,1.54,4.55,1.82,1.31,.27,2.65,.23,4.02-.13,.03,0,.06-.01,.08-.02,1.4-.38,3.12-1.12,5.18-2.21,.21-.11,.31-.16,.52-.27,3.45,2.22,5.34,3.55,5.74,3.85,.46,.35,1.03,.75,1.7,1.2,1.17,.79,3.03,1.55,5.6,2.35-.07,.37-.14,.71-.22,1.01-.07,.31-.13,.56-.17,.76-.5,2.11-.82,3.91-.81,5.28,0,1.06,.28,2.04,.71,2.86,.43,.82,1.14,1.6,2.12,2.36,.8,.62,1.82,1.13,3.06,1.55,1.24,.42,2.86,.8,4.9,1.17,.29-2.61,.55-4.67,.82-6.16,.13-.69,.27-1.42,.43-2.21,.16-.78,.27-1.4,.34-1.84,.32-1.49,.57-2.56,.75-3.22,.18-.65,.65-2.1,1.38-4.37,.29-.79,.78-1.93,1.47-3.4,1.36-2.88,2.27-5.25,2.65-7.08,.11-.53,.19-1.05,.23-1.56,.1-1.23,0-2.38-.33-3.45Zm-15.84,12.34c-2.48-1.71-4.97-3.38-7.48-5.02,3.53-1.69,7.09-3.32,10.68-4.89,.04,.03,.07,.05,.11,.08-1.06,3.29-2.17,6.57-3.31,9.83Z"/><path class="h" d="M2428.43,162.8c-.74-1-1.62-1.89-2.63-2.66-1.01-.77-2.1-1.37-3.26-1.79-.66-.2-1.32-.31-1.99-.33-3.48-.04-6.81,1.21-10.06,2.31-.39,.13-.76,.26-1.13,.38-2.43,.82-4.46,1.48-6.09,1.96,.15-1.05,.27-1.72,.37-2.03,.21-.92,.69-2.27,1.42-4.07,.26-.63,.53-1.26,.81-1.89h0c.52-1.16,1.06-2.31,1.65-3.46,1.29-2.69,3.24-5.88,3-8.85-.1-1.27-.97-2.77-2.43-4.32-.73-.77-1.79-1.68-3.18-2.71-1.4-1.03-2.72-1.86-3.9-2.53-1.37-.78-2.18-1.08-2.42-.83-.19,.2-.13,.69,.16,1.49,.42,1.23,.45,2.02,.1,2.37-.27,.27-.97,.48-2.1,.67-.78,.12-1.66,.32-2.63,.57-1.01,.27-2.12,.61-3.34,1.02-2.68,.85-4.02,1.29-6.67,2.19-2.02,.77-3.03,1.16-5.02,1.96-.86,.28-1.57,.54-2.12,.78-2.82,.95-5.14,1.62-6.96,2-1.59,.33-2.55,.71-2.9,1.11-.46,.53-.28,1.15,.54,1.87,.98,.86,2.11,1.57,3.4,2.12,1.3,.56,2.65,.97,3.98,1.1,.95,.1,1.8,.04,2.44-.05,.7-.1,1.55-.28,2.48-.58,.93-.3,2.26-.8,3.99-1.5,.17-.05,.38-.11,.63-.19,.25-.08,.49-.15,.67-.22,.23-.09,.49-.21,.77-.3,.28-.09,.5-.18,.65-.27,3.29-1.34,6.6-2.63,9.93-3.86,.04,.04,.06,.06,.1,.1-.46,.78-.89,1.67-1.3,2.69-2.3,5.55-4.02,11.14-5.4,16.99-.76,3.36-.62,5.65,.48,6.95,.43,.51,1.07,.85,1.92,1.04,.49,.11,.97,.16,1.43,.16,4.29-.21,8.58-1.26,12.76-2.14,.29-.05,.65-.12,1.09-.23,.43-.07,.65-.1,1.08-.16,1.62-.3,3.24-.6,4.86-.89,1.34-.24,2.69-.48,4.03-.72,2.44-.43,4.43-.79,5.94-1.12,1.51-.33,2.71-.64,3.57-.96,.25-.06,.58-.24,.98-.53,.54-.39,.83-.78,.87-1.16,.04-.38-.16-.88-.61-1.48Z"/></g></g><path class="h" d="M2403.58,289.27c-6.94,56.76-39.46,105.61-85.69,134.67-.4,.25-.8,.5-1.21,.75v-11.45c37.03-26.17,63.09-66.83,69.91-113.73,.1-.67,.19-1.34,.28-2.01l-14.39,7.08c-8.48,34.26-28.14,64.11-54.89,85.45-.3,.25-.61,.49-.91,.73v-.64c-12.46,1.12-21.97-2.12-17.85-6.24,.99-.99,4.68-1.77,10.48-2.22,10.38-.8,12.61-1.92,11.62-5.84l-.68-2.7-34.51-.27-34.51-.27-.3-7.52c-.2-4.88,.27-9.24,1.32-12.41,1.45-4.35,2.56-5.52,10.29-10.82,9.64-6.62,14.9-13.14,17.82-22.11l1.77-5.43,9.11-.02c10.17-.02,14.95-1.81,22.13-8.29,2.1-1.89,5.09-3.72,6.65-4.07,10.72-2.38,21.54-7.7,22.21-10.94,2.95-14.23,.74-26.84-7.98-45.66-7.4-15.95-9.03-19.6-8.29-22.1h0c.19-.65,.53-1.21,.98-1.89,.26-.4,.57-.79,.9-1.13,.75-1.74,1.18-3.81,1.18-6.02,0-.57-.03-1.14-.09-1.69h21.73v-9.99h-24.66c-1.22-3.28-5.91-4.05-7.55-.59,.27-3.03-.71-3.83-2.05-3.57-.77,.15-2.29,.78-3.05,1.8-.4-1.26-1.43-2.35-2.17-2.46-1.57-.24-3.34,.51-4.12,1.93-.29-4.52-5.34-2.84-6.77,2.73-.01,.05-.03,.1-.04,.16h-162.27c-.02-.05-.03-.1-.04-.16-1.46-5.74-6.7-6.57-6.7-1.54,0-2.43-2.4-4.22-4.18-3.12-.4,.25-2.01,1.18-2.68,2.37-.69-.94-1.83-1.58-2.53-1.72-1.16-.22-2.82,.27-3.39,2.41-1.58-2.14-5.09-1.37-6.47,1.76h-9.78v9.99h7.36c-.05,.55-.08,1.12-.08,1.69,0,2.48,.54,4.77,1.46,6.63,.13,.17,.26,.34,.37,.52,.32,.48,.58,.91,.78,1.34,1.15,2.56-.14,5.51-8.09,22.64-8.73,18.82-10.93,31.42-7.98,45.66,.67,3.23,11.48,8.56,22.21,10.94,1.56,.35,4.55,2.18,6.65,4.07,7.18,6.48,11.96,8.27,22.13,8.29l9.11,.02,1.77,5.43c2.92,8.96,8.18,15.49,17.82,22.11,7.73,5.31,8.84,6.47,10.29,10.82,1.05,3.17,1.51,7.52,1.32,12.41l-.3,7.52-34.51,.27-34.51,.27-.68,2.7c-.98,3.92,1.24,5.04,11.62,5.84,5.8,.45,9.49,1.23,10.48,2.22,4.22,4.22-5.86,7.51-18.76,6.15-.02,0-.04,0-.06,0l-1.78-.19v-1.29c-26.18-21.54-45.31-51.34-53.4-85.41l-14.21-7c.14,1.12,.29,2.24,.45,3.36,6.65,45.73,31.59,85.53,67.16,111.75v11.71c-45.77-29.4-77.79-78.34-84.31-135.03l-32.96-16.23c2.57,109.55,86.1,199.08,193.07,211.06h.05c7.19,.81,14.48,1.27,21.87,1.35,.85-.01,1.72-.02,2.6-.04,.88,.02,1.75,.03,2.6,.04,7.38-.08,14.68-.54,21.87-1.34h.05c106.55-11.95,189.84-100.82,193.04-209.79l-33.09,16.29Zm-253.52,137.55c.52,1.31,1.2,2.5,2.02,3.56h0c.37,.47,.76,.91,1.19,1.33,1.39,1.37,3.03,2.44,4.93,3.22,1.89,.77,3.98,1.16,6.26,1.16,.8,0,1.59-.05,2.37-.15,1.37-.17,2.71-.48,4.02-.95,.75-.26,1.49-.59,2.22-.98v-14.07h10.12v19.43c-.34,.26-.69,.51-1.05,.75-2.39,1.64-5.08,2.9-8.05,3.8-2.04,.61-4.08,1.04-6.12,1.29-1.38,.17-2.76,.25-4.14,.25-3.79,0-7.28-.61-10.47-1.81-3.19-1.21-5.95-2.93-8.28-5.16-.81-.77-1.55-1.6-2.23-2.46-1.29-1.64-2.36-3.44-3.21-5.4-.97-2.24-1.57-4.64-1.82-7.2-.08-.89-.13-1.79-.13-2.72,0-3.6,.65-6.91,1.95-9.92,.91-2.1,2.07-4.01,3.5-5.73,.62-.75,1.29-1.46,2.01-2.14,2.37-2.24,5.15-3.96,8.35-5.17,3.19-1.21,6.7-1.81,10.53-1.81,4.24,0,8.06,.71,11.46,2.12,3.4,1.41,6.26,3.46,8.59,6.16l-7.05,6.57c-1.78-1.87-3.69-3.25-5.75-4.14s-4.31-1.33-6.77-1.33c-2.28,0-4.38,.37-6.29,1.13s-3.57,1.81-4.96,3.18c-.12,.12-.24,.24-.36,.36-1.22,1.29-2.17,2.78-2.86,4.49-.75,1.87-1.13,3.94-1.13,6.22s.37,4.23,1.13,6.12Zm14.52-150.95c-2.07,.89-6.64,2.96-8.29,4.14-.52-.47-1.09-1.03-1.59-1.63-2.79-3.35-9.34-6.69-14.3-7.28-4.38-.52-6.02-.11-12.66,3.12-4.2,2.05-8.16,3.72-8.82,3.72s1.19-2.42,4.1-5.37l5.28-5.37-.83-7.16c-1.14-9.88-.85-22.72,.65-29,1.17-4.88,1.54-5.32,5.24-6.32,6.62-1.78,10.77-7.57,9.77-12.22h151.96c-1,4.65,3.14,10.44,9.77,12.22,3.7,1,4.07,1.44,5.24,6.32,1.5,6.28,1.79,19.12,.65,29l-.83,7.16,5.28,5.37c2.91,2.96,4.75,5.37,4.1,5.37s-4.62-1.67-8.82-3.72c-6.64-3.24-8.28-3.64-12.66-3.12-4.97,.59-11.05,4.36-14.3,7.28-.66,.6-1.43,1.03-2.16,1.36-1.78-1.15-5.96-3.12-7.71-3.87-7.04-3.02-15.35-2.25-20.1,1.85-.23,.2-.43,.39-.59,.57-2.13-1.49-9.54-5.12-11.96-6.48-4.99-2.79-5.12-2.99-5.42-8.04-.19-3.29,.24-6.03,1.2-7.52,.83-1.29,2.27-4.99,3.19-8.21,1.53-5.34,1.54-6.07,.08-8.16-1.04-1.48-1.6-4.53-1.6-8.67,0-5.74-.33-6.77-3.32-10.16-4.51-5.14-10.24-7.6-16.01-7.41-5.77-.19-11.5,2.28-16.01,7.41-2.98,3.4-3.32,4.42-3.32,10.16,0,4.14-.56,7.19-1.6,8.67-1.46,2.08-1.45,2.82,.08,8.16,.92,3.23,2.36,6.93,3.19,8.21,.96,1.49,1.39,4.23,1.2,7.52-.3,5.05-.44,5.25-5.42,8.04-2.81,1.58-12.39,5.11-12.56,5.91-4.75-4.1-13.06-4.87-20.1-1.85Zm57.22,148.59l-1.86,3.11v17.08h-11.15v-17.05l-2.17-3.6-16.44-27.23h11.83l12.76,21.2,12.82-21.2h10.81l-16.61,27.7Zm18.79-93.3c-4.52,.77-6.84,.67-13.29-.57-1.63-.31-3.77-1.46-4.76-2.56-1.2-1.33-2.27-1.96-3.41-1.88-1.14-.08-2.21,.55-3.41,1.88-.99,1.09-3.13,2.24-4.76,2.56-6.45,1.24-8.77,1.34-13.29,.57-6.02-1.03-9.7-2.97-14.48-7.62-3.78-3.67-5.59-7.58-2.01-4.35,1,.91,4.56,2.86,7.91,4.34,5.43,2.4,7.11,2.65,15.66,2.34,8.47-.31,9.79-.61,11.44-2.65,1.38-1.7,2.05-2.4,2.96-2.02,.9-.39,1.58,.31,2.96,2.02,1.65,2.04,2.97,2.34,11.44,2.65,8.55,.31,10.23,.06,15.66-2.34,3.34-1.48,6.9-3.43,7.91-4.34,3.57-3.23,1.76,.67-2.01,4.35-4.78,4.65-8.46,6.59-14.48,7.62Zm59.93,113.49h-10.33l-.03-6.37-.04-9.66h0l-.05-12.53-10.14,16.84h0l-3.97,6.59h-4.93l-1.76-2.89-10.47-17.17-1.86-3.05v28.24h-10.33v-47.88h9.17l12.1,20.05,5.83,9.67,9.08-15.36,8.49-14.36h9.23v47.88Z"/></g></svg>