<?xml version="1.0" encoding="UTF-8"?><svg id="a" xmlns="http://www.w3.org/2000/svg" xmlns:xlink="http://www.w3.org/1999/xlink" viewBox="0 0 2500 2500"><defs><style>.d{fill:#06001d;}.e{filter:url(#b);}</style><filter id="b" filterUnits="userSpaceOnUse"><feOffset dx="7" dy="7"/><feGaussianBlur result="c" stdDeviation="5"/><feFlood flood-color="#000" flood-opacity=".75"/><feComposite in2="c" operator="in"/><feComposite in="SourceGraphic"/></filter></defs><g class="e"><path class="d" d="M1878.41,668.44c-4.18-37.5-14.09-59.62-36.9-82.42-31.62-31.61-78.64-46.29-148.02-46.2-47.73,.05-118.01,9.6-157.52,21.39-7.73,2.31-8.01,2.1-20.88-14.99-20.5-27.22-31.75-37.19-47-41.62-16.44-4.79-36.14-8.32-52.79-9.46-10.9-.76-13.26-.1-16.99,4.65-2.4,3.03-6.65,6.25-9.47,7.15-7.35,2.34-12.04,10.7-15.02,26.85-3.77,20.34-1.16,27.43,2.22,35.59,3.17,7.71,4.12,8.47,5.31,9.97,3.2,3.99,3.54,4.02,12.17,5.39,8.45,1.35,4,2.96,13.68,.26,4.45-1.24,10.6-7.06,15.91-8.79,5.31-1.73,13.55-5.79,18.33-9.01,5.03-3.39,10.34-5.21,12.63-4.34,3.45,1.33,13.71,15.18,13.71,18.55,0,.68-14.46,7.35-32.11,14.84-34.76,14.72-70.6,33.86-103.18,55.1-35.42,23.1-61.17,45.23-57.23,49.17,.4,.4,13.66-7.94,29.44-18.55,23.11-15.53,66.76-38.89,99.09-53.04,20.14-8.83,63.63-23.94,68.95-23.96,3.05-.01,4.57,6.57,7.96,34.38,3.9,32.16,6.99,51.35,10.28,63.76,1.33,5.03,.98,5.13-9.1,2.8-14.88-3.47-48.58-.56-59.74,5.15-5.03,2.55-12.56,8.55-16.75,13.31-7.29,8.3-7.88,8.52-14.26,5.24-10.46-5.4-35.29-8.29-50.79-5.88-15.21,2.35-44.28,17.44-57.56,29.88-5.51,5.16-8.3,6.47-9.14,4.3-.67-1.73-4.24-3.84-7.94-4.7-3.71-.86-9.2-3.11-12.18-4.97-5.22-3.26-5.43-4.71-5.43-38.4s.08-35.03,5.7-37.17c6.56-2.49,7.75-4.93,10.07-20.36,1.14-7.59,3.55-17.82,1.54-20.26-2.41-2.9-4.8-1.06-.47-13.23,2.95-8.29,6.53-17.54,7.96-20.54,1.42-3,3.45-19.71,3.56-28.66,.1-9.72,2.44-9.59-.28-15.85-4.3-31.39-38.2-55.92-79.61-56.47-.49-.01-.96-.01-1.45-.01-8.83,0-17.34,1.09-25.31,3.12-32.62,8.25-56.2,32.05-56.2,60.13,0,2.72,.22,5.39,.65,8.02-.12,4.83,.22,10.27,.83,16.79,1.4,14.79,5.69,29.49,2.92,36.8-4.46,11.73-2.83,21.61,.28,31.2,1.42,4.36,5.15,7.56,9.66,8.32h0l-1.19,30.17c-.65,16.59-1.99,32.12-2.99,34.52-1.59,3.84-26.95,18.58-31.96,18.58-1.07,0-4.04-3.93-6.64-8.71-7.96-14.77-28.45-33.69-41.22-38.04-13.57-4.62-23.47-4.75-43.28-.58-8.62,1.81-15.86,5.94-18.65,9.77-13.36-16.62-30.4-31.79-42.06-37.44-13.91-6.73-26.79-6.83-44.92-.33-13.31,4.76-19.7,4.21-8.47-.74,3.52-1.54,8.16-8.73,13.23-20.48,7.1-16.39,7.84-20.39,7.87-42.32l.05-24.21,19.28-22.87c10.61-12.56,19.3-23.67,19.32-24.67,.01-1,1.66-1.81,3.65-1.81s3.63,1,3.63,2.25,2.17,2.94,4.84,3.79c2.66,.85,8.12,4.3,12.13,7.67,5.92,4.98,12.13,15.16,20.92,15.57-.01,.58,.21,1.01,.73,1.21,21.83,7.98,29.12,2.94,48.5-19.23,6.65-7.61,1.32-28.16-2.98-42.03-1.39-4.44-7.06-11.62-13.13-16.59-10.5-8.61-11.27-8.8-43.87-11.97-51.49-5.01-46.74-5.99-67.87,14.22-23.23,22.22-37.53,33.75-61.89,49.91-23.4,15.52-58.15,50.17-68.15,67.93-9.48,16.86-16.62,38.17-21.09,63.02-1.99,10.99-4.3,22.43-5.16,25.45-2.55,9.06,3.94,27.02,13.08,36.15,6.05,6.04,14.89,11.58,23.69,15.27,3.88,6.31,23.22,17.75,37.27,28.68,31.77,24.71,67.92,44.89,99.38,55.5,34.31,11.56,37.46,14.68,44.16,43.59,10.65,46.01,18.97,70.56,36.8,108.63,28.72,61.37,39.27,87.44,41.28,101.97,1.14,8.3,1.55,35.76,.92,60.98l-1.16,45.87-10.33,25.35c-11.54,28.29-26.13,70.35-30.15,86.91-10.2,41.98-16.43,79.66-19.35,117.08-1.36,17.26-3.07,34.32-3.79,37.89-1.42,6.98-3.61,8.01-32.39,15.22-8.62,2.17-19.48,4.93-24.13,6.15-20.3,5.31-59.68,9.55-88.42,9.5-87.21-.15-142.99-35.08-159.02-99.54-4.53-18.26-4-60.09,1.07-83.87,2.73-12.86,12.62-44.5,16.97-54.32,20.87-47.21,35.97-74.72,63.58-115.88,15.7-23.38,60.78-82.99,66.67-88.11,.76-.67,5.06-5.56,9.56-10.87,23.06-27.22,67.56-73.63,104.96-109.48,14.39-13.77,18.75-19.68,14.57-19.68-.8,0-13.55,8.12-28.36,18.06-107.58,72.1-207.84,184.51-263.02,294.87-13.14,26.28-29.74,65.75-33.36,79.36-1.07,3.99-3.64,13.77-5.75,21.73-5.33,20.19-10.7,57.55-10.81,75-.27,52.31,22.97,102.8,59.71,129.78,32.55,23.88,83.36,39.81,139.38,43.66,34.18,2.36,95.3-1.76,143.64-9.66,148.39-24.3,315.73-115.28,514.2-279.6,64.54-53.46,143.93-129.97,192.09-185.15,101.96-116.84,172.6-232.7,197.79-324.44,2.19-7.97,4.93-17.75,6.07-21.73,5.25-18.22,7.65-56.57,5.02-80.13Zm-92.75,96.87c-6.04,15.08-35.92,72.24-47.68,91.25-77.7,125.49-202.63,265.4-322.09,360.7-19.92,15.89-37.32,29.53-38.66,30.34-1.35,.8-15.62-11.26-31.74-26.77-34.97-33.69-38.09-39.38-35.96-65.49,1.09-13.33,.44-21.6-2.49-31.38-7.88-26.36-6.73-48.57,3.81-73.64,9.99-23.74,19.97-44.28,29.93-61.55,21.87-37.91,41.92-78.33,47.32-95.35,10.31-32.59,8.32-30.17,25.05-30.2,17.54-.01,56.09-5.7,71.9-10.61,18.67-5.79,41.07-20.62,44.88-23.47,2.98-2.25,5.56-4.75,12.19-8.53,28.22-16.09,69.6-49.07,77.74-74.22,2.43-7.53,2.45-12.94,.12-26.57-7.64-44.59-28.44-87.38-58.13-119.57-9.87-10.69-11.45-13.53-8.46-15.2,2.01-1.13,18.07-4.17,35.67-6.76,41.56-6.11,107.62-6.52,132.93-.82,35.36,7.97,59.86,23.28,72.91,45.58,6.76,11.53,13.27,35.56,13.27,48.96,0,20.16-10.32,62.91-22.51,93.32Z"/><g><g><g/><g><path class="d" d="M300.91,1675.18v87.33c0,12.32-2.19,21.06-6.58,26.22s-10.43,7.74-18.14,7.74-13.55-2.58-18.02-7.74c-4.47-5.16-6.7-13.9-6.7-26.22v-87.33h-54.52v88.94c0,24.18,6.93,42.97,20.79,56.37,13.86,13.4,33.19,20.1,57.99,20.1s44.12-6.7,57.99-20.1,20.79-32.19,20.79-56.37v-88.94h-53.6Z"/><path class="d" d="M485.73,1675.18v73.53l-61.45-73.53h-44.82v161.71h53.13v-73.53l61.45,73.53h44.82v-161.71h-53.13Z"/><path class="d" d="M565.2,1675.18v161.71h54.52v-161.71h-54.52Z"/><path class="d" d="M765.26,1675.18l-39.61,94.37-38.48-94.37h-58.68l68.38,161.71h53.6l68.38-161.71h-53.6Z"/><polygon class="d" points="962.08 1795.77 962.08 1836.89 827.63 1836.89 827.63 1675.18 959.08 1675.18 959.08 1716.3 881.22 1716.3 881.22 1735.24 949.6 1735.24 949.6 1774.52 881.22 1774.52 881.22 1795.77 962.08 1795.77"/><path class="d" d="M1104.18,1787.16c9.06-4.65,16.21-10.9,21.46-18.76,6.01-9.01,9.01-19.75,9.01-32.23s-3-23.29-9.01-32.46c-6.01-9.16-14.52-16.21-25.53-21.14-11.01-4.93-24.06-7.39-39.16-7.39h-77.85v161.71h54.52v-40.66h14.85l27.43,40.66h58.22l-33.93-49.73Zm-66.56-69.93h19.87c7.55,0,13.13,1.69,16.75,5.08,3.62,3.39,5.43,8.01,5.43,13.86s-1.81,10.47-5.43,13.86-9.2,5.08-16.75,5.08h-19.87v-37.89Z"/><path class="d" d="M1285.97,1764.81c-3.23-5.7-7.51-10.32-12.82-13.86-5.31-3.54-11.13-6.39-17.44-8.55-6.31-2.16-12.67-3.85-19.06-5.08-6.39-1.23-12.24-2.39-17.56-3.47-5.31-1.08-9.59-2.43-12.82-4.04s-4.85-3.81-4.85-6.58c0-1.85,.65-3.54,1.96-5.08s3.5-2.77,6.58-3.7c3.08-.92,7.24-1.39,12.48-1.39,7.08,0,14.36,1,21.83,3,7.47,2,15.21,5.01,23.22,9.01l16.4-39.5c-8.47-4.77-18.02-8.32-28.65-10.63-10.63-2.31-21.41-3.47-32.34-3.47-16.63,0-30.53,2.46-41.7,7.39-11.17,4.93-19.56,11.51-25.18,19.75-5.62,8.24-8.43,17.36-8.43,27.38,0,8.62,1.62,15.82,4.85,21.6,3.23,5.78,7.51,10.43,12.82,13.98,5.31,3.54,11.17,6.39,17.56,8.55,6.39,2.16,12.74,3.89,19.06,5.2,6.31,1.31,12.13,2.54,17.44,3.7,5.31,1.16,9.59,2.58,12.82,4.27,3.23,1.69,4.85,4,4.85,6.93,0,1.85-.69,3.43-2.08,4.74-1.39,1.31-3.58,2.31-6.58,3-3,.69-7.12,1.04-12.36,1.04-8.93,0-18.14-1.35-27.61-4.04-9.47-2.7-18.06-6.28-25.76-10.74l-17.56,39.74c8.16,4.93,18.56,8.93,31.19,12.01,12.63,3.08,25.72,4.62,39.27,4.62,16.79,0,30.73-2.52,41.81-7.51,11.09-5.01,19.44-11.63,25.07-19.87,5.62-8.24,8.43-17.29,8.43-27.14,0-8.47-1.62-15.56-4.85-21.25Z"/><polygon class="d" points="1484.41 1836.89 1428.05 1836.89 1417.21 1808.71 1402.12 1769.43 1386.46 1728.7 1370.8 1769.43 1355.71 1808.71 1344.88 1836.89 1289.43 1836.89 1360.13 1675.18 1413.72 1675.18 1484.41 1836.89"/><path class="d" d="M1547.71,1794.61v-119.44h-54.52v161.71h127.52v-42.28h-73Z"/></g><g><path class="d" d="M1851.17,1840.59c-13.09,0-25.14-2.04-36.15-6.12-11.01-4.08-20.56-9.89-28.65-17.44-8.09-7.54-14.36-16.48-18.83-26.8-4.47-10.32-6.7-21.72-6.7-34.19s2.23-23.87,6.7-34.19c4.47-10.32,10.78-19.25,18.94-26.8,8.16-7.54,17.82-13.36,28.99-17.44,11.16-4.08,23.45-6.12,36.85-6.12,16.02,0,30.3,2.7,42.85,8.09,12.55,5.39,22.91,13.09,31.07,23.1l-34.88,30.72c-5.08-5.85-10.59-10.28-16.52-13.28-5.93-3-12.51-4.5-19.75-4.5-6.01,0-11.44,.92-16.29,2.77-4.85,1.85-8.97,4.54-12.36,8.09-3.39,3.54-6.01,7.78-7.85,12.71-1.85,4.93-2.77,10.55-2.77,16.87s.92,11.51,2.77,16.52c1.85,5.01,4.47,9.28,7.85,12.82,3.39,3.55,7.43,6.28,12.13,8.2,4.7,1.93,9.97,2.89,15.82,2.89,6.16,0,12.16-1.04,18.02-3.12,5.85-2.08,12.09-5.66,18.71-10.74l30.49,37.42c-9.86,6.62-21.1,11.71-33.73,15.25-12.63,3.54-24.87,5.31-36.73,5.31Zm23.1-27.49v-61.45h47.36v68.38l-47.36-6.93Z"/><path class="d" d="M1986.55,1836.89v-70.92l12.47,32.57-73.46-123.37h57.52l49.67,84.32h-33.5l50.13-84.32h52.67l-73,123.37,12.01-32.57v70.92h-54.52Z"/><path class="d" d="M2108.99,1836.89v-161.71h44.82l64.69,105.58h-23.56l62.84-105.58h44.82l.46,161.71h-49.67l-.46-86.86h7.85l-42.97,72.31h-24.03l-44.82-72.31h9.7v86.86h-49.67Z"/></g></g><g><path class="d" d="M699.72,1971.82h-.24c-3.09,6.02-6.3,11.53-9.63,16.54-3.97,5.94-7.32,10.33-10.05,13.18-1.49,1.4-3.33,2.64-5.54,3.7s-4.11,1.59-5.72,1.59c-.4,0-.93-.13-1.6-.39s-1.19-.63-1.59-1.11c-2.05-2.21-3.69-7.87-4.94-17s-1.87-20.2-1.87-33.24c0-10.59,.78-17.63,2.35-21.12,.64-1.48,1.56-2.71,2.77-3.67s2.99-1.91,5.35-2.83c2.08-.84,4.24-1.54,6.47-2.11s3.98-.84,5.26-.84c1.12,0,2.02,.28,2.68,.84s.99,1.34,.99,2.35c0,.4-.08,.94-.24,1.62-.84,3.73-1.62,8.98-2.35,15.76-.52,4.49-.88,8.14-1.08,10.95-.2,2.81-.38,6.64-.54,11.49-.16,4.85-.26,9.65-.3,14.38l.24,.24c1.81-2.33,3.74-5.11,5.78-8.36,.72-1.2,1.43-2.33,2.11-3.37s1.43-2.27,2.23-3.67c1.85-3.29,3.49-6.5,4.94-9.63,.72-1.44,1.36-2.91,1.93-4.39,6.02-13.4,10.26-21.16,12.71-23.28,1.12-1,3.18-1.96,6.17-2.86s5.67-1.35,8.04-1.35c1.53,0,2.79,.35,3.79,1.05s1.51,1.63,1.51,2.8c0,1.04-.54,3.13-1.62,6.26-2.09,6.06-3.78,12.67-5.08,19.85-1.3,7.18-1.96,13.58-1.96,19.19,0,11.43,2.22,17.15,6.65,17.15,1.28,0,2.58-.96,3.9-2.89,1.32-1.93,2.45-4.37,3.39-7.34s1.72-6.43,2.34-10.38,.93-8.01,.93-12.18c0-2.49-.12-5.43-.36-8.84-.08-.92-.12-1.78-.12-2.59,0-4.41,2.43-8.86,7.28-13.36,2.37-2.29,4.13-3.43,5.29-3.43,2.77,0,4.15,5.21,4.15,15.64,0,7.42-.8,14.52-2.41,21.3-2,8.14-4.77,15.06-8.3,20.76-1.84,3.09-4.04,6.06-6.58,8.9s-5.06,5.13-7.55,6.86c-3.17,2.21-6.54,3.31-10.1,3.31-6.58,0-11.47-2.56-14.67-7.67-3.21-5.11-4.81-13.02-4.81-23.73v-4.09Z"/><path class="d" d="M785.69,1990.53c.44,2.41,2.01,3.61,4.69,3.61,3.01,0,6.92-1.76,11.73-5.29,2.81-2.05,4.69-3.07,5.66-3.07,1.2,0,2.33,.32,3.37,.96,1.04,.64,1.56,1.3,1.56,1.99,0,.72-.58,1.66-1.74,2.83-2.13,2.13-4.57,4.2-7.34,6.23s-5.44,3.71-8,5.05c-2.57,1.34-5.13,2.41-7.7,3.19-2.57,.78-4.85,1.17-6.86,1.17-5.01,0-9.02-1.43-12.03-4.3s-4.51-6.69-4.51-11.46c0-3.65,.79-7.77,2.38-12.36,1.58-4.59,3.72-8.89,6.41-12.9,3.17-4.69,7.06-8.6,11.67-11.73,5.69-3.77,11.15-5.66,16.36-5.66,3.77,0,6.73,1.19,8.87,3.58,2.15,2.39,3.22,5.67,3.22,9.84,0,3.25-.85,6.64-2.56,10.17-1.71,3.53-4.22,6.92-7.55,10.17-2.73,2.73-5.41,4.85-8.03,6.38-2.63,1.52-4.92,2.29-6.89,2.29-.88,0-1.78-.22-2.71-.66Zm-.12-1.93c1.84-1.24,3.25-2.49,4.21-3.73,2.13-2.61,3.77-5.6,4.93-8.96,.92-2.21,1.64-4.67,2.17-7.4,.52-2.73,.78-5.27,.78-7.64,0-2.21-.46-3.31-1.38-3.31-1.28,0-3.25,2.83-5.9,8.48-1.56,3.41-2.84,6.81-3.82,10.2-.98,3.39-1.47,6.31-1.47,8.75,0,.84,.16,2.05,.48,3.61Z"/><path class="d" d="M933.2,1975.83l1.2-2.7c9.46-21.34,16.32-35.22,20.57-41.62,.68-.88,1.26-1.57,1.74-2.07s1.03-.95,1.65-1.35c.62-.4,1.43-.8,2.44-1.2,2.89-1.24,6.62-1.86,11.19-1.86,2.37,0,3.86,.2,4.48,.6,.62,.4,.93,1.3,.93,2.71,0,1.08-.04,2.25-.12,3.49-.32,7.22-.48,12.35-.48,15.4,0,7.7,.52,15,1.56,21.9,.68,3.85,1.68,7.76,3.01,11.73,1.4,3.53,2.75,6.24,4.03,8.12,1.52,2.09,2.81,3.61,3.85,4.57,1.28,1.28,1.93,2.27,1.93,2.95,0,1.24-1.06,2.93-3.19,5.05-3.57,3.45-7.14,5.17-10.71,5.17-5.01,0-9.57-2.15-13.66-6.44-2.09-2.09-3.74-4.4-4.96-6.95-1.22-2.55-2.14-5.7-2.74-9.45s-1-8.51-1.2-14.29c-.28-6.26-.44-9.79-.48-10.59h-.24c-2.53,4.85-4.64,8.9-6.32,12.15s-3.06,5.94-4.12,8.06c-1.06,2.13-2.32,4.67-3.76,7.64-4.58,9.47-7.57,15.18-8.97,17.15-.08,.08-.24,.26-.48,.54s-.46,.5-.66,.66c-.68,.64-1.45,1.13-2.32,1.47s-1.6,.51-2.2,.51c-1.69,0-3.54-1.05-5.57-3.16s-3.8-4.82-5.33-8.15c-1.57-3.53-2.84-7.13-3.83-10.8-.99-3.67-1.85-8.03-2.6-13.06-.75-5.04-1.4-11.19-1.96-18.45h-.24c-1.21,2.65-2.11,4.63-2.71,5.95s-1.53,3.37-2.77,6.14-1.97,4.37-2.17,4.81c-1.65,3.65-3.38,7.34-5.19,11.07-1.81,3.73-3.26,6.6-4.37,8.61s-2.31,4-3.64,5.96c-.6,.92-1.66,2.23-3.18,3.92-2.36,2.25-4.95,4.01-7.75,5.27-2.81,1.27-5.47,1.9-7.99,1.9-.96,0-1.8-.24-2.52-.72s-1.08-1.1-1.08-1.87c0-.68,.54-1.58,1.63-2.71,.6-.72,1.91-2.57,3.91-5.53l3.49-5.41c2.17-3.21,5.44-8.96,9.81-17.27l2.89-5.41c6.74-12.91,11.3-21.75,13.67-26.5s3.55-7.51,3.55-8.27c0-.84-.61-1.78-1.82-2.83-.93-.76-1.4-1.42-1.4-1.99,0-.88,1.16-1.71,3.49-2.5,2.33-.78,4.86-1.17,7.59-1.17,5.5,0,9.42,1.22,11.74,3.67,1.45,1.52,2.79,4.52,4.04,8.99s2.49,10.95,3.74,19.43c.08,.48,.14,.85,.18,1.11s.08,.49,.12,.69c.04,.2,.06,.46,.06,.78,.24,1.12,.36,1.86,.36,2.22,.85,5.16,1.49,8.49,1.94,9.99,.44,1.5,1.09,2.81,1.94,3.93Z"/><path class="d" d="M1043.25,1989.81v.24l-.24-.24c-3.73,4.37-7.15,7.95-10.26,10.74-3.11,2.79-5.98,4.88-8.6,6.29-2.63,1.4-5.04,2.11-7.25,2.11-4.49,0-8.2-1.5-11.13-4.51-2.93-3.01-4.39-6.82-4.39-11.43,0-2.85,.72-6.22,2.17-10.11s3.43-7.7,5.96-11.43c4.21-6.1,9.51-11.27,15.88-15.52,6.58-4.37,12.91-6.56,19.01-6.56,5.13,0,9.36,1.05,12.66,3.16s4.96,4.76,4.96,7.97c0,2.37-.82,4.87-2.47,7.52,2.17,0,3.53,.23,4.09,.69,.56,.46,.84,1.53,.84,3.22,0-.16-.1,.66-.3,2.47-.24,3.97-.36,7.68-.36,11.13,0,1.8,.02,3.17,.06,4.09,.04,.92,.12,1.99,.24,3.19s.24,2.17,.36,2.89c.32,1.89,.84,3.75,1.56,5.6-2.41,2.37-4.71,4.1-6.92,5.2-2.21,1.1-4.45,1.65-6.74,1.65-6.18,0-9.26-5.17-9.26-15.52,0-1.2,.04-2.15,.12-2.83Zm3.61-13.78l-1.14,.36c-2.89,.8-4.97,1.2-6.26,1.2-1.56,0-2.35-.4-2.35-1.2,0-.28,.32-1.02,.96-2.23,2.25-3.41,3.37-6.62,3.37-9.63,0-1.72-.3-3.3-.9-4.72s-1.26-2.14-1.99-2.14c-.64,0-1.62,.68-2.95,2.05-3.73,4.05-6.69,8.2-8.87,12.45-2.19,4.25-3.28,8.04-3.28,11.37,0,2.21,.45,4.03,1.35,5.47s2.04,2.17,3.4,2.17c1.16,0,3.34-1.24,6.53-3.73s6.77-5.78,10.74-9.87l1.62-1.32-.24-.24Z"/><path class="d" d="M1133.46,2018.01c-5.62,7.23-9.89,10.85-12.81,10.85-2.13,0-4.36-.83-6.71-2.5s-4.54-3.91-6.59-6.74-3.67-5.89-4.87-9.17-1.8-6.42-1.8-9.39c0-1.68,.28-2.81,.84-3.37,.24-.24,.78-.64,1.62-1.2,6.74-4.17,10.11-8.12,10.11-11.85,0-1.97-.86-2.95-2.59-2.95-1.84,0-4.22,1.77-7.13,5.32-2.91,3.55-5.54,7.89-7.91,13.02-1.4,3.25-2.61,5.31-3.61,6.2-.92,.8-2.35,1.2-4.27,1.2-2.13,0-3.97-.59-5.53-1.77s-2.78-2.87-3.64-5.05c-.86-2.19-1.29-4.68-1.29-7.49,0-4.33,.54-9.06,1.62-14.2s2.6-10.29,4.54-15.46c1.95-5.17,4.26-10.23,6.95-15.16,2.69-4.93,5.49-9.28,8.42-13.06,5.78-7.3,11.41-10.95,16.91-10.95,2.73,0,5.16,.62,7.31,1.87,2.15,1.24,3.8,3.01,4.96,5.29,1.16,2.29,1.74,4.95,1.74,8,0,3.73-.92,7.45-2.77,11.16-1.84,3.71-4.24,6.74-7.19,9.08s-5.91,3.52-8.87,3.52c-1.4,0-2.11-.5-2.11-1.5,0-.4,.36-1.34,1.08-2.83,3.53-6.98,5.29-14.9,5.29-23.76,0-2.29-.28-3.43-.84-3.43-.4,0-1.01,.58-1.83,1.74-.82,1.16-1.61,2.59-2.38,4.27-4.41,9.91-7.6,21.32-9.57,34.23-.12,.68-.25,1.58-.39,2.71-.14,1.12-.31,2.41-.51,3.85l.24,.24c1.64-2.33,3-4.06,4.06-5.2,1.06-1.14,2.48-2.38,4.24-3.7,5.41-4.25,10.47-6.38,15.16-6.38,2.41,0,4.38,.7,5.93,2.11,1.54,1.4,2.32,3.21,2.32,5.41,0,5.41-1.72,10.99-5.17,16.72-.96,1.68-2.07,3.35-3.34,4.99-1.26,1.64-3.08,3.77-5.44,6.38,1.45,2.44,3.09,4.91,4.94,7.39,1.65,2.16,3.72,4.33,6.21,6.49,2.15,1.81,3.7,3.49,4.65,5.06Z"/><path class="d" d="M1164.82,1990.53c.44,2.41,2.01,3.61,4.69,3.61,3.01,0,6.92-1.76,11.73-5.29,2.81-2.05,4.69-3.07,5.66-3.07,1.2,0,2.33,.32,3.37,.96,1.04,.64,1.56,1.3,1.56,1.99,0,.72-.58,1.66-1.74,2.83-2.13,2.13-4.57,4.2-7.34,6.23s-5.44,3.71-8,5.05c-2.57,1.34-5.13,2.41-7.7,3.19-2.57,.78-4.85,1.17-6.86,1.17-5.01,0-9.02-1.43-12.03-4.3s-4.51-6.69-4.51-11.46c0-3.65,.79-7.77,2.38-12.36,1.58-4.59,3.72-8.89,6.41-12.9,3.17-4.69,7.06-8.6,11.67-11.73,5.69-3.77,11.15-5.66,16.36-5.66,3.77,0,6.73,1.19,8.87,3.58,2.15,2.39,3.22,5.67,3.22,9.84,0,3.25-.85,6.64-2.56,10.17-1.71,3.53-4.22,6.92-7.55,10.17-2.73,2.73-5.41,4.85-8.03,6.38-2.63,1.52-4.92,2.29-6.89,2.29-.88,0-1.78-.22-2.71-.66Zm-.12-1.93c1.84-1.24,3.25-2.49,4.21-3.73,2.13-2.61,3.77-5.6,4.93-8.96,.92-2.21,1.64-4.67,2.17-7.4,.52-2.73,.78-5.27,.78-7.64,0-2.21-.46-3.31-1.38-3.31-1.28,0-3.25,2.83-5.9,8.48-1.56,3.41-2.84,6.81-3.82,10.2-.98,3.39-1.47,6.31-1.47,8.75,0,.84,.16,2.05,.48,3.61Z"/><path class="d" d="M1274.55,1949.26c3.05,.12,5.47,1,7.28,2.65s2.71,3.85,2.71,6.62c0,2.41-.69,4.83-2.08,7.28s-3.13,4.45-5.23,6.02-4.22,2.35-6.35,2.35c-1.24,0-1.87-.44-1.87-1.32,0-.32,.24-1.02,.72-2.11,1.56-2.65,2.35-5.7,2.35-9.14,0-1.72-.2-2.59-.6-2.59-.56,0-1.36,.72-2.41,2.17-1.04,1.44-1.93,3.15-2.65,5.11-1.24,3.09-2.28,6.38-3.1,9.87-.82,3.49-1.23,6.44-1.23,8.84,0,2.73,.41,4.87,1.23,6.44,.82,1.56,1.98,2.35,3.46,2.35,1.36,0,3.19-.72,5.47-2.17s4.45-3.23,6.5-5.35c.84-1.08,1.58-1.62,2.23-1.62,.96,0,1.44,.54,1.44,1.62,0,4.93-1.93,9.41-5.78,13.42-2.65,2.65-5.69,4.78-9.11,6.41s-6.51,2.44-9.23,2.44c-4.77,0-8.74-1.5-11.91-4.51-3.17-3.01-4.75-6.8-4.75-11.37s1.01-9.38,3.04-14.41c2.02-5.03,4.79-9.82,8.3-14.35,3.51-4.53,7.49-8.32,11.94-11.37,3.21-2.17,6.34-3.25,9.39-3.25h.24Z"/><path class="d" d="M1335.63,1933.98v-.96c0-1.48-.2-2.23-.6-2.23-.52,0-1.33,.8-2.44,2.41s-2.1,3.39-2.98,5.35c-2.21,5.01-4.15,10.32-5.84,15.91s-2.99,11.18-3.91,16.75c-.32,2.17-.66,4.51-1.02,7.04l.3,.24c4.01-4.13,7-7.06,8.96-8.78s4.51-3.69,7.64-5.9c3.93-2.73,7.18-4.09,9.75-4.09,1.64,0,2.92,.59,3.82,1.77s1.35,2.82,1.35,4.9c0,1.2-.24,2.93-.72,5.17-.84,4.73-1.26,8.72-1.26,11.97,0,1.48,.12,3.05,.36,4.69,.2,1.28,.86,3.87,1.99,7.76,.92,2.97,1.38,4.61,1.38,4.93,0,.56-.66,1.24-1.99,2.05-4.25,2.81-8.16,4.21-11.73,4.21-2.93,0-5.3-1.43-7.13-4.28-1.82-2.85-2.74-6.56-2.74-11.14,0-1.81,.18-3.99,.54-6.57l-.3-.24c-5.69,5.87-9.5,9.83-11.43,11.88-7.14,6.9-12.64,10.34-16.49,10.34-1.77,0-3.22-1.17-4.36-3.52s-1.71-5.4-1.71-9.17c0-8.1,2.51-18.45,7.52-31.04,2.01-4.89,4.13-9.58,6.38-14.05,2.25-4.47,4.39-8.33,6.44-11.58,1.48-2.29,3.04-4.28,4.66-5.99s3.27-3.13,4.93-4.27,3.36-2,5.08-2.56,3.45-.84,5.17-.84c4.29,0,7.79,1.32,10.5,3.97s4.06,6.04,4.06,10.17c0,2.89-.82,5.96-2.47,9.2s-3.95,6.34-6.92,9.26c-1.89,1.84-4.02,3.48-6.41,4.9s-4.24,2.14-5.56,2.14c-.4,0-.76-.14-1.08-.42s-.48-.64-.48-1.08c0-.6,.52-1.91,1.56-3.91,1.2-2.21,2.39-4.9,3.55-8.09s2.06-6.22,2.68-9.08,.93-5.28,.93-7.25Z"/><path class="d" d="M1404.12,1989.81v.24l-.24-.24c-3.73,4.37-7.15,7.95-10.26,10.74s-5.98,4.88-8.6,6.29-5.04,2.11-7.25,2.11c-4.49,0-8.2-1.5-11.13-4.51s-4.39-6.82-4.39-11.43c0-2.85,.72-6.22,2.17-10.11,1.44-3.89,3.43-7.7,5.96-11.43,4.21-6.1,9.51-11.27,15.88-15.52,6.58-4.37,12.91-6.56,19.01-6.56,5.13,0,9.36,1.05,12.66,3.16s4.96,4.76,4.96,7.97c0,2.37-.82,4.87-2.47,7.52,2.17,0,3.53,.23,4.09,.69s.84,1.53,.84,3.22c0-.16-.1,.66-.3,2.47-.24,3.97-.36,7.68-.36,11.13,0,1.8,.02,3.17,.06,4.09s.12,1.99,.24,3.19,.24,2.17,.36,2.89c.32,1.89,.84,3.75,1.56,5.6-2.41,2.37-4.71,4.1-6.92,5.2s-4.45,1.65-6.74,1.65c-6.18,0-9.26-5.17-9.26-15.52,0-1.2,.04-2.15,.12-2.83Zm3.61-13.78l-1.14,.36c-2.89,.8-4.97,1.2-6.26,1.2-1.56,0-2.35-.4-2.35-1.2,0-.28,.32-1.02,.96-2.23,2.25-3.41,3.37-6.62,3.37-9.63,0-1.72-.3-3.3-.9-4.72s-1.26-2.14-1.99-2.14c-.64,0-1.62,.68-2.95,2.05-3.73,4.05-6.69,8.2-8.87,12.45s-3.28,8.04-3.28,11.37c0,2.21,.45,4.03,1.35,5.47s2.04,2.17,3.4,2.17c1.16,0,3.34-1.24,6.53-3.73s6.77-5.78,10.74-9.87l1.62-1.32-.24-.24Z"/><path class="d" d="M1502.69,1985.54l-16.42,16.85c-2.13,2.13-3.84,3.58-5.14,4.36s-2.74,1.17-4.3,1.17c-2.45,0-4.5-.91-6.17-2.74s-2.5-4.06-2.5-6.71c0-1.64,.25-3.44,.75-5.38s1.49-4.84,2.98-8.69c.28-.8,.55-1.49,.81-2.08s.47-1.07,.63-1.47l-.24-.24c-3.89,4.09-7.7,8.4-11.43,12.93-3.13,3.73-5.62,6.52-7.46,8.36s-3.51,3.23-4.99,4.15-2.81,1.38-3.97,1.38c-2.61,0-4.67-1.02-6.2-3.07-1.52-2.05-2.29-4.83-2.29-8.36,0-4.45,1.93-11.65,5.78-21.6,3.45-8.82,6.12-14.74,8-17.75,2.77-4.17,5.93-6.26,9.5-6.26,2.16,0,3.96,.51,5.38,1.53,1.42,1.02,2.13,2.36,2.13,4,0,3.01-1.14,7.6-3.42,13.77-.88,2.28-1.78,4.87-2.7,7.75l.24,.24c1.48-1.64,3.87-4.47,7.15-8.48,5.65-6.97,9.92-11.72,12.81-14.25,3.73-3.45,7.14-5.17,10.23-5.17,1.36,0,2.67,.46,3.91,1.38,1.24,.92,2.24,2.16,2.98,3.7,.74,1.54,1.11,3.16,1.11,4.84s-1.24,6.14-3.72,13.24c-.52,1.49-.92,2.65-1.2,3.49-.28,.84-.54,1.57-.78,2.17l.3,.24c.56-.56,1.06-1.06,1.5-1.5,.44-.44,.93-.91,1.47-1.42,.54-.5,1.05-.97,1.53-1.42,1.08-1.04,3.8-3.79,8.17-8.25,2.88-3.21,5.15-5.41,6.79-6.59s3.23-1.77,4.75-1.77c2.49,0,4.38,.85,5.69,2.56s1.96,4.22,1.96,7.55c0,2.05-.32,5.27-.96,9.69-.56,4.97-.95,8.87-1.17,11.7s-.33,4.8-.33,5.93c0,.84,.05,1.92,.15,3.22s.27,2.7,.51,4.18,.56,3.13,.96,4.93c.48,2.21,.8,3.93,.96,5.17-.32,1.44-1.37,2.67-3.16,3.67s-3.72,1.5-5.81,1.5c-3.29,0-6.38-1.48-9.26-4.45-1.28-1.36-2.28-2.74-2.98-4.12s-1.2-3.03-1.5-4.93-.45-4.42-.45-7.55c0-2.05,.24-6.28,.72-12.69l-.24-.24-1.08,1.5Z"/><path class="d" d="M1566.9,1967.9l1.87-3.51c1.77-3.11,3.4-5.7,4.91-7.77,1.51-2.08,2.84-3.6,4.01-4.57,1.17-.97,2.55-1.75,4.16-2.36,1.33-.53,2.77-.79,4.34-.79,3.05,0,5.76,.9,8.11,2.71s4.16,4.39,5.43,7.76c1.26,3.37,1.9,7.24,1.9,11.61,0,6.3-1.42,12.34-4.24,18.14-2.83,5.8-6.54,10.48-11.13,14.05s-9.34,5.35-14.23,5.35c-2.85,0-5.23-.6-7.13-1.8-1.91-1.2-3.66-3.27-5.27-6.2l-.41,1.03-.36,1.32c-2.61,8.38-4.68,14.55-6.23,18.5-1.54,3.95-2.88,6.37-4,7.25-.88,.84-1.91,1.26-3.07,1.26-2.29,0-4.07-1.12-5.35-3.37s-1.93-5.39-1.93-9.45c0-4.41,.48-9.71,1.44-15.88,.96-6.18,2.3-12.47,4-18.89,1.7-6.42,3.6-12.25,5.68-17.51,1.36-3.21,2.86-6.02,4.5-8.42,1.64-2.41,3.2-4.15,4.68-5.23,1.08-.64,2.24-.96,3.48-.96,1.84,0,3.26,.51,4.26,1.51s1.5,2.44,1.5,4.3c0,1.57-.16,3.31-.48,5.21-.24,1.86-.46,4-.66,6.42l.24,.3Zm-4.56,25.64c1.12,3.29,3.25,4.93,6.38,4.93,2.21,0,4.26-.99,6.17-2.98s3.43-4.67,4.57-8.06c1.14-3.39,1.71-6.95,1.71-10.68,0-2.97-.23-5.53-.69-7.7s-.97-3.25-1.53-3.25c-.4,0-1.42,1.06-3.07,3.19s-3.29,4.59-4.93,7.4c-3.37,5.45-5.92,10.27-7.64,14.44-.44,1.08-.76,1.99-.96,2.71Z"/><path class="d" d="M1621.18,2007.92c-1.8-.12-3.45-.94-4.93-2.47-1.48-1.6-2.53-3.34-3.16-5.2-.62-1.87-.93-4.28-.93-7.25,0-6.62,1.23-14.09,3.7-22.41s5.26-14.35,8.39-18.08c1.24-1.56,2.97-2.35,5.17-2.35,2.32,0,4.2,1.06,5.62,3.19,1.42,2.13,2.14,4.91,2.14,8.36,0,5.09-.73,11.06-2.2,17.9-1.47,6.84-3.53,13.95-6.18,21.32-1.04,2.97-2.32,4.98-3.85,6.02-1.04,.64-2.26,.96-3.66,.96h-.12Zm7.23-60.46c-3.77-.12-5.66-2.39-5.66-6.8,0-2.21,.55-4.76,1.65-7.67s2.36-5.06,3.76-6.47c.72-.76,1.45-1.3,2.2-1.62s1.69-.48,2.86-.48c2.01,0,3.48,.49,4.42,1.47s1.41,2.62,1.41,4.9c0,2.85-.49,5.54-1.47,8.09s-2.3,4.61-3.94,6.2-3.33,2.38-5.05,2.38h-.18Z"/><path class="d" d="M1689.44,1946.8c5.98,0,8.96,.7,8.96,2.11,0,1.6-1.34,2.47-4.03,2.59-3.25,.2-6.28,1.12-9.08,2.77s-5.3,3.89-7.49,6.74-3.89,6.06-5.11,9.63c-1.22,3.57-1.83,7.34-1.83,11.31,0,4.37,1.02,7.89,3.07,10.56s4.71,4,8,4c3.05,0,5.72-1.56,8-4.69,2.29-3.13,3.43-6.78,3.43-10.95,0-3.41-.71-6.61-2.14-9.6-1.42-2.99-3.5-5.5-6.23-7.55-1.16-.92-1.74-1.58-1.74-1.99,0-.56,.82-1.42,2.47-2.59,1.84-1.24,3.91-2.29,6.2-3.13s4.21-1.26,5.78-1.26c1.8,0,3.52,.47,5.14,1.41s3.06,2.29,4.3,4.03,2.2,3.75,2.86,6.02,.99,4.68,.99,7.25c0,4.25-.8,8.45-2.41,12.6-1.6,4.15-3.71,7.51-6.32,10.08-3.37,3.25-7.43,5.91-12.18,7.97s-9.27,3.1-13.57,3.1-8.31-.72-12.42-2.17-7.37-3.35-9.78-5.72c-3.21-3.21-4.81-7.76-4.81-13.66,0-4.65,1.14-9.3,3.43-13.96,2.29-4.65,5.38-8.87,9.29-12.66,3.91-3.79,8.22-6.78,12.93-8.96s9.48-3.28,14.29-3.28Z"/><path class="d" d="M1748.04,1975.6l3.63-4.22c3.66-4.06,6.57-7.09,8.72-9.08,2.14-1.99,4.07-3.43,5.77-4.31s3.44-1.33,5.2-1.33c2.85,0,4.85,.76,6.01,2.29s1.74,4.17,1.74,7.94c0,1.56-.16,3.87-.48,6.92-.48,4.05-.72,7.86-.72,11.43,0,4.01,.2,7.26,.6,9.75,.28,1.52,.7,3.05,1.26,4.57,.4,1.44,.6,2.43,.6,2.95,0,.64-.24,1.14-.72,1.5-1.24,1.08-2.89,2.03-4.93,2.83s-3.77,1.2-5.17,1.2c-2.29,0-4.36-.78-6.23-2.35s-3.31-3.73-4.33-6.5c-1.02-2.77-1.53-5.9-1.53-9.39,0-2.33,.24-5.07,.72-8.24l-.24-.24c-1.72,1.93-3.12,3.45-4.18,4.57s-2.06,2.19-2.98,3.19c-4.49,5.13-8.3,9.77-11.43,13.9-1.2,1.6-2.31,3.01-3.31,4.21-1.48,1.48-3.17,2.23-5.05,2.23-2.57,0-4.65-.96-6.26-2.89s-2.41-4.41-2.41-7.46c0-1.89,.22-4.19,.66-6.92s1.03-5.65,1.77-8.75c.74-3.11,1.62-6.31,2.65-9.6,1.02-3.29,2.14-6.42,3.34-9.39,1.84-4.93,4.09-8.78,6.74-11.55,1.8-1.8,3.99-2.71,6.56-2.71,4.17,0,6.26,2.71,6.26,8.12,0,3.97-.83,9.66-2.49,17.07l.24,.24Z"/><path class="d" d="M1809.15,2009.91c2.37-.12,4.52-1.27,6.47-3.46s2.92-4.56,2.92-7.13c0-1.76-.58-3.17-1.74-4.21-1.24-1.24-4.03-2.47-8.36-3.67-6.38-1.84-10.53-3.91-12.45-6.2-1.8-1.84-2.71-4.05-2.71-6.62,0-4.61,1.67-9.22,5.02-13.84s7.63-8.39,12.84-11.34,10.47-4.42,15.76-4.42c2.57,0,4.97,.6,7.22,1.8s4.03,2.8,5.35,4.78,1.99,4.14,1.99,6.47-.72,4.65-2.17,7.1-3.26,4.48-5.44,6.11-4.26,2.44-6.23,2.44c-1.12,0-2.1-.24-2.92-.72s-1.23-1-1.23-1.56,.16-1.38,.48-2.47c.88-3.45,1.32-6.46,1.32-9.02s-.76-4.91-2.29-7.16c-1.97,1.36-3.25,2.44-3.85,3.24-1.52,1.76-2.71,3.77-3.55,6.01-.92,2.28-1.38,4.45-1.38,6.49,0,1.44,.33,2.6,1,3.46,.66,.86,1.75,1.59,3.25,2.2,1.5,.6,3.78,1.27,6.83,1.99,5.09,1.25,8.68,2.45,10.77,3.61,.48,.28,1.22,.86,2.22,1.74,1.52,1.64,2.28,3.77,2.28,6.38,0,2.77-.86,5.57-2.59,8.4-1.72,2.83-4.39,5.75-8,8.76-3.85,3.25-7.68,5.58-11.49,6.98-3.81,1.41-8.02,2.11-12.63,2.11s-7.95-.88-10.5-2.65-3.82-4.17-3.82-7.22c0-2.17,.84-4.36,2.53-6.59s3.78-4.04,6.29-5.44,4.96-2.11,7.37-2.11c1.8,0,2.71,.4,2.71,1.2,0,.4-.26,1.06-.78,1.99-1.56,2.81-2.35,5.39-2.35,7.76,0,1.68,.62,3.29,1.87,4.81Z"/></g></g></g></svg>