<?xml version="1.0" encoding="UTF-8"?><svg id="a" xmlns="http://www.w3.org/2000/svg" xmlns:xlink="http://www.w3.org/1999/xlink" viewBox="0 0 2500 2500"><defs><style>.k{filter:url(#d);}.k,.l{fill:#b87333;}.m{filter:url(#b);}.n{fill:#f7f4f0;}.o{fill:none;}.p{fill:#f7f6f2;}.q{clip-path:url(#f);}</style><filter id="b" filterUnits="userSpaceOnUse"><feOffset dx="-18" dy="18"/><feGaussianBlur result="c" stdDeviation="10"/><feFlood flood-color="#000" flood-opacity=".8"/><feComposite in2="c" operator="in"/><feComposite in="SourceGraphic"/></filter><filter id="d" filterUnits="userSpaceOnUse"><feOffset dx="-18" dy="18"/><feGaussianBlur result="e" stdDeviation="10"/><feFlood flood-color="#000" flood-opacity=".8"/><feComposite in2="e" operator="in"/><feComposite in="SourceGraphic"/></filter><clipPath id="f"><rect class="o" x="-648" y="1590.28" width="458.33" height="189.72"/></clipPath></defs><g class="m"><rect class="l" x="1336.15" y="1413.66" width="1094.32" height="736.4"/><rect class="n" x="1335.08" y="523.65" width="1096.45" height="1492.17"/></g><rect class="k" x="108.87" y="326.76" width="1159.66" height="1525.89"/><g class="q"><image transform="translate(-648 760.3)" xlink:href="April 2mck.png"/></g><g><g id="g"><path class="n" d="M1197.55,1084.84c-16.15-15.56-23.1-20.44-37.96-26.63-8.56-3.57-16.97-10.04-23.81-18.3-7.37-8.91-9.66-10.66-17.79-13.6-3.35-1.21-9.88-4.64-14.5-7.62s-8.86-5.42-9.41-5.42c-.55,0-3.35,.89-6.23,1.98-2.87,1.09-10.92,2.65-17.89,3.47-12.11,1.42-12.78,1.4-15.27-.4-5.9-4.25-9.89-9.8-17.1-23.8-6.15-11.92-8.35-15.28-11.55-17.54-10.37-7.35-28.94-21.37-37.95-28.64-5.5-4.44-10.63-8.07-11.4-8.07-.77,0-4.52,1.8-8.34,4-3.82,2.2-7.15,4-7.4,4s-3.17,1.83-6.46,4.07c-12.11,8.22-16.36,9.18-27.51,6.21-6.11-1.63-6.58-1.63-9.16,.04-1.5,.96-8.32,9.39-13.68,12.53-16.56,9.69-50.61,26.47-50.61,28.04,0,2.28,30.21-7,38.43-9.75,3.82-1.28,10.8-4.26,15.51-6.62,16.6-8.31,22.27-11.96,11.51-1.79-7.72,7.29-7.26,7.4,6.56,1.59,4.64-1.95,12.29-4.65,17-6,11.26-3.23,14.24-5.09,22.39-13.91,3.76-4.07,7.39-7.4,8.06-7.4s2,2.59,2.95,5.76c.96,3.19,3.47,7.98,5.65,10.74,2.16,2.74,3.6,5.3,3.21,5.69s-4.09,1.23-8.21,1.86c-8.35,1.28-15.97,4.16-18.56,7.02-1.62,1.79-1.57,1.93,.99,2.91,1.48,.56,3.18,1.03,3.76,1.03,3.03,0,7.78,4.45,10.19,9.54,1.44,3.03,2.61,6.16,2.61,6.95,0,1.72,7.62,7.56,18.11,13.89,4.19,2.53,9.43,6.28,11.66,8.35,3.69,3.42,4.1,4.31,4.62,9.96,.31,3.41,.17,6.45-.31,6.75-.48,.3-4.09-.82-8.02-2.49-6.24-2.65-8.12-3-14.85-2.75l-7.71,.29,4,2.16c7.37,3.98,21.44,20.04,29.42,33.59l5.16,8.75h56.31l-3.45-3.61c-1.9-1.99-7.95-7.7-13.45-12.71-5.5-5-10.15-9.46-10.33-9.89-.18-.44,3.42,1.53,8,4.37,4.58,2.84,16.07,8.92,25.54,13.5l17.2,8.33h32.11c17.66,0,31.87-.38,31.59-.85s-5.16-3.13-10.82-5.93c-9.17-4.52-11.46-6.24-20.9-15.65-5.83-5.82-10.36-10.57-10.07-10.57s6.01,2.89,12.72,6.42c6.71,3.53,17.54,8.31,24.08,10.62s15.49,6.02,19.89,8.24c10.55,5.32,18.54,8.63,20.96,8.68,1.72,.04,1.78-.14,.5-1.37h0Zm-989.96-6.75c24.98-12.31,33.39-16.02,41.86-18.48,8.55-2.48,9.55-3.03,21.14-11.69,9.16-6.85,12.13-8.17,23.82-10.54,12.7-2.58,16.42-4.29,20.5-9.42,6.8-8.54,13.43-15.12,19.12-19,3.27-2.22,8.54-6.43,11.72-9.35,6.35-5.84,17.92-14.62,18.5-14.04,.79,.79-11.16,20.41-20.61,33.87-1.37,1.96-1.33,2.04,.84,1.35,2.62-.83,18.18-10.27,22.47-13.62,2.23-1.75,2.73-2.8,2.31-4.88-.8-4.02,12.82-18.05,20.96-21.58,10.3-4.48,11.82-5.47,15.16-9.88,5.77-7.62,21.19-23.03,22.05-22.03,.45,.52,1.37,3.88,2.05,7.45,1.42,7.46,3.32,10.56,8.04,13.09l3.34,1.79-3.37,2.06c-1.85,1.13-3.78,2.06-4.29,2.06-1.87,0-10.67,6.32-9.9,7.09,.44,.44,3.51,1.44,6.81,2.21l6,1.41-4,1.73c-2.2,.95-7.85,3.48-12.57,5.63s-10.01,4.2-11.78,4.55c-3.92,.78-5.48,2.7-14.18,17.44-10.84,18.36-16.32,23.43-31.2,28.88-2.9,1.06-7.52,2.25-10.27,2.63-7.1,.99-7.91,1.37-24.8,11.76-8.36,5.14-22.4,13.13-31.2,17.76l-16,8.41,43.87,.26,43.87,.26,4.34-2.76c2.39-1.52,10.54-7.08,18.13-12.35,7.59-5.28,19.19-12.88,25.79-16.89,6.6-4.01,14.47-8.97,17.5-11,6.45-4.35,25.51-15.22,35.5-20.26,3.85-1.94,7.74-4.37,8.66-5.39,.91-1.02,2.88-5.9,4.38-10.83,3.01-9.92,5.8-15.02,11.48-21.03,2.08-2.2,6.5-8.1,9.83-13.11,5.88-8.87,6.16-9.13,10.44-9.61,6.81-.77,30.89-15.02,41.6-24.62,9.98-8.94,15.26-12.72,23.62-16.88,7.39-3.68,12-4.95,11.19-3.08-4.84,11.22-13.88,31.28-15.55,34.55-1.2,2.34-1.77,4.25-1.26,4.25s5.8-4.84,11.77-10.75c9.11-9.02,11.65-12.26,15.82-20.13,6.71-12.68,7.59-13.64,14.91-16.07,8.42-2.8,9.14-3.43,14.52-12.54,4.08-6.91,5.32-8.2,10.62-11.04,5.55-2.97,16.1-13.4,19.29-19.04,.75-1.33,1.41-1.61,2.14-.9,1.3,1.28,3.08,10.37,3.08,15.7,0,2.97,1.41,6.46,5.66,13.96,3.11,5.5,7.18,11.81,9.03,14.03,1.85,2.22,3.19,4.22,2.97,4.44-.57,.57-10.55-3.45-14.28-5.75-5.94-3.66-7.38-2.38-7.38,6.54,0,3.21-.98,7.91-2.5,11.94-4.05,10.76-3.75,11.91,5.39,20.6,7.03,6.68,8.13,8.23,10.06,14.19,1.19,3.68,3.86,9.31,5.93,12.5,3.7,5.72,5.49,7.18,20.62,16.81,3.3,2.1,7.97,5.42,10.38,7.39,5.57,4.54,17.86,22.78,20.59,30.57,1.91,5.45,2.68,6.35,9.01,10.67,3.81,2.6,11.85,6.65,17.87,9.01,13.76,5.39,21.1,10.59,35.64,25.27l11.48,11.59h95.49c81.57,0,95.2-.2,93.51-1.38-1.09-.76-7.09-3.67-13.35-6.48-11.98-5.36-20.14-10.98-33.62-23.15-10.04-9.06-15.2-12.02-28.98-16.61-6.04-2.01-14.09,.59-16.43-.41-5.05-2.17-28.47-16.69-29.5-18.29-.39-.61-2.38-6.23-4.42-12.49-2.12-6.49-5.67-14.63-8.28-18.97-4.14-6.87-4.28-13.27-12.86-18.94-6.45-4.27-13.52-10.36-22.08-19.03-6.93-7.01-17.36-17.25-23.19-22.75-9.46-8.93-11.62-10.44-20.21-14.16-5.29-2.29-12.11-6.11-15.16-8.5s-7.42-5.57-9.71-7.08l-4.16-2.74-11.87,2.51c-9.66,2.04-12.17,2.28-13.5,1.26-6.38-4.89-15.78-13.36-29.17-26.29-14.08-13.6-29.77-28.01-34.15-31.36-1.47-1.13-2.83-.33-10.5,6.12-4.85,4.08-12.41,9.84-16.81,12.8s-12.13,9.53-17.18,14.59c-8.3,8.32-9.63,9.27-13.91,9.91-4.78,.72-20.13,0-24.02-1.12-1.6-.46-3.51,.67-8,4.74-3.24,2.94-8.14,7.07-10.89,9.18s-8.88,7.92-13.62,12.92l-8.62,9.09-7.58,.56-7.58,.56-12.36,12c-6.8,6.6-15.02,13.58-18.26,15.5-5.47,3.24-6.49,3.5-13.93,3.44-9.82-.08-16.97-2.74-32.24-11.99-5.69-3.45-12.34-6.95-14.77-7.78l-4.43-1.51-6.8,5.13c-3.74,2.82-9.68,7.57-13.2,10.54-10.52,8.9-14.73,11.17-20.65,11.17-11.85,0-14.28,.85-20.8,7.27-3.33,3.27-10.34,8.75-15.6,12.18-5.25,3.42-12.18,8.79-15.4,11.93-6.33,6.17-11.46,9.14-21.71,12.57l-6.56,2.2-7.35-2.57-7.35-2.57-10.24,9.97c-8.16,7.94-11.88,10.77-18.31,13.91-10.07,4.92-12,6.3-25.02,17.91-6.82,6.07-14.74,11.87-22.36,16.36-6.49,3.83-13.25,8.2-15.02,9.73-4.31,3.7-14.78,10.94-22.47,15.53-3.44,2.05-6.25,3.97-6.25,4.25s4.39,.37,9.75,.17c9.73-.35,9.77-.36,23.25-7h0Zm274.5,3.57c2.75-1.97,9.57-6.71,15.15-10.53,5.59-3.82,10.95-8.16,11.92-9.64,3.42-5.22,11-12.54,20.94-20.21,5.53-4.27,13.86-11.68,18.51-16.47,4.66-4.79,11.56-11.25,15.34-14.35,11.5-9.44,5.63-8.22-15.87,3.29-7.7,4.12-14.31,7.5-14.7,7.5s-1.68-2.7-2.89-6.01c-1.5-4.12-2.54-5.73-3.3-5.11-6.44,5.21-19.49,14.52-22.5,16.06-2.09,1.07-6.91,2.66-10.7,3.54-7.45,1.73-13.59,4.86-25.49,13.01-9.27,6.35-15.47,9.32-28.02,13.44-6.51,2.14-13.43,5.5-21.5,10.44-6.54,4.01-16.28,9.65-21.65,12.54-5.36,2.89-9.75,5.44-9.75,5.67s20.14,.41,44.75,.41h44.75l5-3.59Zm267.98-4.66c-8.93-9.54-13.16-12.69-23.33-17.39-5.11-2.36-9.19-5.23-13.37-9.42-3.31-3.31-5.84-6.2-5.63-6.42,.22-.22,5.56,1.08,11.87,2.9,15.58,4.47,19.4,5.15,18.69,3.29-.3-.79-1.5-4.62-2.66-8.51-5.14-17.27-24.93-32.8-53.07-41.65-10.69-3.36-16.08-7.26-24.52-17.74-3.67-4.56-7.03-8.43-7.45-8.59s-6.34,5.92-13.15,13.5c-19.15,21.34-40.03,42.33-43.68,43.92-2.4,1.05-5.27,1.27-10.5,.81l-7.19-.63-22.5,13.53c-18.24,10.97-23.95,14.95-30.13,21.02-5.88,5.77-9.89,8.64-17.5,12.51-5.43,2.76-10.54,5.49-11.37,6.05-1.03,.71,39.87,1.03,130.85,1.04l132.35,.02-7.72-8.25Z"/></g><g><path class="n" d="M628.6,1231.19c21.6-3,29.81-12.35,29.81-33.92,0-17.31-5.16-25.99-17.76-29.88-6.73-2.08-29.23-4.25-62.73-6.06-9.67-.52-18.78-1.49-20.23-2.16-4.83-2.2-5.05-11.82-.36-15.3,2.73-2.03,3.89-2.1,34.55-2.1,35.21,0,35.87,.11,37.71,6.53l.92,3.2,12.97-.17c7.13-.09,13.08-.27,13.2-.4,.93-.93-2.15-14.67-4.19-18.69-4.64-9.15-12.09-12.3-33.33-14.08-15.41-1.29-54.91-.64-65.15,1.08-8.27,1.39-18.29,6.23-21.4,10.35-3.59,4.76-5.6,12.89-5.6,22.69,0,21.75,7.97,29.24,34,31.94,5.23,.54,19.63,1.46,32,2.03,36.85,1.71,39,2.32,39,11.06,0,1.58-.51,3.99-1.13,5.35-2.18,4.79-4.77,5.11-41.09,5.11s-36.47,.27-37.49-7.36l-.56-4.14h-27.01l.67,6.75c1.85,18.72,9.36,26.02,29.11,28.29,9.89,1.14,65.72,1.05,74.09-.11h0Z"/><path class="n" d="M811,1231.23c21.65-2.81,29.54-10.62,30.72-30.38,1.31-21.93-6.25-32.37-25.71-35.5-3.5-.56-18.32-1.73-32.93-2.58-39.21-2.3-40.81-2.46-43.13-4.34-2.85-2.31-3.73-9.31-1.58-12.59,2.8-4.27,6.89-4.74,38.13-4.39,32.36,.36,34.23,.71,35.96,6.58l.96,3.25h26.84l-.7-6.25c-1.63-14.56-7.91-21.78-21.46-24.65-12.97-2.75-49.16-3.85-69.98-2.13-22.25,1.84-29.37,5.04-34.62,15.53-2.83,5.67-3,6.67-3,18,0,9.95,.26,12.33,2,16.04,1.32,2.8,4.23,6.8,6.54,8.87,7.04,6.34,15.72,7.74,59.47,9.61,34.23,1.47,35.39,1.81,36.26,10.79,.39,4.07,.11,5.33-1.59,7.02-3.87,3.87-8.76,4.33-42.39,3.99l-31.96-.32-1.91-2.36c-1.05-1.3-1.91-3.89-1.91-5.75v-3.39h-13.5c-15.38,0-14.12-1.04-12.48,10.29,2.41,16.67,10.96,23.26,32.48,25.04,9.63,.8,62.69,.51,69.5-.37h0Z"/><path class="n" d="M279.78,1218.73l.28-11.46h-91.06v-88h-13.38c-13.03,0-13.4,.06-13.99,2.25-.72,2.68-.85,108.2-.14,108.91,.27,.27,26.93,.33,59.25,.13l58.76-.37,.28-11.46Z"/><path class="n" d="M342.38,1230.27h10.13l23.21-40.75c12.76-22.41,23.8-41.59,24.53-42.61,1.19-1.68,2.51,.18,13.54,19.07,6.72,11.51,12.22,21.23,12.22,21.59s-7.53,.78-16.74,.93l-16.74,.27-6.24,10-6.24,10,29.7,.5,29.7,.5,5.65,10c4.97,8.8,5.99,10.03,8.53,10.22,8.02,.61,29.38,.7,29.38,.12,0-.36-6.44-11.39-14.32-24.5-30.72-51.14-49.59-82.91-50.23-84.59-.6-1.57-2.36-1.75-16.81-1.75h-16.15l-6.93,12.25c-3.81,6.74-11.72,20.58-17.57,30.75s-16.19,28.17-22.96,40c-6.78,11.83-13.17,22.93-14.21,24.68l-1.89,3.18,2.29,.47c1.26,.26,3.58,.29,5.16,.07,1.58-.22,7.43-.4,13-.4h0Z"/><path class="n" d="M1022,1219.27v-.17c0-6.53-5.3-11.83-11.83-11.83h-85.17v-21.98l45.75-.26,45.75-.26v-21l-45.75-.26-45.75-.26v-20.98h97.06l-.28-11.55h0c-.16-6.42-5.41-11.54-11.83-11.54l-50.45,.02-62,.02v55.27c0,30.4,.14,55.61,.31,56.02,.17,.41,28.18,.75,62.25,.75h61.94v-12Z"/><path class="n" d="M1102.17,1230.76c1.09-.42,1.27-7.49,.98-38.21l-.35-37.7,12.85,12.04c7.07,6.62,19.38,18.04,27.35,25.37,7.97,7.33,19.22,17.9,25,23.5,17.21,16.67,14.92,15.51,30.58,15.51h13.42v-112h-21.25c-3.2,0-5.81,2.55-5.89,5.75h0c-.07,3.16-.41,19.92-.75,37.24l-.62,31.49-19.55-18.49c-18.42-17.43-41.62-39.22-53.95-50.69l-5.5-5.11-14-.35-8-.2c-3.3-.08-6.02,2.56-6.03,5.86l-.23,49.71-.23,50c-.01,3.18,2.5,5.8,5.68,5.91l3.55,.13c5.09,.18,10.68,.42,12.43,.54s3.77-.02,4.5-.3h0Z"/></g><g><g><path class="n" d="M380.11,1306.52c-4.35,0-8.39-.53-12.11-1.6-3.73-1.07-6.96-2.59-9.7-4.56-2.74-1.97-4.87-4.29-6.4-6.95-1.53-2.66-2.29-5.58-2.29-8.77s.76-6.11,2.29-8.77c1.53-2.66,3.67-4.98,6.44-6.95,2.76-1.97,6.01-3.5,9.74-4.56,3.73-1.07,7.77-1.6,12.11-1.6,4.88,0,9.31,.63,13.28,1.9,3.97,1.27,7.3,3.13,9.98,5.59l-8.45,5.8c-1.88-1.65-4.01-2.9-6.4-3.75-2.39-.85-4.98-1.27-7.77-1.27-2.63,0-5.04,.33-7.24,1-2.2,.67-4.11,1.6-5.72,2.81s-2.86,2.64-3.74,4.29c-.89,1.65-1.33,3.49-1.33,5.5s.44,3.85,1.33,5.5c.89,1.65,2.13,3.08,3.74,4.29,1.61,1.21,3.51,2.15,5.72,2.81,2.2,.67,4.61,1,7.24,1,2.79,0,5.38-.43,7.77-1.3,2.39-.87,4.52-2.13,6.4-3.78l8.45,5.8c-2.68,2.46-6.01,4.33-9.98,5.62-3.97,1.29-8.43,1.94-13.36,1.94Z"/><path class="n" d="M439.44,1306.52c-4.45,0-8.56-.54-12.32-1.63-3.76-1.09-7.03-2.62-9.82-4.6-2.79-1.97-4.95-4.29-6.48-6.95-1.53-2.66-2.29-5.56-2.29-8.71s.76-6.1,2.29-8.74c1.53-2.64,3.69-4.95,6.48-6.92,2.79-1.97,6.05-3.51,9.78-4.6,3.73-1.09,7.82-1.63,12.28-1.63s8.54,.53,12.28,1.6c3.73,1.07,6.99,2.59,9.78,4.56,2.79,1.98,4.95,4.29,6.48,6.95,1.53,2.66,2.29,5.58,2.29,8.77s-.76,6.06-2.29,8.74c-1.53,2.68-3.69,5.01-6.48,6.98-2.79,1.98-6.05,3.5-9.78,4.56-3.73,1.07-7.8,1.6-12.19,1.6Zm-.08-8.28c2.52,0,4.84-.33,6.96-1,2.12-.66,3.98-1.61,5.59-2.84,1.61-1.23,2.86-2.66,3.74-4.29s1.33-3.46,1.33-5.47-.44-3.84-1.33-5.47c-.89-1.63-2.13-3.06-3.74-4.29-1.61-1.23-3.48-2.18-5.59-2.84-2.12-.67-4.44-1-6.96-1s-4.86,.33-7,1c-2.15,.67-4.01,1.61-5.59,2.84-1.58,1.23-2.82,2.66-3.7,4.29-.89,1.63-1.33,3.46-1.33,5.47s.44,3.84,1.33,5.47c.89,1.63,2.12,3.06,3.7,4.29,1.58,1.23,3.45,2.18,5.59,2.84,2.15,.67,4.48,1,7,1Z"/><path class="n" d="M480,1305.79v-42.33h10.79l33.24,30.47h-5.23v-30.47h12.88v42.33h-10.79l-33.24-30.47h5.23v30.47h-12.88Z"/><path class="n" d="M563.64,1306.52c-4.51,0-8.84-.45-13-1.36-4.16-.91-7.5-2.09-10.02-3.54l4.43-7.38c2.36,1.29,5.2,2.35,8.53,3.17,3.33,.83,6.68,1.24,10.06,1.24,2.58,0,4.65-.2,6.24-.6,1.58-.4,2.75-.94,3.5-1.6,.75-.67,1.13-1.44,1.13-2.33,0-1.13-.59-2.03-1.77-2.69-1.18-.67-2.75-1.21-4.71-1.63-1.96-.42-4.09-.83-6.4-1.21-2.31-.38-4.63-.85-6.96-1.39-2.33-.54-4.48-1.27-6.44-2.18-1.96-.91-3.52-2.1-4.67-3.57-1.15-1.47-1.73-3.31-1.73-5.53,0-2.42,.86-4.63,2.58-6.62,1.72-2,4.33-3.59,7.85-4.78,3.51-1.19,7.93-1.78,13.24-1.78,3.54,0,7.04,.32,10.5,.97,3.46,.65,6.48,1.57,9.06,2.78l-4.11,7.38c-2.52-1.09-5.13-1.9-7.81-2.45-2.68-.54-5.26-.82-7.73-.82s-4.64,.21-6.2,.63c-1.56,.42-2.7,1-3.42,1.72-.72,.73-1.09,1.53-1.09,2.42,0,1.13,.59,2.04,1.77,2.72,1.18,.69,2.74,1.22,4.67,1.6,1.93,.38,4.08,.77,6.44,1.15,2.36,.38,4.7,.86,7,1.42,2.31,.57,4.43,1.28,6.36,2.15,1.93,.87,3.5,2.04,4.71,3.51,1.21,1.47,1.81,3.3,1.81,5.47,0,2.38-.87,4.56-2.62,6.53-1.74,1.98-4.39,3.57-7.93,4.78-3.54,1.21-7.97,1.81-13.28,1.81Z"/><path class="n" d="M607.99,1305.79v-34.34h-18.03v-7.98h49.1v7.98h-18.03v34.34h-13.04Z"/><path class="n" d="M646.06,1305.79v-42.33h24.39c5.04,0,9.39,.62,13.04,1.84,3.65,1.23,6.47,2.99,8.45,5.29,1.98,2.3,2.98,5.02,2.98,8.16s-.99,5.92-2.98,8.19c-1.99,2.28-4.8,4.01-8.45,5.2-3.65,1.19-8,1.78-13.04,1.78h-17.23l5.96-4.23v16.08h-13.12Zm13.12-15l-5.96-4.66h16.5c3.97,0,6.98-.64,9.02-1.94,2.04-1.29,3.06-3.1,3.06-5.44s-1.02-4.14-3.06-5.41c-2.04-1.27-5.04-1.91-9.02-1.91h-16.5l5.96-4.66v24Zm22.78,15l-14.17-15.36h14.01l14.17,15.36h-14.01Z"/><path class="n" d="M730.34,1306.52c-8,0-14.25-1.67-18.75-5.02-4.51-3.35-6.76-8.14-6.76-14.39v-23.64h13.12v23.4c0,3.99,1.1,6.88,3.3,8.68,2.2,1.79,5.26,2.69,9.18,2.69s7.06-.9,9.26-2.69c2.2-1.79,3.3-4.69,3.3-8.68v-23.4h12.8v23.64c0,6.25-2.25,11.05-6.76,14.39s-10.73,5.02-18.67,5.02Z"/><path class="n" d="M795.7,1306.52c-4.35,0-8.38-.53-12.11-1.6-3.73-1.07-6.96-2.59-9.7-4.56-2.74-1.97-4.87-4.29-6.4-6.95-1.53-2.66-2.29-5.58-2.29-8.77s.76-6.11,2.29-8.77c1.53-2.66,3.68-4.98,6.44-6.95,2.76-1.97,6.01-3.5,9.74-4.56,3.73-1.07,7.77-1.6,12.11-1.6,4.88,0,9.31,.63,13.28,1.9,3.97,1.27,7.3,3.13,9.98,5.59l-8.45,5.8c-1.88-1.65-4.01-2.9-6.4-3.75-2.39-.85-4.98-1.27-7.77-1.27-2.63,0-5.04,.33-7.24,1-2.2,.67-4.11,1.6-5.72,2.81-1.61,1.21-2.86,2.64-3.74,4.29-.88,1.65-1.33,3.49-1.33,5.5s.44,3.85,1.33,5.5c.89,1.65,2.13,3.08,3.74,4.29,1.61,1.21,3.51,2.15,5.72,2.81,2.2,.67,4.61,1,7.24,1,2.79,0,5.38-.43,7.77-1.3,2.39-.87,4.52-2.13,6.4-3.78l8.45,5.8c-2.68,2.46-6.01,4.33-9.98,5.62-3.97,1.29-8.43,1.94-13.36,1.94Z"/><path class="n" d="M839.33,1305.79v-34.34h-18.03v-7.98h49.1v7.98h-18.03v34.34h-13.04Z"/><path class="n" d="M877.4,1305.79v-42.33h13.12v42.33h-13.12Z"/><path class="n" d="M931.17,1306.52c-4.46,0-8.56-.54-12.32-1.63-3.76-1.09-7.03-2.62-9.82-4.6-2.79-1.97-4.95-4.29-6.48-6.95-1.53-2.66-2.29-5.56-2.29-8.71s.76-6.1,2.29-8.74c1.53-2.64,3.69-4.95,6.48-6.92,2.79-1.97,6.05-3.51,9.78-4.6,3.73-1.09,7.82-1.63,12.28-1.63s8.54,.53,12.28,1.6c3.73,1.07,6.99,2.59,9.78,4.56,2.79,1.98,4.95,4.29,6.48,6.95,1.53,2.66,2.29,5.58,2.29,8.77s-.76,6.06-2.29,8.74c-1.53,2.68-3.69,5.01-6.48,6.98-2.79,1.98-6.05,3.5-9.78,4.56-3.73,1.07-7.8,1.6-12.2,1.6Zm-.08-8.28c2.52,0,4.84-.33,6.96-1,2.12-.66,3.98-1.61,5.59-2.84,1.61-1.23,2.86-2.66,3.74-4.29,.88-1.63,1.33-3.46,1.33-5.47s-.44-3.84-1.33-5.47c-.89-1.63-2.13-3.06-3.74-4.29-1.61-1.23-3.48-2.18-5.59-2.84-2.12-.67-4.44-1-6.96-1s-4.86,.33-7,1-4.01,1.61-5.59,2.84c-1.58,1.23-2.82,2.66-3.7,4.29-.88,1.63-1.33,3.46-1.33,5.47s.44,3.84,1.33,5.47c.89,1.63,2.12,3.06,3.7,4.29,1.58,1.23,3.45,2.18,5.59,2.84,2.15,.67,4.48,1,7,1Z"/><path class="n" d="M971.74,1305.79v-42.33h10.79l33.24,30.47h-5.23v-30.47h12.88v42.33h-10.79l-33.24-30.47h5.23v30.47h-12.88Z"/></g><g><rect class="n" x="149.88" y="1281.53" width="167.32" height="6.2"/><rect class="n" x="1054.68" y="1281.53" width="167.32" height="6.2"/></g></g></g><g><g id="h"><path class="l" d="M2394.92,1299.32c-16.15-15.56-23.1-20.44-37.96-26.63-8.56-3.57-16.97-10.04-23.81-18.3-7.37-8.91-9.66-10.66-17.79-13.6-3.35-1.21-9.88-4.64-14.5-7.62s-8.86-5.42-9.41-5.42c-.55,0-3.35,.89-6.23,1.98-2.87,1.09-10.92,2.65-17.89,3.47-12.11,1.42-12.78,1.4-15.27-.4-5.9-4.25-9.89-9.8-17.1-23.8-6.15-11.92-8.35-15.28-11.55-17.54-10.37-7.35-28.94-21.37-37.95-28.64-5.5-4.44-10.63-8.07-11.4-8.07-.77,0-4.52,1.8-8.34,4-3.82,2.2-7.15,4-7.4,4s-3.17,1.83-6.46,4.07c-12.11,8.22-16.36,9.18-27.51,6.21-6.11-1.63-6.58-1.63-9.16,.04-1.5,.96-8.32,9.39-13.68,12.53-16.56,9.69-50.61,26.47-50.61,28.04,0,2.28,30.21-7,38.43-9.75,3.82-1.28,10.8-4.26,15.51-6.62,16.6-8.31,22.27-11.96,11.51-1.79-7.72,7.29-7.26,7.4,6.56,1.59,4.64-1.95,12.29-4.65,17-6,11.26-3.23,14.24-5.09,22.39-13.91,3.76-4.07,7.39-7.4,8.06-7.4s2,2.59,2.95,5.76c.96,3.19,3.47,7.98,5.65,10.74,2.16,2.74,3.6,5.3,3.21,5.69s-4.09,1.23-8.21,1.86c-8.35,1.28-15.97,4.16-18.56,7.02-1.62,1.79-1.57,1.93,.99,2.91,1.48,.56,3.18,1.03,3.76,1.03,3.03,0,7.78,4.45,10.19,9.54,1.44,3.03,2.61,6.16,2.61,6.95,0,1.72,7.62,7.56,18.11,13.89,4.19,2.53,9.43,6.28,11.66,8.35,3.69,3.42,4.1,4.31,4.62,9.96,.31,3.41,.17,6.45-.31,6.75-.48,.3-4.09-.82-8.02-2.49-6.24-2.65-8.12-3-14.85-2.75l-7.71,.29,4,2.16c7.37,3.98,21.44,20.04,29.42,33.59l5.16,8.75h56.31l-3.45-3.61c-1.9-1.99-7.95-7.7-13.45-12.71-5.5-5-10.15-9.46-10.33-9.89-.18-.44,3.42,1.53,8,4.37,4.58,2.84,16.07,8.92,25.54,13.5l17.2,8.33h32.11c17.66,0,31.87-.38,31.59-.85s-5.16-3.13-10.82-5.93c-9.17-4.52-11.46-6.24-20.9-15.65-5.83-5.82-10.36-10.57-10.07-10.57s6.01,2.89,12.72,6.42c6.71,3.53,17.54,8.31,24.08,10.62s15.49,6.02,19.89,8.24c10.55,5.32,18.54,8.63,20.96,8.68,1.72,.04,1.78-.14,.5-1.37h0Zm-989.96-6.75c24.98-12.31,33.39-16.02,41.86-18.48,8.55-2.48,9.55-3.03,21.14-11.69,9.16-6.85,12.13-8.17,23.82-10.54,12.7-2.58,16.42-4.29,20.5-9.42,6.8-8.54,13.43-15.12,19.12-19,3.27-2.22,8.54-6.43,11.72-9.35,6.35-5.84,17.92-14.62,18.5-14.04,.79,.79-11.16,20.41-20.61,33.87-1.37,1.96-1.33,2.04,.84,1.35,2.62-.83,18.18-10.27,22.47-13.62,2.23-1.75,2.73-2.8,2.31-4.88-.8-4.02,12.82-18.05,20.96-21.58,10.3-4.48,11.82-5.47,15.16-9.88,5.77-7.62,21.19-23.03,22.05-22.03,.45,.52,1.37,3.88,2.05,7.45,1.42,7.46,3.32,10.56,8.04,13.09l3.34,1.79-3.37,2.06c-1.85,1.13-3.78,2.06-4.29,2.06-1.87,0-10.67,6.32-9.9,7.09,.44,.44,3.51,1.44,6.81,2.21l6,1.41-4,1.73c-2.2,.95-7.85,3.48-12.57,5.63s-10.01,4.2-11.78,4.55c-3.92,.78-5.48,2.7-14.18,17.44-10.84,18.36-16.32,23.43-31.2,28.88-2.9,1.06-7.52,2.25-10.27,2.63-7.1,.99-7.91,1.37-24.8,11.76-8.36,5.14-22.4,13.13-31.2,17.76l-16,8.41,43.87,.26,43.87,.26,4.34-2.76c2.39-1.52,10.54-7.08,18.13-12.35,7.59-5.28,19.19-12.88,25.79-16.89,6.6-4.01,14.47-8.97,17.5-11,6.45-4.35,25.51-15.22,35.5-20.26,3.85-1.94,7.74-4.37,8.66-5.39,.91-1.02,2.88-5.9,4.38-10.83,3.01-9.92,5.8-15.02,11.48-21.03,2.08-2.2,6.5-8.1,9.83-13.11,5.88-8.87,6.16-9.13,10.44-9.61,6.81-.77,30.89-15.02,41.6-24.62,9.98-8.94,15.26-12.72,23.62-16.88,7.39-3.68,12-4.95,11.19-3.08-4.84,11.22-13.88,31.28-15.55,34.55-1.2,2.34-1.77,4.25-1.26,4.25s5.8-4.84,11.77-10.75c9.11-9.02,11.65-12.26,15.82-20.13,6.71-12.68,7.59-13.64,14.91-16.07,8.42-2.8,9.14-3.43,14.52-12.54,4.08-6.91,5.32-8.2,10.62-11.04,5.55-2.97,16.1-13.4,19.29-19.04,.75-1.33,1.41-1.61,2.14-.9,1.3,1.28,3.08,10.37,3.08,15.7,0,2.97,1.41,6.46,5.66,13.96,3.11,5.5,7.18,11.81,9.03,14.03,1.85,2.22,3.19,4.22,2.97,4.44-.57,.57-10.55-3.45-14.28-5.75-5.94-3.66-7.38-2.38-7.38,6.54,0,3.21-.98,7.91-2.5,11.94-4.05,10.76-3.75,11.91,5.39,20.6,7.03,6.68,8.13,8.23,10.06,14.19,1.19,3.68,3.86,9.31,5.93,12.5,3.7,5.72,5.49,7.18,20.62,16.81,3.3,2.1,7.97,5.42,10.38,7.39,5.57,4.54,17.86,22.78,20.59,30.57,1.91,5.45,2.68,6.35,9.01,10.67,3.81,2.6,11.85,6.65,17.87,9.01,13.76,5.39,21.1,10.59,35.64,25.27l11.48,11.59h95.49c81.57,0,95.2-.2,93.51-1.38-1.09-.76-7.09-3.67-13.35-6.48-11.98-5.36-20.14-10.98-33.62-23.15-10.04-9.06-15.2-12.02-28.98-16.61-6.04-2.01-14.09,.59-16.43-.41-5.05-2.17-28.47-16.69-29.5-18.29-.39-.61-2.38-6.23-4.42-12.49-2.12-6.49-5.67-14.63-8.28-18.97-4.14-6.87-4.28-13.27-12.86-18.94-6.45-4.27-13.52-10.36-22.08-19.03-6.93-7.01-17.36-17.25-23.19-22.75-9.46-8.93-11.62-10.44-20.21-14.16-5.29-2.29-12.11-6.11-15.16-8.5s-7.42-5.57-9.71-7.08l-4.16-2.74-11.87,2.51c-9.66,2.04-12.17,2.28-13.5,1.26-6.38-4.89-15.78-13.36-29.17-26.29-14.08-13.6-29.77-28.01-34.15-31.36-1.47-1.13-2.83-.33-10.5,6.12-4.85,4.08-12.41,9.84-16.81,12.8s-12.13,9.53-17.18,14.59c-8.3,8.32-9.63,9.27-13.91,9.91-4.78,.72-20.13,0-24.02-1.12-1.6-.46-3.51,.67-8,4.74-3.24,2.94-8.14,7.07-10.89,9.18s-8.88,7.92-13.62,12.92l-8.62,9.09-7.58,.56-7.58,.56-12.36,12c-6.8,6.6-15.02,13.58-18.26,15.5-5.47,3.24-6.49,3.5-13.93,3.44-9.82-.08-16.97-2.74-32.24-11.99-5.69-3.45-12.34-6.95-14.77-7.78l-4.43-1.51-6.8,5.13c-3.74,2.82-9.68,7.57-13.2,10.54-10.52,8.9-14.73,11.17-20.65,11.17-11.85,0-14.28,.85-20.8,7.27-3.33,3.27-10.34,8.75-15.6,12.18-5.25,3.42-12.18,8.79-15.4,11.93-6.33,6.17-11.46,9.14-21.71,12.57l-6.56,2.2-7.35-2.57-7.35-2.57-10.24,9.97c-8.16,7.94-11.88,10.77-18.31,13.91-10.07,4.92-12,6.3-25.02,17.91-6.82,6.07-14.74,11.87-22.36,16.36-6.49,3.83-13.25,8.2-15.02,9.73-4.31,3.7-14.78,10.94-22.47,15.53-3.44,2.05-6.25,3.97-6.25,4.25s4.39,.37,9.75,.17c9.73-.35,9.77-.36,23.25-7h0Zm274.5,3.57c2.75-1.97,9.57-6.71,15.15-10.53,5.59-3.82,10.95-8.16,11.92-9.64,3.42-5.22,11-12.54,20.94-20.21,5.53-4.27,13.86-11.68,18.51-16.47,4.66-4.79,11.56-11.25,15.34-14.35,11.5-9.44,5.63-8.22-15.87,3.29-7.7,4.12-14.31,7.5-14.7,7.5s-1.68-2.7-2.89-6.01c-1.5-4.12-2.54-5.73-3.3-5.11-6.44,5.21-19.49,14.52-22.5,16.06-2.09,1.07-6.91,2.66-10.7,3.54-7.45,1.73-13.59,4.86-25.49,13.01-9.27,6.35-15.47,9.32-28.02,13.44-6.51,2.14-13.43,5.5-21.5,10.44-6.54,4.01-16.28,9.65-21.65,12.54-5.36,2.89-9.75,5.44-9.75,5.67s20.14,.41,44.75,.41h44.75l5-3.59Zm267.98-4.66c-8.93-9.54-13.16-12.69-23.33-17.39-5.11-2.36-9.19-5.23-13.37-9.42-3.31-3.31-5.84-6.2-5.63-6.42,.22-.22,5.56,1.08,11.87,2.9,15.58,4.47,19.4,5.15,18.69,3.29-.3-.79-1.5-4.62-2.66-8.51-5.14-17.27-24.93-32.8-53.07-41.65-10.69-3.36-16.08-7.26-24.52-17.74-3.67-4.56-7.03-8.43-7.45-8.59s-6.34,5.92-13.15,13.5c-19.15,21.34-40.03,42.33-43.68,43.92-2.4,1.05-5.27,1.27-10.5,.81l-7.19-.63-22.5,13.53c-18.24,10.97-23.95,14.95-30.13,21.02-5.88,5.77-9.89,8.64-17.5,12.51-5.43,2.76-10.54,5.49-11.37,6.05-1.03,.71,39.87,1.03,130.85,1.04l132.35,.02-7.72-8.25Z"/></g><g><path class="l" d="M1825.96,1445.67c21.6-3,29.81-12.35,29.81-33.92,0-17.31-5.16-25.99-17.76-29.88-6.73-2.08-29.23-4.25-62.73-6.06-9.67-.52-18.78-1.49-20.23-2.16-4.83-2.2-5.05-11.82-.36-15.3,2.73-2.03,3.89-2.1,34.55-2.1,35.21,0,35.87,.11,37.71,6.53l.92,3.2,12.97-.17c7.13-.09,13.08-.27,13.2-.4,.93-.93-2.15-14.67-4.19-18.69-4.64-9.15-12.09-12.3-33.33-14.08-15.41-1.29-54.91-.64-65.15,1.08-8.27,1.39-18.29,6.23-21.4,10.35-3.59,4.76-5.6,12.89-5.6,22.69,0,21.75,7.97,29.24,34,31.94,5.23,.54,19.63,1.46,32,2.03,36.85,1.71,39,2.32,39,11.06,0,1.58-.51,3.99-1.13,5.35-2.18,4.79-4.77,5.11-41.09,5.11s-36.47,.27-37.49-7.36l-.56-4.14h-27.01l.67,6.75c1.85,18.72,9.36,26.02,29.11,28.29,9.89,1.14,65.72,1.05,74.09-.11h0Z"/><path class="l" d="M2008.37,1445.72c21.65-2.81,29.54-10.62,30.72-30.38,1.31-21.93-6.25-32.37-25.71-35.5-3.5-.56-18.32-1.73-32.93-2.58-39.21-2.3-40.81-2.46-43.13-4.34-2.85-2.31-3.73-9.31-1.58-12.59,2.8-4.27,6.89-4.74,38.13-4.39,32.36,.36,34.23,.71,35.96,6.58l.96,3.25h26.84l-.7-6.25c-1.63-14.56-7.91-21.78-21.46-24.65-12.97-2.75-49.16-3.85-69.98-2.13-22.25,1.84-29.37,5.04-34.62,15.53-2.83,5.67-3,6.67-3,18,0,9.95,.26,12.33,2,16.04,1.32,2.8,4.23,6.8,6.54,8.87,7.04,6.34,15.72,7.74,59.47,9.61,34.23,1.47,35.39,1.81,36.26,10.79,.39,4.07,.11,5.33-1.59,7.02-3.87,3.87-8.76,4.33-42.39,3.99l-31.96-.32-1.91-2.36c-1.05-1.3-1.91-3.89-1.91-5.75v-3.39h-13.5c-15.38,0-14.12-1.04-12.48,10.29,2.41,16.67,10.96,23.26,32.48,25.04,9.63,.8,62.69,.51,69.5-.37h0Z"/><path class="l" d="M1477.15,1433.21l.28-11.46h-91.06v-88h-13.38c-13.03,0-13.4,.06-13.99,2.25-.72,2.68-.85,108.2-.14,108.91,.27,.27,26.93,.33,59.25,.13l58.76-.37,.28-11.46Z"/><path class="l" d="M1539.74,1444.75h10.13l23.21-40.75c12.76-22.41,23.8-41.59,24.53-42.61,1.19-1.68,2.51,.18,13.54,19.07,6.72,11.51,12.22,21.23,12.22,21.59s-7.53,.78-16.74,.93l-16.74,.27-6.24,10-6.24,10,29.7,.5,29.7,.5,5.65,10c4.97,8.8,5.99,10.03,8.53,10.22,8.02,.61,29.38,.7,29.38,.12,0-.36-6.44-11.39-14.32-24.5-30.72-51.14-49.59-82.91-50.23-84.59-.6-1.57-2.36-1.75-16.81-1.75h-16.15l-6.93,12.25c-3.81,6.74-11.72,20.58-17.57,30.75s-16.19,28.17-22.96,40c-6.78,11.83-13.17,22.93-14.21,24.68l-1.89,3.18,2.29,.47c1.26,.26,3.58,.29,5.16,.07,1.58-.22,7.43-.4,13-.4h0Z"/><path class="l" d="M2219.37,1433.75v-.17c0-6.53-5.3-11.83-11.83-11.83h-85.17v-21.98l45.75-.26,45.75-.26v-21l-45.75-.26-45.75-.26v-20.98h97.06l-.28-11.55h0c-.16-6.42-5.41-11.54-11.83-11.54l-50.45,.02-62,.02v55.27c0,30.4,.14,55.61,.31,56.02,.17,.41,28.18,.75,62.25,.75h61.94v-12Z"/><path class="l" d="M2299.53,1445.24c1.09-.42,1.27-7.49,.98-38.21l-.35-37.7,12.85,12.04c7.07,6.62,19.38,18.04,27.35,25.37,7.97,7.33,19.22,17.9,25,23.5,17.21,16.67,14.92,15.51,30.58,15.51h13.42v-112h-21.25c-3.2,0-5.81,2.55-5.89,5.75h0c-.07,3.16-.41,19.92-.75,37.24l-.62,31.49-19.55-18.49c-18.42-17.43-41.62-39.22-53.95-50.69l-5.5-5.11-14-.35-8-.2c-3.3-.08-6.02,2.56-6.03,5.86l-.23,49.71-.23,50c-.01,3.18,2.5,5.8,5.68,5.91l3.55,.13c5.09,.18,10.68,.42,12.43,.54s3.77-.02,4.5-.3h0Z"/></g><g><g><path class="l" d="M1577.48,1521c-4.35,0-8.39-.53-12.11-1.6-3.73-1.07-6.96-2.59-9.7-4.56-2.74-1.97-4.87-4.29-6.4-6.95-1.53-2.66-2.29-5.58-2.29-8.77s.76-6.11,2.29-8.77c1.53-2.66,3.67-4.98,6.44-6.95,2.76-1.97,6.01-3.5,9.74-4.56,3.73-1.07,7.77-1.6,12.11-1.6,4.88,0,9.31,.63,13.28,1.9,3.97,1.27,7.3,3.13,9.98,5.59l-8.45,5.8c-1.88-1.65-4.01-2.9-6.4-3.75-2.39-.85-4.98-1.27-7.77-1.27-2.63,0-5.04,.33-7.24,1-2.2,.67-4.11,1.6-5.72,2.81s-2.86,2.64-3.74,4.29c-.89,1.65-1.33,3.49-1.33,5.5s.44,3.85,1.33,5.5c.89,1.65,2.13,3.08,3.74,4.29,1.61,1.21,3.51,2.15,5.72,2.81,2.2,.67,4.61,1,7.24,1,2.79,0,5.38-.43,7.77-1.3,2.39-.87,4.52-2.13,6.4-3.78l8.45,5.8c-2.68,2.46-6.01,4.33-9.98,5.62-3.97,1.29-8.43,1.94-13.36,1.94Z"/><path class="l" d="M1636.8,1521c-4.45,0-8.56-.54-12.32-1.63-3.76-1.09-7.03-2.62-9.82-4.6-2.79-1.97-4.95-4.29-6.48-6.95-1.53-2.66-2.29-5.56-2.29-8.71s.76-6.1,2.29-8.74c1.53-2.64,3.69-4.95,6.48-6.92,2.79-1.97,6.05-3.51,9.78-4.6,3.73-1.09,7.82-1.63,12.28-1.63s8.54,.53,12.28,1.6c3.73,1.07,6.99,2.59,9.78,4.56,2.79,1.98,4.95,4.29,6.48,6.95,1.53,2.66,2.29,5.58,2.29,8.77s-.76,6.06-2.29,8.74c-1.53,2.68-3.69,5.01-6.48,6.98-2.79,1.98-6.05,3.5-9.78,4.56-3.73,1.07-7.8,1.6-12.19,1.6Zm-.08-8.28c2.52,0,4.84-.33,6.96-1,2.12-.66,3.98-1.61,5.59-2.84,1.61-1.23,2.86-2.66,3.74-4.29s1.33-3.46,1.33-5.47-.44-3.84-1.33-5.47c-.89-1.63-2.13-3.06-3.74-4.29-1.61-1.23-3.48-2.18-5.59-2.84-2.12-.67-4.44-1-6.96-1s-4.86,.33-7,1c-2.15,.67-4.01,1.61-5.59,2.84-1.58,1.23-2.82,2.66-3.7,4.29-.89,1.63-1.33,3.46-1.33,5.47s.44,3.84,1.33,5.47c.89,1.63,2.12,3.06,3.7,4.29,1.58,1.23,3.45,2.18,5.59,2.84,2.15,.67,4.48,1,7,1Z"/><path class="l" d="M1677.37,1520.28v-42.33h10.79l33.24,30.47h-5.23v-30.47h12.88v42.33h-10.79l-33.24-30.47h5.23v30.47h-12.88Z"/><path class="l" d="M1761,1521c-4.51,0-8.84-.45-13-1.36-4.16-.91-7.5-2.09-10.02-3.54l4.43-7.38c2.36,1.29,5.2,2.35,8.53,3.17,3.33,.83,6.68,1.24,10.06,1.24,2.58,0,4.65-.2,6.24-.6,1.58-.4,2.75-.94,3.5-1.6,.75-.67,1.13-1.44,1.13-2.33,0-1.13-.59-2.03-1.77-2.69-1.18-.67-2.75-1.21-4.71-1.63-1.96-.42-4.09-.83-6.4-1.21-2.31-.38-4.63-.85-6.96-1.39-2.33-.54-4.48-1.27-6.44-2.18-1.96-.91-3.52-2.1-4.67-3.57-1.15-1.47-1.73-3.31-1.73-5.53,0-2.42,.86-4.63,2.58-6.62,1.72-2,4.33-3.59,7.85-4.78,3.51-1.19,7.93-1.78,13.24-1.78,3.54,0,7.04,.32,10.5,.97,3.46,.65,6.48,1.57,9.06,2.78l-4.11,7.38c-2.52-1.09-5.13-1.9-7.81-2.45-2.68-.54-5.26-.82-7.73-.82s-4.64,.21-6.2,.63c-1.56,.42-2.7,1-3.42,1.72-.72,.73-1.09,1.53-1.09,2.42,0,1.13,.59,2.04,1.77,2.72,1.18,.69,2.74,1.22,4.67,1.6,1.93,.38,4.08,.77,6.44,1.15,2.36,.38,4.7,.86,7,1.42,2.31,.57,4.43,1.28,6.36,2.15,1.93,.87,3.5,2.04,4.71,3.51,1.21,1.47,1.81,3.3,1.81,5.47,0,2.38-.87,4.56-2.62,6.53-1.74,1.98-4.39,3.57-7.93,4.78-3.54,1.21-7.97,1.81-13.28,1.81Z"/><path class="l" d="M1805.35,1520.28v-34.34h-18.03v-7.98h49.1v7.98h-18.03v34.34h-13.04Z"/><path class="l" d="M1843.43,1520.28v-42.33h24.39c5.04,0,9.39,.62,13.04,1.84,3.65,1.23,6.47,2.99,8.45,5.29,1.98,2.3,2.98,5.02,2.98,8.16s-.99,5.92-2.98,8.19c-1.99,2.28-4.8,4.01-8.45,5.2-3.65,1.19-8,1.78-13.04,1.78h-17.23l5.96-4.23v16.08h-13.12Zm13.12-15l-5.96-4.66h16.5c3.97,0,6.98-.64,9.02-1.94,2.04-1.29,3.06-3.1,3.06-5.44s-1.02-4.14-3.06-5.41c-2.04-1.27-5.04-1.91-9.02-1.91h-16.5l5.96-4.66v24Zm22.78,15l-14.17-15.36h14.01l14.17,15.36h-14.01Z"/><path class="l" d="M1927.7,1521c-8,0-14.25-1.67-18.75-5.02-4.51-3.35-6.76-8.14-6.76-14.39v-23.64h13.12v23.4c0,3.99,1.1,6.88,3.3,8.68,2.2,1.79,5.26,2.69,9.18,2.69s7.06-.9,9.26-2.69c2.2-1.79,3.3-4.69,3.3-8.68v-23.4h12.8v23.64c0,6.25-2.25,11.05-6.76,14.39s-10.73,5.02-18.67,5.02Z"/><path class="l" d="M1993.07,1521c-4.35,0-8.38-.53-12.11-1.6-3.73-1.07-6.96-2.59-9.7-4.56-2.74-1.97-4.87-4.29-6.4-6.95-1.53-2.66-2.29-5.58-2.29-8.77s.76-6.11,2.29-8.77c1.53-2.66,3.68-4.98,6.44-6.95,2.76-1.97,6.01-3.5,9.74-4.56,3.73-1.07,7.77-1.6,12.11-1.6,4.88,0,9.31,.63,13.28,1.9,3.97,1.27,7.3,3.13,9.98,5.59l-8.45,5.8c-1.88-1.65-4.01-2.9-6.4-3.75-2.39-.85-4.98-1.27-7.77-1.27-2.63,0-5.04,.33-7.24,1-2.2,.67-4.11,1.6-5.72,2.81-1.61,1.21-2.86,2.64-3.74,4.29-.88,1.65-1.33,3.49-1.33,5.5s.44,3.85,1.33,5.5c.89,1.65,2.13,3.08,3.74,4.29,1.61,1.21,3.51,2.15,5.72,2.81,2.2,.67,4.61,1,7.24,1,2.79,0,5.38-.43,7.77-1.3,2.39-.87,4.52-2.13,6.4-3.78l8.45,5.8c-2.68,2.46-6.01,4.33-9.98,5.62-3.97,1.29-8.43,1.94-13.36,1.94Z"/><path class="l" d="M2036.69,1520.28v-34.34h-18.03v-7.98h49.1v7.98h-18.03v34.34h-13.04Z"/><path class="l" d="M2074.77,1520.28v-42.33h13.12v42.33h-13.12Z"/><path class="l" d="M2128.53,1521c-4.46,0-8.56-.54-12.32-1.63-3.76-1.09-7.03-2.62-9.82-4.6-2.79-1.97-4.95-4.29-6.48-6.95-1.53-2.66-2.29-5.56-2.29-8.71s.76-6.1,2.29-8.74c1.53-2.64,3.69-4.95,6.48-6.92,2.79-1.97,6.05-3.51,9.78-4.6,3.73-1.09,7.82-1.63,12.28-1.63s8.54,.53,12.28,1.6c3.73,1.07,6.99,2.59,9.78,4.56,2.79,1.98,4.95,4.29,6.48,6.95,1.53,2.66,2.29,5.58,2.29,8.77s-.76,6.06-2.29,8.74c-1.53,2.68-3.69,5.01-6.48,6.98-2.79,1.98-6.05,3.5-9.78,4.56-3.73,1.07-7.8,1.6-12.2,1.6Zm-.08-8.28c2.52,0,4.84-.33,6.96-1,2.12-.66,3.98-1.61,5.59-2.84,1.61-1.23,2.86-2.66,3.74-4.29,.88-1.63,1.33-3.46,1.33-5.47s-.44-3.84-1.33-5.47c-.89-1.63-2.13-3.06-3.74-4.29-1.61-1.23-3.48-2.18-5.59-2.84-2.12-.67-4.44-1-6.96-1s-4.86,.33-7,1-4.01,1.61-5.59,2.84c-1.58,1.23-2.82,2.66-3.7,4.29-.88,1.63-1.33,3.46-1.33,5.47s.44,3.84,1.33,5.47c.89,1.63,2.12,3.06,3.7,4.29,1.58,1.23,3.45,2.18,5.59,2.84,2.15,.67,4.48,1,7,1Z"/><path class="l" d="M2169.1,1520.28v-42.33h10.79l33.24,30.47h-5.23v-30.47h12.88v42.33h-10.79l-33.24-30.47h5.23v30.47h-12.88Z"/></g><g><rect class="l" x="1347.25" y="1496.02" width="167.32" height="6.2"/><rect class="l" x="2252.04" y="1496.02" width="167.32" height="6.2"/></g></g></g><g><g id="i"><path class="l" d="M2405.95,646.2c-4.33-4.17-6.2-5.48-10.18-7.14-2.29-.96-4.55-2.69-6.38-4.91-1.98-2.39-2.59-2.86-4.77-3.65-.9-.33-2.65-1.25-3.89-2.04s-2.38-1.45-2.52-1.45c-.15,0-.9,.24-1.67,.53-.77,.29-2.93,.71-4.8,.93-3.25,.38-3.43,.38-4.1-.11-1.58-1.14-2.65-2.63-4.59-6.38-1.65-3.2-2.24-4.1-3.1-4.7-2.78-1.97-7.76-5.73-10.18-7.68-1.47-1.19-2.85-2.16-3.06-2.16-.21,0-1.21,.48-2.24,1.07-1.02,.59-1.92,1.07-1.99,1.07s-.85,.49-1.73,1.09c-3.25,2.2-4.39,2.46-7.38,1.67-1.64-.44-1.76-.44-2.46,0-.4,.26-2.23,2.52-3.67,3.36-4.44,2.6-13.57,7.1-13.57,7.52,0,.61,8.1-1.88,10.3-2.62,1.02-.34,2.9-1.14,4.16-1.78,4.45-2.23,5.97-3.21,3.09-.48-2.07,1.95-1.95,1.98,1.76,.43,1.25-.52,3.3-1.25,4.56-1.61,3.02-.87,3.82-1.37,6-3.73,1.01-1.09,1.98-1.98,2.16-1.98s.54,.7,.79,1.54c.26,.86,.93,2.14,1.52,2.88,.58,.73,.97,1.42,.86,1.53s-1.1,.33-2.2,.5c-2.24,.34-4.28,1.12-4.98,1.88-.43,.48-.42,.52,.27,.78,.4,.15,.85,.27,1.01,.27,.81,0,2.09,1.19,2.73,2.56,.39,.81,.7,1.65,.7,1.87,0,.46,2.04,2.03,4.86,3.73,1.12,.68,2.53,1.69,3.13,2.24,.99,.92,1.1,1.16,1.24,2.67,.08,.92,.05,1.73-.08,1.81-.13,.08-1.1-.22-2.15-.67-1.67-.71-2.18-.81-3.98-.74l-2.07,.08,1.07,.58c1.98,1.07,5.75,5.37,7.89,9.01l1.38,2.35h15.1l-.92-.97c-.51-.53-2.13-2.07-3.61-3.41-1.47-1.34-2.72-2.54-2.77-2.65-.05-.12,.92,.41,2.15,1.17,1.23,.76,4.31,2.39,6.85,3.62l4.61,2.23h8.61c4.74,0,8.55-.1,8.47-.23s-1.38-.84-2.9-1.59c-2.46-1.21-3.07-1.67-5.6-4.2-1.56-1.56-2.78-2.84-2.7-2.84s1.61,.77,3.41,1.72c1.8,.95,4.7,2.23,6.46,2.85s4.15,1.61,5.33,2.21c2.83,1.43,4.97,2.31,5.62,2.33,.46,0,.48-.04,.13-.37h0Zm-265.48-1.81c6.7-3.3,8.95-4.3,11.23-4.95,2.29-.66,2.56-.81,5.67-3.14,2.46-1.84,3.25-2.19,6.39-2.83,3.4-.69,4.4-1.15,5.5-2.53,1.82-2.29,3.6-4.06,5.13-5.1,.88-.6,2.29-1.73,3.14-2.51,1.7-1.57,4.8-3.92,4.96-3.76,.21,.21-2.99,5.47-5.53,9.08-.37,.52-.36,.55,.23,.36,.7-.22,4.88-2.75,6.02-3.65,.6-.47,.73-.75,.62-1.31-.22-1.08,3.44-4.84,5.62-5.79,2.76-1.2,3.17-1.47,4.06-2.65,1.55-2.04,5.68-6.18,5.91-5.91,.12,.14,.37,1.04,.55,2,.38,2,.89,2.83,2.16,3.51l.9,.48-.9,.55c-.5,.3-1.01,.55-1.15,.55-.5,0-2.86,1.69-2.65,1.9,.12,.12,.94,.39,1.83,.59l1.61,.38-1.07,.46c-.59,.25-2.11,.93-3.37,1.51s-2.69,1.13-3.16,1.22c-1.05,.21-1.47,.72-3.8,4.68-2.91,4.92-4.38,6.28-8.37,7.75-.78,.28-2.02,.6-2.75,.71-1.9,.27-2.12,.37-6.65,3.15-2.24,1.38-6.01,3.52-8.37,4.76l-4.29,2.25,11.76,.07,11.76,.07,1.16-.74c.64-.41,2.83-1.9,4.86-3.31s5.15-3.45,6.92-4.53c1.77-1.08,3.88-2.4,4.69-2.95,1.73-1.17,6.84-4.08,9.52-5.43,1.03-.52,2.08-1.17,2.32-1.44,.24-.27,.77-1.58,1.17-2.91,.81-2.66,1.55-4.03,3.08-5.64,.56-.59,1.74-2.17,2.63-3.52,1.58-2.38,1.65-2.45,2.8-2.58,1.83-.21,8.29-4.03,11.16-6.6,2.68-2.4,4.09-3.41,6.33-4.53,1.98-.99,3.22-1.33,3-.83-1.3,3.01-3.72,8.39-4.17,9.27-.32,.63-.47,1.14-.34,1.14s1.56-1.3,3.16-2.88c2.44-2.42,3.13-3.29,4.24-5.4,1.8-3.4,2.04-3.66,4-4.31,2.26-.75,2.45-.92,3.89-3.36,1.09-1.85,1.43-2.2,2.85-2.96,1.49-.8,4.32-3.59,5.17-5.11,.2-.36,.38-.43,.57-.24,.35,.34,.83,2.78,.83,4.21,0,.8,.38,1.73,1.52,3.74,.83,1.47,1.93,3.17,2.42,3.76,.5,.6,.86,1.13,.8,1.19-.15,.15-2.83-.92-3.83-1.54-1.59-.98-1.98-.64-1.98,1.75,0,.86-.26,2.12-.67,3.2-1.09,2.89-1.01,3.19,1.45,5.52,1.88,1.79,2.18,2.21,2.7,3.81,.32,.99,1.04,2.5,1.59,3.35,.99,1.53,1.47,1.93,5.53,4.51,.88,.56,2.14,1.45,2.78,1.98,1.49,1.22,4.79,6.11,5.52,8.2,.51,1.46,.72,1.7,2.42,2.86,1.02,.7,3.18,1.78,4.79,2.42,3.69,1.45,5.66,2.84,9.56,6.78l3.08,3.11h25.61c21.87,0,25.53-.05,25.08-.37-.29-.2-1.9-.99-3.58-1.74-3.21-1.44-5.4-2.95-9.02-6.21-2.69-2.43-4.08-3.22-7.77-4.45-1.62-.54-3.78,.16-4.41-.11-1.35-.58-7.64-4.48-7.91-4.91-.11-.16-.64-1.67-1.19-3.35-.57-1.74-1.52-3.92-2.22-5.09-1.11-1.84-1.15-3.56-3.45-5.08-1.73-1.14-3.62-2.78-5.92-5.1-1.86-1.88-4.66-4.63-6.22-6.1-2.54-2.39-3.12-2.8-5.42-3.8-1.42-.61-3.25-1.64-4.07-2.28s-1.99-1.49-2.6-1.9l-1.12-.73-3.18,.67c-2.59,.55-3.26,.61-3.62,.34-1.71-1.31-4.23-3.58-7.82-7.05-3.78-3.65-7.98-7.51-9.16-8.41-.39-.3-.76-.09-2.82,1.64-1.3,1.09-3.33,2.64-4.51,3.43s-3.25,2.56-4.61,3.91c-2.23,2.23-2.58,2.49-3.73,2.66-1.28,.19-5.4,0-6.44-.3-.43-.12-.94,.18-2.15,1.27-.87,.79-2.18,1.9-2.92,2.46s-2.38,2.12-3.65,3.47l-2.31,2.44-2.03,.15-2.03,.15-3.32,3.22c-1.82,1.77-4.03,3.64-4.9,4.16-1.47,.87-1.74,.94-3.74,.92-2.63-.02-4.55-.73-8.65-3.22-1.53-.93-3.31-1.86-3.96-2.09l-1.19-.4-1.82,1.38c-1,.76-2.6,2.03-3.54,2.83-2.82,2.39-3.95,3-5.54,3-3.18,0-3.83,.23-5.58,1.95-.89,.88-2.77,2.35-4.18,3.27-1.41,.92-3.27,2.36-4.13,3.2-1.7,1.65-3.07,2.45-5.82,3.37l-1.76,.59-1.97-.69-1.97-.69-2.75,2.67c-2.19,2.13-3.19,2.89-4.91,3.73-2.7,1.32-3.22,1.69-6.71,4.8-1.83,1.63-3.95,3.18-6,4.39-1.74,1.03-3.55,2.2-4.03,2.61-1.16,.99-3.96,2.93-6.03,4.17-.92,.55-1.68,1.06-1.68,1.14s1.18,.1,2.61,.05c2.61-.09,2.62-.1,6.23-1.88h0Zm73.61,.96c.74-.53,2.57-1.8,4.06-2.82,1.5-1.02,2.94-2.19,3.2-2.58,.92-1.4,2.95-3.36,5.62-5.42,1.48-1.14,3.72-3.13,4.96-4.42,1.25-1.28,3.1-3.02,4.11-3.85,3.08-2.53,1.51-2.2-4.25,.88-2.06,1.11-3.84,2.01-3.94,2.01s-.45-.73-.77-1.61c-.4-1.1-.68-1.54-.89-1.37-1.73,1.4-5.23,3.89-6.03,4.31-.56,.29-1.85,.71-2.87,.95-2,.46-3.64,1.3-6.84,3.49-2.49,1.7-4.15,2.5-7.51,3.6-1.75,.57-3.6,1.47-5.77,2.8-1.75,1.07-4.37,2.59-5.81,3.36-1.44,.78-2.61,1.46-2.61,1.52s5.4,.11,12,.11h12l1.34-.96Zm71.86-1.25c-2.39-2.56-3.53-3.4-6.26-4.66-1.37-.63-2.46-1.4-3.59-2.53-.89-.89-1.57-1.66-1.51-1.72,.06-.06,1.49,.29,3.18,.78,4.18,1.2,5.2,1.38,5.01,.88-.08-.21-.4-1.24-.71-2.28-1.38-4.63-6.68-8.8-14.23-11.17-2.87-.9-4.31-1.95-6.57-4.76-.99-1.22-1.88-2.26-2-2.3s-1.7,1.59-3.53,3.62c-5.14,5.72-10.74,11.35-11.71,11.78-.64,.28-1.41,.34-2.82,.22l-1.93-.17-6.03,3.63c-4.89,2.94-6.42,4.01-8.08,5.64-1.58,1.55-2.65,2.32-4.69,3.36-1.46,.74-2.83,1.47-3.05,1.62-.28,.19,10.69,.28,35.09,.28h35.49l-2.07-2.21Z"/></g><g><path class="l" d="M2253.37,685.44c5.79-.81,7.99-3.31,7.99-9.1,0-4.64-1.38-6.97-4.76-8.01-1.81-.56-7.84-1.14-16.82-1.63-2.59-.14-5.03-.4-5.43-.58-1.29-.59-1.35-3.17-.1-4.1,.73-.54,1.04-.56,9.26-.56,9.44,0,9.62,.03,10.11,1.75l.25,.86,3.48-.04c1.91-.02,3.51-.07,3.54-.11,.25-.25-.58-3.93-1.12-5.01-1.24-2.45-3.24-3.3-8.94-3.78-4.13-.35-14.73-.17-17.47,.29-2.22,.37-4.91,1.67-5.74,2.77-.96,1.28-1.5,3.46-1.5,6.08,0,5.83,2.14,7.84,9.12,8.57,1.4,.15,5.26,.39,8.58,.54,9.88,.46,10.46,.62,10.46,2.97,0,.42-.14,1.07-.3,1.43-.59,1.29-1.28,1.37-11.02,1.37s-9.78,.07-10.05-1.97l-.15-1.11h-7.24l.18,1.81c.5,5.02,2.51,6.98,7.81,7.59,2.65,.3,17.62,.28,19.87-.03h0Z"/><path class="l" d="M2302.28,685.45c5.8-.75,7.92-2.85,8.24-8.15,.35-5.88-1.68-8.68-6.9-9.52-.94-.15-4.91-.46-8.83-.69-10.51-.62-10.94-.66-11.57-1.16-.77-.62-1-2.5-.42-3.38,.75-1.15,1.85-1.27,10.23-1.18,8.68,.1,9.18,.19,9.64,1.76l.26,.87h7.2l-.19-1.68c-.44-3.91-2.12-5.84-5.76-6.61-3.48-.74-13.18-1.03-18.77-.57-5.97,.49-7.88,1.35-9.28,4.16-.76,1.52-.8,1.79-.8,4.83,0,2.67,.07,3.31,.54,4.3,.35,.75,1.14,1.82,1.75,2.38,1.89,1.7,4.21,2.07,15.95,2.58,9.18,.39,9.49,.49,9.72,2.89,.1,1.09,.03,1.43-.43,1.88-1.04,1.04-2.35,1.16-11.37,1.07l-8.57-.09-.51-.63c-.28-.35-.51-1.04-.51-1.54v-.91h-3.62c-4.12,0-3.79-.28-3.35,2.76,.65,4.47,2.94,6.24,8.71,6.71,2.58,.21,16.81,.14,18.64-.1h0Z"/><path class="l" d="M2159.83,682.1l.08-3.07h-24.42v-23.6h-3.59c-3.5,0-3.59,.02-3.75,.6-.19,.72-.23,29.01-.04,29.21,.07,.07,7.22,.09,15.89,.03l15.76-.1,.08-3.07Z"/><path class="l" d="M2176.62,685.2h2.72l6.22-10.93c3.42-6.01,6.38-11.15,6.58-11.43,.32-.45,.67,.05,3.63,5.11,1.8,3.09,3.28,5.69,3.28,5.79s-2.02,.21-4.49,.25l-4.49,.07-1.67,2.68-1.67,2.68,7.97,.13,7.97,.13,1.51,2.68c1.33,2.36,1.61,2.69,2.29,2.74,2.15,.16,7.88,.19,7.88,.03,0-.1-1.73-3.05-3.84-6.57-8.24-13.71-13.3-22.24-13.47-22.68-.16-.42-.63-.47-4.51-.47h-4.33l-1.86,3.29c-1.02,1.81-3.14,5.52-4.71,8.25s-4.34,7.56-6.16,10.73c-1.82,3.17-3.53,6.15-3.81,6.62l-.51,.85,.61,.13c.34,.07,.96,.08,1.38,.02,.42-.06,1.99-.11,3.49-.11h0Z"/><path class="l" d="M2358.87,682.25v-.05c0-1.75-1.42-3.17-3.17-3.17h-22.84v-5.89l12.27-.07,12.27-.07v-5.63l-12.27-.07-12.27-.07v-5.63h26.03l-.08-3.1h0c-.04-1.72-1.45-3.1-3.17-3.09h-30.16v14.83c0,8.15,.04,14.91,.08,15.02,.05,.11,7.56,.2,16.69,.2h16.61v-3.22Z"/><path class="l" d="M2380.37,685.33c.29-.11,.34-2.01,.26-10.25l-.09-10.11,3.45,3.23c1.9,1.78,5.2,4.84,7.34,6.8,2.14,1.97,5.16,4.8,6.7,6.3,4.61,4.47,4,4.16,8.2,4.16h3.6v-30.03h-5.7c-.86,0-1.56,.68-1.58,1.54h0c-.02,.85-.11,5.34-.2,9.99l-.17,8.45-5.24-4.96c-4.94-4.67-11.16-10.52-14.47-13.59l-1.47-1.37-3.75-.09-2.14-.05c-.88-.02-1.61,.69-1.62,1.57l-.06,13.33-.06,13.41c0,.85,.67,1.55,1.52,1.59l.95,.03c1.37,.05,2.87,.11,3.33,.14s1.01,0,1.21-.08h0Z"/></g><g><g><path class="l" d="M2186.73,705.64c-1.17,0-2.25-.14-3.25-.43-1-.29-1.87-.69-2.6-1.22-.73-.53-1.31-1.15-1.72-1.86-.41-.71-.62-1.5-.62-2.35s.21-1.64,.62-2.35c.41-.71,.99-1.33,1.73-1.86,.74-.53,1.61-.94,2.61-1.22,1-.29,2.08-.43,3.25-.43,1.31,0,2.5,.17,3.56,.51,1.06,.34,1.96,.84,2.68,1.5l-2.27,1.56c-.5-.44-1.08-.78-1.72-1.01-.64-.23-1.33-.34-2.08-.34-.71,0-1.35,.09-1.94,.27-.59,.18-1.1,.43-1.53,.75s-.77,.71-1,1.15c-.24,.44-.36,.94-.36,1.48s.12,1.03,.36,1.48c.24,.44,.57,.83,1,1.15,.43,.32,.94,.58,1.53,.75,.59,.18,1.24,.27,1.94,.27,.75,0,1.44-.12,2.08-.35,.64-.23,1.21-.57,1.72-1.01l2.27,1.56c-.72,.66-1.61,1.16-2.68,1.51-1.07,.35-2.26,.52-3.58,.52Z"/><path class="l" d="M2202.64,705.64c-1.19,0-2.3-.15-3.3-.44-1.01-.29-1.89-.7-2.63-1.23-.75-.53-1.33-1.15-1.74-1.86-.41-.71-.62-1.49-.62-2.33s.21-1.63,.62-2.34c.41-.71,.99-1.33,1.74-1.86,.75-.53,1.62-.94,2.62-1.23,1-.29,2.1-.44,3.29-.44s2.29,.14,3.29,.43c1,.29,1.87,.69,2.62,1.22,.75,.53,1.33,1.15,1.74,1.86,.41,.71,.62,1.5,.62,2.35s-.21,1.62-.62,2.34c-.41,.72-.99,1.34-1.74,1.87-.75,.53-1.62,.94-2.62,1.22-1,.29-2.09,.43-3.27,.43Zm-.02-2.22c.68,0,1.3-.09,1.87-.27,.57-.18,1.07-.43,1.5-.76,.43-.33,.77-.71,1-1.15s.36-.93,.36-1.47-.12-1.03-.36-1.47c-.24-.44-.57-.82-1-1.15-.43-.33-.93-.58-1.5-.76-.57-.18-1.19-.27-1.87-.27s-1.3,.09-1.88,.27c-.58,.18-1.08,.43-1.5,.76-.42,.33-.76,.71-.99,1.15-.24,.44-.36,.93-.36,1.47s.12,1.03,.36,1.47c.24,.44,.57,.82,.99,1.15,.42,.33,.92,.58,1.5,.76,.58,.18,1.2,.27,1.88,.27Z"/><path class="l" d="M2213.52,705.45v-11.35h2.89l8.91,8.17h-1.4v-8.17h3.45v11.35h-2.89l-8.91-8.17h1.4v8.17h-3.45Z"/><path class="l" d="M2235.95,705.64c-1.21,0-2.37-.12-3.49-.36-1.12-.24-2.01-.56-2.69-.95l1.19-1.98c.63,.35,1.4,.63,2.29,.85,.89,.22,1.79,.33,2.7,.33,.69,0,1.25-.05,1.67-.16,.42-.11,.74-.25,.94-.43,.2-.18,.3-.39,.3-.62,0-.3-.16-.54-.47-.72-.32-.18-.74-.32-1.26-.44-.53-.11-1.1-.22-1.72-.32-.62-.1-1.24-.23-1.87-.37-.63-.15-1.2-.34-1.73-.58-.53-.24-.94-.56-1.25-.96-.31-.39-.46-.89-.46-1.48,0-.65,.23-1.24,.69-1.78,.46-.54,1.16-.96,2.1-1.28,.94-.32,2.13-.48,3.55-.48,.95,0,1.89,.09,2.82,.26,.93,.17,1.74,.42,2.43,.75l-1.1,1.98c-.68-.29-1.37-.51-2.09-.66-.72-.15-1.41-.22-2.07-.22s-1.24,.06-1.66,.17c-.42,.11-.72,.27-.92,.46-.19,.19-.29,.41-.29,.65,0,.3,.16,.55,.47,.73,.32,.18,.73,.33,1.25,.43,.52,.1,1.09,.21,1.73,.31,.63,.1,1.26,.23,1.88,.38,.62,.15,1.19,.34,1.71,.58,.52,.23,.94,.55,1.26,.94,.32,.39,.49,.88,.49,1.47,0,.64-.23,1.22-.7,1.75-.47,.53-1.18,.96-2.13,1.28-.95,.32-2.14,.49-3.56,.49Z"/><path class="l" d="M2247.84,705.45v-9.21h-4.84v-2.14h13.17v2.14h-4.84v9.21h-3.5Z"/><path class="l" d="M2258.05,705.45v-11.35h6.54c1.35,0,2.52,.16,3.5,.49,.98,.33,1.73,.8,2.27,1.42,.53,.62,.8,1.35,.8,2.19s-.27,1.59-.8,2.2c-.53,.61-1.29,1.08-2.27,1.39-.98,.32-2.14,.48-3.5,.48h-4.62l1.6-1.14v4.31h-3.52Zm3.52-4.02l-1.6-1.25h4.43c1.06,0,1.87-.17,2.42-.52,.55-.35,.82-.83,.82-1.46s-.27-1.11-.82-1.45c-.55-.34-1.35-.51-2.42-.51h-4.43l1.6-1.25v6.44Zm6.11,4.02l-3.8-4.12h3.76l3.8,4.12h-3.76Z"/><path class="l" d="M2280.65,705.64c-2.14,0-3.82-.45-5.03-1.35-1.21-.9-1.81-2.18-1.81-3.86v-6.34h3.52v6.28c0,1.07,.29,1.85,.89,2.33,.59,.48,1.41,.72,2.46,.72s1.89-.24,2.48-.72c.59-.48,.88-1.26,.88-2.33v-6.28h3.43v6.34c0,1.68-.6,2.96-1.81,3.86s-2.88,1.35-5.01,1.35Z"/><path class="l" d="M2298.18,705.64c-1.17,0-2.25-.14-3.25-.43-1-.29-1.87-.69-2.6-1.22-.73-.53-1.31-1.15-1.72-1.86-.41-.71-.62-1.5-.62-2.35s.21-1.64,.62-2.35c.41-.71,.99-1.33,1.73-1.86,.74-.53,1.61-.94,2.61-1.22,1-.29,2.08-.43,3.25-.43,1.31,0,2.5,.17,3.56,.51,1.06,.34,1.96,.84,2.68,1.5l-2.27,1.56c-.5-.44-1.08-.78-1.72-1.01-.64-.23-1.33-.34-2.08-.34-.71,0-1.35,.09-1.94,.27-.59,.18-1.1,.43-1.53,.75-.43,.32-.77,.71-1,1.15-.24,.44-.36,.94-.36,1.48s.12,1.03,.36,1.48c.24,.44,.57,.83,1,1.15,.43,.32,.94,.58,1.53,.75,.59,.18,1.24,.27,1.94,.27,.75,0,1.44-.12,2.08-.35,.64-.23,1.21-.57,1.72-1.01l2.27,1.56c-.72,.66-1.61,1.16-2.68,1.51-1.06,.35-2.26,.52-3.58,.52Z"/><path class="l" d="M2309.88,705.45v-9.21h-4.84v-2.14h13.17v2.14h-4.84v9.21h-3.5Z"/><path class="l" d="M2320.09,705.45v-11.35h3.52v11.35h-3.52Z"/><path class="l" d="M2334.51,705.64c-1.19,0-2.3-.15-3.3-.44-1.01-.29-1.89-.7-2.63-1.23-.75-.53-1.33-1.15-1.74-1.86-.41-.71-.62-1.49-.62-2.33s.21-1.63,.62-2.34c.41-.71,.99-1.33,1.74-1.86,.75-.53,1.62-.94,2.62-1.23,1-.29,2.1-.44,3.29-.44s2.29,.14,3.29,.43c1,.29,1.87,.69,2.62,1.22,.75,.53,1.33,1.15,1.74,1.86s.62,1.5,.62,2.35-.2,1.62-.62,2.34c-.41,.72-.99,1.34-1.74,1.87-.75,.53-1.62,.94-2.62,1.22-1,.29-2.09,.43-3.27,.43Zm-.02-2.22c.68,0,1.3-.09,1.87-.27,.57-.18,1.07-.43,1.5-.76,.43-.33,.77-.71,1-1.15,.24-.44,.36-.93,.36-1.47s-.12-1.03-.36-1.47c-.24-.44-.57-.82-1-1.15-.43-.33-.93-.58-1.5-.76-.57-.18-1.19-.27-1.87-.27s-1.3,.09-1.88,.27-1.08,.43-1.5,.76c-.42,.33-.76,.71-.99,1.15-.24,.44-.36,.93-.36,1.47s.12,1.03,.36,1.47c.24,.44,.57,.82,.99,1.15,.42,.33,.92,.58,1.5,.76,.58,.18,1.2,.27,1.88,.27Z"/><path class="l" d="M2345.39,705.45v-11.35h2.89l8.92,8.17h-1.4v-8.17h3.45v11.35h-2.89l-8.92-8.17h1.4v8.17h-3.45Z"/></g><g><rect class="l" x="2124.99" y="698.94" width="44.87" height="1.66"/><rect class="l" x="2367.63" y="698.94" width="44.87" height="1.66"/></g></g></g><g><path id="j" class="p" d="M1242.87,437.54c-4.33-4.17-6.2-5.48-10.18-7.14-2.29-.96-4.55-2.69-6.38-4.91-1.98-2.39-2.59-2.86-4.77-3.65-.9-.33-2.65-1.25-3.89-2.04s-2.38-1.45-2.52-1.45c-.15,0-.9,.24-1.67,.53-.77,.29-2.93,.71-4.8,.93-3.25,.38-3.43,.38-4.1-.11-1.58-1.14-2.65-2.63-4.59-6.38-1.65-3.2-2.24-4.1-3.1-4.7-2.78-1.97-7.76-5.73-10.18-7.68-1.47-1.19-2.85-2.16-3.06-2.16-.21,0-1.21,.48-2.24,1.07-1.02,.59-1.92,1.07-1.99,1.07s-.85,.49-1.73,1.09c-3.25,2.2-4.39,2.46-7.38,1.67-1.64-.44-1.76-.44-2.46,0-.4,.26-2.23,2.52-3.67,3.36-4.44,2.6-13.57,7.1-13.57,7.52,0,.61,8.1-1.88,10.3-2.62,1.02-.34,2.9-1.14,4.16-1.78,4.45-2.23,5.97-3.21,3.09-.48-2.07,1.95-1.95,1.98,1.76,.43,1.25-.52,3.3-1.25,4.56-1.61,3.02-.87,3.82-1.37,6-3.73,1.01-1.09,1.98-1.98,2.16-1.98s.54,.7,.79,1.54c.26,.86,.93,2.14,1.52,2.88,.58,.73,.97,1.42,.86,1.53s-1.1,.33-2.2,.5c-2.24,.34-4.28,1.12-4.98,1.88-.43,.48-.42,.52,.27,.78,.4,.15,.85,.27,1.01,.27,.81,0,2.09,1.19,2.73,2.56,.39,.81,.7,1.65,.7,1.87,0,.46,2.04,2.03,4.86,3.73,1.12,.68,2.53,1.69,3.13,2.24,.99,.92,1.1,1.16,1.24,2.67,.08,.92,.05,1.73-.08,1.81-.13,.08-1.1-.22-2.15-.67-1.67-.71-2.18-.81-3.98-.74l-2.07,.08,1.07,.58c1.98,1.07,5.75,5.37,7.89,9.01l1.38,2.35h15.1l-.92-.97c-.51-.53-2.13-2.07-3.61-3.41-1.47-1.34-2.72-2.54-2.77-2.65-.05-.12,.92,.41,2.15,1.17,1.23,.76,4.31,2.39,6.85,3.62l4.61,2.23h8.61c4.74,0,8.55-.1,8.47-.23s-1.38-.84-2.9-1.59c-2.46-1.21-3.07-1.67-5.6-4.2-1.56-1.56-2.78-2.84-2.7-2.84s1.61,.77,3.41,1.72c1.8,.95,4.7,2.23,6.46,2.85s4.15,1.61,5.33,2.21c2.83,1.43,4.97,2.31,5.62,2.33,.46,0,.48-.04,.13-.37h0Zm-265.48-1.81c6.7-3.3,8.95-4.3,11.23-4.95,2.29-.66,2.56-.81,5.67-3.14,2.46-1.84,3.25-2.19,6.39-2.83,3.4-.69,4.4-1.15,5.5-2.53,1.82-2.29,3.6-4.06,5.13-5.1,.88-.6,2.29-1.73,3.14-2.51,1.7-1.57,4.8-3.92,4.96-3.76,.21,.21-2.99,5.47-5.53,9.08-.37,.52-.36,.55,.23,.36,.7-.22,4.88-2.75,6.02-3.65,.6-.47,.73-.75,.62-1.31-.22-1.08,3.44-4.84,5.62-5.79,2.76-1.2,3.17-1.47,4.06-2.65,1.55-2.04,5.68-6.18,5.91-5.91,.12,.14,.37,1.04,.55,2,.38,2,.89,2.83,2.16,3.51l.9,.48-.9,.55c-.5,.3-1.01,.55-1.15,.55-.5,0-2.86,1.69-2.65,1.9,.12,.12,.94,.39,1.83,.59l1.61,.38-1.07,.46c-.59,.25-2.11,.93-3.37,1.51s-2.69,1.13-3.16,1.22c-1.05,.21-1.47,.72-3.8,4.68-2.91,4.92-4.38,6.28-8.37,7.75-.78,.28-2.02,.6-2.75,.71-1.9,.27-2.12,.37-6.65,3.15-2.24,1.38-6.01,3.52-8.37,4.76l-4.29,2.25,11.76,.07,11.76,.07,1.16-.74c.64-.41,2.83-1.9,4.86-3.31s5.15-3.45,6.92-4.53c1.77-1.08,3.88-2.4,4.69-2.95,1.73-1.17,6.84-4.08,9.52-5.43,1.03-.52,2.08-1.17,2.32-1.44,.24-.27,.77-1.58,1.17-2.91,.81-2.66,1.55-4.03,3.08-5.64,.56-.59,1.74-2.17,2.63-3.52,1.58-2.38,1.65-2.45,2.8-2.58,1.83-.21,8.29-4.03,11.16-6.6,2.68-2.4,4.09-3.41,6.33-4.53,1.98-.99,3.22-1.33,3-.83-1.3,3.01-3.72,8.39-4.17,9.27-.32,.63-.47,1.14-.34,1.14s1.56-1.3,3.16-2.88c2.44-2.42,3.13-3.29,4.24-5.4,1.8-3.4,2.04-3.66,4-4.31,2.26-.75,2.45-.92,3.89-3.36,1.09-1.85,1.43-2.2,2.85-2.96,1.49-.8,4.32-3.59,5.17-5.11,.2-.36,.38-.43,.57-.24,.35,.34,.83,2.78,.83,4.21,0,.8,.38,1.73,1.52,3.74,.83,1.47,1.93,3.17,2.42,3.76,.5,.6,.86,1.13,.8,1.19-.15,.15-2.83-.92-3.83-1.54-1.59-.98-1.98-.64-1.98,1.75,0,.86-.26,2.12-.67,3.2-1.09,2.89-1.01,3.19,1.45,5.52,1.88,1.79,2.18,2.21,2.7,3.81,.32,.99,1.04,2.5,1.59,3.35,.99,1.53,1.47,1.93,5.53,4.51,.88,.56,2.14,1.45,2.78,1.98,1.49,1.22,4.79,6.11,5.52,8.2,.51,1.46,.72,1.7,2.42,2.86,1.02,.7,3.18,1.78,4.79,2.42,3.69,1.45,5.66,2.84,9.56,6.78l3.08,3.11h25.61c21.87,0,25.53-.05,25.08-.37-.29-.2-1.9-.99-3.58-1.74-3.21-1.44-5.4-2.95-9.02-6.21-2.69-2.43-4.08-3.22-7.77-4.45-1.62-.54-3.78,.16-4.41-.11-1.35-.58-7.64-4.48-7.91-4.91-.11-.16-.64-1.67-1.19-3.35-.57-1.74-1.52-3.92-2.22-5.09-1.11-1.84-1.15-3.56-3.45-5.08-1.73-1.14-3.62-2.78-5.92-5.1-1.86-1.88-4.66-4.63-6.22-6.1-2.54-2.39-3.12-2.8-5.42-3.8-1.42-.61-3.25-1.64-4.07-2.28s-1.99-1.49-2.6-1.9l-1.12-.73-3.18,.67c-2.59,.55-3.26,.61-3.62,.34-1.71-1.31-4.23-3.58-7.82-7.05-3.78-3.65-7.98-7.51-9.16-8.41-.39-.3-.76-.09-2.82,1.64-1.3,1.09-3.33,2.64-4.51,3.43s-3.25,2.56-4.61,3.91c-2.23,2.23-2.58,2.49-3.73,2.66-1.28,.19-5.4,0-6.44-.3-.43-.12-.94,.18-2.15,1.27-.87,.79-2.18,1.9-2.92,2.46s-2.38,2.12-3.65,3.47l-2.31,2.44-2.03,.15-2.03,.15-3.32,3.22c-1.82,1.77-4.03,3.64-4.9,4.16-1.47,.87-1.74,.94-3.74,.92-2.63-.02-4.55-.73-8.65-3.22-1.53-.93-3.31-1.86-3.96-2.09l-1.19-.4-1.82,1.38c-1,.76-2.6,2.03-3.54,2.83-2.82,2.39-3.95,3-5.54,3-3.18,0-3.83,.23-5.58,1.95-.89,.88-2.77,2.35-4.18,3.27-1.41,.92-3.27,2.36-4.13,3.2-1.7,1.65-3.07,2.45-5.82,3.37l-1.76,.59-1.97-.69-1.97-.69-2.75,2.67c-2.19,2.13-3.19,2.89-4.91,3.73-2.7,1.32-3.22,1.69-6.71,4.8-1.83,1.63-3.95,3.18-6,4.39-1.74,1.03-3.55,2.2-4.03,2.61-1.16,.99-3.96,2.93-6.03,4.17-.92,.55-1.68,1.06-1.68,1.14s1.18,.1,2.61,.05c2.61-.09,2.62-.1,6.23-1.88h0Zm73.61,.96c.74-.53,2.57-1.8,4.06-2.82,1.5-1.02,2.94-2.19,3.2-2.58,.92-1.4,2.95-3.36,5.62-5.42,1.48-1.14,3.72-3.13,4.96-4.42,1.25-1.28,3.1-3.02,4.11-3.85,3.08-2.53,1.51-2.2-4.25,.88-2.06,1.11-3.84,2.01-3.94,2.01s-.45-.73-.77-1.61c-.4-1.1-.68-1.54-.89-1.37-1.73,1.4-5.23,3.89-6.03,4.31-.56,.29-1.85,.71-2.87,.95-2,.46-3.64,1.3-6.84,3.49-2.49,1.7-4.15,2.5-7.51,3.6-1.75,.57-3.6,1.47-5.77,2.8-1.75,1.07-4.37,2.59-5.81,3.36-1.44,.78-2.61,1.46-2.61,1.52s5.4,.11,12,.11h12l1.34-.96Zm71.86-1.25c-2.39-2.56-3.53-3.4-6.26-4.66-1.37-.63-2.46-1.4-3.59-2.53-.89-.89-1.57-1.66-1.51-1.72,.06-.06,1.49,.29,3.18,.78,4.18,1.2,5.2,1.38,5.01,.88-.08-.21-.4-1.24-.71-2.28-1.38-4.63-6.68-8.8-14.23-11.17-2.87-.9-4.31-1.95-6.57-4.76-.99-1.22-1.88-2.26-2-2.3s-1.7,1.59-3.53,3.62c-5.14,5.72-10.74,11.35-11.71,11.78-.64,.28-1.41,.34-2.82,.22l-1.93-.17-6.03,3.63c-4.89,2.94-6.42,4.01-8.08,5.64-1.58,1.55-2.65,2.32-4.69,3.36-1.46,.74-2.83,1.47-3.05,1.62-.28,.19,10.69,.28,35.09,.28h35.49l-2.07-2.21Z"/><g><path class="p" d="M1090.3,476.79c5.79-.81,7.99-3.31,7.99-9.1,0-4.64-1.38-6.97-4.76-8.01-1.81-.56-7.84-1.14-16.82-1.63-2.59-.14-5.03-.4-5.43-.58-1.29-.59-1.35-3.17-.1-4.1,.73-.54,1.04-.56,9.26-.56,9.44,0,9.62,.03,10.11,1.75l.25,.86,3.48-.04c1.91-.02,3.51-.07,3.54-.11,.25-.25-.58-3.93-1.12-5.01-1.24-2.45-3.24-3.3-8.94-3.78-4.13-.35-14.73-.17-17.47,.29-2.22,.37-4.91,1.67-5.74,2.77-.96,1.28-1.5,3.46-1.5,6.08,0,5.83,2.14,7.84,9.12,8.57,1.4,.15,5.26,.39,8.58,.54,9.88,.46,10.46,.62,10.46,2.97,0,.42-.14,1.07-.3,1.43-.59,1.29-1.28,1.37-11.02,1.37s-9.78,.07-10.05-1.97l-.15-1.11h-7.24l.18,1.81c.5,5.02,2.51,6.98,7.81,7.59,2.65,.3,17.62,.28,19.87-.03h0Z"/><path class="p" d="M1139.21,476.8c5.8-.75,7.92-2.85,8.24-8.15,.35-5.88-1.68-8.68-6.9-9.52-.94-.15-4.91-.46-8.83-.69-10.51-.62-10.94-.66-11.57-1.16-.77-.62-1-2.5-.42-3.38,.75-1.15,1.85-1.27,10.23-1.18,8.68,.1,9.18,.19,9.64,1.76l.26,.87h7.2l-.19-1.68c-.44-3.91-2.12-5.84-5.76-6.61-3.48-.74-13.18-1.03-18.77-.57-5.97,.49-7.88,1.35-9.28,4.16-.76,1.52-.8,1.79-.8,4.83,0,2.67,.07,3.31,.54,4.3,.35,.75,1.14,1.82,1.75,2.38,1.89,1.7,4.21,2.07,15.95,2.58,9.18,.39,9.49,.49,9.72,2.89,.1,1.09,.03,1.43-.43,1.88-1.04,1.04-2.35,1.16-11.37,1.07l-8.57-.09-.51-.63c-.28-.35-.51-1.04-.51-1.54v-.91h-3.62c-4.12,0-3.79-.28-3.35,2.76,.65,4.47,2.94,6.24,8.71,6.71,2.58,.21,16.81,.14,18.64-.1h0Z"/><path class="p" d="M996.75,473.45l.08-3.07h-24.42v-23.6h-3.59c-3.5,0-3.59,.02-3.75,.6-.19,.72-.23,29.01-.04,29.21,.07,.07,7.22,.09,15.89,.03l15.76-.1,.08-3.07Z"/><path class="p" d="M1013.54,476.54h2.72l6.22-10.93c3.42-6.01,6.38-11.15,6.58-11.43,.32-.45,.67,.05,3.63,5.11,1.8,3.09,3.28,5.69,3.28,5.79s-2.02,.21-4.49,.25l-4.49,.07-1.67,2.68-1.67,2.68,7.97,.13,7.97,.13,1.51,2.68c1.33,2.36,1.61,2.69,2.29,2.74,2.15,.16,7.88,.19,7.88,.03,0-.1-1.73-3.05-3.84-6.57-8.24-13.71-13.3-22.24-13.47-22.68-.16-.42-.63-.47-4.51-.47h-4.33l-1.86,3.29c-1.02,1.81-3.14,5.52-4.71,8.25s-4.34,7.56-6.16,10.73c-1.82,3.17-3.53,6.15-3.81,6.62l-.51,.85,.61,.13c.34,.07,.96,.08,1.38,.02,.42-.06,1.99-.11,3.49-.11h0Z"/><path class="p" d="M1195.79,473.59v-.05c0-1.75-1.42-3.17-3.17-3.17h-22.84v-5.89l12.27-.07,12.27-.07v-5.63l-12.27-.07-12.27-.07v-5.63h26.03l-.08-3.1h0c-.04-1.72-1.45-3.1-3.17-3.09h-30.16v14.83c0,8.15,.04,14.91,.08,15.02,.05,.11,7.56,.2,16.69,.2h16.61v-3.22Z"/><path class="p" d="M1217.29,476.67c.29-.11,.34-2.01,.26-10.25l-.09-10.11,3.45,3.23c1.9,1.78,5.2,4.84,7.34,6.8,2.14,1.97,5.16,4.8,6.7,6.3,4.61,4.47,4,4.16,8.2,4.16h3.6v-30.03h-5.7c-.86,0-1.56,.68-1.58,1.54h0c-.02,.85-.11,5.34-.2,9.99l-.17,8.45-5.24-4.96c-4.94-4.67-11.16-10.52-14.47-13.59l-1.47-1.37-3.75-.09-2.14-.05c-.88-.02-1.61,.69-1.62,1.57l-.06,13.33-.06,13.41c0,.85,.67,1.55,1.52,1.59l.95,.03c1.37,.05,2.87,.11,3.33,.14s1.01,0,1.21-.08h0Z"/></g><g><g><path class="p" d="M1023.66,496.99c-1.17,0-2.25-.14-3.25-.43-1-.29-1.87-.69-2.6-1.22-.73-.53-1.31-1.15-1.72-1.86-.41-.71-.62-1.5-.62-2.35s.21-1.64,.62-2.35c.41-.71,.99-1.33,1.73-1.86,.74-.53,1.61-.94,2.61-1.22,1-.29,2.08-.43,3.25-.43,1.31,0,2.5,.17,3.56,.51,1.06,.34,1.96,.84,2.68,1.5l-2.27,1.56c-.5-.44-1.08-.78-1.72-1.01-.64-.23-1.33-.34-2.08-.34-.71,0-1.35,.09-1.94,.27-.59,.18-1.1,.43-1.53,.75s-.77,.71-1,1.15c-.24,.44-.36,.94-.36,1.48s.12,1.03,.36,1.48c.24,.44,.57,.83,1,1.15,.43,.32,.94,.58,1.53,.75,.59,.18,1.24,.27,1.94,.27,.75,0,1.44-.12,2.08-.35,.64-.23,1.21-.57,1.72-1.01l2.27,1.56c-.72,.66-1.61,1.16-2.68,1.51-1.07,.35-2.26,.52-3.58,.52Z"/><path class="p" d="M1039.57,496.99c-1.19,0-2.3-.15-3.3-.44-1.01-.29-1.89-.7-2.63-1.23-.75-.53-1.33-1.15-1.74-1.86-.41-.71-.62-1.49-.62-2.33s.21-1.63,.62-2.34c.41-.71,.99-1.33,1.74-1.86,.75-.53,1.62-.94,2.62-1.23,1-.29,2.1-.44,3.29-.44s2.29,.14,3.29,.43c1,.29,1.87,.69,2.62,1.22,.75,.53,1.33,1.15,1.74,1.86,.41,.71,.62,1.5,.62,2.35s-.21,1.62-.62,2.34c-.41,.72-.99,1.34-1.74,1.87-.75,.53-1.62,.94-2.62,1.22-1,.29-2.09,.43-3.27,.43Zm-.02-2.22c.68,0,1.3-.09,1.87-.27,.57-.18,1.07-.43,1.5-.76,.43-.33,.77-.71,1-1.15s.36-.93,.36-1.47-.12-1.03-.36-1.47c-.24-.44-.57-.82-1-1.15-.43-.33-.93-.58-1.5-.76-.57-.18-1.19-.27-1.87-.27s-1.3,.09-1.88,.27c-.58,.18-1.08,.43-1.5,.76-.42,.33-.76,.71-.99,1.15-.24,.44-.36,.93-.36,1.47s.12,1.03,.36,1.47c.24,.44,.57,.82,.99,1.15,.42,.33,.92,.58,1.5,.76,.58,.18,1.2,.27,1.88,.27Z"/><path class="p" d="M1050.45,496.8v-11.35h2.89l8.91,8.17h-1.4v-8.17h3.45v11.35h-2.89l-8.91-8.17h1.4v8.17h-3.45Z"/><path class="p" d="M1072.88,496.99c-1.21,0-2.37-.12-3.49-.36-1.12-.24-2.01-.56-2.69-.95l1.19-1.98c.63,.35,1.4,.63,2.29,.85,.89,.22,1.79,.33,2.7,.33,.69,0,1.25-.05,1.67-.16,.42-.11,.74-.25,.94-.43,.2-.18,.3-.39,.3-.62,0-.3-.16-.54-.47-.72-.32-.18-.74-.32-1.26-.44-.53-.11-1.1-.22-1.72-.32-.62-.1-1.24-.23-1.87-.37-.63-.15-1.2-.34-1.73-.58-.53-.24-.94-.56-1.25-.96-.31-.39-.46-.89-.46-1.48,0-.65,.23-1.24,.69-1.78,.46-.54,1.16-.96,2.1-1.28,.94-.32,2.13-.48,3.55-.48,.95,0,1.89,.09,2.82,.26,.93,.17,1.74,.42,2.43,.75l-1.1,1.98c-.68-.29-1.37-.51-2.09-.66-.72-.15-1.41-.22-2.07-.22s-1.24,.06-1.66,.17c-.42,.11-.72,.27-.92,.46-.19,.19-.29,.41-.29,.65,0,.3,.16,.55,.47,.73,.32,.18,.73,.33,1.25,.43,.52,.1,1.09,.21,1.73,.31,.63,.1,1.26,.23,1.88,.38,.62,.15,1.19,.34,1.71,.58,.52,.23,.94,.55,1.26,.94,.32,.39,.49,.88,.49,1.47,0,.64-.23,1.22-.7,1.75-.47,.53-1.18,.96-2.13,1.28-.95,.32-2.14,.49-3.56,.49Z"/><path class="p" d="M1084.77,496.8v-9.21h-4.84v-2.14h13.17v2.14h-4.84v9.21h-3.5Z"/><path class="p" d="M1094.98,496.8v-11.35h6.54c1.35,0,2.52,.16,3.5,.49,.98,.33,1.73,.8,2.27,1.42,.53,.62,.8,1.35,.8,2.19s-.27,1.59-.8,2.2c-.53,.61-1.29,1.08-2.27,1.39-.98,.32-2.14,.48-3.5,.48h-4.62l1.6-1.14v4.31h-3.52Zm3.52-4.02l-1.6-1.25h4.43c1.06,0,1.87-.17,2.42-.52,.55-.35,.82-.83,.82-1.46s-.27-1.11-.82-1.45c-.55-.34-1.35-.51-2.42-.51h-4.43l1.6-1.25v6.44Zm6.11,4.02l-3.8-4.12h3.76l3.8,4.12h-3.76Z"/><path class="p" d="M1117.58,496.99c-2.14,0-3.82-.45-5.03-1.35-1.21-.9-1.81-2.18-1.81-3.86v-6.34h3.52v6.28c0,1.07,.29,1.85,.89,2.33,.59,.48,1.41,.72,2.46,.72s1.89-.24,2.48-.72c.59-.48,.88-1.26,.88-2.33v-6.28h3.43v6.34c0,1.68-.6,2.96-1.81,3.86s-2.88,1.35-5.01,1.35Z"/><path class="p" d="M1135.11,496.99c-1.17,0-2.25-.14-3.25-.43-1-.29-1.87-.69-2.6-1.22-.73-.53-1.31-1.15-1.72-1.86-.41-.71-.62-1.5-.62-2.35s.21-1.64,.62-2.35c.41-.71,.99-1.33,1.73-1.86,.74-.53,1.61-.94,2.61-1.22,1-.29,2.08-.43,3.25-.43,1.31,0,2.5,.17,3.56,.51,1.06,.34,1.96,.84,2.68,1.5l-2.27,1.56c-.5-.44-1.08-.78-1.72-1.01-.64-.23-1.33-.34-2.08-.34-.71,0-1.35,.09-1.94,.27-.59,.18-1.1,.43-1.53,.75-.43,.32-.77,.71-1,1.15-.24,.44-.36,.94-.36,1.48s.12,1.03,.36,1.48c.24,.44,.57,.83,1,1.15,.43,.32,.94,.58,1.53,.75,.59,.18,1.24,.27,1.94,.27,.75,0,1.44-.12,2.08-.35,.64-.23,1.21-.57,1.72-1.01l2.27,1.56c-.72,.66-1.61,1.16-2.68,1.51-1.06,.35-2.26,.52-3.58,.52Z"/><path class="p" d="M1146.81,496.8v-9.21h-4.84v-2.14h13.17v2.14h-4.84v9.21h-3.5Z"/><path class="p" d="M1157.02,496.8v-11.35h3.52v11.35h-3.52Z"/><path class="p" d="M1171.44,496.99c-1.19,0-2.3-.15-3.3-.44-1.01-.29-1.89-.7-2.63-1.23-.75-.53-1.33-1.15-1.74-1.86-.41-.71-.62-1.49-.62-2.33s.21-1.63,.62-2.34c.41-.71,.99-1.33,1.74-1.86,.75-.53,1.62-.94,2.62-1.23,1-.29,2.1-.44,3.29-.44s2.29,.14,3.29,.43c1,.29,1.87,.69,2.62,1.22,.75,.53,1.33,1.15,1.74,1.86s.62,1.5,.62,2.35-.2,1.62-.62,2.34c-.41,.72-.99,1.34-1.74,1.87-.75,.53-1.62,.94-2.62,1.22-1,.29-2.09,.43-3.27,.43Zm-.02-2.22c.68,0,1.3-.09,1.87-.27,.57-.18,1.07-.43,1.5-.76,.43-.33,.77-.71,1-1.15,.24-.44,.36-.93,.36-1.47s-.12-1.03-.36-1.47c-.24-.44-.57-.82-1-1.15-.43-.33-.93-.58-1.5-.76-.57-.18-1.19-.27-1.87-.27s-1.3,.09-1.88,.27-1.08,.43-1.5,.76c-.42,.33-.76,.71-.99,1.15-.24,.44-.36,.93-.36,1.47s.12,1.03,.36,1.47c.24,.44,.57,.82,.99,1.15,.42,.33,.92,.58,1.5,.76,.58,.18,1.2,.27,1.88,.27Z"/><path class="p" d="M1182.32,496.8v-11.35h2.89l8.92,8.17h-1.4v-8.17h3.45v11.35h-2.89l-8.92-8.17h1.4v8.17h-3.45Z"/></g><g><rect class="p" x="961.92" y="490.29" width="44.87" height="1.66"/><rect class="p" x="1204.56" y="490.29" width="44.87" height="1.66"/></g></g></g></svg>