<?xml version="1.0" encoding="UTF-8"?><svg id="a" xmlns="http://www.w3.org/2000/svg" xmlns:xlink="http://www.w3.org/1999/xlink" viewBox="0 0 250 145"><defs><style>.a`{fill:url(#t);}.aa{fill:url(#r);}.ab{fill:url(#y);}.ac{fill:url(#l);}.ad{fill:url(#c);}.ae{fill:url(#u);}.af{fill:url(#v);}.ag{fill:url(#m);}.ah{fill:url(#f);}.ai{fill:url(#p);}.aj{fill:url(#g);}.ak{fill:url(#b);}.al{fill:url(#i);}.am{fill:url(#h);}.an{fill:url(#d);}.ao{fill:url(#e);}.ap{fill:url(#x);}.aq{fill:url(#s);}.ar{fill:url(#n);}.as{fill:url(#w);}.at{fill:url(#j);}.au{fill:url(#o);}.av{fill:url(#q);}.aw{fill:url(#k);}</style><linearGradient id="b" x1="54.58" y1="70.83" x2="54.58" y2="27.15" gradientTransform="matrix(1, 0, 0, 1, 0, 0)" gradientUnits="userSpaceOnUse"><stop offset="0" stop-color="#f7ef8a"/><stop offset=".04" stop-color="#e7d873"/><stop offset=".14" stop-color="#c8ab49"/><stop offset=".21" stop-color="#b5902e"/><stop offset=".25" stop-color="#ae8625"/><stop offset=".42" stop-color="#b08827"/><stop offset=".76" stop-color="#d2ac47"/><stop offset=".83" stop-color="#e0bb57"/><stop offset=".91" stop-color="#e9c563"/><stop offset="1" stop-color="#edc967"/></linearGradient><linearGradient id="c" x1="54.58" y1="117.85" x2="54.58" y2="74.17" xlink:href="#b"/><linearGradient id="d" x1="54.58" y1="94.34" x2="54.58" y2="50.66" xlink:href="#b"/><linearGradient id="e" x1="101.71" y1="92.8" x2="101.71" y2="53.26" xlink:href="#b"/><linearGradient id="f" x1="133.65" y1="91.88" x2="133.65" y2="53.2" xlink:href="#b"/><linearGradient id="g" x1="167.11" y1="91.88" x2="167.11" y2="63.74" xlink:href="#b"/><linearGradient id="h" x1="199.41" y1="92.91" x2="199.41" y2="65.31" xlink:href="#b"/><linearGradient id="i" x1="176.49" y1="62.62" x2="176.49" y2="52.09" xlink:href="#b"/><linearGradient id="j" x1="161.52" y1="62.62" x2="161.52" y2="52.09" xlink:href="#b"/><linearGradient id="k" x1="96.99" y1="111.67" x2="96.99" y2="97.97" xlink:href="#b"/><linearGradient id="l" x1="104.54" y1="110.83" x2="104.54" y2="98.07" xlink:href="#b"/><linearGradient id="m" x1="111.35" y1="110.63" x2="111.35" y2="101.41" xlink:href="#b"/><linearGradient id="n" x1="117.94" y1="110.53" x2="117.94" y2="105.23" xlink:href="#b"/><linearGradient id="o" x1="126.88" y1="110.83" x2="126.88" y2="98.07" xlink:href="#b"/><linearGradient id="p" x1="140.03" y1="111.43" x2="140.03" y2="98.07" xlink:href="#b"/><linearGradient id="q" x1="147.01" y1="110.94" x2="147.01" y2="104.08" xlink:href="#b"/><linearGradient id="r" x1="154.27" y1="110.99" x2="154.27" y2="104.37" xlink:href="#b"/><linearGradient id="s" x1="162.78" y1="110.7" x2="162.78" y2="105.13" xlink:href="#b"/><linearGradient id="t" x1="169.73" y1="110.97" x2="169.73" y2="100.05" xlink:href="#b"/><linearGradient id="u" x1="175" y1="110.63" x2="175" y2="101.41" xlink:href="#b"/><linearGradient id="v" x1="180.47" y1="114.94" x2="180.47" y2="97.97" xlink:href="#b"/><linearGradient id="w" x1="187.83" y1="110.7" x2="187.83" y2="105.13" xlink:href="#b"/><linearGradient id="x" x1="196.9" y1="110.7" x2="196.9" y2="97.97" xlink:href="#b"/><linearGradient id="y" x1="204.41" y1="114.94" x2="204.41" y2="104.94" xlink:href="#b"/></defs><g><g><path class="ak" d="M68.46,70.64h0c-.25,.25-.65,.25-.9,0l-27.62-27.62c-3.82-3.82-3.82-10.02,0-13.84l1.84-1.84c.25-.25,.65-.25,.9,0l25.78,25.78c4.84,4.83,4.84,12.68,0,17.52Z"/><path class="ad" d="M68.46,117.66h0c-.25,.25-.65,.25-.9,0l-27.62-27.62c-3.82-3.82-3.82-10.02,0-13.85l1.84-1.84c.25-.25,.65-.25,.9,0l25.78,25.78c4.84,4.84,4.84,12.69,0,17.52Z"/><path class="an" d="M68.46,94.15h0c-.25,.25-.65,.25-.9,0l-27.62-27.62c-3.82-3.82-3.82-10.02,0-13.85l1.84-1.84c.25-.25,.65-.25,.9,0l25.78,25.78c4.84,4.83,4.84,12.68,0,17.52Z"/></g><g><path class="ao" d="M96.32,73.97c-1.61-1.63-2.74-3.07-3.39-4.33-.65-1.26-.98-2.61-.98-4.05,0-2.17,.66-4.2,1.98-6.11,1.32-1.91,3.08-3.42,5.3-4.54,2.21-1.12,4.59-1.68,7.13-1.68,2.88,0,5.09,.6,6.64,1.79,1.55,1.2,2.33,2.89,2.33,5.07,0,1.05-.28,2.13-.84,3.25-.56,1.12-1.34,2.17-2.33,3.14-.67,.67-1.3,1.18-1.88,1.53-.58,.35-1.06,.52-1.46,.52-.49,0-.73-.37-.73-1.12,0,.02,.04-.27,.11-.87,.11-.88,.17-1.66,.17-2.35,0-.97-.14-1.95-.43-2.93-.29-.98-.66-1.8-1.12-2.47-.46-.66-.89-.99-1.3-.99-.21,0-.44,.16-.7,.48-.5,.52-.9,1.17-1.18,1.95-.28,.78-.42,1.5-.42,2.17,0,.84,.12,1.62,.36,2.34,.24,.72,.66,1.45,1.26,2.2,.6,.75,1.39,1.57,2.39,2.46,1.57,1.42,2.78,2.66,3.63,3.72,.85,1.06,1.47,2.13,1.86,3.18,.39,1.06,.59,2.2,.59,3.43,0,2.17-.57,4.26-1.71,6.28-1.14,2.02-2.65,3.65-4.53,4.89-1.88,1.24-3.82,1.86-5.82,1.86s-3.76-.41-5.58-1.23c-1.81-.82-3.51-2-5.1-3.53-1.64-1.63-2.47-3.06-2.47-4.32,0-.77,.36-1.51,1.09-2.24s1.67-1.38,2.76-1.91c1.09-.52,2.01-.78,2.76-.78,.43,0,.79,.11,1.09,.32,.3,.21,.56,.58,.8,1.09,.23,.51,.46,1.21,.69,2.09,.35,1.25,.68,2.18,.98,2.79,.3,.61,.72,1.21,1.26,1.81,.56,.56,1.15,.84,1.77,.84,.75,0,1.34-.29,1.77-.88,.43-.59,.64-1.4,.64-2.43,0-1.61-.57-3.21-1.71-4.82-.34-.54-.7-1.02-1.11-1.44-.4-.42-1.28-1.23-2.62-2.42-.41-.34-1.07-.92-1.96-1.76Z"/><path class="ah" d="M139.18,57.77v-.45c0-.69-.09-1.04-.28-1.04-.24,0-.62,.37-1.13,1.12-.51,.75-.98,1.58-1.39,2.49-1.03,2.34-1.93,4.81-2.72,7.41-.78,2.61-1.39,5.21-1.82,7.8-.15,1.01-.31,2.1-.48,3.28l.14,.11c1.87-1.92,3.26-3.29,4.18-4.09,.92-.8,2.1-1.72,3.56-2.75,1.83-1.27,3.34-1.91,4.54-1.91,.77,0,1.36,.28,1.78,.83,.42,.55,.63,1.31,.63,2.28,0,.56-.11,1.36-.34,2.41-.39,2.2-.59,4.06-.59,5.58,0,.69,.06,1.42,.17,2.19,.09,.6,.4,1.8,.92,3.62,.43,1.38,.64,2.15,.64,2.3,0,.26-.31,.58-.92,.95-1.98,1.31-3.8,1.96-5.46,1.96-1.36,0-2.47-.66-3.32-1.99-.85-1.33-1.28-3.06-1.28-5.19,0-.84,.08-1.86,.25-3.06l-.14-.11c-2.65,2.73-4.43,4.58-5.32,5.53-3.33,3.21-5.89,4.82-7.68,4.82-.82,0-1.5-.55-2.03-1.64-.53-1.09-.8-2.52-.8-4.27,0-3.77,1.17-8.59,3.5-14.46,.93-2.28,1.92-4.46,2.97-6.54,1.05-2.08,2.05-3.88,3-5.39,.69-1.06,1.42-1.99,2.17-2.79,.76-.79,1.52-1.46,2.3-1.99,.78-.53,1.56-.93,2.37-1.19,.8-.26,1.61-.39,2.41-.39,2,0,3.63,.62,4.89,1.85,1.26,1.23,1.89,2.81,1.89,4.74,0,1.35-.38,2.77-1.15,4.29-.77,1.51-1.84,2.95-3.22,4.32-.88,.86-1.87,1.62-2.98,2.28-1.11,.66-1.98,.99-2.59,.99-.19,0-.36-.07-.5-.2-.15-.13-.22-.3-.22-.5,0-.28,.24-.89,.73-1.82,.56-1.03,1.11-2.28,1.65-3.77,.54-1.49,.96-2.9,1.25-4.23,.29-1.34,.43-2.46,.43-3.38Z"/><path class="aj" d="M171.4,63.74c2.78,0,4.18,.33,4.18,.98,0,.75-.63,1.15-1.88,1.21-1.51,.09-2.92,.52-4.23,1.29-1.31,.77-2.47,1.81-3.49,3.14-1.02,1.33-1.81,2.82-2.38,4.48-.57,1.66-.85,3.42-.85,5.27,0,2.04,.48,3.68,1.43,4.92,.95,1.24,2.2,1.86,3.73,1.86,1.42,0,2.66-.73,3.73-2.19,1.06-1.46,1.6-3.16,1.6-5.1,0-1.59-.33-3.08-.99-4.47-.66-1.39-1.63-2.56-2.9-3.52-.54-.43-.81-.74-.81-.92,0-.26,.38-.66,1.15-1.21,.86-.58,1.82-1.06,2.89-1.46,1.06-.39,1.96-.59,2.69-.59,.84,0,1.64,.22,2.4,.66,.76,.44,1.42,1.06,2,1.88,.58,.81,1.02,1.75,1.33,2.8,.31,1.06,.46,2.18,.46,3.38,0,1.98-.37,3.94-1.12,5.87-.75,1.93-1.73,3.5-2.94,4.69-1.57,1.51-3.46,2.75-5.67,3.71-2.21,.96-4.32,1.44-6.32,1.44s-3.87-.34-5.79-1.01c-1.92-.67-3.43-1.56-4.55-2.66-1.49-1.49-2.24-3.62-2.24-6.36,0-2.17,.53-4.33,1.6-6.5,1.06-2.17,2.51-4.13,4.33-5.9,1.82-1.77,3.83-3.16,6.03-4.18,2.2-1.02,4.41-1.53,6.66-1.53Z"/><path class="am" d="M197.88,77.16l1.69-1.97c1.71-1.89,3.06-3.3,4.06-4.23,1-.93,1.89-1.6,2.69-2.01,.79-.41,1.6-.62,2.42-.62,1.33,0,2.26,.36,2.8,1.06,.54,.71,.81,1.94,.81,3.7,0,.73-.07,1.8-.22,3.22-.22,1.89-.34,3.66-.34,5.32,0,1.87,.09,3.38,.28,4.54,.13,.71,.33,1.42,.59,2.13,.19,.67,.28,1.13,.28,1.37,0,.3-.11,.53-.34,.7-.58,.5-1.35,.94-2.3,1.32s-1.76,.56-2.41,.56c-1.06,0-2.03-.36-2.9-1.09s-1.54-1.74-2.02-3.03c-.48-1.29-.71-2.75-.71-4.37,0-1.08,.11-2.36,.34-3.84l-.11-.11c-.8,.9-1.45,1.61-1.95,2.13-.5,.52-.96,1.02-1.39,1.49-2.09,2.39-3.87,4.55-5.32,6.47-.56,.75-1.07,1.4-1.54,1.96-.69,.69-1.48,1.04-2.35,1.04-1.2,0-2.17-.45-2.91-1.35-.75-.9-1.12-2.06-1.12-3.48,0-.88,.1-1.95,.31-3.22,.21-1.27,.48-2.63,.83-4.08,.35-1.45,.76-2.94,1.23-4.47,.48-1.53,.99-2.99,1.56-4.37,.86-2.3,1.91-4.09,3.14-5.38,.84-.84,1.86-1.26,3.05-1.26,1.94,0,2.92,1.26,2.92,3.78,0,1.85-.39,4.5-1.16,7.95l.11,.11Z"/><g><path class="al" d="M181.03,57.75c2.37,1.28-2.18,4.87-4.87,4.87s-4.87-2.18-4.87-4.87,4.87-7.56,4.87-4.87,2.09,3.37,4.87,4.87Z"/><path class="at" d="M166.07,57.75c2.37,1.28-2.18,4.87-4.87,4.87s-4.87-2.18-4.87-4.87,4.87-7.56,4.87-4.87,2.09,3.37,4.87,4.87Z"/></g></g></g><g><path class="aw" d="M94.19,111.67c-.51,0-.86-.11-1.05-.34-.19-.23-.29-.52-.29-.87,0-.33,.07-.72,.2-1.17,.14-.45,.28-.89,.42-1.31,.19-.55,.42-1.21,.7-1.95s.56-1.53,.87-2.34c.31-.81,.63-1.62,.95-2.41,.32-.79,.64-1.51,.94-2.16-.78,.01-1.43,.03-1.96,.05-.53,.02-1,.05-1.42,.09-.42,.04-.88,.1-1.38,.2,.03-.38,.23-.68,.59-.9,.36-.21,.85-.37,1.46-.46,.61-.09,1.31-.14,2.09-.14s1.48,.03,2.1,.09c.62,.06,1.2,.12,1.74,.18,.54,.06,1.09,.09,1.63,.1-.38,.35-.83,.57-1.32,.66-.5,.09-1.02,.14-1.58,.14-.12,0-.25,0-.39,0-.14,0-.27,0-.41,0h-.41c-.36,.91-.78,2.05-1.25,3.43-.47,1.38-.94,2.94-1.42,4.67-.16,.6-.3,1.14-.43,1.61-.13,.48-.23,.91-.31,1.31-.07,.4-.11,.78-.11,1.15v.19c0,.07,0,.13,.02,.19Z"/><path class="ac" d="M100.98,110.83c-.22,0-.38-.18-.51-.54-.12-.36-.19-.77-.19-1.22,0-.54,.09-1.19,.27-1.94,.18-.75,.42-1.53,.71-2.36,.29-.83,.63-1.64,.99-2.43,.37-.79,.74-1.51,1.13-2.16,.38-.65,.75-1.16,1.09-1.54,.34-.38,.63-.58,.88-.58,.2,0,.35,.12,.43,.37,.08,.24,.13,.48,.13,.7,0,.32-.07,.7-.21,1.15-.14,.45-.34,.94-.59,1.45-.25,.52-.54,1.02-.87,1.52-.33,.5-.68,.95-1.07,1.37-.38,.41-.78,.74-1.17,.98-.14,.33-.25,.7-.35,1.1-.1,.41-.17,.81-.21,1.2-.05,.39-.07,.74-.07,1.04,0,.12,0,.23,0,.32,0,.09,.01,.18,.03,.25,.16-.46,.33-.91,.52-1.35,.19-.44,.39-.84,.6-1.21,.21-.37,.44-.69,.69-.97,.24-.28,.5-.49,.77-.65,.27-.15,.56-.23,.87-.23s.57,.08,.76,.23c.19,.15,.32,.35,.41,.58,.08,.23,.13,.47,.13,.72,0,.35-.06,.69-.18,1.02-.12,.33-.24,.65-.37,.95-.12,.31-.19,.6-.19,.88,0,.23,.05,.39,.14,.49,.1,.1,.22,.15,.37,.15,.26,0,.55-.12,.87-.37,.32-.25,.64-.58,.96-.99,.32-.41,.59-.86,.81-1.35l.22,.2c-.24,.55-.53,1.06-.87,1.5-.34,.45-.71,.8-1.12,1.06-.41,.26-.83,.39-1.27,.39-.38,0-.68-.1-.87-.31-.2-.2-.3-.46-.3-.76,0-.24,.05-.5,.14-.8,.09-.29,.18-.59,.26-.9,.08-.31,.13-.59,.13-.87,0-.29-.06-.5-.19-.63-.12-.12-.28-.19-.46-.19-.28,0-.54,.11-.76,.34-.23,.23-.43,.52-.62,.87-.19,.36-.36,.73-.53,1.13-.16,.4-.32,.77-.47,1.13-.15,.36-.29,.65-.44,.87-.15,.23-.3,.34-.46,.34Zm1.26-5.89c.32-.25,.63-.57,.93-.95,.3-.38,.58-.8,.84-1.23,.26-.44,.49-.86,.7-1.28,.2-.42,.36-.8,.48-1.14,.11-.34,.17-.59,.17-.76,0-.06,0-.09-.02-.11-.01-.02-.03-.03-.05-.03-.08,0-.24,.16-.48,.47-.24,.31-.52,.73-.84,1.25-.32,.52-.63,1.11-.93,1.77-.31,.66-.57,1.33-.78,2.02Z"/><path class="ag" d="M110.33,110.63c-.44,0-.77-.14-.98-.42-.22-.28-.32-.61-.32-1.01,0-.26,.05-.59,.14-.98,.1-.4,.22-.81,.38-1.25,.16-.44,.34-.85,.55-1.23,.21-.38,.43-.7,.67-.94,.24-.24,.47-.37,.7-.37,.1,0,.19,.03,.26,.09,.07,.06,.11,.16,.11,.28,0,.14-.09,.36-.26,.66-.18,.31-.38,.66-.62,1.05-.24,.4-.44,.81-.62,1.25-.18,.44-.26,.85-.26,1.25s.07,.68,.2,.81c.14,.14,.35,.2,.63,.2,.38,0,.8-.19,1.23-.58,.44-.38,.9-1.06,1.38-2.02l.15,.17c-.33,.97-.8,1.72-1.42,2.24-.62,.52-1.26,.78-1.93,.78Zm2.04-7.78c-.18,0-.34-.05-.48-.14-.14-.09-.21-.23-.21-.42,0-.24,.14-.44,.42-.62,.28-.18,.55-.26,.82-.26,.17,0,.31,.04,.41,.12,.1,.08,.15,.22,.15,.41,0,.22-.12,.42-.35,.62-.23,.2-.48,.3-.76,.3Z"/><path class="ar" d="M119.53,110.53c-.4,0-.69-.1-.89-.31-.2-.2-.3-.46-.3-.78,0-.24,.04-.49,.13-.75,.08-.26,.17-.53,.25-.81,.08-.28,.12-.55,.12-.81,0-.32-.07-.53-.2-.65-.13-.12-.29-.18-.48-.18-.35,0-.71,.14-1.07,.43-.36,.29-.71,.66-1.05,1.1-.34,.45-.66,.91-.95,1.38-.29,.48-.55,.9-.78,1.27-.18,0-.35-.03-.52-.09-.16-.06-.29-.16-.38-.28,0-.06,.06-.23,.18-.53,.12-.29,.26-.66,.42-1.09,.16-.43,.3-.87,.42-1.32,.12-.45,.19-.87,.19-1.24,.07-.08,.18-.16,.32-.24,.15-.08,.3-.12,.46-.12,.31,0,.46,.15,.46,.44,0,.18-.05,.48-.15,.91-.1,.42-.23,.87-.39,1.33,.31-.46,.65-.93,1.03-1.38,.38-.46,.78-.84,1.21-1.15,.43-.31,.86-.46,1.29-.46s.76,.16,.96,.48c.2,.32,.3,.67,.3,1.05,0,.35-.06,.68-.17,.98-.11,.3-.23,.59-.35,.87-.12,.28-.18,.56-.18,.84,0,.24,.05,.4,.14,.5,.1,.1,.22,.14,.37,.14,.28,0,.57-.13,.85-.4,.28-.27,.56-.6,.82-1.01,.27-.41,.5-.82,.7-1.24l.19,.22c-.24,.55-.5,1.05-.8,1.48-.29,.43-.62,.77-.97,1.02-.35,.25-.74,.37-1.17,.37Z"/><path class="au" d="M127.85,110.83c-.32,0-.59-.11-.81-.32-.23-.22-.4-.49-.53-.81-.13-.33-.23-.66-.29-1.01-.06-.35-.09-.65-.09-.91,.12,0,.31-.03,.54-.09,.24-.06,.48-.16,.73-.29,.25-.13,.46-.3,.64-.51,.18-.21,.26-.46,.26-.74,0-.24-.08-.42-.25-.56-.17-.14-.37-.2-.59-.2-.35,0-.68,.12-.98,.37-.31,.24-.58,.56-.82,.95-.24,.39-.46,.81-.65,1.25-.19,.44-.36,.86-.49,1.26-.14,.4-.25,.72-.34,.98-.07,.2-.16,.34-.29,.42-.12,.07-.25,.11-.39,.11-.19,0-.33-.08-.42-.24-.08-.16-.14-.36-.15-.6-.02-.24-.03-.49-.03-.76,0-.59,.1-1.27,.29-2.04,.19-.77,.45-1.57,.77-2.4,.32-.83,.68-1.64,1.06-2.42,.38-.78,.77-1.49,1.15-2.12,.38-.63,.74-1.14,1.07-1.51,.33-.37,.59-.56,.8-.56,.16,0,.29,.11,.38,.32,.1,.22,.14,.48,.14,.78,0,.38-.08,.82-.25,1.3-.17,.48-.41,.97-.72,1.45-.31,.49-.68,.95-1.1,1.38-.42,.43-.89,.8-1.38,1.1-.37,.92-.65,1.81-.84,2.67-.19,.87-.28,1.59-.28,2.18,.18-.45,.4-.95,.65-1.49,.25-.54,.55-1.06,.87-1.56,.33-.5,.68-.91,1.07-1.22,.38-.32,.79-.48,1.21-.48s.78,.15,1.07,.44c.29,.29,.44,.65,.44,1.07,0,.36-.09,.67-.28,.93-.19,.25-.41,.46-.68,.61-.27,.15-.53,.27-.8,.34-.27,.07-.48,.11-.65,.11,.01,.09,.05,.25,.1,.49,.06,.24,.14,.49,.25,.75,.11,.26,.24,.48,.4,.67,.16,.19,.35,.28,.58,.28,.33,0,.64-.12,.93-.37,.29-.25,.57-.58,.84-.99,.27-.41,.51-.88,.74-1.4l.17,.17c-.16,.55-.4,1.08-.73,1.57-.33,.49-.69,.89-1.1,1.21-.4,.31-.8,.47-1.2,.47Zm-2.48-7.11c.52-.42,.98-.89,1.37-1.43,.39-.53,.69-1.04,.91-1.54,.21-.49,.32-.88,.32-1.16,0-.06,0-.1,0-.12,0-.02-.02-.03-.04-.03-.11,0-.31,.2-.59,.59-.28,.4-.59,.92-.94,1.57-.35,.65-.69,1.36-1.02,2.11Z"/><path class="ai" d="M138.07,111.43c-.59,0-1.03-.19-1.32-.58-.29-.38-.43-.91-.43-1.56,0-.57,.1-1.23,.29-2,.19-.77,.45-1.58,.76-2.42,.32-.84,.67-1.67,1.06-2.47,.39-.8,.78-1.53,1.18-2.18,.4-.65,.77-1.17,1.12-1.56,.35-.39,.64-.59,.87-.59,.19,0,.33,.12,.42,.36,.08,.24,.13,.48,.13,.71,0,.32-.07,.7-.2,1.15-.14,.45-.33,.94-.58,1.45-.25,.52-.54,1.02-.87,1.52-.33,.5-.68,.95-1.06,1.37-.38,.41-.77,.74-1.16,.98-.07,.12-.17,.38-.3,.77-.13,.39-.25,.84-.36,1.34-.11,.5-.16,.99-.16,1.47s.07,.85,.21,1.15c.14,.3,.38,.45,.72,.45s.67-.13,1.02-.4c.35-.27,.63-.61,.85-1.03-.42-.21-.73-.53-.93-.94-.2-.41-.31-.83-.31-1.25,0-.54,.14-.98,.42-1.31,.28-.33,.62-.49,1-.49,.33,0,.59,.13,.78,.4,.19,.27,.29,.65,.29,1.16,0,.37-.05,.76-.15,1.15-.1,.4-.25,.78-.44,1.15,.07,.01,.14,.02,.21,.03,.07,.01,.15,.02,.23,.02,.41,0,.75-.1,1.02-.3,.27-.2,.5-.44,.69-.73,.19-.29,.34-.56,.47-.82l.2,.22c-.32,.78-.69,1.3-1.13,1.55-.44,.25-.87,.38-1.3,.38-.09,0-.18,0-.27-.02-.09-.01-.18-.02-.27-.03-.31,.52-.68,.96-1.13,1.33-.45,.37-.97,.55-1.57,.55Zm.39-6.49c.32-.25,.63-.57,.93-.95,.3-.38,.58-.8,.84-1.23,.26-.44,.49-.86,.7-1.28,.2-.42,.36-.8,.48-1.14,.11-.34,.17-.59,.17-.76,0-.06,0-.09-.02-.11-.01-.02-.03-.03-.05-.03-.09,0-.26,.16-.52,.48-.25,.32-.54,.75-.85,1.29-.31,.54-.62,1.13-.93,1.78-.31,.65-.55,1.3-.75,1.94Zm1.97,4.07c.12-.26,.22-.53,.29-.82,.07-.29,.1-.59,.1-.89,0-.4-.05-.71-.16-.93-.11-.23-.24-.34-.4-.34-.17,0-.32,.12-.45,.35-.13,.23-.2,.52-.2,.87,0,.31,.06,.63,.19,.97,.12,.34,.33,.61,.63,.8Z"/><path class="av" d="M145.87,110.94c-.69,0-1.21-.19-1.55-.57-.35-.38-.52-.85-.52-1.4,0-.51,.13-1.05,.38-1.61,.25-.57,.59-1.1,1.02-1.6,.42-.5,.89-.9,1.4-1.21,.51-.31,1.01-.47,1.51-.47,.26,0,.5,.07,.72,.2,.22,.14,.33,.41,.33,.83s-.13,.83-.38,1.21c-.25,.38-.59,.72-1,1.01-.41,.29-.87,.53-1.36,.72-.49,.19-.98,.3-1.47,.35-.02,.11-.04,.22-.05,.32-.01,.1-.02,.2-.02,.29,0,.17,.02,.34,.06,.51,.04,.17,.11,.33,.21,.47,.1,.14,.24,.25,.42,.33,.18,.08,.39,.12,.65,.12,.49,0,.97-.14,1.44-.42,.48-.28,.92-.64,1.32-1.1,.41-.45,.75-.95,1.04-1.49l.2,.15c-.31,.68-.69,1.27-1.16,1.77-.47,.5-.98,.89-1.53,1.16-.55,.28-1.11,.42-1.67,.42Zm-.83-2.85c.31-.1,.65-.25,1.04-.45,.38-.2,.76-.43,1.11-.7,.36-.27,.65-.57,.88-.9,.23-.33,.35-.67,.35-1.04,0-.12-.02-.22-.07-.29-.05-.07-.14-.1-.29-.1-.27,0-.56,.1-.87,.31-.31,.21-.6,.48-.88,.82-.28,.34-.54,.71-.76,1.12-.23,.41-.4,.81-.51,1.22Z"/><path class="aa" d="M151.35,110.99c-.35,0-.65-.12-.89-.35-.24-.23-.37-.59-.37-1.06,0-.41,.09-.85,.27-1.32,.18-.47,.43-.93,.75-1.39,.32-.46,.68-.88,1.08-1.26,.4-.38,.83-.68,1.27-.91,.45-.23,.89-.34,1.33-.34s.81,.12,1.1,.35c.29,.23,.44,.54,.44,.93,0,.28-.08,.48-.23,.58-.15,.1-.35,.15-.6,.15,.02-.09,.04-.19,.06-.3,.02-.11,.03-.21,.03-.3,0-.26-.06-.48-.19-.67-.12-.19-.34-.28-.65-.28s-.64,.11-.97,.33c-.33,.22-.65,.52-.95,.88-.31,.37-.58,.77-.81,1.2-.24,.43-.42,.85-.56,1.27-.14,.42-.2,.79-.2,1.12,0,.44,.15,.66,.46,.66,.26,0,.54-.12,.85-.37,.31-.24,.62-.55,.94-.93,.32-.38,.63-.77,.93-1.18,.29-.41,.55-.78,.78-1.12,.05-.07,.07-.1,.08-.1,.07,.01,.16,.03,.26,.07,.11,.03,.2,.08,.28,.14,.08,.06,.12,.13,.12,.22,0,.1-.05,.24-.15,.42-.1,.18-.22,.38-.34,.6-.12,.23-.24,.46-.34,.69-.1,.23-.15,.45-.15,.65,0,.17,.05,.34,.14,.5,.09,.16,.24,.25,.44,.25,.31,0,.71-.22,1.21-.67,.5-.45,1-1.12,1.51-2.01l.17,.17c-.24,.61-.54,1.15-.92,1.61-.37,.46-.77,.83-1.2,1.09-.42,.26-.84,.39-1.25,.39s-.73-.12-.93-.37c-.2-.25-.3-.52-.3-.81,0-.07,0-.14,.02-.23,.01-.08,.02-.17,.03-.26-.49,.66-.93,1.15-1.33,1.48-.4,.33-.81,.49-1.23,.49Z"/><path class="aq" d="M160.06,110.7c-.38,0-.69-.17-.93-.52-.23-.35-.35-.74-.35-1.2,0-.33,.05-.71,.16-1.14,.11-.43,.24-.85,.4-1.27,.16-.42,.32-.76,.49-1.04,.17-.27,.32-.41,.44-.41,.06,0,.15,.03,.29,.09,.14,.06,.25,.14,.34,.25-.12,.19-.28,.49-.46,.88-.18,.4-.34,.82-.48,1.27-.14,.45-.2,.87-.2,1.26,0,.09,.01,.23,.03,.42,.02,.19,.08,.35,.17,.5,.09,.15,.23,.22,.41,.22,.21,0,.44-.11,.66-.33,.23-.22,.46-.51,.69-.86,.23-.35,.46-.73,.67-1.14,.21-.41,.42-.8,.6-1.17,.19-.37,.34-.68,.47-.93,.07,.01,.17,.03,.3,.07,.13,.03,.25,.08,.36,.14,.11,.06,.16,.14,.16,.24,0,.05-.06,.2-.17,.45-.11,.25-.25,.57-.4,.93-.15,.37-.29,.74-.4,1.11-.11,.37-.17,.7-.17,.98,0,.2,.04,.37,.13,.49,.08,.12,.23,.19,.43,.19,.24,0,.53-.11,.87-.32,.34-.21,.68-.53,1.04-.94,.35-.41,.66-.91,.93-1.49l.22,.15c-.24,.61-.55,1.15-.93,1.62-.38,.47-.79,.83-1.22,1.1-.43,.26-.85,.39-1.26,.39-.29,0-.53-.06-.7-.17-.18-.11-.3-.27-.37-.46-.07-.19-.11-.4-.11-.63,0-.14,.01-.27,.03-.42,.02-.14,.05-.29,.08-.43-.2,.37-.42,.72-.66,1.04-.24,.32-.49,.58-.75,.77-.26,.19-.53,.29-.81,.29Z"/><path class="a`" d="M168.51,110.97c-.49,0-.86-.14-1.12-.42-.26-.28-.39-.7-.39-1.26,0-.5,.09-1.11,.28-1.84,.19-.73,.42-1.48,.7-2.25-.11-.02-.22-.04-.32-.06-.1-.02-.2-.04-.29-.08v-.31c.09,.01,.2,.02,.32,.03,.12,.01,.27,.02,.42,.03,.24-.61,.49-1.2,.76-1.77,.27-.57,.54-1.08,.81-1.53,.27-.45,.52-.8,.76-1.07,.24-.27,.45-.4,.62-.4,.09,0,.17,.03,.25,.09,.07,.06,.11,.16,.11,.28,0,.19-.12,.51-.36,.94-.24,.44-.53,.95-.88,1.55-.35,.6-.69,1.25-1.02,1.95h.63c.37,0,.77,0,1.18-.02,.41-.01,.83-.04,1.25-.08v.31c-.62,.07-1.18,.12-1.67,.15-.49,.03-.93,.05-1.32,.05h-.25c-.26,.6-.48,1.22-.66,1.85-.18,.63-.27,1.25-.27,1.85,0,.49,.07,.83,.22,1.04,.15,.21,.39,.31,.73,.31,.59,0,1.17-.26,1.73-.78,.57-.52,1.06-1.23,1.49-2.12l.22,.17c-.27,.63-.61,1.21-1.03,1.71-.41,.51-.87,.91-1.37,1.21-.5,.29-1.01,.44-1.54,.44Z"/><path class="ae" d="M173.98,110.63c-.44,0-.77-.14-.98-.42-.22-.28-.32-.61-.32-1.01,0-.26,.05-.59,.14-.98,.1-.4,.22-.81,.38-1.25,.16-.44,.34-.85,.55-1.23,.21-.38,.43-.7,.67-.94,.24-.24,.47-.37,.7-.37,.1,0,.19,.03,.26,.09,.07,.06,.11,.16,.11,.28,0,.14-.09,.36-.26,.66-.18,.31-.38,.66-.62,1.05-.24,.4-.44,.81-.62,1.25-.18,.44-.26,.85-.26,1.25s.07,.68,.2,.81c.14,.14,.35,.2,.63,.2,.38,0,.8-.19,1.23-.58,.44-.38,.9-1.06,1.38-2.02l.15,.17c-.33,.97-.8,1.72-1.42,2.24-.62,.52-1.26,.78-1.93,.78Zm2.04-7.78c-.18,0-.34-.05-.48-.14-.14-.09-.21-.23-.21-.42,0-.24,.14-.44,.42-.62,.28-.18,.55-.26,.82-.26,.17,0,.31,.04,.41,.12,.1,.08,.15,.22,.15,.41,0,.22-.12,.42-.35,.62-.23,.2-.48,.3-.76,.3Z"/><path class="af" d="M177.48,114.94c-.11,0-.24-.04-.39-.11-.15-.07-.27-.22-.38-.43-.11-.22-.16-.53-.16-.95,0-.5,.08-1.15,.25-1.94,.17-.8,.4-1.68,.7-2.64,.29-.96,.63-1.95,1.02-2.96,.38-1.01,.8-1.99,1.25-2.94,.45-.94,.91-1.79,1.38-2.55,.47-.75,.93-1.35,1.38-1.79,.45-.44,.88-.66,1.29-.66,.24,0,.39,.07,.47,.22,.07,.15,.11,.32,.11,.53,0,.49-.13,1.02-.4,1.6-.27,.58-.62,1.16-1.06,1.74-.44,.58-.93,1.14-1.46,1.66-.53,.53-1.07,.98-1.61,1.35-.06,.14-.11,.27-.16,.42-.05,.14-.1,.29-.16,.43,.12,.02,.22,.09,.3,.2,.07,.11,.12,.22,.13,.35,.08,.51,.16,.97,.25,1.37,.09,.4,.23,.72,.42,.94,.19,.23,.46,.34,.81,.34,.4,0,.73-.14,1-.43,.27-.29,.57-.7,.88-1.23l.25,.17c-.28,.68-.64,1.17-1.08,1.48-.44,.31-.82,.46-1.15,.46-.2,0-.42-.05-.64-.15-.22-.1-.43-.24-.62-.41,0,.71-.08,1.42-.23,2.12-.15,.7-.35,1.34-.6,1.92-.25,.58-.53,1.04-.83,1.39-.31,.35-.62,.53-.95,.53Zm.44-.81c.12,0,.27-.11,.42-.34,.16-.23,.31-.52,.47-.89,.15-.37,.29-.77,.42-1.21,.12-.44,.23-.88,.31-1.32,.08-.44,.12-.84,.12-1.19s-.05-.67-.14-.96c-.09-.29-.24-.63-.44-1.03-.28,.85-.54,1.67-.76,2.46-.23,.79-.4,1.51-.53,2.14-.12,.63-.19,1.14-.19,1.53,0,.54,.11,.81,.32,.81Zm2.21-9.76c.74-.68,1.37-1.36,1.91-2.05,.54-.68,.95-1.3,1.25-1.83,.29-.54,.44-.92,.44-1.15,0-.16-.08-.24-.24-.24-.29,0-.63,.24-1,.72-.37,.48-.76,1.12-1.17,1.91-.41,.79-.8,1.67-1.19,2.63Z"/><path class="as" d="M185.12,110.7c-.38,0-.69-.17-.93-.52-.23-.35-.35-.74-.35-1.2,0-.33,.05-.71,.16-1.14,.11-.43,.24-.85,.4-1.27,.16-.42,.32-.76,.49-1.04,.17-.27,.32-.41,.44-.41,.06,0,.15,.03,.29,.09,.14,.06,.25,.14,.34,.25-.12,.19-.28,.49-.46,.88-.18,.4-.34,.82-.48,1.27-.14,.45-.2,.87-.2,1.26,0,.09,.01,.23,.03,.42,.02,.19,.08,.35,.17,.5,.09,.15,.23,.22,.41,.22,.21,0,.44-.11,.66-.33,.23-.22,.46-.51,.69-.86,.23-.35,.46-.73,.67-1.14,.21-.41,.42-.8,.6-1.17,.19-.37,.34-.68,.47-.93,.07,.01,.17,.03,.3,.07,.13,.03,.25,.08,.36,.14,.11,.06,.16,.14,.16,.24,0,.05-.06,.2-.17,.45-.11,.25-.25,.57-.4,.93-.15,.37-.29,.74-.4,1.11-.11,.37-.17,.7-.17,.98,0,.2,.04,.37,.13,.49,.08,.12,.23,.19,.43,.19,.24,0,.53-.11,.87-.32,.34-.21,.68-.53,1.04-.94,.35-.41,.66-.91,.93-1.49l.22,.15c-.24,.61-.55,1.15-.93,1.62-.38,.47-.79,.83-1.22,1.1-.43,.26-.85,.39-1.26,.39-.29,0-.53-.06-.7-.17-.18-.11-.3-.27-.37-.46-.07-.19-.11-.4-.11-.63,0-.14,.01-.27,.03-.42,.02-.14,.05-.29,.08-.43-.2,.37-.42,.72-.66,1.04-.24,.32-.49,.58-.75,.77-.26,.19-.53,.29-.81,.29Z"/><path class="ap" d="M193.54,110.7c-.49,0-.83-.17-1.04-.5-.21-.33-.31-.75-.31-1.25,0-.54,.1-1.19,.31-1.94,.2-.75,.47-1.53,.81-2.36,.33-.83,.7-1.63,1.1-2.42,.4-.79,.79-1.5,1.19-2.15,.4-.65,.76-1.16,1.1-1.54,.33-.38,.6-.58,.79-.58,.12,0,.23,.07,.31,.21,.08,.14,.14,.31,.19,.51,.05,.2,.07,.38,.07,.53,0,.31-.08,.7-.23,1.2-.15,.49-.37,1.04-.65,1.65-.28,.61-.61,1.22-.98,1.83-.38,.62-.79,1.21-1.24,1.77-.45,.57-.92,1.05-1.42,1.46-.07,.31-.12,.6-.16,.89-.04,.29-.06,.56-.06,.82,0,.87,.25,1.31,.75,1.31,.27,0,.55-.12,.82-.35,.28-.23,.54-.53,.8-.89,.25-.36,.48-.75,.67-1.15,.11-.59,.28-1.22,.51-1.89,.23-.67,.49-1.35,.78-2.03,.29-.68,.61-1.33,.93-1.95,.33-.62,.65-1.18,.97-1.66,.32-.49,.61-.87,.88-1.15,.27-.28,.49-.42,.66-.42,.12,0,.23,.07,.31,.21,.08,.14,.14,.31,.19,.51,.05,.2,.07,.38,.07,.53,0,.37-.1,.86-.29,1.47-.19,.61-.47,1.25-.82,1.94-.36,.69-.79,1.37-1.29,2.05-.5,.67-1.07,1.26-1.69,1.77-.07,.31-.12,.6-.16,.89-.04,.29-.06,.56-.06,.82,0,.87,.25,1.31,.75,1.31,.31,0,.61-.14,.91-.41,.3-.27,.58-.61,.85-1.03,.27-.41,.49-.84,.69-1.28l.25,.14c-.45,.96-.95,1.72-1.48,2.28-.53,.56-1.1,.84-1.71,.84-.54,0-.92-.2-1.12-.61-.2-.41-.28-.92-.22-1.53-.4,.67-.82,1.19-1.26,1.57-.45,.38-.92,.57-1.42,.57Zm.12-4.14c.4-.4,.78-.85,1.15-1.37,.37-.51,.72-1.05,1.04-1.6,.32-.55,.61-1.09,.86-1.61,.25-.52,.44-.99,.58-1.4,.14-.41,.2-.73,.2-.96,0-.11-.01-.19-.04-.22-.03-.03-.05-.05-.08-.05-.09,0-.25,.14-.47,.43-.22,.29-.48,.68-.77,1.16-.29,.49-.59,1.04-.9,1.66-.31,.62-.6,1.27-.87,1.95-.28,.68-.51,1.35-.7,2Zm4.02,0c.5-.5,.95-1.05,1.37-1.65,.41-.6,.77-1.2,1.08-1.8,.31-.6,.54-1.15,.71-1.65,.17-.5,.25-.89,.25-1.17,0-.11-.01-.19-.04-.22-.03-.03-.05-.05-.08-.05-.11,0-.3,.18-.57,.55-.27,.37-.57,.86-.9,1.49-.33,.62-.66,1.32-.98,2.11-.32,.78-.6,1.58-.84,2.39Z"/><path class="ab" d="M201.74,114.94c-.28,0-.53-.08-.75-.23s-.32-.38-.32-.67c0-.36,.09-.68,.27-.97,.18-.28,.42-.54,.73-.78,.31-.24,.66-.46,1.05-.68,.4-.22,.81-.43,1.24-.65,.16-.42,.32-.89,.48-1.4,.16-.51,.32-1.08,.47-1.71-.36,.59-.75,1.1-1.16,1.52-.41,.42-.85,.64-1.32,.64-.22,0-.43-.05-.64-.14-.21-.1-.38-.25-.52-.45-.14-.2-.2-.46-.2-.78s.05-.68,.16-1.1c.11-.42,.24-.83,.4-1.22,.16-.4,.32-.72,.49-.98,.17-.26,.32-.39,.44-.39,.05,0,.13,.02,.25,.05s.23,.08,.34,.14c.11,.06,.16,.13,.16,.2-.1,.15-.22,.36-.34,.63-.12,.27-.25,.57-.37,.91-.12,.33-.22,.66-.3,.98-.08,.32-.12,.59-.12,.81,0,.2,.05,.37,.14,.49,.09,.12,.25,.19,.48,.19,.21,0,.46-.1,.72-.31,.27-.21,.53-.48,.8-.81,.27-.33,.51-.68,.74-1.05,.03-.12,.06-.25,.09-.38,.03-.13,.05-.26,.08-.4,.03-.16,.12-.34,.25-.55,.13-.21,.34-.31,.62-.31,.06,0,.11,0,.17,0,.06,0,.12,.02,.19,.04,0,.18-.05,.52-.16,1.01-.11,.49-.26,1.07-.46,1.72-.2,.66-.43,1.33-.7,2.02,.53-.2,1.05-.54,1.56-1.01,.51-.47,.92-1.1,1.24-1.88l.22,.17c-.17,.54-.43,1.02-.77,1.42-.35,.4-.73,.75-1.16,1.04-.43,.29-.85,.53-1.27,.72-.29,.72-.61,1.4-.96,2.04-.35,.63-.71,1.15-1.09,1.54-.38,.39-.77,.59-1.16,.59Zm-.08-.54c.17,0,.46-.22,.86-.67,.4-.45,.83-1.23,1.28-2.35-.46,.25-.89,.49-1.29,.74-.4,.24-.71,.51-.95,.79-.24,.28-.36,.61-.36,.98,0,.09,.03,.2,.1,.32,.07,.12,.19,.19,.36,.19Z"/></g></svg>