<?xml version="1.0" encoding="UTF-8"?><svg id="a" xmlns="http://www.w3.org/2000/svg" viewBox="0 0 250 145"><defs><style>.b{fill:#b87333;}</style></defs><g><g><path class="b" d="M62.63,70.45h0c-.28,.27-.72,.27-.99,0l-30.47-30.47c-4.22-4.22-4.22-11.06,0-15.27l2.03-2.03c.28-.28,.72-.28,1,0l28.44,28.44c5.34,5.33,5.34,13.99,0,19.33Z"/><path class="b" d="M62.63,122.31h0c-.28,.28-.72,.28-1,0l-30.46-30.46c-4.22-4.22-4.22-11.06,0-15.27l2.03-2.03c.28-.28,.72-.28,1,0l28.44,28.44c5.34,5.34,5.34,13.99,0,19.33Z"/><path class="b" d="M62.63,96.38h0c-.28,.28-.72,.28-1,0l-30.46-30.46c-4.22-4.22-4.22-11.06,0-15.27l2.03-2.03c.28-.28,.72-.28,1,0l28.44,28.44c5.34,5.33,5.34,13.99,0,19.32Z"/></g><g><path class="b" d="M93.36,74.12c-1.77-1.79-3.02-3.39-3.74-4.78-.72-1.39-1.08-2.88-1.08-4.47,0-2.39,.73-4.64,2.18-6.74,1.45-2.1,3.4-3.77,5.84-5.01,2.44-1.24,5.06-1.85,7.87-1.85,3.17,0,5.62,.66,7.33,1.98,1.71,1.32,2.57,3.18,2.57,5.6,0,1.15-.31,2.35-.93,3.59-.62,1.24-1.47,2.39-2.57,3.46-.74,.74-1.43,1.3-2.07,1.68-.64,.38-1.17,.57-1.61,.57-.54,0-.8-.41-.8-1.24,0,.02,.04-.3,.12-.96,.12-.97,.19-1.83,.19-2.6,0-1.07-.16-2.15-.48-3.23-.32-1.08-.73-1.99-1.24-2.72-.51-.73-.98-1.1-1.44-1.1-.23,0-.48,.18-.77,.53-.56,.58-.99,1.3-1.3,2.15-.31,.86-.46,1.66-.46,2.4,0,.93,.13,1.79,.4,2.58,.26,.79,.73,1.6,1.39,2.43,.66,.82,1.54,1.73,2.63,2.72,1.73,1.56,3.07,2.93,4.01,4.11,.94,1.17,1.62,2.34,2.06,3.51,.43,1.16,.65,2.43,.65,3.79,0,2.39-.63,4.7-1.89,6.92-1.26,2.23-2.92,4.02-4.99,5.39-2.07,1.37-4.21,2.06-6.41,2.06s-4.15-.45-6.15-1.36c-2-.91-3.87-2.21-5.63-3.9-1.81-1.79-2.72-3.38-2.72-4.76,0-.84,.4-1.67,1.21-2.47s1.84-1.52,3.04-2.1c1.21-.58,2.22-.87,3.04-.87,.47,0,.88,.12,1.21,.36,.33,.24,.62,.64,.88,1.21,.26,.57,.51,1.33,.76,2.3,.39,1.38,.75,2.41,1.08,3.08,.33,.67,.79,1.33,1.39,1.99,.62,.62,1.27,.93,1.95,.93,.82,0,1.47-.32,1.95-.97,.47-.65,.71-1.54,.71-2.68,0-1.77-.63-3.55-1.88-5.32-.37-.6-.78-1.13-1.22-1.59-.44-.46-1.41-1.35-2.89-2.67-.45-.37-1.18-1.02-2.17-1.94Z"/><path class="b" d="M140.64,56.25v-.49c0-.76-.1-1.14-.31-1.14-.27,0-.69,.41-1.25,1.24-.57,.82-1.08,1.74-1.53,2.75-1.13,2.58-2.13,5.3-3,8.18-.87,2.87-1.54,5.75-2.01,8.61-.17,1.11-.34,2.32-.53,3.62l.15,.12c2.06-2.12,3.6-3.63,4.61-4.51,1.01-.89,2.32-1.9,3.93-3.03,2.02-1.4,3.69-2.1,5.01-2.1,.84,0,1.5,.3,1.96,.91,.46,.61,.7,1.45,.7,2.52,0,.62-.12,1.5-.37,2.66-.43,2.43-.65,4.48-.65,6.15,0,.76,.06,1.57,.19,2.41,.1,.66,.44,1.99,1.02,3.99,.47,1.53,.71,2.37,.71,2.53,0,.29-.34,.64-1.02,1.05-2.18,1.44-4.19,2.16-6.03,2.16-1.5,0-2.73-.73-3.66-2.2-.94-1.46-1.41-3.37-1.41-5.73,0-.93,.09-2.05,.28-3.37l-.15-.12c-2.93,3.02-4.88,5.05-5.87,6.1-3.67,3.54-6.49,5.32-8.47,5.32-.91,0-1.65-.6-2.24-1.81-.59-1.21-.88-2.78-.88-4.71,0-4.16,1.29-9.48,3.86-15.95,1.03-2.51,2.12-4.92,3.28-7.22,1.15-2.3,2.26-4.28,3.31-5.95,.76-1.17,1.56-2.2,2.4-3.08,.83-.88,1.68-1.61,2.53-2.19,.85-.59,1.73-1.02,2.61-1.31,.89-.29,1.77-.43,2.66-.43,2.21,0,4,.68,5.39,2.04,1.39,1.36,2.09,3.1,2.09,5.22,0,1.48-.42,3.06-1.27,4.73-.85,1.67-2.03,3.26-3.56,4.76-.97,.95-2.07,1.79-3.29,2.52-1.23,.73-2.18,1.1-2.86,1.1-.21,0-.39-.07-.56-.22-.17-.14-.25-.33-.25-.56,0-.31,.27-.98,.8-2.01,.62-1.13,1.23-2.52,1.82-4.16,.6-1.64,1.06-3.19,1.38-4.67,.32-1.47,.48-2.72,.48-3.73Z"/><path class="b" d="M176.18,62.84c3.07,0,4.61,.36,4.61,1.08,0,.82-.69,1.27-2.07,1.33-1.67,.1-3.23,.58-4.67,1.42-1.44,.85-2.73,2-3.85,3.46-1.12,1.46-2,3.11-2.63,4.95-.63,1.83-.94,3.77-.94,5.81,0,2.25,.53,4.05,1.58,5.43,1.05,1.37,2.42,2.06,4.11,2.06,1.57,0,2.94-.8,4.11-2.41,1.17-1.61,1.76-3.48,1.76-5.63,0-1.75-.37-3.4-1.1-4.93-.73-1.54-1.8-2.83-3.2-3.88-.6-.47-.9-.81-.9-1.02,0-.29,.42-.73,1.27-1.33,.95-.64,2.01-1.17,3.18-1.61,1.17-.43,2.16-.65,2.97-.65,.93,0,1.81,.24,2.64,.73,.83,.48,1.57,1.17,2.21,2.07,.64,.9,1.13,1.93,1.47,3.09,.34,1.16,.51,2.41,.51,3.73,0,2.18-.41,4.34-1.24,6.48-.82,2.13-1.91,3.86-3.25,5.18-1.73,1.67-3.82,3.03-6.26,4.1-2.44,1.06-4.77,1.59-6.97,1.59s-4.27-.37-6.38-1.11c-2.11-.74-3.79-1.72-5.02-2.94-1.65-1.65-2.47-3.99-2.47-7.02,0-2.39,.59-4.78,1.76-7.17,1.17-2.39,2.77-4.56,4.78-6.51,2.01-1.95,4.22-3.48,6.65-4.61,2.42-1.12,4.87-1.68,7.34-1.68Z"/><path class="b" d="M205.39,77.64l1.86-2.17c1.88-2.09,3.38-3.64,4.48-4.66,1.1-1.02,2.09-1.76,2.96-2.21,.88-.45,1.77-.68,2.67-.68,1.46,0,2.49,.39,3.09,1.17,.6,.78,.9,2.14,.9,4.08,0,.8-.08,1.99-.25,3.56-.25,2.08-.37,4.04-.37,5.87,0,2.06,.1,3.73,.31,5.01,.14,.78,.36,1.57,.65,2.35,.21,.74,.31,1.25,.31,1.51,0,.33-.12,.59-.37,.77-.64,.56-1.48,1.04-2.53,1.45s-1.94,.62-2.66,.62c-1.17,0-2.24-.4-3.2-1.21s-1.7-1.92-2.23-3.34c-.53-1.42-.79-3.03-.79-4.82,0-1.19,.12-2.61,.37-4.24l-.12-.12c-.89,.99-1.6,1.77-2.15,2.35-.55,.58-1.06,1.12-1.53,1.64-2.31,2.64-4.27,5.02-5.87,7.14-.62,.82-1.19,1.55-1.7,2.16-.76,.76-1.63,1.14-2.6,1.14-1.32,0-2.39-.49-3.22-1.48-.82-.99-1.24-2.27-1.24-3.83,0-.97,.11-2.15,.34-3.56,.23-1.4,.53-2.9,.91-4.5,.38-1.6,.83-3.24,1.36-4.93,.53-1.69,1.1-3.3,1.72-4.82,.95-2.53,2.1-4.51,3.46-5.94,.93-.93,2.05-1.39,3.37-1.39,2.14,0,3.22,1.39,3.22,4.17,0,2.04-.43,4.96-1.28,8.77l.12,.12Z"/><g><path class="b" d="M186.81,56.22c2.61,1.41-2.41,5.38-5.38,5.38s-5.38-2.41-5.38-5.38,5.38-8.34,5.38-5.38,2.3,3.71,5.38,5.38Z"/><path class="b" d="M170.3,56.22c2.61,1.41-2.41,5.38-5.38,5.38s-5.38-2.41-5.38-5.38,5.38-8.34,5.38-5.38,2.3,3.71,5.38,5.38Z"/></g></g></g><g><path class="b" d="M91.01,115.7c-.56,0-.95-.12-1.16-.37-.21-.25-.32-.57-.32-.95,0-.36,.07-.79,.22-1.29,.15-.5,.31-.98,.47-1.44,.21-.61,.47-1.33,.77-2.15s.62-1.69,.96-2.58c.34-.9,.69-1.79,1.05-2.66,.36-.87,.7-1.67,1.04-2.38-.86,.01-1.58,.03-2.16,.06-.58,.03-1.1,.06-1.56,.1-.46,.04-.97,.12-1.52,.22,.04-.42,.26-.76,.66-.99,.4-.24,.94-.41,1.61-.51,.67-.1,1.44-.15,2.3-.15s1.63,.03,2.31,.1c.68,.07,1.32,.13,1.92,.2,.6,.06,1.2,.1,1.8,.11-.42,.39-.91,.63-1.46,.73-.55,.1-1.13,.15-1.74,.15-.14,0-.28,0-.43,0-.15,0-.3,0-.45,0h-.45c-.4,1-.86,2.26-1.38,3.78-.52,1.52-1.04,3.24-1.56,5.15-.17,.66-.33,1.25-.48,1.78-.14,.52-.26,1.01-.34,1.44-.08,.44-.12,.86-.12,1.27v.21c0,.07,0,.14,.02,.21Z"/><path class="b" d="M98.5,114.79c-.24,0-.42-.2-.56-.6-.14-.4-.21-.85-.21-1.35,0-.6,.1-1.31,.3-2.14,.2-.82,.46-1.69,.79-2.6,.32-.91,.69-1.8,1.1-2.68,.41-.87,.82-1.67,1.25-2.38,.42-.71,.82-1.28,1.2-1.7,.37-.42,.7-.64,.97-.64,.22,0,.38,.13,.48,.4,.09,.27,.14,.53,.14,.78,0,.35-.08,.77-.23,1.27-.16,.5-.37,1.03-.65,1.6-.27,.57-.59,1.13-.96,1.68-.36,.55-.76,1.05-1.18,1.51-.42,.46-.86,.81-1.29,1.08-.15,.36-.28,.77-.38,1.22-.11,.45-.18,.89-.23,1.32-.05,.43-.07,.81-.07,1.15,0,.14,0,.26,0,.36,0,.1,.02,.19,.03,.28,.17-.51,.37-1.01,.57-1.49,.21-.48,.43-.92,.66-1.33,.24-.41,.49-.76,.76-1.07,.27-.31,.55-.54,.85-.71,.3-.17,.62-.25,.96-.25s.63,.08,.83,.25c.21,.17,.36,.38,.45,.64,.09,.26,.14,.52,.14,.8,0,.39-.07,.76-.2,1.12-.13,.36-.27,.71-.4,1.05-.14,.34-.21,.66-.21,.97,0,.25,.05,.43,.16,.54,.11,.11,.24,.17,.4,.17,.29,0,.61-.14,.96-.41,.36-.27,.71-.64,1.06-1.1,.35-.46,.65-.95,.9-1.49l.24,.22c-.26,.61-.58,1.16-.96,1.66-.37,.49-.79,.88-1.24,1.17-.45,.29-.92,.43-1.4,.43-.42,0-.75-.11-.96-.34-.22-.22-.33-.51-.33-.84,0-.26,.05-.56,.15-.88,.1-.32,.2-.66,.29-.99,.09-.34,.14-.66,.14-.95,0-.32-.07-.56-.21-.69-.14-.14-.31-.21-.51-.21-.31,0-.59,.12-.84,.37-.25,.25-.48,.57-.68,.96-.21,.39-.4,.81-.58,1.25-.18,.44-.35,.85-.52,1.25-.16,.39-.32,.71-.49,.96-.16,.25-.33,.37-.51,.37Zm1.39-6.5c.35-.27,.69-.62,1.02-1.05,.33-.42,.64-.88,.93-1.36,.29-.48,.54-.95,.77-1.41,.22-.46,.4-.88,.52-1.25,.12-.37,.19-.66,.19-.84,0-.06,0-.1-.02-.12-.01-.02-.03-.03-.06-.03-.09,0-.27,.17-.53,.52-.27,.34-.58,.8-.93,1.38-.35,.57-.69,1.22-1.03,1.95-.34,.72-.62,1.47-.86,2.23Z"/><path class="b" d="M108.82,114.56c-.49,0-.85-.15-1.09-.46-.24-.31-.36-.68-.36-1.11,0-.29,.05-.65,.16-1.09,.11-.44,.25-.9,.42-1.38,.17-.48,.38-.93,.61-1.36,.23-.42,.48-.77,.74-1.04,.26-.27,.52-.4,.77-.4,.11,0,.21,.03,.29,.1,.08,.07,.12,.17,.12,.31,0,.15-.1,.39-.29,.73-.19,.34-.42,.72-.68,1.16-.26,.44-.49,.9-.68,1.38-.19,.48-.29,.94-.29,1.38s.07,.75,.22,.9c.15,.15,.38,.22,.69,.22,.42,0,.88-.21,1.36-.64,.48-.42,.99-1.17,1.53-2.23l.17,.19c-.36,1.07-.88,1.9-1.56,2.47-.68,.57-1.39,.86-2.13,.86Zm2.25-8.58c-.2,0-.38-.05-.53-.15-.16-.1-.23-.26-.23-.47,0-.26,.15-.49,.46-.68,.31-.19,.61-.29,.91-.29,.19,0,.34,.04,.45,.13,.11,.09,.17,.24,.17,.45,0,.24-.13,.47-.38,.68-.26,.22-.53,.33-.83,.33Z"/><path class="b" d="M118.97,114.45c-.44,0-.76-.11-.98-.34-.22-.22-.33-.51-.33-.86,0-.26,.05-.54,.14-.82,.09-.29,.18-.58,.27-.89,.09-.31,.13-.6,.13-.89,0-.35-.07-.59-.22-.72-.14-.13-.32-.2-.53-.2-.39,0-.78,.16-1.18,.48-.4,.32-.79,.72-1.16,1.22-.37,.49-.72,1-1.05,1.53-.32,.52-.61,.99-.86,1.4-.2,0-.39-.03-.57-.1-.18-.07-.32-.17-.42-.31,0-.06,.07-.26,.2-.58,.13-.32,.28-.72,.46-1.2,.17-.47,.33-.96,.47-1.46,.14-.5,.21-.95,.21-1.37,.07-.09,.19-.17,.36-.26,.16-.09,.33-.13,.51-.13,.34,0,.51,.16,.51,.49,0,.2-.06,.53-.17,1-.11,.47-.26,.96-.43,1.47,.34-.51,.71-1.02,1.13-1.53,.42-.51,.86-.93,1.34-1.26,.47-.34,.95-.51,1.42-.51s.84,.17,1.06,.52c.22,.35,.33,.74,.33,1.16,0,.39-.06,.75-.19,1.08-.12,.33-.25,.65-.38,.96-.13,.31-.2,.62-.2,.93,0,.26,.05,.45,.16,.55,.11,.11,.24,.16,.4,.16,.31,0,.62-.15,.94-.44,.31-.29,.61-.66,.91-1.11,.29-.45,.55-.9,.78-1.37l.21,.24c-.26,.61-.56,1.15-.88,1.63-.32,.47-.68,.85-1.07,1.12-.39,.27-.82,.41-1.29,.41Z"/><path class="b" d="M128.15,114.79c-.35,0-.65-.12-.9-.36-.25-.24-.45-.54-.59-.9-.14-.36-.25-.73-.32-1.11-.07-.38-.1-.71-.1-1,.14,0,.34-.03,.6-.1,.26-.07,.53-.17,.81-.32,.27-.14,.51-.33,.7-.56,.19-.23,.29-.5,.29-.81,0-.26-.09-.47-.28-.62-.19-.15-.41-.22-.66-.22-.39,0-.75,.13-1.09,.4-.34,.27-.64,.62-.91,1.05-.27,.43-.51,.89-.72,1.38-.21,.49-.39,.95-.54,1.39-.15,.44-.27,.8-.37,1.09-.07,.22-.18,.38-.32,.46-.14,.08-.28,.12-.43,.12-.21,0-.37-.09-.46-.26-.09-.18-.15-.4-.17-.66-.02-.27-.03-.55-.03-.83,0-.65,.11-1.4,.32-2.25,.21-.85,.5-1.73,.85-2.65,.36-.92,.75-1.81,1.17-2.67,.42-.86,.85-1.64,1.27-2.34,.42-.7,.82-1.25,1.18-1.67,.36-.41,.66-.62,.88-.62,.17,0,.32,.12,.42,.36,.11,.24,.16,.52,.16,.86,0,.42-.09,.9-.28,1.43-.19,.53-.45,1.06-.8,1.6-.34,.54-.75,1.04-1.22,1.52-.47,.47-.98,.88-1.53,1.22-.41,1.01-.72,1.99-.93,2.95-.21,.96-.31,1.76-.31,2.41,.2-.5,.44-1.05,.72-1.65,.28-.6,.6-1.17,.96-1.72,.36-.55,.76-1,1.18-1.35,.42-.35,.87-.52,1.33-.52s.85,.16,1.18,.49c.32,.32,.49,.72,.49,1.18,0,.4-.1,.74-.31,1.02-.21,.28-.46,.51-.75,.67-.29,.17-.59,.29-.88,.37-.29,.08-.53,.12-.72,.12,.01,.1,.05,.28,.11,.54,.06,.26,.15,.54,.27,.82,.12,.29,.27,.53,.44,.74,.17,.21,.39,.31,.64,.31,.36,0,.71-.14,1.03-.41,.32-.27,.63-.64,.93-1.1,.29-.46,.56-.97,.81-1.54l.19,.19c-.17,.61-.44,1.19-.81,1.73-.36,.54-.76,.99-1.21,1.33-.44,.34-.88,.52-1.32,.52Zm-2.73-7.85c.57-.46,1.08-.99,1.51-1.57,.43-.59,.76-1.15,1-1.69,.24-.54,.36-.97,.36-1.28,0-.06,0-.11,0-.13,0-.02-.02-.04-.05-.04-.12,0-.34,.22-.65,.66-.31,.44-.65,1.01-1.04,1.73-.39,.72-.76,1.5-1.12,2.33Z"/><path class="b" d="M139.42,115.44c-.65,0-1.13-.21-1.45-.64-.32-.42-.48-1-.48-1.72,0-.62,.11-1.36,.32-2.21,.21-.85,.49-1.74,.84-2.67,.35-.93,.74-1.84,1.17-2.72,.43-.89,.86-1.69,1.3-2.41,.44-.72,.85-1.29,1.24-1.72,.39-.43,.71-.65,.96-.65,.21,0,.37,.13,.46,.39,.09,.26,.14,.52,.14,.79,0,.35-.07,.77-.22,1.27-.15,.5-.36,1.03-.64,1.6-.27,.57-.59,1.13-.96,1.68-.36,.55-.75,1.05-1.17,1.51-.42,.46-.85,.81-1.28,1.08-.07,.14-.18,.42-.33,.85-.14,.43-.27,.92-.39,1.48-.12,.56-.18,1.1-.18,1.62s.08,.93,.23,1.26c.16,.33,.42,.5,.8,.5s.74-.15,1.12-.44c.39-.29,.7-.67,.94-1.13-.46-.24-.81-.58-1.03-1.04-.22-.46-.34-.91-.34-1.38,0-.6,.16-1.08,.47-1.44,.31-.36,.68-.54,1.1-.54,.36,0,.65,.15,.86,.44,.21,.29,.32,.72,.32,1.28,0,.41-.06,.84-.17,1.27-.11,.44-.27,.86-.49,1.27,.07,.01,.15,.03,.23,.04,.08,.01,.17,.02,.25,.02,.45,0,.82-.11,1.12-.33,.3-.22,.55-.49,.76-.81,.21-.32,.38-.62,.52-.91l.22,.24c-.35,.86-.76,1.43-1.25,1.71-.48,.28-.96,.42-1.43,.42-.1,0-.2,0-.3-.02-.1-.01-.2-.02-.3-.04-.34,.57-.75,1.06-1.25,1.47-.49,.41-1.07,.61-1.73,.61Zm.43-7.15c.35-.27,.69-.62,1.02-1.05,.33-.42,.64-.88,.93-1.36,.29-.48,.54-.95,.77-1.41,.22-.46,.4-.88,.52-1.25,.12-.37,.19-.66,.19-.84,0-.06,0-.1-.02-.12-.01-.02-.03-.03-.06-.03-.1,0-.29,.18-.57,.53-.28,.36-.59,.83-.94,1.42-.34,.59-.68,1.25-1.02,1.97-.34,.72-.61,1.43-.82,2.14Zm2.17,4.49c.14-.29,.24-.59,.32-.91,.07-.32,.11-.65,.11-.98,0-.44-.06-.78-.18-1.03-.12-.25-.27-.37-.44-.37-.19,0-.35,.13-.5,.38-.14,.26-.22,.58-.22,.96,0,.34,.07,.69,.21,1.07,.14,.37,.37,.67,.69,.88Z"/><path class="b" d="M148.02,114.9c-.76,0-1.33-.21-1.71-.63-.38-.42-.57-.93-.57-1.54,0-.56,.14-1.15,.42-1.78,.28-.62,.66-1.21,1.12-1.76,.47-.55,.98-1,1.55-1.34,.56-.34,1.12-.51,1.67-.51,.29,0,.55,.07,.8,.22,.24,.15,.37,.46,.37,.92s-.14,.92-.42,1.34c-.28,.42-.65,.79-1.1,1.11-.46,.32-.96,.59-1.5,.8-.54,.21-1.08,.33-1.62,.38-.03,.12-.04,.24-.06,.36-.01,.11-.02,.22-.02,.32,0,.19,.02,.37,.07,.56,.04,.19,.12,.36,.23,.52,.11,.16,.27,.28,.46,.37,.19,.09,.43,.13,.72,.13,.54,0,1.07-.15,1.59-.46,.52-.31,1.01-.71,1.46-1.21,.45-.5,.83-1.05,1.14-1.65l.22,.17c-.34,.75-.76,1.4-1.28,1.95-.52,.55-1.08,.98-1.69,1.28-.61,.31-1.22,.46-1.84,.46Zm-.92-3.15c.34-.11,.72-.28,1.14-.5,.42-.22,.83-.48,1.23-.78,.39-.3,.72-.63,.97-.99,.26-.36,.38-.74,.38-1.14,0-.14-.03-.24-.07-.32-.05-.07-.16-.11-.32-.11-.3,0-.62,.12-.96,.35-.34,.23-.66,.53-.97,.91-.31,.37-.59,.79-.84,1.24-.25,.45-.44,.9-.56,1.35Z"/><path class="b" d="M154.07,114.96c-.39,0-.71-.13-.98-.38-.27-.26-.4-.65-.4-1.17,0-.45,.1-.93,.3-1.45,.2-.52,.47-1.03,.82-1.54,.35-.51,.75-.97,1.19-1.39,.44-.42,.91-.75,1.4-1,.49-.25,.98-.37,1.47-.37s.89,.13,1.22,.38c.32,.26,.49,.6,.49,1.02,0,.31-.08,.52-.25,.64-.17,.11-.39,.17-.66,.17,.02-.1,.05-.21,.07-.33,.02-.12,.03-.23,.03-.33,0-.29-.07-.53-.21-.74-.14-.21-.37-.31-.71-.31s-.71,.12-1.07,.37c-.36,.24-.71,.57-1.05,.97-.34,.41-.64,.85-.9,1.32-.26,.47-.47,.94-.62,1.4-.15,.46-.22,.87-.22,1.24,0,.49,.17,.73,.51,.73,.29,0,.6-.13,.94-.4,.34-.27,.68-.61,1.04-1.03,.36-.42,.7-.85,1.02-1.3,.32-.45,.61-.86,.86-1.24,.05-.07,.08-.11,.09-.11,.07,.01,.17,.04,.29,.07,.12,.04,.22,.09,.31,.15,.09,.06,.13,.14,.13,.24,0,.11-.06,.27-.17,.46-.11,.19-.24,.42-.37,.66-.14,.25-.26,.5-.37,.76-.11,.26-.17,.5-.17,.72,0,.19,.05,.37,.15,.55,.1,.18,.26,.27,.49,.27,.34,0,.78-.25,1.33-.74,.55-.49,1.1-1.23,1.67-2.22l.19,.19c-.26,.67-.6,1.27-1.01,1.78-.41,.51-.85,.91-1.32,1.2-.47,.29-.93,.43-1.38,.43s-.8-.14-1.02-.41c-.22-.27-.33-.57-.33-.9,0-.07,0-.16,.02-.25,.01-.09,.02-.19,.04-.29-.54,.72-1.03,1.27-1.47,1.63-.44,.36-.9,.54-1.36,.54Z"/><path class="b" d="M163.67,114.64c-.42,0-.76-.19-1.02-.57-.26-.38-.38-.82-.38-1.32,0-.36,.06-.78,.18-1.25,.12-.47,.27-.94,.44-1.4,.17-.46,.36-.84,.54-1.14,.19-.3,.35-.45,.49-.45,.06,0,.17,.03,.32,.1,.15,.07,.27,.16,.37,.27-.14,.21-.31,.54-.51,.97-.2,.44-.37,.91-.52,1.4-.15,.5-.22,.96-.22,1.39,0,.1,.01,.25,.04,.46,.02,.21,.09,.39,.19,.55,.1,.16,.25,.24,.45,.24,.24,0,.48-.12,.73-.37,.25-.24,.5-.56,.76-.95,.26-.39,.5-.81,.74-1.25,.24-.45,.46-.88,.66-1.29,.21-.41,.38-.76,.52-1.03,.07,.01,.18,.04,.33,.07,.14,.04,.27,.09,.39,.15,.12,.06,.18,.15,.18,.26,0,.05-.06,.22-.19,.5-.12,.28-.27,.62-.44,1.03-.17,.41-.32,.81-.44,1.23-.12,.41-.19,.77-.19,1.09,0,.22,.05,.41,.14,.54,.09,.14,.25,.21,.48,.21,.26,0,.58-.12,.96-.36,.37-.24,.76-.58,1.14-1.04,.39-.46,.73-1,1.03-1.64l.24,.17c-.26,.67-.61,1.27-1.03,1.79-.42,.52-.87,.92-1.35,1.21-.47,.29-.94,.43-1.39,.43-.32,0-.58-.06-.78-.19-.19-.13-.33-.29-.41-.51-.08-.21-.12-.44-.12-.69,0-.15,.01-.3,.04-.46,.02-.16,.06-.32,.09-.48-.22,.41-.47,.8-.73,1.15-.26,.36-.54,.64-.82,.85-.29,.21-.59,.32-.9,.32Z"/><path class="b" d="M173,114.94c-.54,0-.95-.16-1.24-.47-.29-.31-.43-.77-.43-1.39,0-.55,.1-1.23,.31-2.03,.21-.81,.47-1.63,.78-2.48-.12-.02-.24-.05-.36-.07-.11-.02-.22-.05-.32-.08v-.34c.1,.01,.22,.03,.36,.04,.14,.01,.29,.03,.47,.04,.26-.67,.54-1.33,.84-1.96,.3-.63,.6-1.19,.89-1.69,.29-.49,.57-.89,.84-1.18,.27-.29,.5-.44,.68-.44,.1,0,.19,.03,.27,.1,.08,.07,.12,.17,.12,.31,0,.21-.13,.56-.39,1.04-.26,.48-.59,1.05-.97,1.71-.39,.66-.76,1.38-1.12,2.15h.69c.41,0,.85,0,1.3-.02,.46-.01,.91-.04,1.38-.09v.34c-.69,.07-1.3,.13-1.84,.17-.54,.04-1.03,.06-1.45,.06h-.28c-.29,.66-.53,1.34-.73,2.04-.2,.7-.3,1.38-.3,2.04,0,.54,.08,.92,.24,1.15,.16,.23,.43,.35,.81,.35,.65,0,1.29-.29,1.91-.86,.62-.57,1.17-1.35,1.65-2.34l.24,.19c-.3,.7-.68,1.33-1.13,1.89-.46,.56-.96,1-1.51,1.33-.55,.32-1.12,.49-1.7,.49Z"/><path class="b" d="M179.03,114.56c-.49,0-.85-.15-1.09-.46-.24-.31-.36-.68-.36-1.11,0-.29,.05-.65,.16-1.09,.11-.44,.25-.9,.42-1.38,.17-.48,.38-.93,.61-1.36,.23-.42,.48-.77,.74-1.04,.26-.27,.52-.4,.77-.4,.11,0,.21,.03,.29,.1,.08,.07,.12,.17,.12,.31,0,.15-.1,.39-.29,.73-.19,.34-.42,.72-.68,1.16-.26,.44-.49,.9-.68,1.38-.19,.48-.29,.94-.29,1.38s.07,.75,.22,.9c.15,.15,.38,.22,.69,.22,.42,0,.88-.21,1.36-.64,.48-.42,.99-1.17,1.53-2.23l.17,.19c-.36,1.07-.88,1.9-1.56,2.47-.68,.57-1.39,.86-2.13,.86Zm2.25-8.58c-.2,0-.38-.05-.53-.15-.16-.1-.23-.26-.23-.47,0-.26,.15-.49,.46-.68,.31-.19,.61-.29,.91-.29,.19,0,.34,.04,.45,.13,.11,.09,.17,.24,.17,.45,0,.24-.13,.47-.38,.68-.26,.22-.53,.33-.83,.33Z"/><path class="b" d="M182.89,119.32c-.12,0-.27-.04-.43-.12-.16-.08-.3-.24-.42-.48-.12-.24-.18-.59-.18-1.05,0-.55,.09-1.26,.28-2.14,.19-.88,.44-1.85,.77-2.91,.32-1.06,.7-2.15,1.12-3.27,.42-1.12,.88-2.2,1.38-3.24,.49-1.04,1-1.98,1.52-2.81,.52-.83,1.03-1.49,1.53-1.98,.5-.49,.97-.73,1.42-.73,.26,0,.43,.08,.52,.24,.08,.16,.12,.36,.12,.58,0,.54-.15,1.12-.44,1.76-.29,.64-.68,1.28-1.17,1.92-.49,.64-1.02,1.25-1.61,1.84-.59,.58-1.18,1.08-1.78,1.49-.06,.15-.12,.3-.18,.46-.06,.16-.12,.32-.18,.48,.14,.03,.25,.1,.33,.22,.08,.12,.13,.25,.14,.38,.09,.56,.18,1.06,.28,1.51,.1,.44,.25,.79,.46,1.04,.21,.25,.5,.37,.89,.37,.44,0,.81-.16,1.1-.48,.3-.32,.62-.77,.97-1.36l.28,.19c-.31,.75-.71,1.29-1.19,1.63-.48,.34-.9,.51-1.26,.51-.22,0-.46-.06-.7-.17-.24-.11-.47-.26-.68-.45,0,.79-.08,1.57-.25,2.34-.17,.77-.39,1.48-.66,2.12-.27,.64-.58,1.15-.92,1.54-.34,.39-.69,.58-1.05,.58Zm.49-.9c.14,0,.29-.12,.47-.37,.17-.25,.35-.58,.52-.98,.17-.41,.32-.85,.46-1.34,.14-.49,.25-.97,.34-1.46,.09-.49,.13-.92,.13-1.31s-.05-.74-.15-1.06c-.1-.32-.26-.7-.49-1.13-.31,.94-.59,1.84-.84,2.72-.25,.87-.44,1.66-.58,2.36-.14,.7-.21,1.26-.21,1.69,0,.6,.12,.9,.36,.9Zm2.43-10.77c.81-.75,1.51-1.5,2.11-2.26,.59-.76,1.05-1.43,1.38-2.02,.32-.59,.49-1.01,.49-1.26,0-.17-.09-.26-.26-.26-.32,0-.69,.27-1.1,.8-.41,.53-.84,1.23-1.29,2.11-.45,.87-.89,1.84-1.31,2.9Z"/><path class="b" d="M191.31,114.64c-.42,0-.76-.19-1.02-.57-.26-.38-.38-.82-.38-1.32,0-.36,.06-.78,.18-1.25,.12-.47,.27-.94,.44-1.4,.17-.46,.36-.84,.54-1.14,.19-.3,.35-.45,.49-.45,.06,0,.17,.03,.32,.1,.15,.07,.27,.16,.37,.27-.14,.21-.31,.54-.51,.97-.2,.44-.37,.91-.52,1.4-.15,.5-.22,.96-.22,1.39,0,.1,.01,.25,.04,.46,.02,.21,.09,.39,.19,.55,.1,.16,.25,.24,.45,.24,.24,0,.48-.12,.73-.37,.25-.24,.5-.56,.76-.95,.26-.39,.5-.81,.74-1.25,.24-.45,.46-.88,.66-1.29,.21-.41,.38-.76,.51-1.03,.07,.01,.18,.04,.33,.07,.14,.04,.27,.09,.39,.15,.12,.06,.18,.15,.18,.26,0,.05-.06,.22-.19,.5-.12,.28-.27,.62-.44,1.03-.17,.41-.32,.81-.44,1.23-.13,.41-.19,.77-.19,1.09,0,.22,.05,.41,.14,.54,.09,.14,.25,.21,.48,.21,.26,0,.58-.12,.96-.36,.37-.24,.76-.58,1.14-1.04,.39-.46,.73-1,1.03-1.64l.24,.17c-.26,.67-.61,1.27-1.03,1.79-.42,.52-.87,.92-1.35,1.21-.47,.29-.94,.43-1.39,.43-.32,0-.58-.06-.78-.19-.19-.13-.33-.29-.41-.51-.08-.21-.12-.44-.12-.69,0-.15,.01-.3,.04-.46,.02-.16,.06-.32,.09-.48-.22,.41-.47,.8-.73,1.15-.26,.36-.54,.64-.82,.85-.29,.21-.59,.32-.9,.32Z"/><path class="b" d="M200.6,114.64c-.54,0-.92-.18-1.15-.55-.23-.37-.35-.83-.35-1.38,0-.6,.11-1.31,.34-2.14,.22-.82,.52-1.69,.89-2.6,.37-.91,.77-1.8,1.21-2.67,.44-.87,.87-1.66,1.31-2.37,.44-.71,.84-1.28,1.21-1.7,.37-.42,.66-.64,.87-.64,.14,0,.25,.08,.34,.23,.09,.16,.16,.34,.21,.56,.05,.22,.07,.42,.07,.59,0,.34-.08,.78-.25,1.32-.17,.54-.41,1.15-.71,1.82-.31,.67-.67,1.34-1.09,2.02-.42,.68-.87,1.33-1.37,1.96-.49,.62-1.01,1.16-1.56,1.61-.07,.34-.13,.66-.18,.98-.04,.32-.07,.62-.07,.91,0,.96,.27,1.44,.82,1.44,.3,0,.6-.13,.91-.38,.31-.26,.6-.58,.88-.98,.28-.4,.53-.82,.74-1.27,.12-.65,.31-1.35,.56-2.09,.25-.74,.54-1.49,.86-2.24,.32-.75,.67-1.47,1.03-2.15,.36-.69,.72-1.3,1.07-1.84,.35-.54,.67-.96,.97-1.27,.3-.31,.54-.47,.73-.47,.14,0,.25,.08,.34,.23,.09,.16,.16,.34,.21,.56,.05,.22,.07,.42,.07,.59,0,.41-.11,.95-.32,1.62-.21,.67-.52,1.38-.91,2.14-.39,.76-.87,1.51-1.42,2.26-.56,.74-1.18,1.4-1.86,1.96-.07,.34-.13,.66-.18,.98-.04,.32-.07,.62-.07,.91,0,.96,.27,1.44,.82,1.44,.34,0,.67-.15,1-.45,.33-.3,.64-.68,.94-1.13,.29-.46,.55-.93,.76-1.41l.28,.15c-.5,1.06-1.04,1.9-1.63,2.52-.59,.62-1.22,.93-1.89,.93-.6,0-1.01-.22-1.24-.67-.22-.45-.31-1.01-.24-1.69-.44,.74-.9,1.31-1.4,1.73-.49,.42-1.01,.63-1.56,.63Zm.13-4.57c.44-.44,.86-.94,1.27-1.51,.41-.57,.8-1.16,1.15-1.77,.36-.61,.67-1.2,.95-1.78,.27-.57,.49-1.09,.64-1.55,.15-.46,.22-.81,.22-1.06,0-.12-.02-.21-.05-.24-.03-.04-.06-.06-.08-.06-.1,0-.27,.16-.52,.48-.24,.32-.53,.75-.85,1.28-.32,.54-.66,1.15-.99,1.84-.34,.69-.66,1.4-.96,2.15-.31,.75-.57,1.49-.78,2.21Zm4.44,0c.55-.55,1.05-1.15,1.51-1.82,.46-.66,.85-1.32,1.19-1.99,.34-.66,.6-1.27,.79-1.82,.19-.55,.28-.98,.28-1.29,0-.12-.02-.21-.05-.24-.03-.04-.06-.06-.08-.06-.12,0-.33,.2-.63,.61-.29,.41-.62,.95-.99,1.64-.37,.69-.73,1.46-1.09,2.32-.36,.86-.66,1.74-.93,2.64Z"/><path class="b" d="M209.65,119.32c-.31,0-.59-.08-.82-.25s-.36-.42-.36-.74c0-.4,.1-.76,.3-1.07,.2-.31,.47-.6,.81-.86,.34-.26,.72-.51,1.16-.75,.44-.24,.89-.47,1.37-.71,.17-.46,.35-.98,.53-1.55,.18-.57,.35-1.2,.51-1.88-.4,.65-.83,1.21-1.28,1.68-.46,.47-.94,.7-1.45,.7-.24,0-.47-.05-.7-.16-.23-.11-.42-.27-.57-.5-.15-.22-.22-.51-.22-.86s.06-.76,.18-1.22c.12-.46,.27-.91,.44-1.35,.17-.44,.36-.8,.54-1.09,.19-.29,.35-.43,.49-.43,.05,0,.14,.02,.27,.06s.26,.09,.37,.16c.12,.07,.18,.14,.18,.22-.11,.16-.24,.39-.37,.69-.14,.3-.27,.63-.4,1-.13,.37-.24,.73-.33,1.08-.09,.35-.13,.65-.13,.9,0,.22,.05,.41,.15,.54,.1,.14,.27,.21,.52,.21,.24,0,.5-.12,.8-.35,.29-.23,.59-.53,.88-.89,.29-.36,.56-.75,.81-1.16,.04-.14,.07-.28,.1-.42,.03-.14,.06-.29,.08-.44,.04-.17,.13-.38,.27-.61,.14-.23,.37-.35,.68-.35,.06,0,.12,0,.19,0,.06,0,.13,.02,.21,.05,0,.2-.06,.57-.18,1.11-.12,.54-.29,1.18-.51,1.9-.22,.72-.48,1.47-.78,2.23,.59-.22,1.16-.6,1.72-1.11,.56-.52,1.02-1.21,1.37-2.07l.24,.19c-.19,.6-.47,1.12-.85,1.56-.38,.44-.81,.82-1.28,1.14-.47,.32-.94,.58-1.4,.8-.32,.8-.68,1.55-1.06,2.25-.38,.7-.78,1.26-1.2,1.69-.42,.43-.85,.65-1.28,.65Zm-.09-.6c.19,0,.5-.25,.95-.74,.44-.49,.91-1.36,1.41-2.59-.51,.27-.99,.55-1.42,.81-.44,.27-.79,.56-1.05,.87-.26,.31-.39,.67-.39,1.09,0,.1,.04,.22,.11,.36,.07,.14,.21,.21,.39,.21Z"/></g></svg>