<?xml version="1.0" encoding="UTF-8"?><svg id="a" xmlns="http://www.w3.org/2000/svg" xmlns:xlink="http://www.w3.org/1999/xlink" viewBox="0 0 432 432"><defs><style>.n{filter:url(#b);}.n,.o,.p,.q,.r{fill:#014d4e;stroke:#014d4e;stroke-miterlimit:10;stroke-width:.5px;}.s{filter:url(#j);}.t,.u,.v,.w,.x,.y{fill:#fff;}.o{filter:url(#h);}.u{letter-spacing:-.04em;}.p{filter:url(#d);}.a`,.x{letter-spacing:.05em;}.v,.y{font-family:TimesNewRomanPSMT, Times New Roman;font-size:7.62px;}.w{letter-spacing:.03em;}.aa,.y{letter-spacing:.05em;}.r{filter:url(#f);}.ab{filter:url(#l);}.ac{font-family:FelixTitlingMT, Felix Titling;font-size:9.1px;}.ad{letter-spacing:.01em;}.ae{fill:#fffdf7;}</style><filter id="b" filterUnits="userSpaceOnUse"><feOffset dx="7" dy="7"/><feGaussianBlur result="c" stdDeviation="5"/><feFlood flood-color="#000" flood-opacity=".5"/><feComposite in2="c" operator="in"/><feComposite in="SourceGraphic"/></filter><filter id="d" filterUnits="userSpaceOnUse"><feOffset dx="0" dy="9"/><feGaussianBlur result="e" stdDeviation="18"/><feFlood flood-color="#060a16" flood-opacity=".8"/><feComposite in2="e" operator="in"/><feComposite in="SourceGraphic"/></filter><filter id="f" filterUnits="userSpaceOnUse"><feOffset dx="7" dy="7"/><feGaussianBlur result="g" stdDeviation="5"/><feFlood flood-color="#000" flood-opacity=".5"/><feComposite in2="g" operator="in"/><feComposite in="SourceGraphic"/></filter><filter id="h" filterUnits="userSpaceOnUse"><feOffset dx="9" dy="0"/><feGaussianBlur result="i" stdDeviation="5"/><feFlood flood-color="#010207" flood-opacity=".8"/><feComposite in2="i" operator="in"/><feComposite in="SourceGraphic"/></filter><filter id="j" filterUnits="userSpaceOnUse"><feOffset dx="7" dy="7"/><feGaussianBlur result="k" stdDeviation="5"/><feFlood flood-color="#000" flood-opacity=".75"/><feComposite in2="k" operator="in"/><feComposite in="SourceGraphic"/></filter><filter id="l" filterUnits="userSpaceOnUse"><feOffset dx="7" dy="7"/><feGaussianBlur result="m" stdDeviation="5"/><feFlood flood-color="#000" flood-opacity=".75"/><feComposite in2="m" operator="in"/><feComposite in="SourceGraphic"/></filter></defs><g><rect class="q" x="134.39" y="216.3" width="240.11" height="137.21" transform="translate(-122.64 223.9) rotate(-39.04)"/><g><path class="n" d="M118.21,307.53l86.2,106.28,144.02-116.8c-.35-5.85-1.16-11.68-2.41-17.45-2.08-9.54-5.39-18.9-9.97-27.82-.09-.21-.2-.39-.3-.58-.57-1.12-1.17-2.23-1.79-3.32-.1-.18-.19-.36-.3-.53-.73-1.3-1.49-2.58-2.28-3.84-.06-.11-.13-.21-.19-.31-2.49-3.98-5.24-7.84-8.28-11.58-13.28-16.37-30.11-28.15-48.5-35.12-4.7-1.79-9.5-3.26-14.38-4.41l-141.84,115.03c0,.15,0,.31,.01,.46Z"/><ellipse class="p" cx="298.14" cy="249.47" rx="56.08" ry="56.09" transform="translate(-90.56 243.51) rotate(-39.04)"/></g></g><g><rect class="q" x="25.84" y="80.36" width="240.01" height="137.15" transform="translate(-60.95 122.72) rotate(-38.38)"/><g><path class="r" d="M197.57,20.96l84.92,107.23-145.3,115.07c-5.63-1.62-11.15-3.67-16.5-6.15-8.85-4.11-17.26-9.37-24.97-15.78-.18-.14-.34-.28-.5-.42-.96-.8-1.92-1.63-2.85-2.47-.15-.13-.31-.27-.45-.41-1.1-1-2.19-2.02-3.25-3.06-.09-.09-.18-.18-.26-.25-3.34-3.3-6.51-6.82-9.5-10.59-13.08-16.52-20.9-35.51-23.71-54.96-.72-4.98-1.11-9.98-1.17-14.99L197.13,20.85c.15,.03,.3,.07,.44,.11Z"/><circle class="o" cx="104.62" cy="181.58" r="56.06"/></g><text class="ac" transform="translate(132.41 124.39) rotate(-38.38)"><tspan class="a`" x="0" y="0"> </tspan><tspan class="x" x="3.1" y="0">Jo</tspan><tspan class="w" x="13.77" y="0">n</tspan><tspan class="u" x="21.3" y="0">a</tspan><tspan class="x" x="27.21" y="0">than Messenger</tspan></text><g><path class="t" d="M143.04,130.96c-1.43,1.13-1.67,3.22-.54,4.65,.45,.56,1.04,.94,1.68,1.13l5,1.98-.78-5.33c-.03-.67-.27-1.33-.71-1.89-1.13-1.43-3.22-1.67-4.65-.54Zm2.77,3.5c-.63,.5-1.55,.39-2.05-.24s-.39-1.55,.24-2.05,1.55-.39,2.05,.24,.39,1.55-.24,2.05Z"/><text class="v" transform="translate(154.42 130.8) rotate(-38.38)"><tspan class="ad" x="0" y="0">1</tspan><tspan class="aa" x="3.91" y="0">15 lorem ipsum </tspan></text></g><g><path class="t" d="M164.41,150c.08,.09,.09,.18,.1,.52,.01,.42-.13,.76-.46,1.14-.13,.15-.49,.46-.64,.55-.43,.25-1.03,.42-1.7,.48-.64,.05-1.13,.03-2.1-.1-1.01-.13-1.29-.19-1.84-.37-.9-.29-1.51-.7-1.89-1.27-.42-.63-.5-1.06-.3-1.66q.07-.22,.17-.3c.09-.07,.12-.08,.2-.09,.15-.02,1.88,.17,1.99,.22,.12,.06,.2,.18,.21,.33,0,.12,0,.47-.03,.82,0,.12-.01,.23,0,.24,.03,.04,.34,.16,.65,.26,.76,.25,1.45,.34,2.16,.27,.28-.03,.83-.1,.84-.12,0,0,.04-.16,.07-.34,.11-.65,.16-.8,.25-.88,.12-.1,.21-.1,1.04,0q1.16,.14,1.29,.3Z"/><text class="y" transform="translate(168.27 146.27) rotate(-38.38)"><tspan x="0" y="0">+1221425241</tspan></text></g><g><path class="t" d="M175.97,159.77l-8.28,6.56c-.29,.23-.34,.66-.11,.95l3.13,3.96c.12,.15,.29,.24,.47,.25h.02c.16,.01,.33-.04,.46-.14l8.28-6.56c.13-.1,.21-.23,.24-.38v-.04h0c.03-.19-.01-.38-.14-.53l-3.13-3.96c-.23-.29-.66-.34-.95-.11Zm3.84,4.84l-8.3,6.57c-.06,.05-.12,.07-.19,.09l.53-5.1s0-.02,0-.04l1.99-.44s.04-.01,.06-.03,.03-.03,.04-.05l.89-1.84s.02,0,.03,.01l5.09,.65c-.03,.06-.07,.12-.13,.16Zm.07-.63c.06,.07,.09,.16,.09,.25l-5.06-.65,1.49-3.08c.03-.07,0-.15-.06-.18-.07-.03-.15,0-.18,.06l-2.44,5.06-5.48,1.22c-.07,.02-.12,.09-.1,.16,.02,.07,.09,.12,.16,.1l3.34-.74-.53,5.07c-.08-.03-.16-.08-.22-.15l-3.14-3.97c-.15-.19-.12-.48,.07-.63l8.3-6.57c.19-.15,.47-.12,.63,.07l3.14,3.97Z"/><text class="y" transform="translate(184.04 160.01) rotate(-38.38)"><tspan x="0" y="0">jonathanm212@gmail.com</tspan></text></g></g><g class="s"><path class="ae" d="M132.17,159.52c-.17-1.54-.58-2.45-1.52-3.39-1.3-1.3-3.23-1.9-6.08-1.9-1.96,0-4.85,.39-6.48,.88-.32,.09-.33,.09-.86-.62-.84-1.12-1.31-1.53-1.93-1.71-.68-.2-1.49-.34-2.17-.39-.45-.03-.55,0-.7,.19-.1,.12-.27,.26-.39,.29-.3,.1-.49,.44-.62,1.1-.16,.84-.05,1.13,.09,1.46,.13,.32,.17,.35,.22,.41,.13,.16,.15,.17,.5,.22,.35,.06,.16,.12,.56,.01,.18-.05,.44-.29,.65-.36,.22-.07,.56-.24,.75-.37,.21-.14,.43-.21,.52-.18,.14,.05,.56,.62,.56,.76,0,.03-.59,.3-1.32,.61-1.43,.61-2.9,1.39-4.24,2.27-1.46,.95-2.51,1.86-2.35,2.02,.02,.02,.56-.33,1.21-.76,.95-.64,2.74-1.6,4.07-2.18,.83-.36,2.62-.98,2.83-.99,.13,0,.19,.27,.33,1.41,.16,1.32,.29,2.11,.42,2.62,.05,.21,.04,.21-.37,.12-.61-.14-2-.02-2.46,.21-.21,.1-.52,.35-.69,.55-.3,.34-.32,.35-.59,.22-.43-.22-1.45-.34-2.09-.24-.63,.1-1.82,.72-2.37,1.23-.23,.21-.34,.27-.38,.18-.03-.07-.17-.16-.33-.19-.15-.04-.38-.13-.5-.2-.21-.13-.22-.19-.22-1.58s0-1.44,.23-1.53c.27-.1,.32-.2,.41-.84,.05-.31,.15-.73,.06-.83-.1-.12-.2-.04-.02-.54,.12-.34,.27-.72,.33-.84,.06-.12,.14-.81,.15-1.18,0-.4,.1-.39-.01-.65-.18-1.29-1.57-2.3-3.27-2.32-.02,0-.04,0-.06,0-.36,0-.71,.04-1.04,.13-1.34,.34-2.31,1.32-2.31,2.47,0,.11,0,.22,.03,.33,0,.2,0,.42,.03,.69,.06,.61,.23,1.21,.12,1.51-.18,.48-.12,.89,.01,1.28,.06,.18,.21,.31,.4,.34h0l-.05,1.24c-.03,.68-.08,1.32-.12,1.42-.07,.16-1.11,.76-1.31,.76-.04,0-.17-.16-.27-.36-.33-.61-1.17-1.38-1.69-1.56-.56-.19-.96-.2-1.78-.02-.35,.07-.65,.24-.77,.4-.55-.68-1.25-1.31-1.73-1.54-.57-.28-1.1-.28-1.85-.01-.55,.2-.81,.17-.35-.03,.14-.06,.34-.36,.54-.84,.29-.67,.32-.84,.32-1.74v-1l.79-.94c.44-.52,.79-.97,.79-1.01,0-.04,.07-.07,.15-.07s.15,.04,.15,.09,.09,.12,.2,.16c.11,.03,.33,.18,.5,.32,.24,.2,.5,.62,.86,.64,0,.02,0,.04,.03,.05,.9,.33,1.2,.12,1.99-.79,.27-.31,.05-1.16-.12-1.73-.06-.18-.29-.48-.54-.68-.43-.35-.46-.36-1.8-.49-2.12-.21-1.92-.25-2.79,.58-.95,.91-1.54,1.39-2.54,2.05-.96,.64-2.39,2.06-2.8,2.79-.39,.69-.68,1.57-.87,2.59-.08,.45-.18,.92-.21,1.05-.1,.37,.16,1.11,.54,1.49,.25,.25,.61,.48,.97,.63,.16,.26,.95,.73,1.53,1.18,1.31,1.02,2.79,1.85,4.09,2.28,1.41,.48,1.54,.6,1.82,1.79,.44,1.89,.78,2.9,1.51,4.47,1.18,2.52,1.61,3.59,1.7,4.19,.05,.34,.06,1.47,.04,2.51l-.05,1.89-.42,1.04c-.47,1.16-1.07,2.89-1.24,3.57-.42,1.73-.68,3.27-.8,4.81-.06,.71-.13,1.41-.16,1.56-.06,.29-.15,.33-1.33,.63-.35,.09-.8,.2-.99,.25-.83,.22-2.45,.39-3.63,.39-3.59,0-5.88-1.44-6.54-4.09-.19-.75-.16-2.47,.04-3.45,.11-.53,.52-1.83,.7-2.23,.86-1.94,1.48-3.07,2.61-4.76,.65-.96,2.5-3.41,2.74-3.62,.03-.03,.21-.23,.39-.45,.95-1.12,2.78-3.03,4.31-4.5,.59-.57,.77-.81,.6-.81-.03,0-.56,.33-1.17,.74-4.42,2.96-8.54,7.58-10.81,12.12-.54,1.08-1.22,2.7-1.37,3.26-.04,.16-.15,.57-.24,.89-.22,.83-.44,2.37-.44,3.08-.01,2.15,.94,4.23,2.45,5.34,1.34,.98,3.43,1.64,5.73,1.79,1.41,.1,3.92-.07,5.9-.4,6.1-1,12.98-4.74,21.14-11.49,2.65-2.2,5.92-5.34,7.9-7.61,4.19-4.8,7.1-9.57,8.13-13.34,.09-.33,.2-.73,.25-.89,.22-.75,.31-2.33,.21-3.29Zm-3.81,3.98c-.25,.62-1.48,2.97-1.96,3.75-3.19,5.16-8.33,10.91-13.24,14.83-.82,.65-1.53,1.21-1.59,1.25-.06,.03-.64-.46-1.3-1.1-1.44-1.38-1.57-1.62-1.48-2.69,.04-.55,.02-.89-.1-1.29-.32-1.08-.28-2,.16-3.03,.41-.98,.82-1.82,1.23-2.53,.9-1.56,1.72-3.22,1.95-3.92,.42-1.34,.34-1.24,1.03-1.24,.72,0,2.31-.23,2.96-.44,.77-.24,1.69-.85,1.85-.96,.12-.09,.23-.2,.5-.35,1.16-.66,2.86-2.02,3.2-3.05,.1-.31,.1-.53,0-1.09-.31-1.83-1.17-3.59-2.39-4.92-.41-.44-.47-.56-.35-.62,.08-.05,.74-.17,1.47-.28,1.71-.25,4.42-.27,5.46-.03,1.45,.33,2.46,.96,3,1.87,.28,.47,.55,1.46,.55,2.01,0,.83-.42,2.59-.93,3.84Z"/><g><g><g/><g><path class="ae" d="M67.32,200.91v3.59c0,.51-.09,.87-.27,1.08s-.43,.32-.75,.32-.56-.11-.74-.32c-.18-.21-.28-.57-.28-1.08v-3.59h-2.24v3.66c0,.99,.28,1.77,.85,2.32,.57,.55,1.36,.83,2.38,.83s1.81-.28,2.38-.83,.85-1.32,.85-2.32v-3.66h-2.2Z"/><path class="ae" d="M74.92,200.91v3.02l-2.53-3.02h-1.84v6.65h2.18v-3.02l2.53,3.02h1.84v-6.65h-2.18Z"/><path class="ae" d="M78.19,200.91v6.65h2.24v-6.65h-2.24Z"/><path class="ae" d="M86.41,200.91l-1.63,3.88-1.58-3.88h-2.41l2.81,6.65h2.2l2.81-6.65h-2.2Z"/><polygon class="ae" points="94.5 205.87 94.5 207.56 88.98 207.56 88.98 200.91 94.38 200.91 94.38 202.6 91.18 202.6 91.18 203.38 93.99 203.38 93.99 204.99 91.18 204.99 91.18 205.87 94.5 205.87"/><path class="ae" d="M100.34,205.51c.37-.19,.67-.45,.88-.77,.25-.37,.37-.81,.37-1.32s-.12-.96-.37-1.33c-.25-.38-.6-.67-1.05-.87-.45-.2-.99-.3-1.61-.3h-3.2v6.65h2.24v-1.67h.61l1.13,1.67h2.39l-1.39-2.04Zm-2.74-2.87h.82c.31,0,.54,.07,.69,.21,.15,.14,.22,.33,.22,.57s-.07,.43-.22,.57-.38,.21-.69,.21h-.82v-1.56Z"/><path class="ae" d="M107.82,204.6c-.13-.23-.31-.42-.53-.57-.22-.15-.46-.26-.72-.35-.26-.09-.52-.16-.78-.21-.26-.05-.5-.1-.72-.14-.22-.04-.39-.1-.53-.17s-.2-.16-.2-.27c0-.08,.03-.15,.08-.21s.14-.11,.27-.15c.13-.04,.3-.06,.51-.06,.29,0,.59,.04,.9,.12,.31,.08,.63,.21,.95,.37l.67-1.62c-.35-.2-.74-.34-1.18-.44-.44-.09-.88-.14-1.33-.14-.68,0-1.26,.1-1.71,.3-.46,.2-.8,.47-1.04,.81-.23,.34-.35,.71-.35,1.13,0,.35,.07,.65,.2,.89s.31,.43,.53,.57c.22,.15,.46,.26,.72,.35,.26,.09,.52,.16,.78,.21,.26,.05,.5,.1,.72,.15,.22,.05,.39,.11,.53,.18,.13,.07,.2,.16,.2,.28,0,.08-.03,.14-.09,.19-.06,.05-.15,.09-.27,.12-.12,.03-.29,.04-.51,.04-.37,0-.75-.06-1.13-.17-.39-.11-.74-.26-1.06-.44l-.72,1.63c.34,.2,.76,.37,1.28,.49,.52,.13,1.06,.19,1.61,.19,.69,0,1.26-.1,1.72-.31,.46-.21,.8-.48,1.03-.82,.23-.34,.35-.71,.35-1.12,0-.35-.07-.64-.2-.87Z"/><polygon class="ae" points="115.97 207.56 113.66 207.56 113.21 206.4 112.59 204.79 111.95 203.11 111.3 204.79 110.68 206.4 110.24 207.56 107.96 207.56 110.87 200.91 113.07 200.91 115.97 207.56"/><path class="ae" d="M118.58,205.82v-4.91h-2.24v6.65h5.24v-1.74h-3Z"/></g><g><path class="ae" d="M131.05,207.71c-.54,0-1.03-.08-1.49-.25-.45-.17-.85-.41-1.18-.72-.33-.31-.59-.68-.77-1.1-.18-.42-.28-.89-.28-1.41s.09-.98,.28-1.41c.18-.42,.44-.79,.78-1.1,.34-.31,.73-.55,1.19-.72,.46-.17,.96-.25,1.51-.25,.66,0,1.25,.11,1.76,.33,.52,.22,.94,.54,1.28,.95l-1.43,1.26c-.21-.24-.44-.42-.68-.55-.24-.12-.51-.19-.81-.19-.25,0-.47,.04-.67,.11-.2,.08-.37,.19-.51,.33-.14,.15-.25,.32-.32,.52-.08,.2-.11,.43-.11,.69s.04,.47,.11,.68c.08,.21,.18,.38,.32,.53,.14,.15,.31,.26,.5,.34,.19,.08,.41,.12,.65,.12,.25,0,.5-.04,.74-.13,.24-.09,.5-.23,.77-.44l1.25,1.54c-.41,.27-.87,.48-1.39,.63-.52,.15-1.02,.22-1.51,.22Zm.95-1.13v-2.53h1.95v2.81l-1.95-.28Z"/><path class="ae" d="M136.62,207.56v-2.92l.51,1.34-3.02-5.07h2.36l2.04,3.47h-1.38l2.06-3.47h2.17l-3,5.07,.49-1.34v2.92h-2.24Z"/><path class="ae" d="M141.65,207.56v-6.65h1.84l2.66,4.34h-.97l2.58-4.34h1.84l.02,6.65h-2.04l-.02-3.57h.32l-1.77,2.97h-.99l-1.84-2.97h.4v3.57h-2.04Z"/></g></g><g><path class="ae" d="M83.72,213.11h0c-.13,.25-.26,.47-.4,.68-.16,.24-.3,.42-.41,.54-.06,.06-.14,.11-.23,.15s-.17,.07-.24,.07c-.02,0-.04,0-.07-.02s-.05-.03-.07-.05c-.08-.09-.15-.32-.2-.7s-.08-.83-.08-1.37c0-.44,.03-.72,.1-.87,.03-.06,.06-.11,.11-.15s.12-.08,.22-.12c.09-.03,.17-.06,.27-.09s.16-.03,.22-.03c.05,0,.08,.01,.11,.03s.04,.06,.04,.1c0,.02,0,.04,0,.07-.03,.15-.07,.37-.1,.65-.02,.18-.04,.33-.04,.45,0,.12-.02,.27-.02,.47,0,.2-.01,.4-.01,.59h0c.07-.09,.15-.2,.24-.33,.03-.05,.06-.1,.09-.14s.06-.09,.09-.15c.08-.14,.14-.27,.2-.4,.03-.06,.06-.12,.08-.18,.25-.55,.42-.87,.52-.96,.05-.04,.13-.08,.25-.12s.23-.06,.33-.06c.06,0,.11,.01,.16,.04s.06,.07,.06,.12c0,.04-.02,.13-.07,.26-.09,.25-.16,.52-.21,.82-.05,.3-.08,.56-.08,.79,0,.47,.09,.7,.27,.7,.05,0,.11-.04,.16-.12,.05-.08,.1-.18,.14-.3s.07-.26,.1-.43,.04-.33,.04-.5c0-.1,0-.22-.01-.36,0-.04,0-.07,0-.11,0-.18,.1-.36,.3-.55,.1-.09,.17-.14,.22-.14,.11,0,.17,.21,.17,.64,0,.31-.03,.6-.1,.88-.08,.33-.2,.62-.34,.85-.08,.13-.17,.25-.27,.37s-.21,.21-.31,.28c-.13,.09-.27,.14-.42,.14-.27,0-.47-.11-.6-.32-.13-.21-.2-.54-.2-.98v-.17Z"/><path class="ae" d="M87.25,213.87c.02,.1,.08,.15,.19,.15,.12,0,.28-.07,.48-.22,.12-.08,.19-.13,.23-.13,.05,0,.1,.01,.14,.04,.04,.03,.06,.05,.06,.08,0,.03-.02,.07-.07,.12-.09,.09-.19,.17-.3,.26s-.22,.15-.33,.21c-.11,.06-.21,.1-.32,.13-.11,.03-.2,.05-.28,.05-.21,0-.37-.06-.49-.18s-.19-.27-.19-.47c0-.15,.03-.32,.1-.51,.07-.19,.15-.37,.26-.53,.13-.19,.29-.35,.48-.48,.23-.15,.46-.23,.67-.23,.15,0,.28,.05,.36,.15,.09,.1,.13,.23,.13,.4,0,.13-.04,.27-.11,.42-.07,.15-.17,.28-.31,.42-.11,.11-.22,.2-.33,.26-.11,.06-.2,.09-.28,.09-.04,0-.07,0-.11-.03Zm0-.08c.08-.05,.13-.1,.17-.15,.09-.11,.15-.23,.2-.37,.04-.09,.07-.19,.09-.3,.02-.11,.03-.22,.03-.31,0-.09-.02-.14-.06-.14-.05,0-.13,.12-.24,.35-.06,.14-.12,.28-.16,.42-.04,.14-.06,.26-.06,.36,0,.03,0,.08,.02,.15Z"/><path class="ae" d="M93.31,213.27l.05-.11c.39-.88,.67-1.45,.85-1.71,.03-.04,.05-.06,.07-.09s.04-.04,.07-.06c.03-.02,.06-.03,.1-.05,.12-.05,.27-.08,.46-.08,.1,0,.16,0,.18,.02,.03,.02,.04,.05,.04,.11,0,.04,0,.09,0,.14-.01,.3-.02,.51-.02,.63,0,.32,.02,.62,.06,.9,.03,.16,.07,.32,.12,.48,.06,.15,.11,.26,.17,.33,.06,.09,.12,.15,.16,.19,.05,.05,.08,.09,.08,.12,0,.05-.04,.12-.13,.21-.15,.14-.29,.21-.44,.21-.21,0-.39-.09-.56-.26-.09-.09-.15-.18-.2-.29-.05-.1-.09-.23-.11-.39s-.04-.35-.05-.59c-.01-.26-.02-.4-.02-.44h0c-.1,.2-.19,.37-.26,.5s-.13,.24-.17,.33c-.04,.09-.1,.19-.15,.31-.19,.39-.31,.62-.37,.7l-.02,.02s-.02,.02-.03,.03c-.03,.03-.06,.05-.1,.06s-.07,.02-.09,.02c-.07,0-.15-.04-.23-.13s-.16-.2-.22-.34c-.06-.15-.12-.29-.16-.44-.04-.15-.08-.33-.11-.54-.03-.21-.06-.46-.08-.76h0l-.11,.24c-.02,.05-.06,.14-.11,.25s-.08,.18-.09,.2c-.07,.15-.14,.3-.21,.46-.07,.15-.13,.27-.18,.35s-.1,.16-.15,.25c-.02,.04-.07,.09-.13,.16-.1,.09-.2,.16-.32,.22-.12,.05-.22,.08-.33,.08-.04,0-.07,0-.1-.03s-.04-.05-.04-.08c0-.03,.02-.07,.07-.11,.02-.03,.08-.11,.16-.23l.14-.22c.09-.13,.22-.37,.4-.71l.12-.22c.28-.53,.46-.89,.56-1.09s.15-.31,.15-.34c0-.03-.02-.07-.07-.12-.04-.03-.06-.06-.06-.08,0-.04,.05-.07,.14-.1,.1-.03,.2-.05,.31-.05,.23,0,.39,.05,.48,.15,.06,.06,.11,.19,.17,.37s.1,.45,.15,.8v.07s.01,.02,.01,.03c0,.05,.01,.08,.01,.09,.03,.21,.06,.35,.08,.41,.02,.06,.04,.12,.08,.16Z"/><path class="ae" d="M97.84,213.84h0c-.15,.18-.29,.33-.42,.44-.13,.11-.25,.2-.35,.26-.11,.06-.21,.09-.3,.09-.18,0-.34-.06-.46-.19-.12-.12-.18-.28-.18-.47,0-.12,.03-.26,.09-.42s.14-.32,.24-.47c.17-.25,.39-.46,.65-.64,.27-.18,.53-.27,.78-.27,.21,0,.38,.04,.52,.13s.2,.2,.2,.33c0,.1-.03,.2-.1,.31,.09,0,.15,0,.17,.03,.02,.02,.03,.06,.03,.13,0,0,0,.03-.01,.1,0,.16-.01,.32-.01,.46,0,.07,0,.13,0,.17,0,.04,0,.08,0,.13s0,.09,.01,.12c.01,.08,.03,.15,.06,.23-.1,.1-.19,.17-.28,.21-.09,.05-.18,.07-.28,.07-.25,0-.38-.21-.38-.64,0-.05,0-.09,0-.12Zm.15-.57h-.05c-.12,.05-.2,.06-.26,.06-.06,0-.1-.02-.1-.05,0-.01,.01-.04,.04-.09,.09-.14,.14-.27,.14-.4,0-.07-.01-.14-.04-.19s-.05-.09-.08-.09c-.03,0-.07,.03-.12,.08-.15,.17-.27,.34-.36,.51-.09,.17-.13,.33-.13,.47,0,.09,.02,.17,.06,.23s.08,.09,.14,.09c.05,0,.14-.05,.27-.15s.28-.24,.44-.41l.07-.05h0Z"/><path class="ae" d="M101.55,215c-.23,.3-.41,.45-.53,.45-.09,0-.18-.03-.28-.1s-.19-.16-.27-.28-.15-.24-.2-.38-.07-.26-.07-.39c0-.07,.01-.12,.03-.14,0,0,.03-.03,.07-.05,.28-.17,.42-.33,.42-.49,0-.08-.04-.12-.11-.12-.08,0-.17,.07-.29,.22-.12,.15-.23,.32-.33,.54-.06,.13-.11,.22-.15,.25-.04,.03-.1,.05-.18,.05-.09,0-.16-.02-.23-.07s-.11-.12-.15-.21c-.04-.09-.05-.19-.05-.31,0-.18,.02-.37,.07-.58s.11-.42,.19-.64c.08-.21,.18-.42,.29-.62,.11-.2,.23-.38,.35-.54,.24-.3,.47-.45,.69-.45,.11,0,.21,.03,.3,.08,.09,.05,.16,.12,.2,.22,.05,.09,.07,.2,.07,.33,0,.15-.04,.31-.11,.46-.08,.15-.17,.28-.3,.37s-.24,.14-.36,.14c-.06,0-.09-.02-.09-.06,0-.02,.01-.06,.04-.12,.15-.29,.22-.61,.22-.98,0-.09-.01-.14-.03-.14-.02,0-.04,.02-.08,.07-.03,.05-.07,.11-.1,.18-.18,.41-.31,.88-.39,1.41,0,.03-.01,.07-.02,.11,0,.05-.01,.1-.02,.16h0c.07-.09,.12-.16,.17-.2,.04-.05,.1-.1,.17-.15,.22-.17,.43-.26,.62-.26,.1,0,.18,.03,.24,.09,.06,.06,.1,.13,.1,.22,0,.22-.07,.45-.21,.69-.04,.07-.09,.14-.14,.21-.05,.07-.13,.15-.22,.26,.06,.1,.13,.2,.2,.3,.07,.09,.15,.18,.26,.27,.09,.07,.15,.14,.19,.21Z"/><path class="ae" d="M102.84,213.87c.02,.1,.08,.15,.19,.15,.12,0,.28-.07,.48-.22,.12-.08,.19-.13,.23-.13,.05,0,.1,.01,.14,.04,.04,.03,.06,.05,.06,.08,0,.03-.02,.07-.07,.12-.09,.09-.19,.17-.3,.26s-.22,.15-.33,.21c-.11,.06-.21,.1-.32,.13-.11,.03-.2,.05-.28,.05-.21,0-.37-.06-.49-.18s-.19-.27-.19-.47c0-.15,.03-.32,.1-.51,.07-.19,.15-.37,.26-.53,.13-.19,.29-.35,.48-.48,.23-.15,.46-.23,.67-.23,.15,0,.28,.05,.36,.15,.09,.1,.13,.23,.13,.4,0,.13-.04,.27-.11,.42-.07,.15-.17,.28-.31,.42-.11,.11-.22,.2-.33,.26-.11,.06-.2,.09-.28,.09-.04,0-.07,0-.11-.03Zm0-.08c.08-.05,.13-.1,.17-.15,.09-.11,.15-.23,.2-.37,.04-.09,.07-.19,.09-.3,.02-.11,.03-.22,.03-.31,0-.09-.02-.14-.06-.14-.05,0-.13,.12-.24,.35-.06,.14-.12,.28-.16,.42-.04,.14-.06,.26-.06,.36,0,.03,0,.08,.02,.15Z"/><path class="ae" d="M107.35,212.18c.13,0,.23,.04,.3,.11s.11,.16,.11,.27c0,.1-.03,.2-.09,.3s-.13,.18-.22,.25-.17,.1-.26,.1c-.05,0-.08-.02-.08-.05,0-.01,0-.04,.03-.09,.06-.11,.1-.23,.1-.38,0-.07,0-.11-.02-.11-.02,0-.06,.03-.1,.09-.04,.06-.08,.13-.11,.21-.05,.13-.09,.26-.13,.41-.03,.14-.05,.26-.05,.36,0,.11,.02,.2,.05,.26,.03,.06,.08,.1,.14,.1,.06,0,.13-.03,.23-.09s.18-.13,.27-.22c.03-.04,.07-.07,.09-.07,.04,0,.06,.02,.06,.07,0,.2-.08,.39-.24,.55-.11,.11-.23,.2-.37,.26s-.27,.1-.38,.1c-.2,0-.36-.06-.49-.19-.13-.12-.2-.28-.2-.47s.04-.39,.12-.59c.08-.21,.2-.4,.34-.59,.14-.19,.31-.34,.49-.47,.13-.09,.26-.13,.39-.13h0Z"/><path class="ae" d="M109.86,211.55v-.04c0-.06,0-.09-.02-.09-.02,0-.05,.03-.1,.1s-.09,.14-.12,.22c-.09,.21-.17,.42-.24,.65s-.12,.46-.16,.69c-.01,.09-.03,.19-.04,.29h.01c.16-.16,.29-.28,.37-.35s.19-.15,.31-.24c.16-.11,.3-.17,.4-.17,.07,0,.12,.02,.16,.07s.06,.12,.06,.2c0,.05,0,.12-.03,.21-.03,.19-.05,.36-.05,.49,0,.06,0,.13,.01,.19,0,.05,.04,.16,.08,.32,.04,.12,.06,.19,.06,.2,0,.02-.03,.05-.08,.08-.17,.12-.34,.17-.48,.17-.12,0-.22-.06-.29-.18-.08-.12-.11-.27-.11-.46,0-.07,0-.16,.02-.27h-.01c-.23,.23-.39,.39-.47,.48-.29,.28-.52,.43-.68,.43-.07,0-.13-.05-.18-.14s-.07-.22-.07-.38c0-.33,.1-.76,.31-1.28,.08-.2,.17-.39,.26-.58s.18-.34,.26-.48c.06-.09,.12-.18,.19-.25s.13-.13,.2-.18,.14-.08,.21-.11,.14-.03,.21-.03c.18,0,.32,.05,.43,.16s.17,.25,.17,.42c0,.12-.03,.24-.1,.38s-.16,.26-.28,.38c-.08,.08-.17,.14-.26,.2s-.17,.09-.23,.09c-.02,0-.03,0-.04-.02s-.02-.03-.02-.04c0-.02,.02-.08,.06-.16,.05-.09,.1-.2,.15-.33s.08-.26,.11-.37,.04-.22,.04-.3Z"/><path class="ae" d="M112.67,213.84h0c-.15,.18-.29,.33-.42,.44s-.25,.2-.35,.26-.21,.09-.3,.09c-.18,0-.34-.06-.46-.19s-.18-.28-.18-.47c0-.12,.03-.26,.09-.42s.14-.32,.24-.47c.17-.25,.39-.46,.65-.64,.27-.18,.53-.27,.78-.27,.21,0,.38,.04,.52,.13s.2,.2,.2,.33c0,.1-.03,.2-.1,.31,.09,0,.15,0,.17,.03s.03,.06,.03,.13c0,0,0,.03-.01,.1,0,.16-.01,.32-.01,.46,0,.07,0,.13,0,.17s0,.08,0,.13,0,.09,.01,.12c.01,.08,.03,.15,.06,.23-.1,.1-.19,.17-.28,.21s-.18,.07-.28,.07c-.25,0-.38-.21-.38-.64,0-.05,0-.09,0-.12Zm.15-.57h-.05c-.12,.05-.2,.06-.26,.06-.06,0-.1-.02-.1-.05,0-.01,.01-.04,.04-.09,.09-.14,.14-.27,.14-.4,0-.07-.01-.14-.04-.19s-.05-.09-.08-.09c-.03,0-.07,.03-.12,.08-.15,.17-.27,.34-.36,.51s-.13,.33-.13,.47c0,.09,.02,.17,.06,.23s.08,.09,.14,.09c.05,0,.14-.05,.27-.15s.28-.24,.44-.41l.07-.05h0Z"/><path class="ae" d="M116.73,213.67l-.68,.69c-.09,.09-.16,.15-.21,.18s-.11,.05-.18,.05c-.1,0-.19-.04-.25-.11s-.1-.17-.1-.28c0-.07,.01-.14,.03-.22s.06-.2,.12-.36c.01-.03,.02-.06,.03-.09s.02-.04,.03-.06h0c-.16,.16-.32,.34-.47,.52-.13,.15-.23,.27-.31,.34s-.14,.13-.21,.17-.12,.06-.16,.06c-.11,0-.19-.04-.25-.13s-.09-.2-.09-.34c0-.18,.08-.48,.24-.89,.14-.36,.25-.61,.33-.73,.11-.17,.24-.26,.39-.26,.09,0,.16,.02,.22,.06,.06,.04,.09,.1,.09,.16,0,.12-.05,.31-.14,.57-.04,.09-.07,.2-.11,.32h0c.06-.06,.16-.17,.29-.34,.23-.29,.41-.48,.53-.59,.15-.14,.29-.21,.42-.21,.06,0,.11,.02,.16,.06,.05,.04,.09,.09,.12,.15,.03,.06,.05,.13,.05,.2s-.05,.25-.15,.54c-.02,.06-.04,.11-.05,.14-.01,.03-.02,.06-.03,.09h.01l.06-.05s.04-.04,.06-.06l.06-.06s.16-.16,.34-.34c.12-.13,.21-.22,.28-.27s.13-.07,.2-.07c.1,0,.18,.04,.23,.11s.08,.17,.08,.31c0,.08-.01,.22-.04,.4-.02,.2-.04,.36-.05,.48s-.01,.2-.01,.24c0,.03,0,.08,0,.13s.01,.11,.02,.17,.02,.13,.04,.2c.02,.09,.03,.16,.04,.21-.01,.06-.06,.11-.13,.15s-.15,.06-.24,.06c-.14,0-.26-.06-.38-.18-.05-.06-.09-.11-.12-.17s-.05-.12-.06-.2-.02-.18-.02-.31c0-.08,0-.26,.03-.52h0l-.04,.05Z"/><path class="ae" d="M119.37,212.94l.08-.14c.07-.13,.14-.23,.2-.32,.06-.09,.12-.15,.16-.19,.05-.04,.1-.07,.17-.1,.05-.02,.11-.03,.18-.03,.13,0,.24,.04,.33,.11s.17,.18,.22,.32c.05,.14,.08,.3,.08,.48,0,.26-.06,.51-.17,.75-.12,.24-.27,.43-.46,.58s-.38,.22-.59,.22c-.12,0-.21-.02-.29-.07-.08-.05-.15-.13-.22-.25l-.02,.04v.05c-.12,.34-.21,.6-.27,.76s-.12,.26-.16,.3c-.04,.03-.08,.05-.13,.05-.09,0-.17-.05-.22-.14s-.08-.22-.08-.39c0-.18,.02-.4,.06-.65s.09-.51,.16-.78,.15-.5,.23-.72c.06-.13,.12-.25,.18-.35,.07-.1,.13-.17,.19-.22,.04-.03,.09-.04,.14-.04,.08,0,.13,.02,.18,.06s.06,.1,.06,.18c0,.06,0,.14-.02,.21,0,.08-.02,.16-.03,.26h0Zm-.19,1.07c.05,.14,.13,.2,.26,.2,.09,0,.18-.04,.25-.12s.14-.19,.19-.33,.07-.29,.07-.44c0-.12,0-.23-.03-.32s-.04-.13-.06-.13c-.02,0-.06,.04-.13,.13s-.14,.19-.2,.3c-.14,.22-.24,.42-.31,.59-.02,.04-.03,.08-.04,.11Z"/><path class="ae" d="M121.6,214.59c-.07,0-.14-.04-.2-.1-.06-.07-.1-.14-.13-.21-.03-.08-.04-.18-.04-.3,0-.27,.05-.58,.15-.92s.22-.59,.34-.74c.05-.06,.12-.1,.21-.1,.1,0,.17,.04,.23,.13,.06,.09,.09,.2,.09,.34,0,.21-.03,.45-.09,.74-.06,.28-.14,.57-.25,.88-.04,.12-.1,.2-.16,.25-.04,.03-.09,.04-.15,.04h0Zm.3-2.49c-.15,0-.23-.1-.23-.28,0-.09,.02-.2,.07-.32s.1-.21,.15-.27c.03-.03,.06-.05,.09-.07s.07-.02,.12-.02c.08,0,.14,.02,.18,.06s.06,.11,.06,.2c0,.12-.02,.23-.06,.33s-.09,.19-.16,.25-.14,.1-.21,.1h0Z"/><path class="ae" d="M124.4,212.08c.25,0,.37,.03,.37,.09,0,.07-.06,.1-.17,.11-.13,0-.26,.05-.37,.11s-.22,.16-.31,.28-.16,.25-.21,.4-.08,.3-.08,.46c0,.18,.04,.32,.13,.43s.19,.16,.33,.16c.13,0,.23-.06,.33-.19s.14-.28,.14-.45c0-.14-.03-.27-.09-.39s-.14-.23-.26-.31c-.05-.04-.07-.07-.07-.08,0-.02,.03-.06,.1-.11,.08-.05,.16-.09,.25-.13s.17-.05,.24-.05c.07,0,.14,.02,.21,.06s.13,.09,.18,.17,.09,.15,.12,.25,.04,.19,.04,.3c0,.17-.03,.35-.1,.52s-.15,.31-.26,.41c-.14,.13-.31,.24-.5,.33s-.38,.13-.56,.13-.34-.03-.51-.09-.3-.14-.4-.23c-.13-.13-.2-.32-.2-.56,0-.19,.05-.38,.14-.57s.22-.36,.38-.52,.34-.28,.53-.37,.39-.13,.59-.13Z"/><path class="ae" d="M126.81,213.26l.15-.17c.15-.17,.27-.29,.36-.37,.09-.08,.17-.14,.24-.18s.14-.05,.21-.05c.12,0,.2,.03,.25,.09s.07,.17,.07,.33c0,.06,0,.16-.02,.28-.02,.17-.03,.32-.03,.47,0,.16,0,.3,.02,.4,.01,.06,.03,.13,.05,.19,.02,.06,.02,.1,.02,.12,0,.03,0,.05-.03,.06-.05,.04-.12,.08-.2,.12s-.15,.05-.21,.05c-.09,0-.18-.03-.26-.1s-.14-.15-.18-.27-.06-.24-.06-.39c0-.1,0-.21,.03-.34h0c-.07,.07-.13,.13-.17,.18s-.08,.09-.12,.13c-.18,.21-.34,.4-.47,.57-.05,.07-.09,.12-.14,.17-.06,.06-.13,.09-.21,.09-.11,0-.19-.04-.26-.12s-.1-.18-.1-.31c0-.08,0-.17,.03-.28s.04-.23,.07-.36,.07-.26,.11-.39,.09-.26,.14-.39c.08-.2,.17-.36,.28-.47,.07-.07,.16-.11,.27-.11,.17,0,.26,.11,.26,.33,0,.16-.03,.4-.1,.7h0Z"/><path class="ae" d="M129.32,214.67c.1,0,.19-.05,.27-.14s.12-.19,.12-.29c0-.07-.02-.13-.07-.17-.05-.05-.17-.1-.34-.15-.26-.08-.43-.16-.51-.25-.07-.08-.11-.17-.11-.27,0-.19,.07-.38,.21-.57s.31-.35,.53-.47,.43-.18,.65-.18c.11,0,.2,.02,.3,.07s.17,.12,.22,.2,.08,.17,.08,.27-.03,.19-.09,.29-.13,.18-.22,.25-.18,.1-.26,.1c-.05,0-.09,0-.12-.03s-.05-.04-.05-.06,0-.06,.02-.1c.04-.14,.05-.27,.05-.37s-.03-.2-.09-.29c-.08,.06-.13,.1-.16,.13-.06,.07-.11,.15-.15,.25-.04,.09-.06,.18-.06,.27,0,.06,.01,.11,.04,.14,.03,.04,.07,.07,.13,.09,.06,.02,.16,.05,.28,.08,.21,.05,.36,.1,.44,.15,.02,.01,.05,.04,.09,.07,.06,.07,.09,.16,.09,.26,0,.11-.04,.23-.11,.35s-.18,.24-.33,.36c-.16,.13-.32,.23-.47,.29-.16,.06-.33,.09-.52,.09s-.33-.04-.43-.11-.16-.17-.16-.3c0-.09,.03-.18,.1-.27s.16-.17,.26-.22,.2-.09,.3-.09c.07,0,.11,.02,.11,.05,0,.02-.01,.04-.03,.08-.06,.12-.1,.22-.1,.32,0,.07,.03,.14,.08,.2Z"/></g></g></g><g class="ab"><path class="ae" d="M323.56,227.7c-.17-1.54-.58-2.45-1.52-3.39-1.3-1.3-3.23-1.9-6.08-1.9-1.96,0-4.85,.39-6.48,.88-.32,.09-.33,.09-.86-.62-.84-1.12-1.31-1.53-1.93-1.71-.68-.2-1.49-.34-2.17-.39-.45-.03-.55,0-.7,.19-.1,.12-.27,.26-.39,.29-.3,.1-.49,.44-.62,1.1-.16,.84-.05,1.13,.09,1.46,.13,.32,.17,.35,.22,.41,.13,.16,.15,.17,.5,.22,.35,.06,.16,.12,.56,.01,.18-.05,.44-.29,.65-.36,.22-.07,.56-.24,.75-.37,.21-.14,.43-.21,.52-.18,.14,.05,.56,.62,.56,.76,0,.03-.59,.3-1.32,.61-1.43,.61-2.9,1.39-4.24,2.27-1.46,.95-2.51,1.86-2.35,2.02,.02,.02,.56-.33,1.21-.76,.95-.64,2.74-1.6,4.07-2.18,.83-.36,2.62-.98,2.83-.99,.13,0,.19,.27,.33,1.41,.16,1.32,.29,2.11,.42,2.62,.05,.21,.04,.21-.37,.12-.61-.14-2-.02-2.46,.21-.21,.1-.52,.35-.69,.55-.3,.34-.32,.35-.59,.22-.43-.22-1.45-.34-2.09-.24-.63,.1-1.82,.72-2.37,1.23-.23,.21-.34,.27-.38,.18-.03-.07-.17-.16-.33-.19-.15-.04-.38-.13-.5-.2-.21-.13-.22-.19-.22-1.58s0-1.44,.23-1.53c.27-.1,.32-.2,.41-.84,.05-.31,.15-.73,.06-.83-.1-.12-.2-.04-.02-.54,.12-.34,.27-.72,.33-.84,.06-.12,.14-.81,.15-1.18,0-.4,.1-.39-.01-.65-.18-1.29-1.57-2.3-3.27-2.32-.02,0-.04,0-.06,0-.36,0-.71,.04-1.04,.13-1.34,.34-2.31,1.32-2.31,2.47,0,.11,0,.22,.03,.33,0,.2,0,.42,.03,.69,.06,.61,.23,1.21,.12,1.51-.18,.48-.12,.89,.01,1.28,.06,.18,.21,.31,.4,.34h0l-.05,1.24c-.03,.68-.08,1.32-.12,1.42-.07,.16-1.11,.76-1.31,.76-.04,0-.17-.16-.27-.36-.33-.61-1.17-1.38-1.69-1.56-.56-.19-.96-.2-1.78-.02-.35,.07-.65,.24-.77,.4-.55-.68-1.25-1.31-1.73-1.54-.57-.28-1.1-.28-1.85-.01-.55,.2-.81,.17-.35-.03,.14-.06,.34-.36,.54-.84,.29-.67,.32-.84,.32-1.74v-1l.79-.94c.44-.52,.79-.97,.79-1.01,0-.04,.07-.07,.15-.07s.15,.04,.15,.09,.09,.12,.2,.16c.11,.03,.33,.18,.5,.32,.24,.2,.5,.62,.86,.64,0,.02,0,.04,.03,.05,.9,.33,1.2,.12,1.99-.79,.27-.31,.05-1.16-.12-1.73-.06-.18-.29-.48-.54-.68-.43-.35-.46-.36-1.8-.49-2.12-.21-1.92-.25-2.79,.58-.95,.91-1.54,1.39-2.54,2.05-.96,.64-2.39,2.06-2.8,2.79-.39,.69-.68,1.57-.87,2.59-.08,.45-.18,.92-.21,1.05-.1,.37,.16,1.11,.54,1.49,.25,.25,.61,.48,.97,.63,.16,.26,.95,.73,1.53,1.18,1.31,1.02,2.79,1.85,4.09,2.28,1.41,.48,1.54,.6,1.82,1.79,.44,1.89,.78,2.9,1.51,4.47,1.18,2.52,1.61,3.59,1.7,4.19,.05,.34,.06,1.47,.04,2.51l-.05,1.89-.42,1.04c-.47,1.16-1.07,2.89-1.24,3.57-.42,1.73-.68,3.27-.8,4.81-.06,.71-.13,1.41-.16,1.56-.06,.29-.15,.33-1.33,.63-.35,.09-.8,.2-.99,.25-.83,.22-2.45,.39-3.63,.39-3.59,0-5.88-1.44-6.54-4.09-.19-.75-.16-2.47,.04-3.45,.11-.53,.52-1.83,.7-2.23,.86-1.94,1.48-3.07,2.61-4.76,.65-.96,2.5-3.41,2.74-3.62,.03-.03,.21-.23,.39-.45,.95-1.12,2.78-3.03,4.31-4.5,.59-.57,.77-.81,.6-.81-.03,0-.56,.33-1.17,.74-4.42,2.96-8.54,7.58-10.81,12.12-.54,1.08-1.22,2.7-1.37,3.26-.04,.16-.15,.57-.24,.89-.22,.83-.44,2.37-.44,3.08-.01,2.15,.94,4.23,2.45,5.34,1.34,.98,3.43,1.64,5.73,1.79,1.41,.1,3.92-.07,5.9-.4,6.1-1,12.98-4.74,21.14-11.49,2.65-2.2,5.92-5.34,7.9-7.61,4.19-4.8,7.1-9.57,8.13-13.34,.09-.33,.2-.73,.25-.89,.22-.75,.31-2.33,.21-3.29Zm-3.81,3.98c-.25,.62-1.48,2.97-1.96,3.75-3.19,5.16-8.33,10.91-13.24,14.83-.82,.65-1.53,1.21-1.59,1.25-.06,.03-.64-.46-1.3-1.1-1.44-1.38-1.57-1.62-1.48-2.69,.04-.55,.02-.89-.1-1.29-.32-1.08-.28-2,.16-3.03,.41-.98,.82-1.82,1.23-2.53,.9-1.56,1.72-3.22,1.95-3.92,.42-1.34,.34-1.24,1.03-1.24,.72,0,2.31-.23,2.96-.44,.77-.24,1.69-.85,1.85-.96,.12-.09,.23-.2,.5-.35,1.16-.66,2.86-2.02,3.2-3.05,.1-.31,.1-.53,0-1.09-.31-1.83-1.17-3.59-2.39-4.92-.41-.44-.47-.56-.35-.62,.08-.05,.74-.17,1.47-.28,1.71-.25,4.42-.27,5.46-.03,1.45,.33,2.46,.96,3,1.87,.28,.47,.55,1.46,.55,2.01,0,.83-.42,2.59-.93,3.84Z"/><g><g><g/><g><path class="ae" d="M258.72,269.08v3.59c0,.51-.09,.87-.27,1.08s-.43,.32-.75,.32-.56-.11-.74-.32c-.18-.21-.28-.57-.28-1.08v-3.59h-2.24v3.66c0,.99,.28,1.77,.85,2.32,.57,.55,1.36,.83,2.38,.83s1.81-.28,2.38-.83,.85-1.32,.85-2.32v-3.66h-2.2Z"/><path class="ae" d="M266.31,269.08v3.02l-2.53-3.02h-1.84v6.65h2.18v-3.02l2.53,3.02h1.84v-6.65h-2.18Z"/><path class="ae" d="M269.58,269.08v6.65h2.24v-6.65h-2.24Z"/><path class="ae" d="M277.8,269.08l-1.63,3.88-1.58-3.88h-2.41l2.81,6.65h2.2l2.81-6.65h-2.2Z"/><polygon class="ae" points="285.9 274.04 285.9 275.73 280.37 275.73 280.37 269.08 285.77 269.08 285.77 270.77 282.57 270.77 282.57 271.55 285.38 271.55 285.38 273.17 282.57 273.17 282.57 274.04 285.9 274.04"/><path class="ae" d="M291.74,273.69c.37-.19,.67-.45,.88-.77,.25-.37,.37-.81,.37-1.32s-.12-.96-.37-1.33c-.25-.38-.6-.67-1.05-.87-.45-.2-.99-.3-1.61-.3h-3.2v6.65h2.24v-1.67h.61l1.13,1.67h2.39l-1.39-2.04Zm-2.74-2.87h.82c.31,0,.54,.07,.69,.21,.15,.14,.22,.33,.22,.57s-.07,.43-.22,.57-.38,.21-.69,.21h-.82v-1.56Z"/><path class="ae" d="M299.21,272.77c-.13-.23-.31-.42-.53-.57-.22-.15-.46-.26-.72-.35-.26-.09-.52-.16-.78-.21-.26-.05-.5-.1-.72-.14-.22-.04-.39-.1-.53-.17s-.2-.16-.2-.27c0-.08,.03-.15,.08-.21s.14-.11,.27-.15c.13-.04,.3-.06,.51-.06,.29,0,.59,.04,.9,.12,.31,.08,.63,.21,.95,.37l.67-1.62c-.35-.2-.74-.34-1.18-.44-.44-.09-.88-.14-1.33-.14-.68,0-1.26,.1-1.71,.3-.46,.2-.8,.47-1.04,.81-.23,.34-.35,.71-.35,1.13,0,.35,.07,.65,.2,.89s.31,.43,.53,.57c.22,.15,.46,.26,.72,.35,.26,.09,.52,.16,.78,.21,.26,.05,.5,.1,.72,.15,.22,.05,.39,.11,.53,.18,.13,.07,.2,.16,.2,.28,0,.08-.03,.14-.09,.19-.06,.05-.15,.09-.27,.12-.12,.03-.29,.04-.51,.04-.37,0-.75-.06-1.13-.17-.39-.11-.74-.26-1.06-.44l-.72,1.63c.34,.2,.76,.37,1.28,.49,.52,.13,1.06,.19,1.61,.19,.69,0,1.26-.1,1.72-.31,.46-.21,.8-.48,1.03-.82,.23-.34,.35-.71,.35-1.12,0-.35-.07-.64-.2-.87Z"/><polygon class="ae" points="307.37 275.73 305.05 275.73 304.61 274.57 303.99 272.96 303.34 271.28 302.7 272.96 302.08 274.57 301.63 275.73 299.35 275.73 302.26 269.08 304.46 269.08 307.37 275.73"/><path class="ae" d="M309.97,273.99v-4.91h-2.24v6.65h5.24v-1.74h-3Z"/></g><g><path class="ae" d="M322.45,275.88c-.54,0-1.03-.08-1.49-.25-.45-.17-.85-.41-1.18-.72-.33-.31-.59-.68-.77-1.1-.18-.42-.28-.89-.28-1.41s.09-.98,.28-1.41c.18-.42,.44-.79,.78-1.1,.34-.31,.73-.55,1.19-.72,.46-.17,.96-.25,1.51-.25,.66,0,1.25,.11,1.76,.33,.52,.22,.94,.54,1.28,.95l-1.43,1.26c-.21-.24-.44-.42-.68-.55-.24-.12-.51-.19-.81-.19-.25,0-.47,.04-.67,.11-.2,.08-.37,.19-.51,.33-.14,.15-.25,.32-.32,.52-.08,.2-.11,.43-.11,.69s.04,.47,.11,.68c.08,.21,.18,.38,.32,.53,.14,.15,.31,.26,.5,.34,.19,.08,.41,.12,.65,.12,.25,0,.5-.04,.74-.13,.24-.09,.5-.23,.77-.44l1.25,1.54c-.41,.27-.87,.48-1.39,.63-.52,.15-1.02,.22-1.51,.22Zm.95-1.13v-2.53h1.95v2.81l-1.95-.28Z"/><path class="ae" d="M328.01,275.73v-2.92l.51,1.34-3.02-5.07h2.36l2.04,3.47h-1.38l2.06-3.47h2.17l-3,5.07,.49-1.34v2.92h-2.24Z"/><path class="ae" d="M333.04,275.73v-6.65h1.84l2.66,4.34h-.97l2.58-4.34h1.84l.02,6.65h-2.04l-.02-3.57h.32l-1.77,2.97h-.99l-1.84-2.97h.4v3.57h-2.04Z"/></g></g><g><path class="ae" d="M275.11,281.28h0c-.13,.25-.26,.47-.4,.68-.16,.24-.3,.42-.41,.54-.06,.06-.14,.11-.23,.15s-.17,.07-.24,.07c-.02,0-.04,0-.07-.02s-.05-.03-.07-.05c-.08-.09-.15-.32-.2-.7s-.08-.83-.08-1.37c0-.44,.03-.72,.1-.87,.03-.06,.06-.11,.11-.15s.12-.08,.22-.12c.09-.03,.17-.06,.27-.09s.16-.03,.22-.03c.05,0,.08,.01,.11,.03s.04,.06,.04,.1c0,.02,0,.04,0,.07-.03,.15-.07,.37-.1,.65-.02,.18-.04,.33-.04,.45,0,.12-.02,.27-.02,.47,0,.2-.01,.4-.01,.59h0c.07-.09,.15-.2,.24-.33,.03-.05,.06-.1,.09-.14s.06-.09,.09-.15c.08-.14,.14-.27,.2-.4,.03-.06,.06-.12,.08-.18,.25-.55,.42-.87,.52-.96,.05-.04,.13-.08,.25-.12s.23-.06,.33-.06c.06,0,.11,.01,.16,.04s.06,.07,.06,.12c0,.04-.02,.13-.07,.26-.09,.25-.16,.52-.21,.82-.05,.3-.08,.56-.08,.79,0,.47,.09,.7,.27,.7,.05,0,.11-.04,.16-.12,.05-.08,.1-.18,.14-.3s.07-.26,.1-.43,.04-.33,.04-.5c0-.1,0-.22-.01-.36,0-.04,0-.07,0-.11,0-.18,.1-.36,.3-.55,.1-.09,.17-.14,.22-.14,.11,0,.17,.21,.17,.64,0,.31-.03,.6-.1,.88-.08,.33-.2,.62-.34,.85-.08,.13-.17,.25-.27,.37s-.21,.21-.31,.28c-.13,.09-.27,.14-.42,.14-.27,0-.47-.11-.6-.32-.13-.21-.2-.54-.2-.98v-.17Z"/><path class="ae" d="M278.64,282.05c.02,.1,.08,.15,.19,.15,.12,0,.28-.07,.48-.22,.12-.08,.19-.13,.23-.13,.05,0,.1,.01,.14,.04,.04,.03,.06,.05,.06,.08,0,.03-.02,.07-.07,.12-.09,.09-.19,.17-.3,.26s-.22,.15-.33,.21c-.11,.06-.21,.1-.32,.13-.11,.03-.2,.05-.28,.05-.21,0-.37-.06-.49-.18s-.19-.27-.19-.47c0-.15,.03-.32,.1-.51,.07-.19,.15-.37,.26-.53,.13-.19,.29-.35,.48-.48,.23-.15,.46-.23,.67-.23,.15,0,.28,.05,.36,.15,.09,.1,.13,.23,.13,.4,0,.13-.04,.27-.11,.42-.07,.15-.17,.28-.31,.42-.11,.11-.22,.2-.33,.26-.11,.06-.2,.09-.28,.09-.04,0-.07,0-.11-.03Zm0-.08c.08-.05,.13-.1,.17-.15,.09-.11,.15-.23,.2-.37,.04-.09,.07-.19,.09-.3,.02-.11,.03-.22,.03-.31,0-.09-.02-.14-.06-.14-.05,0-.13,.12-.24,.35-.06,.14-.12,.28-.16,.42-.04,.14-.06,.26-.06,.36,0,.03,0,.08,.02,.15Z"/><path class="ae" d="M284.71,281.44l.05-.11c.39-.88,.67-1.45,.85-1.71,.03-.04,.05-.06,.07-.09s.04-.04,.07-.06c.03-.02,.06-.03,.1-.05,.12-.05,.27-.08,.46-.08,.1,0,.16,0,.18,.02,.03,.02,.04,.05,.04,.11,0,.04,0,.09,0,.14-.01,.3-.02,.51-.02,.63,0,.32,.02,.62,.06,.9,.03,.16,.07,.32,.12,.48,.06,.15,.11,.26,.17,.33,.06,.09,.12,.15,.16,.19,.05,.05,.08,.09,.08,.12,0,.05-.04,.12-.13,.21-.15,.14-.29,.21-.44,.21-.21,0-.39-.09-.56-.26-.09-.09-.15-.18-.2-.29-.05-.1-.09-.23-.11-.39s-.04-.35-.05-.59c-.01-.26-.02-.4-.02-.44h0c-.1,.2-.19,.37-.26,.5s-.13,.24-.17,.33c-.04,.09-.1,.19-.15,.31-.19,.39-.31,.62-.37,.7l-.02,.02s-.02,.02-.03,.03c-.03,.03-.06,.05-.1,.06s-.07,.02-.09,.02c-.07,0-.15-.04-.23-.13s-.16-.2-.22-.34c-.06-.15-.12-.29-.16-.44-.04-.15-.08-.33-.11-.54-.03-.21-.06-.46-.08-.76h0l-.11,.24c-.02,.05-.06,.14-.11,.25s-.08,.18-.09,.2c-.07,.15-.14,.3-.21,.46-.07,.15-.13,.27-.18,.35s-.1,.16-.15,.25c-.02,.04-.07,.09-.13,.16-.1,.09-.2,.16-.32,.22-.12,.05-.22,.08-.33,.08-.04,0-.07,0-.1-.03s-.04-.05-.04-.08c0-.03,.02-.07,.07-.11,.02-.03,.08-.11,.16-.23l.14-.22c.09-.13,.22-.37,.4-.71l.12-.22c.28-.53,.46-.89,.56-1.09s.15-.31,.15-.34c0-.03-.02-.07-.07-.12-.04-.03-.06-.06-.06-.08,0-.04,.05-.07,.14-.1,.1-.03,.2-.05,.31-.05,.23,0,.39,.05,.48,.15,.06,.06,.11,.19,.17,.37s.1,.45,.15,.8v.07s.01,.02,.01,.03c0,.05,.01,.08,.01,.09,.03,.21,.06,.35,.08,.41,.02,.06,.04,.12,.08,.16Z"/><path class="ae" d="M289.23,282.02h0c-.15,.18-.29,.33-.42,.44-.13,.11-.25,.2-.35,.26-.11,.06-.21,.09-.3,.09-.18,0-.34-.06-.46-.19-.12-.12-.18-.28-.18-.47,0-.12,.03-.26,.09-.42s.14-.32,.24-.47c.17-.25,.39-.46,.65-.64,.27-.18,.53-.27,.78-.27,.21,0,.38,.04,.52,.13s.2,.2,.2,.33c0,.1-.03,.2-.1,.31,.09,0,.15,0,.17,.03,.02,.02,.03,.06,.03,.13,0,0,0,.03-.01,.1,0,.16-.01,.32-.01,.46,0,.07,0,.13,0,.17,0,.04,0,.08,0,.13s0,.09,.01,.12c.01,.08,.03,.15,.06,.23-.1,.1-.19,.17-.28,.21-.09,.05-.18,.07-.28,.07-.25,0-.38-.21-.38-.64,0-.05,0-.09,0-.12Zm.15-.57h-.05c-.12,.05-.2,.06-.26,.06-.06,0-.1-.02-.1-.05,0-.01,.01-.04,.04-.09,.09-.14,.14-.27,.14-.4,0-.07-.01-.14-.04-.19s-.05-.09-.08-.09c-.03,0-.07,.03-.12,.08-.15,.17-.27,.34-.36,.51-.09,.17-.13,.33-.13,.47,0,.09,.02,.17,.06,.23s.08,.09,.14,.09c.05,0,.14-.05,.27-.15s.28-.24,.44-.41l.07-.05h0Z"/><path class="ae" d="M292.94,283.18c-.23,.3-.41,.45-.53,.45-.09,0-.18-.03-.28-.1s-.19-.16-.27-.28-.15-.24-.2-.38-.07-.26-.07-.39c0-.07,.01-.12,.03-.14,0,0,.03-.03,.07-.05,.28-.17,.42-.33,.42-.49,0-.08-.04-.12-.11-.12-.08,0-.17,.07-.29,.22-.12,.15-.23,.32-.33,.54-.06,.13-.11,.22-.15,.25-.04,.03-.1,.05-.18,.05-.09,0-.16-.02-.23-.07s-.11-.12-.15-.21c-.04-.09-.05-.19-.05-.31,0-.18,.02-.37,.07-.58s.11-.42,.19-.64c.08-.21,.18-.42,.29-.62,.11-.2,.23-.38,.35-.54,.24-.3,.47-.45,.69-.45,.11,0,.21,.03,.3,.08,.09,.05,.16,.12,.2,.22,.05,.09,.07,.2,.07,.33,0,.15-.04,.31-.11,.46-.08,.15-.17,.28-.3,.37s-.24,.14-.36,.14c-.06,0-.09-.02-.09-.06,0-.02,.01-.06,.04-.12,.15-.29,.22-.61,.22-.98,0-.09-.01-.14-.03-.14-.02,0-.04,.02-.08,.07-.03,.05-.07,.11-.1,.18-.18,.41-.31,.88-.39,1.41,0,.03-.01,.07-.02,.11,0,.05-.01,.1-.02,.16h0c.07-.09,.12-.16,.17-.2,.04-.05,.1-.1,.17-.15,.22-.17,.43-.26,.62-.26,.1,0,.18,.03,.24,.09,.06,.06,.1,.13,.1,.22,0,.22-.07,.45-.21,.69-.04,.07-.09,.14-.14,.21-.05,.07-.13,.15-.22,.26,.06,.1,.13,.2,.2,.3,.07,.09,.15,.18,.26,.27,.09,.07,.15,.14,.19,.21Z"/><path class="ae" d="M294.23,282.05c.02,.1,.08,.15,.19,.15,.12,0,.28-.07,.48-.22,.12-.08,.19-.13,.23-.13,.05,0,.1,.01,.14,.04,.04,.03,.06,.05,.06,.08,0,.03-.02,.07-.07,.12-.09,.09-.19,.17-.3,.26s-.22,.15-.33,.21c-.11,.06-.21,.1-.32,.13-.11,.03-.2,.05-.28,.05-.21,0-.37-.06-.49-.18s-.19-.27-.19-.47c0-.15,.03-.32,.1-.51,.07-.19,.15-.37,.26-.53,.13-.19,.29-.35,.48-.48,.23-.15,.46-.23,.67-.23,.15,0,.28,.05,.36,.15,.09,.1,.13,.23,.13,.4,0,.13-.04,.27-.11,.42-.07,.15-.17,.28-.31,.42-.11,.11-.22,.2-.33,.26-.11,.06-.2,.09-.28,.09-.04,0-.07,0-.11-.03Zm0-.08c.08-.05,.13-.1,.17-.15,.09-.11,.15-.23,.2-.37,.04-.09,.07-.19,.09-.3,.02-.11,.03-.22,.03-.31,0-.09-.02-.14-.06-.14-.05,0-.13,.12-.24,.35-.06,.14-.12,.28-.16,.42-.04,.14-.06,.26-.06,.36,0,.03,0,.08,.02,.15Z"/><path class="ae" d="M298.74,280.35c.13,0,.23,.04,.3,.11s.11,.16,.11,.27c0,.1-.03,.2-.09,.3s-.13,.18-.22,.25-.17,.1-.26,.1c-.05,0-.08-.02-.08-.05,0-.01,0-.04,.03-.09,.06-.11,.1-.23,.1-.38,0-.07,0-.11-.02-.11-.02,0-.06,.03-.1,.09-.04,.06-.08,.13-.11,.21-.05,.13-.09,.26-.13,.41-.03,.14-.05,.26-.05,.36,0,.11,.02,.2,.05,.26,.03,.06,.08,.1,.14,.1,.06,0,.13-.03,.23-.09s.18-.13,.27-.22c.03-.04,.07-.07,.09-.07,.04,0,.06,.02,.06,.07,0,.2-.08,.39-.24,.55-.11,.11-.23,.2-.37,.26s-.27,.1-.38,.1c-.2,0-.36-.06-.49-.19-.13-.12-.2-.28-.2-.47s.04-.39,.12-.59c.08-.21,.2-.4,.34-.59,.14-.19,.31-.34,.49-.47,.13-.09,.26-.13,.39-.13h0Z"/><path class="ae" d="M301.25,279.72v-.04c0-.06,0-.09-.02-.09-.02,0-.05,.03-.1,.1s-.09,.14-.12,.22c-.09,.21-.17,.42-.24,.65s-.12,.46-.16,.69c-.01,.09-.03,.19-.04,.29h.01c.16-.16,.29-.28,.37-.35s.19-.15,.31-.24c.16-.11,.3-.17,.4-.17,.07,0,.12,.02,.16,.07s.06,.12,.06,.2c0,.05,0,.12-.03,.21-.03,.19-.05,.36-.05,.49,0,.06,0,.13,.01,.19,0,.05,.04,.16,.08,.32,.04,.12,.06,.19,.06,.2,0,.02-.03,.05-.08,.08-.17,.12-.34,.17-.48,.17-.12,0-.22-.06-.29-.18-.08-.12-.11-.27-.11-.46,0-.07,0-.16,.02-.27h-.01c-.23,.23-.39,.39-.47,.48-.29,.28-.52,.43-.68,.43-.07,0-.13-.05-.18-.14s-.07-.22-.07-.38c0-.33,.1-.76,.31-1.28,.08-.2,.17-.39,.26-.58s.18-.34,.26-.48c.06-.09,.12-.18,.19-.25s.13-.13,.2-.18,.14-.08,.21-.11,.14-.03,.21-.03c.18,0,.32,.05,.43,.16s.17,.25,.17,.42c0,.12-.03,.24-.1,.38s-.16,.26-.28,.38c-.08,.08-.17,.14-.26,.2s-.17,.09-.23,.09c-.02,0-.03,0-.04-.02s-.02-.03-.02-.04c0-.02,.02-.08,.06-.16,.05-.09,.1-.2,.15-.33s.08-.26,.11-.37,.04-.22,.04-.3Z"/><path class="ae" d="M304.07,282.02h0c-.15,.18-.29,.33-.42,.44s-.25,.2-.35,.26-.21,.09-.3,.09c-.18,0-.34-.06-.46-.19s-.18-.28-.18-.47c0-.12,.03-.26,.09-.42s.14-.32,.24-.47c.17-.25,.39-.46,.65-.64,.27-.18,.53-.27,.78-.27,.21,0,.38,.04,.52,.13s.2,.2,.2,.33c0,.1-.03,.2-.1,.31,.09,0,.15,0,.17,.03s.03,.06,.03,.13c0,0,0,.03-.01,.1,0,.16-.01,.32-.01,.46,0,.07,0,.13,0,.17s0,.08,0,.13,0,.09,.01,.12c.01,.08,.03,.15,.06,.23-.1,.1-.19,.17-.28,.21s-.18,.07-.28,.07c-.25,0-.38-.21-.38-.64,0-.05,0-.09,0-.12Zm.15-.57h-.05c-.12,.05-.2,.06-.26,.06-.06,0-.1-.02-.1-.05,0-.01,.01-.04,.04-.09,.09-.14,.14-.27,.14-.4,0-.07-.01-.14-.04-.19s-.05-.09-.08-.09c-.03,0-.07,.03-.12,.08-.15,.17-.27,.34-.36,.51s-.13,.33-.13,.47c0,.09,.02,.17,.06,.23s.08,.09,.14,.09c.05,0,.14-.05,.27-.15s.28-.24,.44-.41l.07-.05h0Z"/><path class="ae" d="M308.12,281.84l-.68,.69c-.09,.09-.16,.15-.21,.18s-.11,.05-.18,.05c-.1,0-.19-.04-.25-.11s-.1-.17-.1-.28c0-.07,.01-.14,.03-.22s.06-.2,.12-.36c.01-.03,.02-.06,.03-.09s.02-.04,.03-.06h0c-.16,.16-.32,.34-.47,.52-.13,.15-.23,.27-.31,.34s-.14,.13-.21,.17-.12,.06-.16,.06c-.11,0-.19-.04-.25-.13s-.09-.2-.09-.34c0-.18,.08-.48,.24-.89,.14-.36,.25-.61,.33-.73,.11-.17,.24-.26,.39-.26,.09,0,.16,.02,.22,.06,.06,.04,.09,.1,.09,.16,0,.12-.05,.31-.14,.57-.04,.09-.07,.2-.11,.32h0c.06-.06,.16-.17,.29-.34,.23-.29,.41-.48,.53-.59,.15-.14,.29-.21,.42-.21,.06,0,.11,.02,.16,.06,.05,.04,.09,.09,.12,.15,.03,.06,.05,.13,.05,.2s-.05,.25-.15,.54c-.02,.06-.04,.11-.05,.14-.01,.03-.02,.06-.03,.09h.01l.06-.05s.04-.04,.06-.06l.06-.06s.16-.16,.34-.34c.12-.13,.21-.22,.28-.27s.13-.07,.2-.07c.1,0,.18,.04,.23,.11s.08,.17,.08,.31c0,.08-.01,.22-.04,.4-.02,.2-.04,.36-.05,.48s-.01,.2-.01,.24c0,.03,0,.08,0,.13s.01,.11,.02,.17,.02,.13,.04,.2c.02,.09,.03,.16,.04,.21-.01,.06-.06,.11-.13,.15s-.15,.06-.24,.06c-.14,0-.26-.06-.38-.18-.05-.06-.09-.11-.12-.17s-.05-.12-.06-.2-.02-.18-.02-.31c0-.08,0-.26,.03-.52h0l-.04,.05Z"/><path class="ae" d="M310.76,281.12l.08-.14c.07-.13,.14-.23,.2-.32,.06-.09,.12-.15,.16-.19,.05-.04,.1-.07,.17-.1,.05-.02,.11-.03,.18-.03,.13,0,.24,.04,.33,.11s.17,.18,.22,.32c.05,.14,.08,.3,.08,.48,0,.26-.06,.51-.17,.75-.12,.24-.27,.43-.46,.58s-.38,.22-.59,.22c-.12,0-.21-.02-.29-.07-.08-.05-.15-.13-.22-.25l-.02,.04v.05c-.12,.34-.21,.6-.27,.76s-.12,.26-.16,.3c-.04,.03-.08,.05-.13,.05-.09,0-.17-.05-.22-.14s-.08-.22-.08-.39c0-.18,.02-.4,.06-.65s.09-.51,.16-.78,.15-.5,.23-.72c.06-.13,.12-.25,.18-.35,.07-.1,.13-.17,.19-.22,.04-.03,.09-.04,.14-.04,.08,0,.13,.02,.18,.06s.06,.1,.06,.18c0,.06,0,.14-.02,.21,0,.08-.02,.16-.03,.26h0Zm-.19,1.07c.05,.14,.13,.2,.26,.2,.09,0,.18-.04,.25-.12s.14-.19,.19-.33,.07-.29,.07-.44c0-.12,0-.23-.03-.32s-.04-.13-.06-.13c-.02,0-.06,.04-.13,.13s-.14,.19-.2,.3c-.14,.22-.24,.42-.31,.59-.02,.04-.03,.08-.04,.11Z"/><path class="ae" d="M312.99,282.76c-.07,0-.14-.04-.2-.1-.06-.07-.1-.14-.13-.21-.03-.08-.04-.18-.04-.3,0-.27,.05-.58,.15-.92s.22-.59,.34-.74c.05-.06,.12-.1,.21-.1,.1,0,.17,.04,.23,.13,.06,.09,.09,.2,.09,.34,0,.21-.03,.45-.09,.74-.06,.28-.14,.57-.25,.88-.04,.12-.1,.2-.16,.25-.04,.03-.09,.04-.15,.04h0Zm.3-2.49c-.15,0-.23-.1-.23-.28,0-.09,.02-.2,.07-.32s.1-.21,.15-.27c.03-.03,.06-.05,.09-.07s.07-.02,.12-.02c.08,0,.14,.02,.18,.06s.06,.11,.06,.2c0,.12-.02,.23-.06,.33s-.09,.19-.16,.25-.14,.1-.21,.1h0Z"/><path class="ae" d="M315.8,280.25c.25,0,.37,.03,.37,.09,0,.07-.06,.1-.17,.11-.13,0-.26,.05-.37,.11s-.22,.16-.31,.28-.16,.25-.21,.4-.08,.3-.08,.46c0,.18,.04,.32,.13,.43s.19,.16,.33,.16c.13,0,.23-.06,.33-.19s.14-.28,.14-.45c0-.14-.03-.27-.09-.39s-.14-.23-.26-.31c-.05-.04-.07-.07-.07-.08,0-.02,.03-.06,.1-.11,.08-.05,.16-.09,.25-.13s.17-.05,.24-.05c.07,0,.14,.02,.21,.06s.13,.09,.18,.17,.09,.15,.12,.25,.04,.19,.04,.3c0,.17-.03,.35-.1,.52s-.15,.31-.26,.41c-.14,.13-.31,.24-.5,.33s-.38,.13-.56,.13-.34-.03-.51-.09-.3-.14-.4-.23c-.13-.13-.2-.32-.2-.56,0-.19,.05-.38,.14-.57s.22-.36,.38-.52,.34-.28,.53-.37,.39-.13,.59-.13Z"/><path class="ae" d="M318.21,281.43l.15-.17c.15-.17,.27-.29,.36-.37,.09-.08,.17-.14,.24-.18s.14-.05,.21-.05c.12,0,.2,.03,.25,.09s.07,.17,.07,.33c0,.06,0,.16-.02,.28-.02,.17-.03,.32-.03,.47,0,.16,0,.3,.02,.4,.01,.06,.03,.13,.05,.19,.02,.06,.02,.1,.02,.12,0,.03,0,.05-.03,.06-.05,.04-.12,.08-.2,.12s-.15,.05-.21,.05c-.09,0-.18-.03-.26-.1s-.14-.15-.18-.27-.06-.24-.06-.39c0-.1,0-.21,.03-.34h0c-.07,.07-.13,.13-.17,.18s-.08,.09-.12,.13c-.18,.21-.34,.4-.47,.57-.05,.07-.09,.12-.14,.17-.06,.06-.13,.09-.21,.09-.11,0-.19-.04-.26-.12s-.1-.18-.1-.31c0-.08,0-.17,.03-.28s.04-.23,.07-.36,.07-.26,.11-.39,.09-.26,.14-.39c.08-.2,.17-.36,.28-.47,.07-.07,.16-.11,.27-.11,.17,0,.26,.11,.26,.33,0,.16-.03,.4-.1,.7h0Z"/><path class="ae" d="M320.72,282.84c.1,0,.19-.05,.27-.14s.12-.19,.12-.29c0-.07-.02-.13-.07-.17-.05-.05-.17-.1-.34-.15-.26-.08-.43-.16-.51-.25-.07-.08-.11-.17-.11-.27,0-.19,.07-.38,.21-.57s.31-.35,.53-.47,.43-.18,.65-.18c.11,0,.2,.02,.3,.07s.17,.12,.22,.2,.08,.17,.08,.27-.03,.19-.09,.29-.13,.18-.22,.25-.18,.1-.26,.1c-.05,0-.09,0-.12-.03s-.05-.04-.05-.06,0-.06,.02-.1c.04-.14,.05-.27,.05-.37s-.03-.2-.09-.29c-.08,.06-.13,.1-.16,.13-.06,.07-.11,.15-.15,.25-.04,.09-.06,.18-.06,.27,0,.06,.01,.11,.04,.14,.03,.04,.07,.07,.13,.09,.06,.02,.16,.05,.28,.08,.21,.05,.36,.1,.44,.15,.02,.01,.05,.04,.09,.07,.06,.07,.09,.16,.09,.26,0,.11-.04,.23-.11,.35s-.18,.24-.33,.36c-.16,.13-.32,.23-.47,.29-.16,.06-.33,.09-.52,.09s-.33-.04-.43-.11-.16-.17-.16-.3c0-.09,.03-.18,.1-.27s.16-.17,.26-.22,.2-.09,.3-.09c.07,0,.11,.02,.11,.05,0,.02-.01,.04-.03,.08-.06,.12-.1,.22-.1,.32,0,.07,.03,.14,.08,.2Z"/></g></g></g></svg>