<?xml version="1.0" encoding="UTF-8"?><svg id="a" xmlns="http://www.w3.org/2000/svg" xmlns:xlink="http://www.w3.org/1999/xlink" viewBox="0 0 2500 2500"><defs><style>.h{filter:url(#b);}.i{filter:url(#d);}.j{filter:url(#f);}.k{fill:#fffdf7;}</style><filter id="b" filterUnits="userSpaceOnUse"><feOffset dx="7" dy="7"/><feGaussianBlur result="c" stdDeviation="5"/><feFlood flood-color="#000" flood-opacity=".75"/><feComposite in2="c" operator="in"/><feComposite in="SourceGraphic"/></filter><filter id="d" filterUnits="userSpaceOnUse"><feOffset dx="7" dy="7"/><feGaussianBlur result="e" stdDeviation="5"/><feFlood flood-color="#000" flood-opacity=".75"/><feComposite in2="e" operator="in"/><feComposite in="SourceGraphic"/></filter><filter id="f" filterUnits="userSpaceOnUse"><feOffset dx="7" dy="7"/><feGaussianBlur result="g" stdDeviation="5"/><feFlood flood-color="#000" flood-opacity=".75"/><feComposite in2="g" operator="in"/><feComposite in="SourceGraphic"/></filter></defs><image transform="translate(854.21 38.6) scale(.4)" xlink:href="../../../Downloads/47796b499ae32588bccf59ae17a7ef24.png"/><image transform="translate(162.79 1351.44) scale(.28)" xlink:href="../../../Downloads/c84ce051c055dc78f960a5759cd47659.png"/><image transform="translate(1384.15 1497.19) scale(.24)" xlink:href="../../../Downloads/183063c2923d2081ba415e2a14a29ebc.png"/><g class="h"><path class="k" d="M1956.59,1716.23c-.67-6.02-2.26-9.58-5.93-13.24-5.08-5.08-12.63-7.44-23.78-7.42-7.67,0-18.96,1.54-25.31,3.44-1.24,.37-1.29,.34-3.35-2.41-3.29-4.37-5.1-5.98-7.55-6.69-2.64-.77-5.81-1.34-8.48-1.52-1.75-.12-2.13-.02-2.73,.75-.39,.49-1.07,1-1.52,1.15-1.18,.38-1.93,1.72-2.41,4.31-.61,3.27-.19,4.41,.36,5.72,.51,1.24,.66,1.36,.85,1.6,.51,.64,.57,.65,1.95,.87,1.36,.22,.64,.48,2.2,.04,.72-.2,1.7-1.13,2.56-1.41,.85-.28,2.18-.93,2.94-1.45,.81-.54,1.66-.84,2.03-.7,.55,.21,2.2,2.44,2.2,2.98,0,.11-2.32,1.18-5.16,2.38-5.58,2.37-11.34,5.44-16.58,8.85-5.69,3.71-9.83,7.27-9.19,7.9,.06,.06,2.19-1.28,4.73-2.98,3.71-2.49,10.73-6.25,15.92-8.52,3.24-1.42,10.22-3.85,11.08-3.85,.49,0,.73,1.06,1.28,5.52,.63,5.17,1.12,8.25,1.65,10.24,.21,.81,.16,.82-1.46,.45-2.39-.56-7.8-.09-9.6,.83-.81,.41-2.02,1.37-2.69,2.14-1.17,1.33-1.27,1.37-2.29,.84-1.68-.87-5.67-1.33-8.16-.94-2.44,.38-7.11,2.8-9.25,4.8-.88,.83-1.33,1.04-1.47,.69-.11-.28-.68-.62-1.28-.75-.6-.14-1.48-.5-1.96-.8-.84-.52-.87-.76-.87-6.17s.01-5.63,.92-5.97c1.05-.4,1.25-.79,1.62-3.27,.18-1.22,.57-2.86,.25-3.25-.39-.47-.77-.17-.08-2.13,.47-1.33,1.05-2.82,1.28-3.3,.23-.48,.55-3.17,.57-4.6,.02-1.56,.39-1.54-.05-2.55-.69-5.04-6.14-8.98-12.79-9.07-.08,0-.15,0-.23,0-1.42,0-2.79,.18-4.07,.5-5.24,1.33-9.03,5.15-9.03,9.66,0,.44,.04,.87,.11,1.29-.02,.78,.04,1.65,.13,2.7,.22,2.38,.91,4.74,.47,5.91-.72,1.88-.46,3.47,.05,5.01,.23,.7,.83,1.21,1.55,1.34h0l-.19,4.85c-.11,2.67-.32,5.16-.48,5.55-.26,.62-4.33,2.99-5.13,2.99-.17,0-.65-.63-1.07-1.4-1.28-2.37-4.57-5.41-6.62-6.11-2.18-.74-3.77-.76-6.95-.09-1.39,.29-2.55,.95-3,1.57-2.15-2.67-4.88-5.11-6.76-6.01-2.24-1.08-4.3-1.1-7.22-.05-2.14,.76-3.17,.68-1.36-.12,.56-.25,1.31-1.4,2.13-3.29,1.14-2.63,1.26-3.28,1.26-6.8v-3.89l3.11-3.67c1.71-2.02,3.1-3.8,3.1-3.96,0-.16,.27-.29,.59-.29s.58,.16,.58,.36,.35,.47,.78,.61c.43,.14,1.31,.69,1.95,1.23,.95,.8,1.95,2.44,3.36,2.5,0,.09,.03,.16,.12,.19,3.51,1.28,4.68,.47,7.79-3.09,1.07-1.22,.21-4.52-.48-6.75-.22-.71-1.13-1.87-2.11-2.67-1.69-1.38-1.81-1.41-7.05-1.92-8.27-.8-7.51-.96-10.9,2.28-3.73,3.57-6.03,5.42-9.94,8.02-3.76,2.49-9.34,8.06-10.95,10.91-1.52,2.71-2.67,6.13-3.39,10.12-.32,1.77-.69,3.6-.83,4.09-.41,1.46,.63,4.34,2.1,5.81,.97,.97,2.39,1.86,3.81,2.45,.62,1.01,3.73,2.85,5.99,4.61,5.1,3.97,10.91,7.21,15.97,8.92,5.51,1.86,6.02,2.36,7.1,7,1.71,7.39,3.05,11.34,5.91,17.45,4.61,9.86,6.31,14.05,6.63,16.38,.18,1.33,.25,5.74,.15,9.8l-.19,7.37-1.66,4.07c-1.85,4.54-4.2,11.3-4.84,13.96-1.64,6.74-2.64,12.8-3.11,18.81-.22,2.77-.49,5.51-.61,6.09-.23,1.12-.58,1.29-5.2,2.45-1.39,.35-3.13,.79-3.88,.99-3.26,.85-9.59,1.53-14.2,1.53-14.01-.02-22.97-5.64-25.55-15.99-.73-2.93-.64-9.65,.17-13.47,.44-2.07,2.03-7.15,2.73-8.73,3.35-7.58,5.78-12,10.21-18.62,2.52-3.76,9.77-13.33,10.71-14.16,.12-.11,.81-.89,1.54-1.75,3.71-4.37,10.85-11.83,16.86-17.59,2.31-2.21,3.01-3.16,2.34-3.16-.13,0-2.18,1.31-4.56,2.9-17.28,11.58-33.39,29.64-42.26,47.37-2.11,4.22-4.78,10.56-5.36,12.75-.17,.64-.59,2.21-.92,3.49-.86,3.24-1.72,9.25-1.74,12.05-.04,8.4,3.69,16.52,9.59,20.85,5.23,3.84,13.39,6.4,22.39,7.01,5.49,.38,15.31-.28,23.08-1.55,23.84-3.9,50.72-18.52,82.61-44.92,10.37-8.59,23.12-20.88,30.86-29.75,16.38-18.77,27.73-37.39,31.78-52.12,.35-1.28,.79-2.85,.98-3.49,.84-2.93,1.23-9.09,.81-12.87Zm-14.9,15.56c-.97,2.42-5.77,11.61-7.66,14.66-12.48,20.16-32.55,42.64-51.75,57.95-3.2,2.55-6,4.74-6.21,4.87-.22,.13-2.51-1.81-5.1-4.3-5.62-5.41-6.12-6.33-5.78-10.52,.18-2.14,.07-3.47-.4-5.04-1.27-4.24-1.08-7.8,.61-11.83,1.6-3.81,3.21-7.11,4.81-9.89,3.51-6.09,6.73-12.58,7.6-15.32,1.66-5.24,1.34-4.85,4.02-4.85,2.82,0,9.01-.92,11.55-1.71,3-.93,6.6-3.31,7.21-3.77,.48-.36,.89-.76,1.96-1.37,4.53-2.59,11.18-7.88,12.49-11.92,.39-1.21,.39-2.08,.02-4.27-1.23-7.16-4.57-14.04-9.34-19.21-1.59-1.72-1.84-2.17-1.36-2.44,.32-.18,2.9-.67,5.73-1.09,6.68-.98,17.29-1.05,21.36-.13,5.68,1.28,9.62,3.74,11.71,7.32,1.09,1.85,2.13,5.71,2.13,7.87,0,3.24-1.66,10.11-3.62,14.99Z"/><g><g><g/><g><path class="k" d="M1703.15,1877.96v14.03c0,1.98-.35,3.38-1.06,4.21s-1.68,1.24-2.91,1.24-2.18-.41-2.89-1.24c-.72-.83-1.08-2.23-1.08-4.21v-14.03h-8.76v14.29c0,3.88,1.11,6.9,3.34,9.06,2.23,2.15,5.33,3.23,9.32,3.23s7.09-1.08,9.32-3.23c2.23-2.15,3.34-5.17,3.34-9.06v-14.29h-8.61Z"/><path class="k" d="M1732.84,1877.96v11.81l-9.87-11.81h-7.2v25.98h8.54v-11.81l9.87,11.81h7.2v-25.98h-8.54Z"/><path class="k" d="M1745.61,1877.96v25.98h8.76v-25.98h-8.76Z"/><path class="k" d="M1777.75,1877.96l-6.36,15.16-6.18-15.16h-9.43l10.99,25.98h8.61l10.99-25.98h-8.61Z"/><polygon class="k" points="1809.37 1897.34 1809.37 1903.95 1787.77 1903.95 1787.77 1877.96 1808.89 1877.96 1808.89 1884.57 1796.38 1884.57 1796.38 1887.61 1807.37 1887.61 1807.37 1893.92 1796.38 1893.92 1796.38 1897.34 1809.37 1897.34"/><path class="k" d="M1832.2,1895.96c1.46-.75,2.6-1.75,3.45-3.01,.96-1.45,1.45-3.17,1.45-5.18s-.48-3.74-1.45-5.21c-.96-1.47-2.33-2.6-4.1-3.4-1.77-.79-3.87-1.19-6.29-1.19h-12.51v25.98h8.76v-6.53h2.39l4.41,6.53h9.35l-5.45-7.99Zm-10.69-11.24h3.19c1.21,0,2.11,.27,2.69,.82,.58,.54,.87,1.29,.87,2.23s-.29,1.68-.87,2.23-1.48,.82-2.69,.82h-3.19v-6.09Z"/><path class="k" d="M1861.41,1892.37c-.52-.92-1.21-1.66-2.06-2.23-.85-.57-1.79-1.03-2.8-1.37-1.01-.35-2.04-.62-3.06-.82-1.03-.2-1.97-.38-2.82-.56-.85-.17-1.54-.39-2.06-.65s-.78-.61-.78-1.06c0-.3,.11-.57,.32-.82s.56-.45,1.06-.59c.49-.15,1.16-.22,2-.22,1.14,0,2.31,.16,3.51,.48,1.2,.32,2.44,.8,3.73,1.45l2.64-6.35c-1.36-.77-2.89-1.34-4.6-1.71-1.71-.37-3.44-.56-5.2-.56-2.67,0-4.91,.4-6.7,1.19-1.79,.79-3.14,1.85-4.05,3.17-.9,1.32-1.35,2.79-1.35,4.4,0,1.39,.26,2.54,.78,3.47s1.21,1.68,2.06,2.25c.85,.57,1.79,1.03,2.82,1.37,1.03,.35,2.05,.62,3.06,.84,1.01,.21,1.95,.41,2.8,.59,.85,.19,1.54,.41,2.06,.69,.52,.27,.78,.64,.78,1.11,0,.3-.11,.55-.33,.76-.22,.21-.58,.37-1.06,.48-.48,.11-1.14,.17-1.99,.17-1.44,0-2.91-.22-4.44-.65-1.52-.43-2.9-1.01-4.14-1.73l-2.82,6.38c1.31,.79,2.98,1.44,5.01,1.93,2.03,.49,4.13,.74,6.31,.74,2.7,0,4.94-.4,6.72-1.21,1.78-.8,3.12-1.87,4.03-3.19,.9-1.32,1.35-2.78,1.35-4.36,0-1.36-.26-2.5-.78-3.41Z"/><polygon class="k" points="1893.29 1903.95 1884.23 1903.95 1882.49 1899.42 1880.07 1893.11 1877.55 1886.56 1875.04 1893.11 1872.61 1899.42 1870.87 1903.95 1861.96 1903.95 1873.32 1877.96 1881.93 1877.96 1893.29 1903.95"/><path class="k" d="M1903.46,1897.15v-19.19h-8.76v25.98h20.49v-6.79h-11.73Z"/></g><g><path class="k" d="M1952.21,1904.54c-2.1,0-4.04-.33-5.81-.98-1.77-.66-3.3-1.59-4.6-2.8-1.3-1.21-2.31-2.65-3.02-4.31-.72-1.66-1.08-3.49-1.08-5.49s.36-3.84,1.08-5.49c.72-1.66,1.73-3.09,3.04-4.31,1.31-1.21,2.86-2.15,4.66-2.8,1.79-.66,3.77-.98,5.92-.98,2.57,0,4.87,.43,6.88,1.3,2.02,.87,3.68,2.1,4.99,3.71l-5.6,4.94c-.82-.94-1.7-1.65-2.65-2.13-.95-.48-2.01-.72-3.17-.72-.97,0-1.84,.15-2.62,.45-.78,.3-1.44,.73-1.99,1.3-.54,.57-.96,1.25-1.26,2.04-.3,.79-.45,1.7-.45,2.71s.15,1.85,.45,2.65c.3,.8,.72,1.49,1.26,2.06,.54,.57,1.19,1.01,1.95,1.32,.75,.31,1.6,.46,2.54,.46,.99,0,1.95-.17,2.89-.5,.94-.33,1.94-.91,3.01-1.73l4.9,6.01c-1.58,1.06-3.39,1.88-5.42,2.45-2.03,.57-4,.85-5.9,.85Zm3.71-4.42v-9.87h7.61v10.99l-7.61-1.11Z"/><path class="k" d="M1973.96,1903.95v-11.39l2,5.23-11.8-19.82h9.24l7.98,13.55h-5.38l8.05-13.55h8.46l-11.73,19.82,1.93-5.23v11.39h-8.76Z"/><path class="k" d="M1993.63,1903.95v-25.98h7.2l10.39,16.96h-3.79l10.1-16.96h7.2l.07,25.98h-7.98l-.07-13.96h1.26l-6.9,11.62h-3.86l-7.2-11.62h1.56v13.96h-7.98Z"/></g></g><g><path class="k" d="M1767.22,1925.62h-.04c-.5,.97-1.01,1.85-1.55,2.66-.64,.95-1.18,1.66-1.62,2.12-.24,.23-.54,.42-.89,.59s-.66,.26-.92,.26c-.06,0-.15-.02-.26-.06s-.19-.1-.26-.18c-.33-.35-.59-1.26-.79-2.73-.2-1.47-.3-3.25-.3-5.34,0-1.7,.13-2.83,.38-3.39,.1-.24,.25-.43,.44-.59s.48-.31,.86-.45c.33-.14,.68-.25,1.04-.34s.64-.14,.85-.14c.18,0,.32,.05,.43,.14s.16,.22,.16,.38c0,.06-.01,.15-.04,.26-.14,.6-.26,1.44-.38,2.53-.08,.72-.14,1.31-.17,1.76-.03,.45-.06,1.07-.09,1.85-.03,.78-.04,1.55-.05,2.31l.04,.04c.29-.37,.6-.82,.93-1.34,.12-.19,.23-.37,.34-.54s.23-.36,.36-.59c.3-.53,.56-1.04,.79-1.55,.12-.23,.22-.47,.31-.71,.97-2.15,1.65-3.4,2.04-3.74,.18-.16,.51-.31,.99-.46s.91-.22,1.29-.22c.25,0,.45,.06,.61,.17s.24,.26,.24,.45c0,.17-.09,.5-.26,1.01-.34,.97-.61,2.04-.82,3.19-.21,1.15-.31,2.18-.31,3.08,0,1.84,.36,2.75,1.07,2.75,.21,0,.41-.15,.63-.46,.21-.31,.39-.7,.54-1.18s.28-1.03,.38-1.67,.15-1.29,.15-1.96c0-.4-.02-.87-.06-1.42-.01-.15-.02-.29-.02-.42,0-.71,.39-1.42,1.17-2.15,.38-.37,.66-.55,.85-.55,.44,0,.67,.84,.67,2.51,0,1.19-.13,2.33-.39,3.42-.32,1.31-.77,2.42-1.33,3.33-.3,.5-.65,.97-1.06,1.43s-.81,.82-1.21,1.1c-.51,.35-1.05,.53-1.62,.53-1.06,0-1.84-.41-2.36-1.23-.52-.82-.77-2.09-.77-3.81v-.66Z"/><path class="k" d="M1781.03,1928.63c.07,.39,.32,.58,.75,.58,.48,0,1.11-.28,1.88-.85,.45-.33,.75-.49,.91-.49,.19,0,.37,.05,.54,.15,.17,.1,.25,.21,.25,.32,0,.12-.09,.27-.28,.45-.34,.34-.73,.67-1.18,1s-.87,.6-1.29,.81c-.41,.22-.82,.39-1.24,.51-.41,.13-.78,.19-1.1,.19-.81,0-1.45-.23-1.93-.69s-.72-1.07-.72-1.84c0-.59,.13-1.25,.38-1.99,.25-.74,.6-1.43,1.03-2.07,.51-.75,1.13-1.38,1.88-1.88,.91-.61,1.79-.91,2.63-.91,.61,0,1.08,.19,1.43,.58,.34,.38,.52,.91,.52,1.58,0,.52-.14,1.07-.41,1.63-.27,.57-.68,1.11-1.21,1.63-.44,.44-.87,.78-1.29,1.02-.42,.24-.79,.37-1.11,.37-.14,0-.29-.04-.43-.11Zm-.02-.31c.3-.2,.52-.4,.68-.6,.34-.42,.61-.9,.79-1.44,.15-.35,.26-.75,.35-1.19,.08-.44,.13-.85,.13-1.23,0-.35-.07-.53-.22-.53-.21,0-.52,.45-.95,1.36-.25,.55-.46,1.09-.61,1.64-.16,.54-.24,1.01-.24,1.41,0,.14,.03,.33,.08,.58Z"/><path class="k" d="M1804.73,1926.27l.19-.43c1.52-3.43,2.62-5.66,3.31-6.69,.11-.14,.2-.25,.28-.33s.17-.15,.27-.22c.1-.06,.23-.13,.39-.19,.46-.2,1.06-.3,1.8-.3,.38,0,.62,.03,.72,.1,.1,.06,.15,.21,.15,.43,0,.17,0,.36-.02,.56-.05,1.16-.08,1.98-.08,2.47,0,1.24,.08,2.41,.25,3.52,.11,.62,.27,1.25,.48,1.88,.23,.57,.44,1,.65,1.3,.24,.34,.45,.58,.62,.73,.21,.21,.31,.36,.31,.47,0,.2-.17,.47-.51,.81-.57,.55-1.15,.83-1.72,.83-.81,0-1.54-.34-2.19-1.03-.34-.34-.6-.71-.8-1.12-.2-.41-.34-.91-.44-1.52s-.16-1.37-.19-2.3c-.05-1.01-.07-1.57-.08-1.7h-.04c-.41,.78-.74,1.43-1.02,1.95-.27,.52-.49,.95-.66,1.3-.17,.34-.37,.75-.6,1.23-.74,1.52-1.22,2.44-1.44,2.75-.01,.01-.04,.04-.08,.09s-.07,.08-.11,.11c-.11,.1-.23,.18-.37,.24s-.26,.08-.35,.08c-.27,0-.57-.17-.89-.51s-.61-.77-.86-1.31c-.25-.57-.46-1.15-.62-1.74-.16-.59-.3-1.29-.42-2.1-.12-.81-.22-1.8-.32-2.96h-.04c-.19,.43-.34,.74-.44,.96s-.25,.54-.45,.99-.32,.7-.35,.77c-.26,.59-.54,1.18-.83,1.78-.29,.6-.52,1.06-.7,1.38s-.37,.64-.58,.96c-.1,.15-.27,.36-.51,.63-.38,.36-.79,.64-1.25,.85-.45,.2-.88,.3-1.28,.3-.15,0-.29-.04-.41-.12s-.17-.18-.17-.3c0-.11,.09-.25,.26-.43,.1-.12,.31-.41,.63-.89l.56-.87c.35-.52,.87-1.44,1.58-2.77l.46-.87c1.08-2.07,1.82-3.49,2.2-4.26s.57-1.21,.57-1.33c0-.14-.1-.29-.29-.45-.15-.12-.22-.23-.22-.32,0-.14,.19-.28,.56-.4,.37-.13,.78-.19,1.22-.19,.88,0,1.51,.2,1.89,.59,.23,.24,.45,.73,.65,1.44s.4,1.76,.6,3.12c.01,.08,.02,.14,.03,.18s.01,.08,.02,.11c0,.03,0,.07,0,.13,.04,.18,.06,.3,.06,.36,.14,.83,.24,1.36,.31,1.61,.07,.24,.17,.45,.31,.63Z"/><path class="k" d="M1822.41,1928.51v.04l-.04-.04c-.6,.7-1.15,1.28-1.65,1.73-.5,.45-.96,.78-1.38,1.01-.42,.23-.81,.34-1.16,.34-.72,0-1.32-.24-1.79-.72-.47-.48-.71-1.1-.71-1.84,0-.46,.12-1,.35-1.62s.55-1.24,.96-1.84c.68-.98,1.53-1.81,2.55-2.49,1.06-.7,2.07-1.05,3.05-1.05,.82,0,1.5,.17,2.03,.51s.8,.77,.8,1.28c0,.38-.13,.78-.4,1.21,.35,0,.57,.04,.66,.11,.09,.07,.14,.25,.14,.52,0-.03-.02,.11-.05,.4-.04,.64-.06,1.23-.06,1.79,0,.29,0,.51,0,.66,0,.15,.02,.32,.04,.51s.04,.35,.06,.46c.05,.3,.14,.6,.25,.9-.39,.38-.76,.66-1.11,.84-.35,.18-.72,.27-1.08,.27-.99,0-1.49-.83-1.49-2.49,0-.19,0-.34,.02-.45Zm.58-2.21l-.18,.06c-.46,.13-.8,.19-1.01,.19-.25,0-.38-.06-.38-.19,0-.05,.05-.16,.15-.36,.36-.55,.54-1.06,.54-1.55,0-.28-.05-.53-.14-.76s-.2-.34-.32-.34c-.1,0-.26,.11-.47,.33-.6,.65-1.07,1.32-1.43,2-.35,.68-.53,1.29-.53,1.83,0,.35,.07,.65,.22,.88s.33,.35,.55,.35c.19,0,.54-.2,1.05-.6s1.09-.93,1.73-1.59l.26-.21-.04-.04Z"/><path class="k" d="M1836.9,1933.04c-.9,1.16-1.59,1.74-2.06,1.74-.34,0-.7-.13-1.08-.4s-.73-.63-1.06-1.08-.59-.95-.78-1.47-.29-1.03-.29-1.51c0-.27,.05-.45,.14-.54,.04-.04,.13-.1,.26-.19,1.08-.67,1.62-1.3,1.62-1.9,0-.32-.14-.47-.42-.47-.3,0-.68,.29-1.15,.86-.47,.57-.89,1.27-1.27,2.09-.23,.52-.42,.85-.58,1-.15,.13-.38,.19-.69,.19-.34,0-.64-.1-.89-.29s-.45-.46-.58-.81c-.14-.35-.21-.75-.21-1.2,0-.7,.09-1.46,.26-2.28s.42-1.65,.73-2.48c.31-.83,.68-1.64,1.12-2.44,.43-.79,.88-1.49,1.35-2.1,.93-1.17,1.83-1.76,2.72-1.76,.44,0,.83,.1,1.17,.3,.34,.2,.61,.48,.8,.85,.19,.37,.28,.8,.28,1.29,0,.6-.15,1.2-.44,1.79-.3,.6-.68,1.08-1.16,1.46s-.95,.57-1.43,.57c-.23,0-.34-.08-.34-.24,0-.06,.06-.22,.17-.45,.57-1.12,.85-2.39,.85-3.82,0-.37-.05-.55-.14-.55-.06,0-.16,.09-.29,.28-.13,.19-.26,.42-.38,.69-.71,1.59-1.22,3.42-1.54,5.5-.02,.11-.04,.25-.06,.43-.02,.18-.05,.39-.08,.62l.04,.04c.26-.37,.48-.65,.65-.84,.17-.18,.4-.38,.68-.59,.87-.68,1.68-1.02,2.44-1.02,.39,0,.7,.11,.95,.34,.25,.23,.37,.52,.37,.87,0,.87-.28,1.77-.83,2.69-.15,.27-.33,.54-.54,.8-.2,.26-.49,.61-.87,1.02,.23,.39,.5,.79,.79,1.19,.26,.35,.6,.69,1,1.04,.35,.29,.59,.56,.75,.81Z"/><path class="k" d="M1841.94,1928.63c.07,.39,.32,.58,.75,.58,.48,0,1.11-.28,1.88-.85,.45-.33,.75-.49,.91-.49,.19,0,.37,.05,.54,.15,.17,.1,.25,.21,.25,.32,0,.12-.09,.27-.28,.45-.34,.34-.73,.67-1.18,1s-.87,.6-1.29,.81c-.41,.22-.82,.39-1.24,.51-.41,.13-.78,.19-1.1,.19-.81,0-1.45-.23-1.93-.69s-.72-1.07-.72-1.84c0-.59,.13-1.25,.38-1.99,.25-.74,.6-1.43,1.03-2.07,.51-.75,1.13-1.38,1.88-1.88,.91-.61,1.79-.91,2.63-.91,.61,0,1.08,.19,1.43,.58,.34,.38,.52,.91,.52,1.58,0,.52-.14,1.07-.41,1.63-.27,.57-.68,1.11-1.21,1.63-.44,.44-.87,.78-1.29,1.02-.42,.24-.79,.37-1.11,.37-.14,0-.29-.04-.43-.11Zm-.02-.31c.3-.2,.52-.4,.68-.6,.34-.42,.61-.9,.79-1.44,.15-.35,.26-.75,.35-1.19,.08-.44,.13-.85,.13-1.23,0-.35-.07-.53-.22-.53-.21,0-.52,.45-.95,1.36-.25,.55-.46,1.09-.61,1.64-.16,.54-.24,1.01-.24,1.41,0,.14,.03,.33,.08,.58Z"/><path class="k" d="M1859.57,1922c.49,.02,.88,.16,1.17,.43s.43,.62,.43,1.06c0,.39-.11,.78-.33,1.17s-.5,.72-.84,.97-.68,.38-1.02,.38c-.2,0-.3-.07-.3-.21,0-.05,.04-.16,.12-.34,.25-.43,.38-.91,.38-1.47,0-.28-.03-.42-.1-.42-.09,0-.22,.12-.39,.35-.17,.23-.31,.51-.43,.82-.2,.5-.37,1.02-.5,1.59-.13,.56-.2,1.03-.2,1.42,0,.44,.07,.78,.2,1.03,.13,.25,.32,.38,.56,.38,.22,0,.51-.12,.88-.35s.72-.52,1.04-.86c.14-.17,.25-.26,.36-.26,.15,0,.23,.09,.23,.26,0,.79-.31,1.51-.93,2.16-.43,.43-.91,.77-1.46,1.03s-1.05,.39-1.48,.39c-.77,0-1.4-.24-1.91-.72-.51-.48-.76-1.09-.76-1.83s.16-1.51,.49-2.31c.33-.81,.77-1.58,1.33-2.31,.56-.73,1.2-1.34,1.92-1.83,.52-.35,1.02-.52,1.51-.52h.04Z"/><path class="k" d="M1869.39,1919.54v-.15c0-.24-.03-.36-.1-.36-.08,0-.21,.13-.39,.39s-.34,.54-.48,.86c-.35,.81-.67,1.66-.94,2.56s-.48,1.8-.63,2.69c-.05,.35-.11,.72-.16,1.13l.05,.04c.64-.66,1.12-1.13,1.44-1.41s.72-.59,1.23-.95c.63-.44,1.15-.66,1.57-.66,.26,0,.47,.1,.61,.29s.22,.45,.22,.79c0,.19-.04,.47-.12,.83-.14,.76-.2,1.4-.2,1.92,0,.24,.02,.49,.06,.75,.03,.21,.14,.62,.32,1.25,.15,.48,.22,.74,.22,.79,0,.09-.11,.2-.32,.33-.68,.45-1.31,.68-1.88,.68-.47,0-.85-.23-1.15-.69-.29-.46-.44-1.05-.44-1.79,0-.29,.03-.64,.09-1.05l-.05-.04c-.91,.94-1.53,1.58-1.84,1.91-1.15,1.11-2.03,1.66-2.65,1.66-.28,0-.52-.19-.7-.57s-.28-.87-.28-1.47c0-1.3,.4-2.96,1.21-4.99,.32-.79,.66-1.54,1.02-2.26s.71-1.34,1.03-1.86c.24-.37,.49-.69,.75-.96s.53-.5,.79-.69,.54-.32,.82-.41,.55-.14,.83-.14c.69,0,1.25,.21,1.69,.64s.65,.97,.65,1.63c0,.46-.13,.96-.4,1.48s-.63,1.02-1.11,1.49c-.3,.3-.65,.56-1.03,.79s-.68,.34-.89,.34c-.06,0-.12-.02-.17-.07s-.08-.1-.08-.17c0-.1,.08-.31,.25-.63,.19-.35,.38-.79,.57-1.3s.33-1,.43-1.46,.15-.85,.15-1.16Z"/><path class="k" d="M1880.39,1928.51v.04l-.04-.04c-.6,.7-1.15,1.28-1.65,1.73s-.96,.78-1.38,1.01-.81,.34-1.16,.34c-.72,0-1.32-.24-1.79-.72s-.71-1.1-.71-1.84c0-.46,.12-1,.35-1.62s.55-1.24,.96-1.84c.68-.98,1.53-1.81,2.55-2.49,1.06-.7,2.07-1.05,3.05-1.05,.82,0,1.5,.17,2.03,.51s.8,.77,.8,1.28c0,.38-.13,.78-.4,1.21,.35,0,.57,.04,.66,.11s.14,.25,.14,.52c0-.03-.02,.11-.05,.4-.04,.64-.06,1.23-.06,1.79,0,.29,0,.51,0,.66s.02,.32,.04,.51,.04,.35,.06,.46c.05,.3,.14,.6,.25,.9-.39,.38-.76,.66-1.11,.84s-.72,.27-1.08,.27c-.99,0-1.49-.83-1.49-2.49,0-.19,0-.34,.02-.45Zm.58-2.21l-.18,.06c-.46,.13-.8,.19-1.01,.19-.25,0-.38-.06-.38-.19,0-.05,.05-.16,.15-.36,.36-.55,.54-1.06,.54-1.55,0-.28-.05-.53-.14-.76s-.2-.34-.32-.34c-.1,0-.26,.11-.47,.33-.6,.65-1.07,1.32-1.43,2-.35,.68-.53,1.29-.53,1.83,0,.35,.07,.65,.22,.88s.33,.35,.55,.35c.19,0,.54-.2,1.05-.6,.51-.4,1.09-.93,1.73-1.59l.26-.21-.04-.04Z"/><path class="k" d="M1896.22,1927.83l-2.64,2.71c-.34,.34-.62,.58-.83,.7s-.44,.19-.69,.19c-.39,0-.72-.15-.99-.44s-.4-.65-.4-1.08c0-.26,.04-.55,.12-.87s.24-.78,.48-1.4c.05-.13,.09-.24,.13-.33s.08-.17,.1-.24l-.04-.04c-.63,.66-1.24,1.35-1.84,2.08-.5,.6-.9,1.05-1.2,1.34s-.56,.52-.8,.67-.45,.22-.64,.22c-.42,0-.75-.16-1-.49s-.37-.78-.37-1.34c0-.72,.31-1.87,.93-3.47,.55-1.42,.98-2.37,1.29-2.85,.44-.67,.95-1.01,1.53-1.01,.35,0,.64,.08,.86,.25,.23,.16,.34,.38,.34,.64,0,.48-.18,1.22-.55,2.21-.14,.37-.29,.78-.43,1.25l.04,.04c.24-.26,.62-.72,1.15-1.36,.91-1.12,1.59-1.88,2.06-2.29,.6-.55,1.15-.83,1.64-.83,.22,0,.43,.07,.63,.22,.2,.15,.36,.35,.48,.59,.12,.25,.18,.51,.18,.78s-.2,.99-.6,2.13c-.08,.24-.15,.43-.19,.56-.04,.14-.09,.25-.13,.35l.05,.04c.09-.09,.17-.17,.24-.24,.07-.07,.15-.15,.24-.23,.09-.08,.17-.16,.25-.23,.17-.17,.61-.61,1.31-1.33,.46-.52,.83-.87,1.09-1.06s.52-.29,.76-.29c.4,0,.7,.14,.91,.41s.31,.68,.31,1.21c0,.33-.05,.85-.15,1.56-.09,.8-.15,1.43-.19,1.88s-.05,.77-.05,.95c0,.14,0,.31,.02,.52s.04,.43,.08,.67,.09,.5,.15,.79c.08,.35,.13,.63,.15,.83-.05,.23-.22,.43-.51,.59s-.6,.24-.93,.24c-.53,0-1.02-.24-1.49-.72-.21-.22-.37-.44-.48-.66s-.19-.49-.24-.79-.07-.71-.07-1.21c0-.33,.04-1.01,.12-2.04l-.04-.04-.17,.24Z"/><path class="k" d="M1906.54,1924.99l.3-.56c.28-.5,.55-.92,.79-1.25,.24-.33,.46-.58,.64-.73,.19-.16,.41-.28,.67-.38,.21-.08,.45-.13,.7-.13,.49,0,.92,.14,1.3,.43s.67,.71,.87,1.25c.2,.54,.31,1.16,.31,1.87,0,1.01-.23,1.98-.68,2.91-.45,.93-1.05,1.68-1.79,2.26s-1.5,.86-2.29,.86c-.46,0-.84-.1-1.15-.29-.31-.19-.59-.53-.85-1l-.07,.16-.06,.21c-.42,1.35-.75,2.34-1,2.97s-.46,1.02-.64,1.16c-.14,.14-.31,.2-.49,.2-.37,0-.65-.18-.86-.54s-.31-.87-.31-1.52c0-.71,.08-1.56,.23-2.55s.37-2,.64-3.03c.27-1.03,.58-1.97,.91-2.81,.22-.52,.46-.97,.72-1.35,.26-.39,.51-.67,.75-.84,.17-.1,.36-.15,.56-.15,.3,0,.52,.08,.68,.24s.24,.39,.24,.69c0,.25-.03,.53-.08,.84-.04,.3-.07,.64-.11,1.03l.04,.05Zm-.73,4.12c.18,.53,.52,.79,1.02,.79,.35,0,.68-.16,.99-.48s.55-.75,.73-1.3,.28-1.12,.28-1.72c0-.48-.04-.89-.11-1.24s-.16-.52-.25-.52c-.06,0-.23,.17-.49,.51s-.53,.74-.79,1.19c-.54,.88-.95,1.65-1.23,2.32-.07,.17-.12,.32-.15,.43Z"/><path class="k" d="M1915.26,1931.42c-.29-.02-.55-.15-.79-.4-.24-.26-.41-.54-.51-.84-.1-.3-.15-.69-.15-1.16,0-1.06,.2-2.26,.59-3.6s.85-2.31,1.35-2.9c.2-.25,.48-.38,.83-.38,.37,0,.67,.17,.9,.51,.23,.34,.34,.79,.34,1.34,0,.82-.12,1.78-.35,2.88-.24,1.1-.57,2.24-.99,3.43-.17,.48-.37,.8-.62,.97-.17,.1-.36,.15-.59,.15h-.02Zm1.16-9.71c-.61-.02-.91-.38-.91-1.09,0-.35,.09-.77,.27-1.23s.38-.81,.6-1.04c.12-.12,.23-.21,.35-.26s.27-.08,.46-.08c.32,0,.56,.08,.71,.24s.23,.42,.23,.79c0,.46-.08,.89-.24,1.3s-.37,.74-.63,1-.53,.38-.81,.38h-.03Z"/><path class="k" d="M1926.23,1921.6c.96,0,1.44,.11,1.44,.34,0,.26-.22,.4-.65,.42-.52,.03-1.01,.18-1.46,.44s-.85,.63-1.2,1.08-.63,.97-.82,1.55-.29,1.18-.29,1.82c0,.7,.16,1.27,.49,1.7s.76,.64,1.29,.64c.49,0,.92-.25,1.29-.75s.55-1.09,.55-1.76c0-.55-.11-1.06-.34-1.54s-.56-.88-1-1.21c-.19-.15-.28-.25-.28-.32,0-.09,.13-.23,.4-.42,.3-.2,.63-.37,1-.5s.68-.2,.93-.2c.29,0,.57,.08,.83,.23s.49,.37,.69,.65,.35,.6,.46,.97,.16,.75,.16,1.16c0,.68-.13,1.36-.39,2.02s-.6,1.21-1.01,1.62c-.54,.52-1.19,.95-1.96,1.28s-1.49,.5-2.18,.5-1.34-.12-2-.35-1.18-.54-1.57-.92c-.52-.52-.77-1.25-.77-2.19,0-.75,.18-1.49,.55-2.24,.37-.75,.87-1.43,1.49-2.03s1.32-1.09,2.08-1.44c.76-.35,1.52-.53,2.3-.53Z"/><path class="k" d="M1935.64,1926.23l.58-.68c.59-.65,1.06-1.14,1.4-1.46,.34-.32,.65-.55,.93-.69s.55-.21,.84-.21c.46,0,.78,.12,.97,.37s.28,.67,.28,1.28c0,.25-.03,.62-.08,1.11-.08,.65-.12,1.26-.12,1.84,0,.64,.03,1.17,.1,1.57,.05,.24,.11,.49,.2,.73,.06,.23,.1,.39,.1,.47,0,.1-.04,.18-.12,.24-.2,.17-.46,.33-.79,.45s-.61,.19-.83,.19c-.37,0-.7-.13-1-.38s-.53-.6-.7-1.04-.25-.95-.25-1.51c0-.37,.04-.82,.12-1.32l-.04-.04c-.28,.31-.5,.55-.67,.73s-.33,.35-.48,.51c-.72,.82-1.33,1.57-1.84,2.23-.19,.26-.37,.48-.53,.68-.24,.24-.51,.36-.81,.36-.41,0-.75-.15-1.01-.46s-.39-.71-.39-1.2c0-.3,.04-.67,.11-1.11s.17-.91,.29-1.41,.26-1.01,.43-1.54,.34-1.03,.54-1.51c.3-.79,.66-1.41,1.08-1.86,.29-.29,.64-.43,1.05-.43,.67,0,1.01,.43,1.01,1.3,0,.64-.13,1.55-.4,2.74l.04,.04Z"/><path class="k" d="M1945.46,1931.74c.38-.02,.73-.2,1.04-.56s.47-.73,.47-1.15c0-.28-.09-.51-.28-.68-.2-.2-.65-.4-1.34-.59-1.02-.3-1.69-.63-2-1-.29-.3-.43-.65-.43-1.06,0-.74,.27-1.48,.81-2.22,.54-.74,1.23-1.35,2.06-1.82s1.68-.71,2.53-.71c.41,0,.8,.1,1.16,.29s.65,.45,.86,.77,.32,.67,.32,1.04-.12,.75-.35,1.14-.52,.72-.87,.98-.68,.39-1,.39c-.18,0-.34-.04-.47-.12s-.2-.16-.2-.25,.03-.22,.08-.4c.14-.55,.21-1.04,.21-1.45s-.12-.79-.37-1.15c-.32,.22-.52,.39-.62,.52-.24,.28-.43,.61-.57,.97-.15,.37-.22,.71-.22,1.04,0,.23,.05,.42,.16,.56,.11,.14,.28,.26,.52,.35,.24,.1,.61,.2,1.1,.32,.82,.2,1.39,.39,1.73,.58,.08,.05,.2,.14,.36,.28,.24,.26,.37,.61,.37,1.02,0,.44-.14,.89-.42,1.35s-.71,.92-1.29,1.41c-.62,.52-1.23,.9-1.85,1.12-.61,.23-1.29,.34-2.03,.34s-1.28-.14-1.69-.43-.61-.67-.61-1.16c0-.35,.14-.7,.41-1.06s.61-.65,1.01-.87,.8-.34,1.18-.34c.29,0,.43,.06,.43,.19,0,.06-.04,.17-.13,.32-.25,.45-.38,.87-.38,1.25,0,.27,.1,.53,.3,.77Z"/></g></g></g><g class="i"><path class="k" d="M798.87,1611.72c-.66-5.93-2.23-9.43-5.84-13.04-5-5-12.44-7.32-23.41-7.31-7.55,0-18.67,1.52-24.91,3.38-1.22,.37-1.27,.33-3.3-2.37-3.24-4.31-5.02-5.88-7.43-6.58-2.6-.76-5.72-1.32-8.35-1.5-1.72-.12-2.1-.02-2.69,.73-.38,.48-1.05,.99-1.5,1.13-1.16,.37-1.9,1.69-2.38,4.25-.6,3.22-.18,4.34,.35,5.63,.5,1.22,.65,1.34,.84,1.58,.51,.63,.56,.64,1.92,.85,1.34,.21,.63,.47,2.16,.04,.7-.2,1.68-1.12,2.52-1.39,.84-.27,2.14-.92,2.9-1.43,.8-.54,1.64-.82,2-.69,.55,.21,2.17,2.4,2.17,2.93,0,.11-2.29,1.16-5.08,2.35-5.5,2.33-11.17,5.36-16.32,8.71-5.6,3.65-9.68,7.15-9.05,7.78,.06,.06,2.16-1.26,4.66-2.93,3.66-2.46,10.56-6.15,15.67-8.39,3.19-1.4,10.06-3.79,10.91-3.79,.48,0,.72,1.04,1.26,5.44,.62,5.09,1.11,8.12,1.63,10.09,.21,.8,.15,.81-1.44,.44-2.35-.55-7.68-.09-9.45,.81-.8,.4-1.99,1.35-2.65,2.11-1.15,1.31-1.25,1.35-2.26,.83-1.65-.85-5.58-1.31-8.03-.93-2.41,.37-7,2.76-9.1,4.73-.87,.82-1.31,1.02-1.45,.68-.11-.27-.67-.61-1.26-.74-.59-.14-1.46-.49-1.93-.79-.83-.52-.86-.75-.86-6.07s.01-5.54,.9-5.88c1.04-.39,1.23-.78,1.59-3.22,.18-1.2,.56-2.82,.24-3.2-.38-.46-.76-.17-.07-2.09,.47-1.31,1.03-2.78,1.26-3.25,.23-.48,.55-3.12,.56-4.53,.02-1.54,.39-1.52-.04-2.51-.68-4.97-6.04-8.84-12.59-8.93-.08,0-.15,0-.23,0-1.4,0-2.74,.17-4,.49-5.16,1.31-8.89,5.07-8.89,9.51,0,.43,.03,.85,.1,1.27-.02,.76,.03,1.62,.13,2.66,.22,2.34,.9,4.66,.46,5.82-.71,1.86-.45,3.42,.04,4.94,.22,.69,.81,1.2,1.53,1.32h0l-.19,4.77c-.1,2.62-.31,5.08-.47,5.46-.25,.61-4.26,2.94-5.05,2.94-.17,0-.64-.62-1.05-1.38-1.26-2.34-4.5-5.33-6.52-6.02-2.15-.73-3.71-.75-6.85-.09-1.36,.29-2.51,.94-2.95,1.54-2.11-2.63-4.81-5.03-6.65-5.92-2.2-1.06-4.24-1.08-7.11-.05-2.11,.75-3.12,.67-1.34-.12,.56-.24,1.29-1.38,2.09-3.24,1.12-2.59,1.24-3.23,1.24-6.69v-3.83l3.06-3.62c1.68-1.99,3.05-3.74,3.06-3.9,0-.16,.26-.29,.58-.29s.57,.16,.57,.36,.34,.46,.77,.6c.42,.13,1.29,.68,1.92,1.21,.94,.79,1.92,2.4,3.31,2.46,0,.09,.03,.16,.12,.19,3.45,1.26,4.61,.46,7.67-3.04,1.05-1.2,.21-4.45-.47-6.65-.22-.7-1.12-1.84-2.08-2.62-1.66-1.36-1.78-1.39-6.94-1.89-8.14-.79-7.39-.95-10.73,2.25-3.67,3.51-5.94,5.34-9.79,7.89-3.7,2.45-9.2,7.94-10.78,10.74-1.5,2.67-2.63,6.04-3.34,9.97-.31,1.74-.68,3.55-.82,4.03-.4,1.43,.62,4.27,2.07,5.72,.96,.96,2.35,1.83,3.75,2.42,.61,1,3.67,2.81,5.9,4.54,5.02,3.91,10.74,7.1,15.72,8.78,5.43,1.83,5.93,2.32,6.99,6.89,1.68,7.28,3,11.16,5.82,17.18,4.54,9.71,6.21,13.83,6.53,16.13,.18,1.31,.25,5.66,.15,9.64l-.18,7.26-1.63,4.01c-1.83,4.47-4.13,11.13-4.77,13.75-1.61,6.64-2.6,12.6-3.06,18.52-.22,2.73-.49,5.43-.6,5.99-.23,1.1-.57,1.27-5.12,2.41-1.36,.34-3.08,.78-3.82,.97-3.21,.84-9.44,1.51-13.98,1.5-13.79-.02-22.62-5.55-25.15-15.74-.72-2.89-.63-9.5,.17-13.27,.43-2.03,2-7.04,2.68-8.59,3.3-7.47,5.69-11.82,10.06-18.33,2.48-3.7,9.61-13.13,10.55-13.94,.12-.11,.8-.88,1.51-1.72,3.65-4.31,10.69-11.65,16.6-17.32,2.28-2.18,2.97-3.11,2.3-3.11-.13,0-2.14,1.29-4.49,2.86-17.02,11.4-32.87,29.18-41.6,46.64-2.08,4.16-4.7,10.4-5.28,12.55-.17,.63-.58,2.18-.91,3.44-.84,3.19-1.69,9.1-1.71,11.86-.04,8.27,3.63,16.26,9.44,20.53,5.15,3.78,13.19,6.3,22.05,6.91,5.41,.37,15.07-.28,22.72-1.53,23.47-3.84,49.94-18.23,81.33-44.22,10.21-8.46,22.76-20.56,30.38-29.29,16.13-18.48,27.3-36.81,31.28-51.32,.35-1.26,.78-2.81,.96-3.44,.83-2.88,1.21-8.95,.79-12.67Zm-14.67,15.32c-.96,2.39-5.68,11.43-7.54,14.43-12.29,19.85-32.05,41.98-50.95,57.05-3.15,2.51-5.9,4.67-6.11,4.8-.21,.13-2.47-1.78-5.02-4.23-5.53-5.33-6.03-6.23-5.69-10.36,.17-2.11,.07-3.42-.39-4.96-1.25-4.17-1.06-7.68,.6-11.65,1.58-3.76,3.16-7,4.73-9.74,3.46-6,6.63-12.39,7.48-15.08,1.63-5.15,1.32-4.77,3.96-4.78,2.78,0,8.87-.9,11.37-1.68,2.95-.92,6.5-3.26,7.1-3.71,.47-.36,.88-.75,1.93-1.35,4.46-2.55,11.01-7.76,12.3-11.74,.38-1.19,.39-2.05,.02-4.2-1.21-7.05-4.5-13.82-9.19-18.91-1.56-1.69-1.81-2.14-1.34-2.4,.32-.18,2.86-.66,5.64-1.07,6.57-.97,17.02-1.03,21.03-.13,5.59,1.26,9.47,3.68,11.53,7.21,1.07,1.82,2.1,5.63,2.1,7.74,0,3.19-1.63,9.95-3.56,14.76Z"/><g><g><g/><g><path class="k" d="M549.36,1770.96v13.81c0,1.95-.35,3.33-1.04,4.15s-1.65,1.22-2.87,1.22-2.14-.41-2.85-1.22c-.71-.82-1.06-2.2-1.06-4.15v-13.81h-8.62v14.07c0,3.82,1.1,6.8,3.29,8.92,2.19,2.12,5.25,3.18,9.17,3.18s6.98-1.06,9.17-3.18,3.29-5.09,3.29-8.92v-14.07h-8.48Z"/><path class="k" d="M578.59,1770.96v11.63l-9.72-11.63h-7.09v25.58h8.4v-11.63l9.72,11.63h7.09v-25.58h-8.4Z"/><path class="k" d="M591.16,1770.96v25.58h8.62v-25.58h-8.62Z"/><path class="k" d="M622.81,1770.96l-6.26,14.93-6.09-14.93h-9.28l10.82,25.58h8.48l10.82-25.58h-8.48Z"/><polygon class="k" points="653.94 1790.03 653.94 1796.53 632.67 1796.53 632.67 1770.96 653.46 1770.96 653.46 1777.46 641.15 1777.46 641.15 1780.46 651.96 1780.46 651.96 1786.67 641.15 1786.67 641.15 1790.03 653.94 1790.03"/><path class="k" d="M676.41,1788.67c1.43-.73,2.56-1.72,3.39-2.97,.95-1.43,1.43-3.12,1.43-5.1s-.48-3.68-1.43-5.13c-.95-1.45-2.3-2.56-4.04-3.34-1.74-.78-3.81-1.17-6.19-1.17h-12.31v25.58h8.62v-6.43h2.35l4.34,6.43h9.21l-5.37-7.87Zm-10.53-11.06h3.14c1.19,0,2.08,.27,2.65,.8,.57,.54,.86,1.27,.86,2.19s-.29,1.66-.86,2.19-1.46,.8-2.65,.8h-3.14v-5.99Z"/><path class="k" d="M705.17,1785.13c-.51-.9-1.19-1.63-2.03-2.19-.84-.56-1.76-1.01-2.76-1.35-1-.34-2-.61-3.01-.8-1.01-.19-1.94-.38-2.78-.55-.84-.17-1.52-.38-2.03-.64s-.77-.6-.77-1.04c0-.29,.1-.56,.31-.8s.55-.44,1.04-.58c.49-.15,1.14-.22,1.97-.22,1.12,0,2.27,.16,3.45,.47,1.18,.32,2.41,.79,3.67,1.43l2.59-6.25c-1.34-.76-2.85-1.32-4.53-1.68-1.68-.37-3.39-.55-5.12-.55-2.63,0-4.83,.39-6.6,1.17-1.77,.78-3.09,1.82-3.98,3.12-.89,1.3-1.33,2.75-1.33,4.33,0,1.36,.26,2.5,.77,3.42s1.19,1.65,2.03,2.21c.84,.56,1.77,1.01,2.78,1.35,1.01,.34,2.02,.62,3.01,.82,1,.21,1.92,.4,2.76,.58,.84,.18,1.52,.41,2.03,.68,.51,.27,.77,.63,.77,1.1,0,.29-.11,.54-.33,.75-.22,.21-.57,.37-1.04,.48-.47,.11-1.13,.16-1.95,.16-1.41,0-2.87-.21-4.37-.64-1.5-.43-2.86-.99-4.07-1.7l-2.78,6.28c1.29,.78,2.94,1.41,4.93,1.9,2,.49,4.07,.73,6.21,.73,2.66,0,4.86-.4,6.61-1.19,1.75-.79,3.08-1.84,3.96-3.14,.89-1.3,1.33-2.73,1.33-4.29,0-1.34-.26-2.46-.77-3.36Z"/><polygon class="k" points="736.55 1796.53 727.64 1796.53 725.92 1792.08 723.54 1785.86 721.06 1779.42 718.58 1785.86 716.2 1792.08 714.48 1796.53 705.71 1796.53 716.9 1770.96 725.37 1770.96 736.55 1796.53"/><path class="k" d="M746.57,1789.85v-18.89h-8.62v25.58h20.17v-6.69h-11.55Z"/></g><g><path class="k" d="M794.56,1797.12c-2.07,0-3.98-.32-5.72-.97-1.74-.65-3.25-1.56-4.53-2.76-1.28-1.19-2.27-2.61-2.98-4.24-.71-1.63-1.06-3.43-1.06-5.41s.35-3.78,1.06-5.41c.71-1.63,1.7-3.04,3-4.24,1.29-1.19,2.82-2.11,4.59-2.76,1.77-.65,3.71-.97,5.83-.97,2.53,0,4.79,.43,6.78,1.28,1.99,.85,3.62,2.07,4.91,3.65l-5.52,4.86c-.8-.93-1.68-1.63-2.61-2.1-.94-.47-1.98-.71-3.12-.71-.95,0-1.81,.15-2.58,.44-.77,.29-1.42,.72-1.95,1.28-.54,.56-.95,1.23-1.24,2.01-.29,.78-.44,1.67-.44,2.67s.15,1.82,.44,2.61c.29,.79,.71,1.47,1.24,2.03,.54,.56,1.18,.99,1.92,1.3,.74,.3,1.58,.46,2.5,.46,.97,0,1.92-.16,2.85-.49,.93-.33,1.91-.9,2.96-1.7l4.82,5.92c-1.56,1.05-3.34,1.85-5.33,2.41-2,.56-3.93,.84-5.81,.84Zm3.65-4.35v-9.72h7.49v10.82l-7.49-1.1Z"/><path class="k" d="M815.98,1796.53v-11.22l1.97,5.15-11.62-19.51h9.1l7.86,13.34h-5.3l7.93-13.34h8.33l-11.55,19.51,1.9-5.15v11.22h-8.62Z"/><path class="k" d="M835.34,1796.53v-25.58h7.09l10.23,16.7h-3.73l9.94-16.7h7.09l.07,25.58h-7.86l-.07-13.74h1.24l-6.8,11.44h-3.8l-7.09-11.44h1.53v13.74h-7.86Z"/></g></g><g><path class="k" d="M612.44,1817.88h-.04c-.49,.95-1,1.82-1.52,2.62-.63,.94-1.16,1.63-1.59,2.08-.23,.22-.53,.42-.88,.59s-.65,.25-.9,.25c-.06,0-.15-.02-.25-.06s-.19-.1-.25-.18c-.32-.35-.58-1.24-.78-2.69s-.3-3.2-.3-5.26c0-1.67,.12-2.79,.37-3.34,.1-.23,.25-.43,.44-.58s.47-.3,.85-.45c.33-.13,.67-.24,1.02-.33s.63-.13,.83-.13c.18,0,.32,.04,.42,.13s.16,.21,.16,.37c0,.06-.01,.15-.04,.26-.13,.59-.26,1.42-.37,2.49-.08,.71-.14,1.29-.17,1.73-.03,.44-.06,1.05-.09,1.82-.03,.77-.04,1.53-.05,2.27l.04,.04c.29-.37,.59-.81,.91-1.32,.11-.19,.23-.37,.33-.53s.23-.36,.35-.58c.29-.52,.55-1.03,.78-1.52,.11-.23,.22-.46,.3-.69,.95-2.12,1.62-3.35,2.01-3.68,.18-.16,.5-.31,.98-.45s.9-.21,1.27-.21c.24,0,.44,.06,.6,.17s.24,.26,.24,.44c0,.16-.09,.49-.26,.99-.33,.96-.6,2-.8,3.14-.21,1.14-.31,2.15-.31,3.04,0,1.81,.35,2.71,1.05,2.71,.2,0,.41-.15,.62-.46,.21-.3,.39-.69,.54-1.16s.27-1.02,.37-1.64,.15-1.27,.15-1.93c0-.39-.02-.86-.06-1.4-.01-.15-.02-.28-.02-.41,0-.7,.38-1.4,1.15-2.11,.37-.36,.65-.54,.84-.54,.44,0,.66,.82,.66,2.47,0,1.17-.13,2.3-.38,3.37-.32,1.29-.75,2.38-1.31,3.28-.29,.49-.64,.96-1.04,1.41s-.8,.81-1.19,1.08c-.5,.35-1.03,.52-1.6,.52-1.04,0-1.81-.4-2.32-1.21-.51-.81-.76-2.06-.76-3.75v-.65Z"/><path class="k" d="M626.04,1820.84c.07,.38,.32,.57,.74,.57,.48,0,1.09-.28,1.86-.84,.44-.32,.74-.49,.89-.49,.19,0,.37,.05,.53,.15,.16,.1,.25,.21,.25,.31,0,.11-.09,.26-.28,.45-.34,.34-.72,.66-1.16,.98s-.86,.59-1.27,.8c-.41,.21-.81,.38-1.22,.5-.41,.12-.77,.19-1.08,.19-.79,0-1.43-.23-1.9-.68s-.71-1.06-.71-1.81c0-.58,.13-1.23,.38-1.96,.25-.73,.59-1.41,1.01-2.04,.5-.74,1.12-1.36,1.85-1.86,.9-.6,1.76-.89,2.59-.89,.6,0,1.06,.19,1.4,.57,.34,.38,.51,.9,.51,1.56,0,.51-.13,1.05-.4,1.61-.27,.56-.67,1.09-1.19,1.61-.43,.43-.85,.77-1.27,1.01-.42,.24-.78,.36-1.09,.36-.14,0-.28-.03-.43-.1Zm-.02-.3c.29-.2,.51-.39,.67-.59,.34-.41,.6-.88,.78-1.42,.15-.35,.26-.74,.34-1.17,.08-.43,.12-.83,.12-1.21,0-.35-.07-.52-.22-.52-.2,0-.51,.45-.93,1.34-.25,.54-.45,1.08-.6,1.61-.16,.54-.23,1-.23,1.38,0,.13,.03,.32,.08,.57Z"/><path class="k" d="M649.37,1818.51l.19-.43c1.5-3.38,2.58-5.57,3.25-6.58,.11-.14,.2-.25,.28-.33s.16-.15,.26-.21c.1-.06,.23-.13,.39-.19,.46-.2,1.05-.29,1.77-.29,.37,0,.61,.03,.71,.1,.1,.06,.15,.21,.15,.43,0,.17,0,.36-.02,.55-.05,1.14-.08,1.95-.08,2.44,0,1.22,.08,2.37,.25,3.46,.11,.61,.27,1.23,.48,1.86,.22,.56,.43,.99,.64,1.28,.24,.33,.44,.57,.61,.72,.2,.2,.3,.36,.3,.47,0,.2-.17,.46-.5,.8-.56,.55-1.13,.82-1.69,.82-.79,0-1.51-.34-2.16-1.02-.33-.33-.59-.7-.79-1.1-.19-.4-.34-.9-.43-1.49s-.16-1.35-.19-2.26c-.04-.99-.07-1.55-.08-1.67h-.04c-.4,.77-.73,1.41-1,1.92s-.48,.94-.65,1.28c-.17,.34-.37,.74-.6,1.21-.72,1.5-1.2,2.4-1.42,2.71-.01,.01-.04,.04-.08,.09s-.07,.08-.1,.1c-.11,.1-.23,.18-.37,.23s-.25,.08-.35,.08c-.27,0-.56-.17-.88-.5s-.6-.76-.84-1.29c-.25-.56-.45-1.13-.61-1.71-.16-.58-.29-1.27-.41-2.07-.12-.8-.22-1.77-.31-2.92h-.04c-.19,.42-.33,.73-.43,.94s-.24,.53-.44,.97-.31,.69-.34,.76c-.26,.58-.53,1.16-.82,1.75-.29,.59-.52,1.04-.69,1.36s-.37,.63-.58,.94c-.1,.15-.26,.35-.5,.62-.37,.36-.78,.63-1.23,.83-.44,.2-.87,.3-1.26,.3-.15,0-.29-.04-.4-.11s-.17-.17-.17-.29c0-.11,.09-.25,.26-.43,.1-.11,.3-.41,.62-.88l.55-.86c.34-.51,.86-1.42,1.55-2.73l.46-.86c1.07-2.04,1.79-3.44,2.16-4.19s.56-1.19,.56-1.31c0-.13-.1-.28-.29-.45-.15-.12-.22-.23-.22-.31,0-.14,.18-.27,.55-.39,.37-.12,.77-.19,1.2-.19,.87,0,1.49,.19,1.86,.58,.23,.24,.44,.72,.64,1.42s.39,1.73,.59,3.07c.01,.08,.02,.13,.03,.18s.01,.08,.02,.11c0,.03,0,.07,0,.12,.04,.18,.06,.29,.06,.35,.13,.82,.24,1.34,.31,1.58,.07,.24,.17,.44,.31,.62Z"/><path class="k" d="M666.77,1820.72v.04l-.04-.04c-.59,.69-1.13,1.26-1.62,1.7-.49,.44-.95,.77-1.36,.99-.42,.22-.8,.33-1.15,.33-.71,0-1.3-.24-1.76-.71-.46-.48-.69-1.08-.69-1.81,0-.45,.11-.98,.34-1.6s.54-1.22,.94-1.81c.67-.96,1.5-1.78,2.51-2.46,1.04-.69,2.04-1.04,3.01-1.04,.81,0,1.48,.17,2,.5s.79,.75,.79,1.26c0,.37-.13,.77-.39,1.19,.34,0,.56,.04,.65,.11,.09,.07,.13,.24,.13,.51,0-.03-.02,.1-.05,.39-.04,.63-.06,1.21-.06,1.76,0,.29,0,.5,0,.65,0,.15,.02,.31,.04,.5s.04,.34,.06,.46c.05,.3,.13,.59,.25,.88-.38,.37-.75,.65-1.09,.82-.35,.17-.7,.26-1.07,.26-.98,0-1.47-.82-1.47-2.46,0-.19,0-.34,.02-.45Zm.57-2.18l-.18,.06c-.46,.13-.79,.19-.99,.19-.25,0-.37-.06-.37-.19,0-.04,.05-.16,.15-.35,.36-.54,.53-1.05,.53-1.52,0-.27-.05-.52-.14-.75s-.2-.34-.31-.34c-.1,0-.26,.11-.47,.32-.59,.64-1.06,1.3-1.4,1.97-.35,.67-.52,1.27-.52,1.8,0,.35,.07,.64,.21,.87s.32,.34,.54,.34c.18,0,.53-.2,1.03-.59s1.07-.91,1.7-1.56l.26-.21-.04-.04Z"/><path class="k" d="M681.04,1825.18c-.89,1.14-1.56,1.72-2.03,1.72-.34,0-.69-.13-1.06-.39s-.72-.62-1.04-1.07-.58-.93-.77-1.45-.29-1.02-.29-1.48c0-.27,.04-.44,.13-.53,.04-.04,.12-.1,.26-.19,1.07-.66,1.6-1.28,1.6-1.87,0-.31-.14-.47-.41-.47-.29,0-.67,.28-1.13,.84-.46,.56-.88,1.25-1.25,2.06-.22,.51-.41,.84-.57,.98-.15,.13-.37,.19-.68,.19-.34,0-.63-.09-.88-.28s-.44-.45-.58-.8c-.14-.35-.2-.74-.2-1.18,0-.69,.09-1.43,.26-2.25s.41-1.63,.72-2.45c.31-.82,.67-1.62,1.1-2.4,.42-.78,.87-1.47,1.33-2.06,.91-1.15,1.8-1.73,2.67-1.73,.43,0,.82,.1,1.16,.29,.34,.2,.6,.48,.79,.84,.18,.36,.28,.78,.28,1.27,0,.59-.15,1.18-.44,1.77-.29,.59-.67,1.07-1.14,1.44s-.93,.56-1.4,.56c-.22,0-.33-.08-.33-.24,0-.06,.06-.21,.17-.45,.56-1.1,.84-2.36,.84-3.76,0-.36-.04-.54-.13-.54-.06,0-.16,.09-.29,.28-.13,.18-.26,.41-.38,.68-.7,1.57-1.2,3.37-1.51,5.41-.02,.11-.04,.25-.06,.43-.02,.18-.05,.38-.08,.61l.04,.04c.26-.37,.47-.64,.64-.82,.17-.18,.39-.38,.67-.59,.86-.67,1.66-1.01,2.4-1.01,.38,0,.69,.11,.94,.33,.24,.22,.37,.51,.37,.86,0,.86-.27,1.74-.82,2.64-.15,.27-.33,.53-.53,.79-.2,.26-.49,.6-.86,1.01,.23,.39,.49,.78,.78,1.17,.26,.34,.59,.68,.98,1.03,.34,.29,.59,.55,.74,.8Z"/><path class="k" d="M686,1820.84c.07,.38,.32,.57,.74,.57,.48,0,1.09-.28,1.86-.84,.44-.32,.74-.49,.89-.49,.19,0,.37,.05,.53,.15,.16,.1,.25,.21,.25,.31,0,.11-.09,.26-.28,.45-.34,.34-.72,.66-1.16,.98s-.86,.59-1.27,.8c-.41,.21-.81,.38-1.22,.5-.41,.12-.77,.19-1.08,.19-.79,0-1.43-.23-1.9-.68s-.71-1.06-.71-1.81c0-.58,.13-1.23,.38-1.96,.25-.73,.59-1.41,1.01-2.04,.5-.74,1.12-1.36,1.85-1.86,.9-.6,1.76-.89,2.59-.89,.6,0,1.06,.19,1.4,.57,.34,.38,.51,.9,.51,1.56,0,.51-.13,1.05-.4,1.61-.27,.56-.67,1.09-1.19,1.61-.43,.43-.85,.77-1.27,1.01-.42,.24-.78,.36-1.09,.36-.14,0-.28-.03-.43-.1Zm-.02-.3c.29-.2,.51-.39,.67-.59,.34-.41,.6-.88,.78-1.42,.15-.35,.26-.74,.34-1.17,.08-.43,.12-.83,.12-1.21,0-.35-.07-.52-.22-.52-.2,0-.51,.45-.93,1.34-.25,.54-.45,1.08-.6,1.61-.16,.54-.23,1-.23,1.38,0,.13,.03,.32,.08,.57Z"/><path class="k" d="M703.36,1814.31c.48,.02,.87,.16,1.15,.42s.43,.61,.43,1.05c0,.38-.11,.76-.33,1.15s-.49,.7-.83,.95-.67,.37-1,.37c-.2,0-.29-.07-.29-.21,0-.05,.04-.16,.11-.33,.25-.42,.37-.9,.37-1.45,0-.27-.03-.41-.1-.41-.09,0-.22,.11-.38,.34-.17,.23-.3,.5-.42,.81-.2,.49-.36,1.01-.49,1.56-.13,.55-.2,1.02-.2,1.4,0,.43,.07,.77,.2,1.02,.13,.25,.31,.37,.55,.37,.22,0,.5-.11,.87-.34s.7-.51,1.03-.85c.13-.17,.25-.26,.35-.26,.15,0,.23,.09,.23,.26,0,.78-.3,1.49-.91,2.12-.42,.42-.9,.76-1.44,1.01s-1.03,.39-1.46,.39c-.76,0-1.38-.24-1.88-.71-.5-.48-.75-1.08-.75-1.8s.16-1.48,.48-2.28c.32-.8,.76-1.55,1.31-2.27,.56-.72,1.18-1.32,1.89-1.8,.51-.34,1-.51,1.48-.51h.04Z"/><path class="k" d="M713.02,1811.89v-.15c0-.23-.03-.35-.1-.35-.08,0-.21,.13-.39,.38s-.33,.54-.47,.85c-.35,.79-.66,1.63-.92,2.52s-.47,1.77-.62,2.65c-.05,.34-.1,.71-.16,1.11l.05,.04c.63-.65,1.11-1.12,1.42-1.39s.71-.58,1.21-.93c.62-.43,1.14-.65,1.54-.65,.26,0,.46,.09,.6,.28s.21,.45,.21,.78c0,.19-.04,.46-.11,.82-.13,.75-.2,1.38-.2,1.89,0,.23,.02,.48,.06,.74,.03,.2,.14,.61,.31,1.23,.15,.47,.22,.73,.22,.78,0,.09-.1,.2-.31,.32-.67,.44-1.29,.67-1.86,.67-.46,0-.84-.23-1.13-.68-.29-.45-.43-1.04-.43-1.76,0-.29,.03-.63,.09-1.04l-.05-.04c-.9,.93-1.5,1.55-1.81,1.88-1.13,1.09-2,1.64-2.61,1.64-.28,0-.51-.19-.69-.56s-.27-.85-.27-1.45c0-1.28,.4-2.92,1.19-4.91,.32-.77,.65-1.51,1.01-2.22s.69-1.32,1.02-1.83c.23-.36,.48-.68,.74-.95s.52-.49,.78-.68,.53-.32,.8-.4,.55-.13,.82-.13c.68,0,1.23,.21,1.66,.63s.64,.95,.64,1.61c0,.46-.13,.94-.39,1.46s-.62,1-1.09,1.47c-.3,.29-.64,.55-1.01,.78s-.67,.34-.88,.34c-.06,0-.12-.02-.17-.07s-.08-.1-.08-.17c0-.1,.08-.3,.25-.62,.19-.35,.38-.78,.56-1.28s.33-.98,.42-1.44,.15-.84,.15-1.15Z"/><path class="k" d="M723.85,1820.72v.04l-.04-.04c-.59,.69-1.13,1.26-1.62,1.7s-.95,.77-1.36,.99-.8,.33-1.15,.33c-.71,0-1.3-.24-1.76-.71s-.69-1.08-.69-1.81c0-.45,.11-.98,.34-1.6s.54-1.22,.94-1.81c.67-.96,1.5-1.78,2.51-2.46,1.04-.69,2.04-1.04,3.01-1.04,.81,0,1.48,.17,2,.5s.79,.75,.79,1.26c0,.37-.13,.77-.39,1.19,.34,0,.56,.04,.65,.11s.13,.24,.13,.51c0-.03-.02,.1-.05,.39-.04,.63-.06,1.21-.06,1.76,0,.29,0,.5,0,.65s.02,.31,.04,.5,.04,.34,.06,.46c.05,.3,.13,.59,.25,.88-.38,.37-.75,.65-1.09,.82s-.7,.26-1.07,.26c-.98,0-1.47-.82-1.47-2.46,0-.19,0-.34,.02-.45Zm.57-2.18l-.18,.06c-.46,.13-.79,.19-.99,.19-.25,0-.37-.06-.37-.19,0-.04,.05-.16,.15-.35,.36-.54,.53-1.05,.53-1.52,0-.27-.05-.52-.14-.75s-.2-.34-.31-.34c-.1,0-.26,.11-.47,.32-.59,.64-1.06,1.3-1.4,1.97-.35,.67-.52,1.27-.52,1.8,0,.35,.07,.64,.21,.87s.32,.34,.54,.34c.18,0,.53-.2,1.03-.59s1.07-.91,1.7-1.56l.26-.21-.04-.04Z"/><path class="k" d="M739.44,1820.05l-2.6,2.66c-.34,.34-.61,.57-.81,.69s-.43,.19-.68,.19c-.39,0-.71-.14-.98-.43s-.39-.64-.39-1.06c0-.26,.04-.54,.12-.85s.24-.77,.47-1.38c.04-.13,.09-.24,.13-.33s.07-.17,.1-.23l-.04-.04c-.62,.65-1.22,1.33-1.81,2.05-.49,.59-.89,1.03-1.18,1.32s-.56,.51-.79,.66-.44,.22-.63,.22c-.41,0-.74-.16-.98-.49s-.36-.76-.36-1.32c0-.7,.3-1.84,.91-3.42,.55-1.4,.97-2.33,1.27-2.81,.44-.66,.94-.99,1.5-.99,.34,0,.63,.08,.85,.24,.23,.16,.34,.37,.34,.63,0,.48-.18,1.2-.54,2.18-.14,.36-.28,.77-.43,1.23l.04,.04c.23-.26,.61-.71,1.13-1.34,.89-1.1,1.57-1.85,2.03-2.25,.59-.55,1.13-.82,1.62-.82,.22,0,.42,.07,.62,.22,.2,.15,.35,.34,.47,.59,.12,.24,.18,.5,.18,.77s-.2,.97-.59,2.09c-.08,.23-.15,.42-.19,.55-.04,.13-.09,.25-.12,.34l.05,.04,.24-.24c.07-.07,.15-.14,.23-.22,.09-.08,.17-.15,.24-.22,.17-.17,.6-.6,1.29-1.3,.46-.51,.81-.86,1.07-1.04s.51-.28,.75-.28c.39,0,.69,.13,.9,.4s.31,.67,.31,1.19c0,.32-.05,.83-.15,1.53-.09,.79-.15,1.4-.19,1.85s-.05,.76-.05,.94c0,.13,0,.3,.02,.51s.04,.43,.08,.66,.09,.49,.15,.78c.08,.35,.13,.62,.15,.82-.05,.23-.22,.42-.5,.58s-.59,.24-.92,.24c-.52,0-1.01-.23-1.47-.7-.2-.22-.36-.43-.47-.65s-.19-.48-.24-.78-.07-.7-.07-1.19c0-.32,.04-.99,.11-2.01l-.04-.04-.17,.24Z"/><path class="k" d="M749.6,1817.26l.3-.56c.28-.49,.54-.9,.78-1.23,.24-.33,.45-.57,.63-.72,.18-.15,.4-.28,.66-.37,.21-.08,.44-.12,.69-.12,.48,0,.91,.14,1.28,.43s.66,.69,.86,1.23c.2,.53,.3,1.15,.3,1.84,0,1-.22,1.95-.67,2.87-.45,.92-1.03,1.66-1.76,2.22s-1.48,.85-2.25,.85c-.45,0-.83-.1-1.13-.29-.3-.19-.58-.52-.83-.98l-.06,.16-.06,.21c-.41,1.33-.74,2.3-.98,2.93s-.46,1.01-.63,1.15c-.14,.13-.3,.2-.49,.2-.36,0-.64-.18-.85-.53s-.3-.85-.3-1.49c0-.7,.08-1.54,.23-2.51s.36-1.97,.63-2.99c.27-1.02,.57-1.94,.9-2.77,.21-.51,.45-.95,.71-1.33,.26-.38,.51-.66,.74-.83,.17-.1,.35-.15,.55-.15,.29,0,.52,.08,.67,.24s.24,.39,.24,.68c0,.25-.03,.52-.08,.82-.04,.29-.07,.63-.1,1.02l.04,.05Zm-.72,4.06c.18,.52,.51,.78,1.01,.78,.35,0,.67-.16,.98-.47s.54-.74,.72-1.28,.27-1.1,.27-1.69c0-.47-.04-.88-.11-1.22s-.15-.51-.24-.51c-.06,0-.23,.17-.49,.5s-.52,.73-.78,1.17c-.53,.86-.94,1.62-1.21,2.28-.07,.17-.12,.31-.15,.43Z"/><path class="k" d="M758.19,1823.59c-.29-.02-.54-.15-.78-.39-.23-.25-.4-.53-.5-.82-.1-.29-.15-.68-.15-1.15,0-1.05,.2-2.23,.59-3.54s.83-2.27,1.33-2.86c.2-.25,.47-.37,.82-.37,.37,0,.66,.17,.89,.5,.23,.34,.34,.78,.34,1.32,0,.81-.12,1.75-.35,2.83-.23,1.08-.56,2.21-.98,3.37-.16,.47-.37,.79-.61,.95-.16,.1-.36,.15-.58,.15h-.02Zm1.14-9.56c-.6-.02-.89-.38-.89-1.08,0-.35,.09-.75,.26-1.21s.37-.8,.59-1.02c.11-.12,.23-.21,.35-.26s.27-.08,.45-.08c.32,0,.55,.08,.7,.23s.22,.41,.22,.78c0,.45-.08,.88-.23,1.28s-.36,.73-.62,.98-.53,.38-.8,.38h-.03Z"/><path class="k" d="M768.98,1813.92c.95,0,1.42,.11,1.42,.33,0,.25-.21,.39-.64,.41-.51,.03-.99,.18-1.44,.44s-.84,.62-1.18,1.07-.62,.96-.81,1.52-.29,1.16-.29,1.79c0,.69,.16,1.25,.49,1.67s.75,.63,1.27,.63c.48,0,.9-.25,1.27-.74s.54-1.07,.54-1.73c0-.54-.11-1.05-.34-1.52s-.55-.87-.98-1.19c-.18-.15-.28-.25-.28-.31,0-.09,.13-.23,.39-.41,.29-.2,.62-.36,.98-.49s.67-.2,.91-.2c.29,0,.56,.07,.81,.22s.48,.36,.68,.64,.35,.59,.45,.95,.16,.74,.16,1.15c0,.67-.13,1.34-.38,1.99s-.59,1.19-1,1.59c-.53,.51-1.18,.93-1.93,1.26s-1.47,.49-2.15,.49-1.31-.11-1.97-.34-1.17-.53-1.55-.9c-.51-.51-.76-1.23-.76-2.16,0-.74,.18-1.47,.54-2.21,.36-.74,.85-1.4,1.47-2s1.3-1.07,2.05-1.42c.75-.35,1.5-.52,2.26-.52Z"/><path class="k" d="M778.25,1818.47l.57-.67c.58-.64,1.04-1.12,1.38-1.44,.34-.31,.64-.54,.91-.68s.54-.21,.82-.21c.45,0,.77,.12,.95,.36s.28,.66,.28,1.26c0,.25-.03,.61-.08,1.09-.08,.64-.11,1.24-.11,1.81,0,.63,.03,1.15,.1,1.54,.04,.24,.11,.48,.2,.72,.06,.23,.1,.38,.1,.47,0,.1-.04,.18-.11,.24-.2,.17-.46,.32-.78,.45s-.6,.19-.82,.19c-.36,0-.69-.12-.98-.37s-.52-.59-.69-1.03-.24-.93-.24-1.48c0-.37,.04-.8,.11-1.3l-.04-.04c-.27,.3-.49,.55-.66,.72s-.33,.35-.47,.5c-.71,.81-1.31,1.54-1.81,2.2-.19,.25-.36,.48-.52,.67-.23,.23-.5,.35-.8,.35-.41,0-.74-.15-.99-.46s-.38-.7-.38-1.18c0-.3,.03-.66,.1-1.09s.16-.89,.28-1.38,.26-1,.42-1.52,.34-1.02,.53-1.48c.29-.78,.65-1.39,1.07-1.83,.29-.29,.63-.43,1.04-.43,.66,0,.99,.43,.99,1.28,0,.63-.13,1.53-.39,2.7l.04,.04Z"/><path class="k" d="M787.92,1823.9c.37-.02,.72-.2,1.02-.55s.46-.72,.46-1.13c0-.28-.09-.5-.28-.67-.2-.2-.64-.39-1.32-.58-1.01-.29-1.67-.62-1.97-.98-.29-.29-.43-.64-.43-1.05,0-.73,.26-1.46,.79-2.19s1.21-1.33,2.03-1.79,1.66-.7,2.49-.7c.41,0,.79,.1,1.14,.29s.64,.44,.85,.76,.31,.66,.31,1.02-.11,.74-.34,1.12-.52,.71-.86,.97-.67,.39-.98,.39c-.18,0-.33-.04-.46-.11s-.2-.16-.2-.25,.03-.22,.08-.39c.14-.55,.21-1.02,.21-1.43s-.12-.78-.36-1.13c-.31,.22-.51,.39-.61,.51-.24,.28-.43,.6-.56,.95-.15,.36-.22,.7-.22,1.03,0,.23,.05,.41,.16,.55,.11,.14,.28,.25,.51,.35,.24,.1,.6,.2,1.08,.31,.81,.2,1.37,.39,1.7,.57,.08,.04,.19,.14,.35,.28,.24,.26,.36,.6,.36,1.01,0,.44-.14,.88-.41,1.33s-.69,.91-1.27,1.38c-.61,.51-1.21,.88-1.82,1.1-.6,.22-1.27,.33-2,.33s-1.26-.14-1.66-.42-.6-.66-.6-1.14c0-.34,.13-.69,.4-1.04s.6-.64,.99-.86,.79-.33,1.17-.33c.29,0,.43,.06,.43,.19,0,.06-.04,.17-.12,.31-.25,.44-.37,.85-.37,1.23,0,.27,.1,.52,.29,.76Z"/></g></g></g><g class="j"><path class="k" d="M1684.98,471.32c-.46-4.11-1.55-6.54-4.05-9.04-3.47-3.47-8.62-5.08-16.23-5.07-5.23,0-12.94,1.05-17.27,2.35-.85,.25-.88,.23-2.29-1.64-2.25-2.98-3.48-4.08-5.15-4.56-1.8-.52-3.96-.91-5.79-1.04-1.19-.08-1.45-.01-1.86,.51-.26,.33-.73,.69-1.04,.78-.81,.26-1.32,1.17-1.65,2.94-.41,2.23-.13,3.01,.24,3.9,.35,.85,.45,.93,.58,1.09,.35,.44,.39,.44,1.33,.59,.93,.15,.44,.33,1.5,.03,.49-.14,1.16-.77,1.75-.96,.58-.19,1.49-.63,2.01-.99,.55-.37,1.13-.57,1.38-.48,.38,.15,1.5,1.66,1.5,2.03,0,.07-1.59,.81-3.52,1.63-3.81,1.61-7.74,3.71-11.31,6.04-3.88,2.53-6.71,4.96-6.27,5.39,.04,.04,1.5-.87,3.23-2.03,2.53-1.7,7.32-4.26,10.87-5.82,2.21-.97,6.98-2.62,7.56-2.63,.33,0,.5,.72,.87,3.77,.43,3.53,.77,5.63,1.13,6.99,.15,.55,.11,.56-1,.31-1.63-.38-5.33-.06-6.55,.56-.55,.28-1.38,.94-1.84,1.46-.8,.91-.86,.93-1.56,.57-1.15-.59-3.87-.91-5.57-.64-1.67,.26-4.86,1.91-6.31,3.28-.6,.57-.91,.71-1,.47-.07-.19-.46-.42-.87-.52-.41-.09-1.01-.34-1.34-.54-.57-.36-.6-.52-.6-4.21s0-3.84,.62-4.08c.72-.27,.85-.54,1.1-2.23,.13-.83,.39-1.95,.17-2.22-.26-.32-.53-.12-.05-1.45,.32-.91,.72-1.92,.87-2.25,.16-.33,.38-2.16,.39-3.14,.01-1.07,.27-1.05-.03-1.74-.47-3.44-4.19-6.13-8.73-6.19-.05,0-.11,0-.16,0-.97,0-1.9,.12-2.78,.34-3.58,.9-6.16,3.51-6.16,6.59,0,.3,.02,.59,.07,.88-.01,.53,.02,1.13,.09,1.84,.15,1.62,.62,3.23,.32,4.03-.49,1.29-.31,2.37,.03,3.42,.16,.48,.56,.83,1.06,.91h0l-.13,3.31c-.07,1.82-.22,3.52-.33,3.79-.17,.42-2.96,2.04-3.5,2.04-.12,0-.44-.43-.73-.96-.87-1.62-3.12-3.69-4.52-4.17-1.49-.51-2.57-.52-4.75-.06-.95,.2-1.74,.65-2.04,1.07-1.46-1.82-3.33-3.49-4.61-4.1-1.53-.74-2.94-.75-4.93-.04-1.46,.52-2.16,.46-.93-.08,.39-.17,.9-.96,1.45-2.25,.78-1.8,.86-2.24,.86-4.64v-2.65l2.12-2.51c1.16-1.38,2.12-2.59,2.12-2.7,0-.11,.18-.2,.4-.2s.4,.11,.4,.25,.24,.32,.53,.42c.29,.09,.89,.47,1.33,.84,.65,.55,1.33,1.66,2.29,1.71,0,.06,.02,.11,.08,.13,2.39,.88,3.19,.32,5.32-2.11,.73-.83,.14-3.09-.33-4.61-.15-.49-.77-1.27-1.44-1.82-1.15-.94-1.24-.97-4.81-1.31-5.65-.55-5.13-.66-7.44,1.56-2.55,2.44-4.11,3.7-6.79,5.47-2.57,1.7-6.38,5.5-7.47,7.45-1.04,1.85-1.82,4.19-2.31,6.91-.22,1.2-.47,2.46-.57,2.79-.28,.99,.43,2.96,1.43,3.96,.66,.66,1.63,1.27,2.6,1.67,.42,.69,2.55,1.95,4.09,3.15,3.48,2.71,7.45,4.92,10.9,6.08,3.76,1.27,4.11,1.61,4.84,4.78,1.17,5.04,2.08,7.74,4.03,11.91,3.15,6.73,4.31,9.59,4.53,11.18,.13,.91,.17,3.92,.1,6.69l-.13,5.03-1.13,2.78c-1.27,3.1-2.87,7.71-3.31,9.53-1.12,4.6-1.8,8.73-2.12,12.84-.15,1.89-.34,3.76-.42,4.15-.16,.77-.4,.88-3.55,1.67-.95,.24-2.14,.54-2.65,.67-2.23,.58-6.54,1.05-9.69,1.04-9.56-.02-15.68-3.85-17.44-10.91-.5-2-.44-6.59,.12-9.2,.3-1.41,1.38-4.88,1.86-5.96,2.29-5.18,3.94-8.19,6.97-12.71,1.72-2.56,6.66-9.1,7.31-9.66,.08-.07,.55-.61,1.05-1.19,2.53-2.98,7.41-8.07,11.51-12,1.58-1.51,2.06-2.16,1.6-2.16-.09,0-1.49,.89-3.11,1.98-11.8,7.91-22.79,20.23-28.84,32.33-1.44,2.88-3.26,7.21-3.66,8.7-.12,.44-.4,1.51-.63,2.38-.58,2.21-1.17,6.31-1.18,8.22-.03,5.74,2.52,11.27,6.55,14.23,3.57,2.62,9.14,4.37,15.28,4.79,3.75,.26,10.45-.19,15.75-1.06,16.27-2.66,34.62-12.64,56.38-30.66,7.08-5.86,15.78-14.25,21.06-20.3,11.18-12.81,18.92-25.51,21.69-35.57,.24-.87,.54-1.95,.67-2.38,.58-2,.84-6.2,.55-8.79Zm-10.17,10.62c-.66,1.65-3.94,7.92-5.23,10.01-8.52,13.76-22.22,29.1-35.32,39.55-2.18,1.74-4.09,3.24-4.24,3.33-.15,.09-1.71-1.23-3.48-2.94-3.83-3.69-4.18-4.32-3.94-7.18,.12-1.46,.05-2.37-.27-3.44-.86-2.89-.74-5.33,.42-8.07,1.09-2.6,2.19-4.86,3.28-6.75,2.4-4.16,4.6-8.59,5.19-10.45,1.13-3.57,.91-3.31,2.75-3.31,1.92,0,6.15-.62,7.88-1.16,2.05-.63,4.5-2.26,4.92-2.57,.33-.25,.61-.52,1.34-.94,3.09-1.76,7.63-5.38,8.52-8.14,.27-.83,.27-1.42,.01-2.91-.84-4.89-3.12-9.58-6.37-13.11-1.08-1.17-1.26-1.48-.93-1.67,.22-.12,1.98-.46,3.91-.74,4.56-.67,11.8-.71,14.57-.09,3.88,.87,6.56,2.55,7.99,5,.74,1.26,1.46,3.9,1.46,5.37,0,2.21-1.13,6.9-2.47,10.23Z"/><g><g><g/><g><path class="k" d="M1512.01,581.71v9.57c0,1.35-.24,2.31-.72,2.88s-1.14,.85-1.99,.85-1.49-.28-1.98-.85c-.49-.57-.73-1.52-.73-2.88v-9.57h-5.98v9.75c0,2.65,.76,4.71,2.28,6.18,1.52,1.47,3.64,2.2,6.36,2.2s4.84-.73,6.36-2.2c1.52-1.47,2.28-3.53,2.28-6.18v-9.75h-5.88Z"/><path class="k" d="M1532.27,581.71v8.06l-6.74-8.06h-4.91v17.73h5.83v-8.06l6.74,8.06h4.91v-17.73h-5.83Z"/><path class="k" d="M1540.99,581.71v17.73h5.98v-17.73h-5.98Z"/><path class="k" d="M1562.92,581.71l-4.34,10.35-4.22-10.35h-6.43l7.5,17.73h5.88l7.5-17.73h-5.88Z"/><polygon class="k" points="1584.5 594.93 1584.5 599.44 1569.76 599.44 1569.76 581.71 1584.17 581.71 1584.17 586.22 1575.64 586.22 1575.64 588.29 1583.14 588.29 1583.14 592.6 1575.64 592.6 1575.64 594.93 1584.5 594.93"/><path class="k" d="M1600.08,593.99c.99-.51,1.78-1.19,2.35-2.06,.66-.99,.99-2.17,.99-3.53s-.33-2.55-.99-3.56c-.66-1-1.59-1.78-2.8-2.32-1.21-.54-2.64-.81-4.29-.81h-8.54v17.73h5.98v-4.46h1.63l3.01,4.46h6.38l-3.72-5.45Zm-7.3-7.67h2.18c.83,0,1.44,.19,1.84,.56,.4,.37,.6,.88,.6,1.52s-.2,1.15-.6,1.52-1.01,.56-1.84,.56h-2.18v-4.15Z"/><path class="k" d="M1620.02,591.54c-.35-.62-.82-1.13-1.41-1.52-.58-.39-1.22-.7-1.91-.94-.69-.24-1.39-.42-2.09-.56-.7-.14-1.34-.26-1.93-.38-.58-.12-1.05-.27-1.41-.44s-.53-.42-.53-.72c0-.2,.07-.39,.22-.56s.38-.3,.72-.41c.34-.1,.79-.15,1.37-.15,.78,0,1.57,.11,2.39,.33,.82,.22,1.67,.55,2.55,.99l1.8-4.33c-.93-.52-1.98-.91-3.14-1.17-1.17-.25-2.35-.38-3.55-.38-1.82,0-3.35,.27-4.57,.81-1.22,.54-2.14,1.26-2.76,2.17-.62,.9-.92,1.9-.92,3,0,.95,.18,1.74,.53,2.37s.82,1.14,1.41,1.53c.58,.39,1.22,.7,1.93,.94,.7,.24,1.4,.43,2.09,.57,.69,.14,1.33,.28,1.91,.41,.58,.13,1.05,.28,1.41,.47,.35,.19,.53,.44,.53,.76,0,.2-.08,.38-.23,.52-.15,.14-.39,.25-.72,.33-.33,.08-.78,.11-1.36,.11-.98,0-1.99-.15-3.03-.44-1.04-.3-1.98-.69-2.82-1.18l-1.93,4.36c.9,.54,2.03,.98,3.42,1.32,1.38,.34,2.82,.51,4.31,.51,1.84,0,3.37-.28,4.58-.82,1.22-.55,2.13-1.27,2.75-2.18,.62-.9,.92-1.9,.92-2.98,0-.93-.18-1.71-.53-2.33Z"/><polygon class="k" points="1641.78 599.44 1635.59 599.44 1634.41 596.35 1632.75 592.04 1631.04 587.58 1629.32 592.04 1627.66 596.35 1626.48 599.44 1620.4 599.44 1628.15 581.71 1634.02 581.71 1641.78 599.44"/><path class="k" d="M1648.72,594.8v-13.1h-5.98v17.73h13.98v-4.64h-8Z"/></g><g><path class="k" d="M1681.99,599.84c-1.44,0-2.76-.22-3.96-.67-1.21-.45-2.25-1.08-3.14-1.91-.89-.83-1.57-1.81-2.06-2.94-.49-1.13-.73-2.38-.73-3.75s.24-2.62,.73-3.75c.49-1.13,1.18-2.11,2.08-2.94,.89-.83,1.95-1.46,3.18-1.91,1.22-.45,2.57-.67,4.04-.67,1.76,0,3.32,.3,4.7,.89,1.38,.59,2.51,1.44,3.41,2.53l-3.82,3.37c-.56-.64-1.16-1.13-1.81-1.46-.65-.33-1.37-.49-2.17-.49-.66,0-1.25,.1-1.79,.3-.53,.2-.98,.5-1.36,.89-.37,.39-.66,.85-.86,1.39-.2,.54-.3,1.16-.3,1.85s.1,1.26,.3,1.81c.2,.55,.49,1.02,.86,1.41,.37,.39,.81,.69,1.33,.9,.51,.21,1.09,.32,1.74,.32,.68,0,1.33-.11,1.98-.34,.64-.23,1.33-.62,2.05-1.18l3.34,4.1c-1.08,.73-2.31,1.28-3.7,1.67-1.38,.39-2.73,.58-4.03,.58Zm2.53-3.01v-6.74h5.19v7.5l-5.19-.76Z"/><path class="k" d="M1696.83,599.44v-7.78l1.37,3.57-8.05-13.53h6.31l5.45,9.25h-3.67l5.5-9.25h5.78l-8,13.53,1.32-3.57v7.78h-5.98Z"/><path class="k" d="M1710.26,599.44v-17.73h4.91l7.09,11.58h-2.58l6.89-11.58h4.91l.05,17.73h-5.45l-.05-9.52h.86l-4.71,7.93h-2.63l-4.91-7.93h1.06v9.52h-5.45Z"/></g></g><g><path class="k" d="M1555.74,614.23h-.03c-.34,.66-.69,1.26-1.06,1.81-.44,.65-.8,1.13-1.1,1.44-.16,.15-.37,.29-.61,.41s-.45,.17-.63,.17c-.04,0-.1-.01-.18-.04s-.13-.07-.17-.12c-.22-.24-.4-.86-.54-1.86s-.2-2.22-.2-3.64c0-1.16,.09-1.93,.26-2.32,.07-.16,.17-.3,.3-.4s.33-.21,.59-.31c.23-.09,.47-.17,.71-.23s.44-.09,.58-.09c.12,0,.22,.03,.29,.09s.11,.15,.11,.26c0,.04,0,.1-.03,.18-.09,.41-.18,.99-.26,1.73-.06,.49-.1,.89-.12,1.2-.02,.31-.04,.73-.06,1.26-.02,.53-.03,1.06-.03,1.58l.03,.03c.2-.26,.41-.56,.63-.92,.08-.13,.16-.26,.23-.37s.16-.25,.24-.4c.2-.36,.38-.71,.54-1.06,.08-.16,.15-.32,.21-.48,.66-1.47,1.13-2.32,1.39-2.55,.12-.11,.35-.21,.68-.31s.62-.15,.88-.15c.17,0,.31,.04,.42,.12s.17,.18,.17,.31c0,.11-.06,.34-.18,.69-.23,.66-.41,1.39-.56,2.18-.14,.79-.21,1.49-.21,2.1,0,1.25,.24,1.88,.73,1.88,.14,0,.28-.11,.43-.32,.14-.21,.27-.48,.37-.8s.19-.7,.26-1.14,.1-.88,.1-1.34c0-.27-.01-.6-.04-.97,0-.1-.01-.2-.01-.28,0-.48,.27-.97,.8-1.46,.26-.25,.45-.38,.58-.38,.3,0,.46,.57,.46,1.72,0,.81-.09,1.59-.26,2.34-.22,.89-.52,1.65-.91,2.28-.2,.34-.44,.66-.72,.98s-.55,.56-.83,.75c-.35,.24-.72,.36-1.11,.36-.72,0-1.26-.28-1.61-.84-.35-.56-.53-1.43-.53-2.6v-.45Z"/><path class="k" d="M1565.16,616.29c.05,.26,.22,.4,.51,.4,.33,0,.76-.19,1.29-.58,.31-.22,.51-.34,.62-.34,.13,0,.25,.04,.37,.11,.11,.07,.17,.14,.17,.22,0,.08-.06,.18-.19,.31-.23,.23-.5,.46-.8,.68s-.6,.41-.88,.55c-.28,.15-.56,.26-.84,.35-.28,.09-.53,.13-.75,.13-.55,0-.99-.16-1.32-.47s-.49-.73-.49-1.26c0-.4,.09-.85,.26-1.36,.17-.5,.41-.98,.7-1.41,.35-.51,.77-.94,1.28-1.29,.62-.41,1.22-.62,1.79-.62,.41,0,.74,.13,.97,.39,.24,.26,.35,.62,.35,1.08,0,.36-.09,.73-.28,1.11-.19,.39-.46,.76-.83,1.11-.3,.3-.59,.53-.88,.7-.29,.17-.54,.25-.76,.25-.1,0-.2-.02-.3-.07Zm-.01-.21c.2-.14,.36-.27,.46-.41,.23-.29,.41-.61,.54-.98,.1-.24,.18-.51,.24-.81,.06-.3,.09-.58,.09-.84,0-.24-.05-.36-.15-.36-.14,0-.36,.31-.65,.93-.17,.37-.31,.75-.42,1.12-.11,.37-.16,.69-.16,.96,0,.09,.02,.22,.05,.4Z"/><path class="k" d="M1581.34,614.67l.13-.3c1.04-2.34,1.79-3.86,2.26-4.56,.07-.1,.14-.17,.19-.23s.11-.1,.18-.15c.07-.04,.16-.09,.27-.13,.32-.14,.73-.2,1.23-.2,.26,0,.42,.02,.49,.07,.07,.04,.1,.14,.1,.3,0,.12,0,.25-.01,.38-.04,.79-.05,1.35-.05,1.69,0,.84,.06,1.64,.17,2.4,.07,.42,.18,.85,.33,1.29,.15,.39,.3,.68,.44,.89,.17,.23,.31,.4,.42,.5,.14,.14,.21,.25,.21,.32,0,.14-.12,.32-.35,.55-.39,.38-.78,.57-1.17,.57-.55,0-1.05-.24-1.5-.71-.23-.23-.41-.48-.54-.76-.13-.28-.23-.62-.3-1.04s-.11-.93-.13-1.57c-.03-.69-.05-1.07-.05-1.16h-.03c-.28,.53-.51,.98-.69,1.33s-.34,.65-.45,.88c-.12,.23-.25,.51-.41,.84-.5,1.04-.83,1.66-.98,1.88,0,0-.03,.03-.05,.06s-.05,.05-.07,.07c-.07,.07-.16,.12-.25,.16s-.18,.06-.24,.06c-.18,0-.39-.12-.61-.35s-.42-.53-.58-.89c-.17-.39-.31-.78-.42-1.18-.11-.4-.2-.88-.29-1.43-.08-.55-.15-1.23-.22-2.02h-.03l-.3,.65c-.07,.15-.17,.37-.3,.67s-.22,.48-.24,.53c-.18,.4-.37,.8-.57,1.21-.2,.41-.36,.72-.48,.94s-.25,.44-.4,.65c-.07,.1-.18,.24-.35,.43-.26,.25-.54,.44-.85,.58-.31,.14-.6,.21-.88,.21-.11,0-.2-.03-.28-.08s-.12-.12-.12-.2c0-.07,.06-.17,.18-.3,.07-.08,.21-.28,.43-.61l.38-.59c.24-.35,.6-.98,1.08-1.89l.32-.59c.74-1.42,1.24-2.38,1.5-2.91s.39-.82,.39-.91c0-.09-.07-.2-.2-.31-.1-.08-.15-.16-.15-.22,0-.1,.13-.19,.38-.27,.26-.09,.53-.13,.83-.13,.6,0,1.03,.13,1.29,.4,.16,.17,.31,.5,.44,.99s.27,1.2,.41,2.13c0,.05,.02,.09,.02,.12s0,.05,.01,.08c0,.02,0,.05,0,.09,.03,.12,.04,.2,.04,.24,.09,.57,.16,.93,.21,1.1,.05,.16,.12,.31,.21,.43Z"/><path class="k" d="M1593.4,616.21v.03l-.03-.03c-.41,.48-.78,.87-1.12,1.18-.34,.31-.66,.54-.94,.69-.29,.15-.55,.23-.79,.23-.49,0-.9-.16-1.22-.49-.32-.33-.48-.75-.48-1.25,0-.31,.08-.68,.24-1.11s.38-.84,.65-1.25c.46-.67,1.04-1.24,1.74-1.7,.72-.48,1.42-.72,2.08-.72,.56,0,1.03,.12,1.39,.35s.54,.52,.54,.87c0,.26-.09,.53-.27,.82,.24,0,.39,.03,.45,.08,.06,.05,.09,.17,.09,.35,0-.02-.01,.07-.03,.27-.03,.44-.04,.84-.04,1.22,0,.2,0,.35,0,.45,0,.1,.01,.22,.03,.35s.03,.24,.04,.32c.04,.21,.09,.41,.17,.61-.26,.26-.52,.45-.76,.57-.24,.12-.49,.18-.74,.18-.68,0-1.02-.57-1.02-1.7,0-.13,0-.24,.01-.31Zm.4-1.51l-.13,.04c-.32,.09-.55,.13-.69,.13-.17,0-.26-.04-.26-.13,0-.03,.04-.11,.11-.24,.25-.37,.37-.73,.37-1.06,0-.19-.03-.36-.1-.52s-.14-.23-.22-.23c-.07,0-.18,.07-.32,.22-.41,.44-.73,.9-.97,1.37-.24,.47-.36,.88-.36,1.25,0,.24,.05,.44,.15,.6s.22,.24,.37,.24c.13,0,.37-.14,.72-.41s.74-.63,1.18-1.08l.18-.15-.03-.03Z"/><path class="k" d="M1603.29,619.3c-.62,.79-1.08,1.19-1.41,1.19-.23,0-.48-.09-.74-.27s-.5-.43-.72-.74-.4-.65-.53-1.01-.2-.7-.2-1.03c0-.18,.03-.31,.09-.37,.03-.03,.09-.07,.18-.13,.74-.46,1.11-.89,1.11-1.3,0-.22-.09-.32-.28-.32-.2,0-.46,.19-.78,.58-.32,.39-.61,.87-.87,1.43-.15,.36-.29,.58-.4,.68-.1,.09-.26,.13-.47,.13-.23,0-.44-.06-.61-.19s-.3-.31-.4-.55c-.09-.24-.14-.51-.14-.82,0-.47,.06-.99,.18-1.56s.28-1.13,.5-1.7c.21-.57,.47-1.12,.76-1.66,.29-.54,.6-1.02,.92-1.43,.63-.8,1.25-1.2,1.85-1.2,.3,0,.57,.07,.8,.2,.24,.14,.42,.33,.54,.58,.13,.25,.19,.54,.19,.88,0,.41-.1,.82-.3,1.22-.2,.41-.47,.74-.79,1s-.65,.39-.97,.39c-.15,0-.23-.05-.23-.16,0-.04,.04-.15,.12-.31,.39-.77,.58-1.63,.58-2.61,0-.25-.03-.38-.09-.38-.04,0-.11,.06-.2,.19-.09,.13-.18,.28-.26,.47-.48,1.09-.83,2.34-1.05,3.75-.01,.07-.03,.17-.04,.3-.02,.12-.03,.26-.06,.42l.03,.03c.18-.26,.33-.45,.45-.57,.12-.13,.27-.26,.47-.41,.59-.47,1.15-.7,1.66-.7,.26,0,.48,.08,.65,.23,.17,.15,.25,.35,.25,.59,0,.59-.19,1.2-.57,1.83-.11,.18-.23,.37-.37,.55-.14,.18-.34,.41-.6,.7,.16,.27,.34,.54,.54,.81,.18,.24,.41,.47,.68,.71,.24,.2,.41,.38,.51,.56Z"/><path class="k" d="M1606.73,616.29c.05,.26,.22,.4,.51,.4,.33,0,.76-.19,1.29-.58,.31-.22,.51-.34,.62-.34,.13,0,.25,.04,.37,.11,.11,.07,.17,.14,.17,.22,0,.08-.06,.18-.19,.31-.23,.23-.5,.46-.8,.68s-.6,.41-.88,.55c-.28,.15-.56,.26-.84,.35-.28,.09-.53,.13-.75,.13-.55,0-.99-.16-1.32-.47s-.49-.73-.49-1.26c0-.4,.09-.85,.26-1.36,.17-.5,.41-.98,.7-1.41,.35-.51,.77-.94,1.28-1.29,.62-.41,1.22-.62,1.79-.62,.41,0,.74,.13,.97,.39,.24,.26,.35,.62,.35,1.08,0,.36-.09,.73-.28,1.11-.19,.39-.46,.76-.83,1.11-.3,.3-.59,.53-.88,.7-.29,.17-.54,.25-.76,.25-.1,0-.2-.02-.3-.07Zm-.01-.21c.2-.14,.36-.27,.46-.41,.23-.29,.41-.61,.54-.98,.1-.24,.18-.51,.24-.81,.06-.3,.09-.58,.09-.84,0-.24-.05-.36-.15-.36-.14,0-.36,.31-.65,.93-.17,.37-.31,.75-.42,1.12-.11,.37-.16,.69-.16,.96,0,.09,.02,.22,.05,.4Z"/><path class="k" d="M1618.76,611.76c.33,.01,.6,.11,.8,.29s.3,.42,.3,.73c0,.26-.08,.53-.23,.8s-.34,.49-.57,.66-.46,.26-.7,.26c-.14,0-.2-.05-.2-.15,0-.04,.03-.11,.08-.23,.17-.29,.26-.62,.26-1,0-.19-.02-.28-.07-.28-.06,0-.15,.08-.26,.24-.11,.16-.21,.35-.29,.56-.14,.34-.25,.7-.34,1.08-.09,.38-.14,.71-.14,.97,0,.3,.05,.53,.14,.71,.09,.17,.22,.26,.38,.26,.15,0,.35-.08,.6-.24s.49-.35,.71-.59c.09-.12,.17-.18,.24-.18,.11,0,.16,.06,.16,.18,0,.54-.21,1.03-.63,1.47-.29,.29-.62,.52-1,.7s-.71,.27-1.01,.27c-.52,0-.96-.16-1.31-.49-.35-.33-.52-.75-.52-1.25s.11-1.03,.33-1.58c.22-.55,.53-1.08,.91-1.57,.38-.5,.82-.91,1.31-1.25,.35-.24,.69-.36,1.03-.36h.03Z"/><path class="k" d="M1625.46,610.09v-.11c0-.16-.02-.24-.07-.24-.06,0-.15,.09-.27,.26s-.23,.37-.33,.59c-.24,.55-.46,1.13-.64,1.74s-.33,1.23-.43,1.84c-.04,.24-.07,.49-.11,.77l.03,.03c.44-.45,.77-.77,.98-.96s.49-.4,.84-.65c.43-.3,.79-.45,1.07-.45,.18,0,.32,.06,.42,.19s.15,.31,.15,.54c0,.13-.03,.32-.08,.57-.09,.52-.14,.96-.14,1.31,0,.16,.01,.33,.04,.51,.02,.14,.09,.42,.22,.85,.1,.33,.15,.51,.15,.54,0,.06-.07,.14-.22,.22-.47,.31-.89,.46-1.29,.46-.32,0-.58-.16-.78-.47-.2-.31-.3-.72-.3-1.22,0-.2,.02-.44,.06-.72l-.03-.03c-.62,.64-1.04,1.08-1.25,1.3-.78,.76-1.39,1.13-1.81,1.13-.19,0-.35-.13-.48-.39s-.19-.59-.19-1.01c0-.89,.27-2.02,.82-3.4,.22-.54,.45-1.05,.7-1.54s.48-.91,.71-1.27c.16-.25,.33-.47,.51-.66s.36-.34,.54-.47,.37-.22,.56-.28,.38-.09,.57-.09c.47,0,.85,.15,1.15,.44s.45,.66,.45,1.11c0,.32-.09,.65-.27,1.01s-.43,.69-.76,1.02c-.21,.2-.44,.38-.7,.54s-.47,.23-.61,.23c-.04,0-.08-.02-.12-.05s-.05-.07-.05-.12c0-.07,.06-.21,.17-.43,.13-.24,.26-.54,.39-.89s.23-.68,.29-1,.1-.58,.1-.79Z"/><path class="k" d="M1632.97,616.21v.03l-.03-.03c-.41,.48-.78,.87-1.12,1.18s-.66,.54-.94,.69-.55,.23-.79,.23c-.49,0-.9-.16-1.22-.49s-.48-.75-.48-1.25c0-.31,.08-.68,.24-1.11s.38-.84,.65-1.25c.46-.67,1.04-1.24,1.74-1.7,.72-.48,1.42-.72,2.08-.72,.56,0,1.03,.12,1.39,.35s.54,.52,.54,.87c0,.26-.09,.53-.27,.82,.24,0,.39,.03,.45,.08s.09,.17,.09,.35c0-.02-.01,.07-.03,.27-.03,.44-.04,.84-.04,1.22,0,.2,0,.35,0,.45s.01,.22,.03,.35,.03,.24,.04,.32c.04,.21,.09,.41,.17,.61-.26,.26-.52,.45-.76,.57s-.49,.18-.74,.18c-.68,0-1.02-.57-1.02-1.7,0-.13,0-.24,.01-.31Zm.4-1.51l-.13,.04c-.32,.09-.55,.13-.69,.13-.17,0-.26-.04-.26-.13,0-.03,.04-.11,.11-.24,.25-.37,.37-.73,.37-1.06,0-.19-.03-.36-.1-.52s-.14-.23-.22-.23c-.07,0-.18,.07-.32,.22-.41,.44-.73,.9-.97,1.37s-.36,.88-.36,1.25c0,.24,.05,.44,.15,.6s.22,.24,.37,.24c.13,0,.37-.14,.72-.41s.74-.63,1.18-1.08l.18-.15-.03-.03Z"/><path class="k" d="M1643.78,615.74l-1.8,1.85c-.23,.23-.42,.39-.56,.48s-.3,.13-.47,.13c-.27,0-.49-.1-.68-.3s-.27-.45-.27-.74c0-.18,.03-.38,.08-.59s.16-.53,.33-.95c.03-.09,.06-.16,.09-.23s.05-.12,.07-.16l-.03-.03c-.43,.45-.84,.92-1.25,1.42-.34,.41-.62,.71-.82,.92s-.38,.35-.55,.46-.31,.15-.44,.15c-.29,0-.51-.11-.68-.34s-.25-.53-.25-.92c0-.49,.21-1.28,.63-2.37,.38-.97,.67-1.62,.88-1.95,.3-.46,.65-.69,1.04-.69,.24,0,.43,.06,.59,.17,.16,.11,.23,.26,.23,.44,0,.33-.12,.83-.37,1.51-.1,.25-.19,.53-.3,.85l.03,.03c.16-.18,.42-.49,.78-.93,.62-.76,1.09-1.29,1.4-1.56,.41-.38,.78-.57,1.12-.57,.15,0,.29,.05,.43,.15,.14,.1,.25,.24,.33,.41,.08,.17,.12,.35,.12,.53s-.14,.67-.41,1.45c-.06,.16-.1,.29-.13,.38-.03,.09-.06,.17-.09,.24l.03,.03,.16-.16s.1-.1,.16-.16c.06-.05,.12-.11,.17-.16,.12-.11,.42-.42,.9-.9,.32-.35,.56-.59,.74-.72s.35-.19,.52-.19c.27,0,.48,.09,.62,.28s.21,.46,.21,.83c0,.22-.04,.58-.11,1.06-.06,.55-.1,.97-.13,1.28s-.04,.53-.04,.65c0,.09,0,.21,.02,.35s.03,.3,.06,.46,.06,.34,.11,.54c.05,.24,.09,.43,.11,.57-.04,.16-.15,.29-.35,.4s-.41,.16-.64,.16c-.36,0-.7-.16-1.02-.49-.14-.15-.25-.3-.33-.45s-.13-.33-.16-.54-.05-.48-.05-.83c0-.22,.03-.69,.08-1.39l-.03-.03-.12,.16Z"/><path class="k" d="M1650.82,613.8l.21-.38c.19-.34,.37-.62,.54-.85,.17-.23,.31-.39,.44-.5,.13-.11,.28-.19,.46-.26,.15-.06,.3-.09,.48-.09,.33,0,.63,.1,.89,.3s.46,.48,.59,.85c.14,.37,.21,.79,.21,1.27,0,.69-.16,1.35-.47,1.99-.31,.64-.72,1.15-1.22,1.54s-1.02,.59-1.56,.59c-.31,0-.57-.07-.78-.2-.21-.13-.4-.36-.58-.68l-.04,.11-.04,.15c-.29,.92-.51,1.6-.68,2.03s-.32,.7-.44,.79c-.1,.09-.21,.14-.34,.14-.25,0-.45-.12-.59-.37s-.21-.59-.21-1.04c0-.48,.05-1.06,.16-1.74s.25-1.37,.44-2.07,.39-1.34,.62-1.92c.15-.35,.31-.66,.49-.92,.18-.26,.35-.46,.51-.57,.12-.07,.25-.11,.38-.11,.2,0,.36,.06,.47,.17s.16,.27,.16,.47c0,.17-.02,.36-.05,.57-.03,.2-.05,.44-.07,.7l.03,.03Zm-.5,2.81c.12,.36,.36,.54,.7,.54,.24,0,.47-.11,.68-.33s.38-.51,.5-.88,.19-.76,.19-1.17c0-.33-.03-.61-.08-.84s-.11-.36-.17-.36c-.04,0-.16,.12-.34,.35s-.36,.5-.54,.81c-.37,.6-.65,1.13-.84,1.58-.05,.12-.08,.22-.11,.3Z"/><path class="k" d="M1656.77,618.19c-.2-.01-.38-.1-.54-.27-.16-.18-.28-.37-.35-.57-.07-.2-.1-.47-.1-.79,0-.73,.14-1.54,.41-2.46s.58-1.57,.92-1.98c.14-.17,.33-.26,.57-.26,.25,0,.46,.12,.62,.35,.16,.23,.23,.54,.23,.92,0,.56-.08,1.21-.24,1.96-.16,.75-.39,1.53-.68,2.34-.11,.33-.25,.55-.42,.66-.11,.07-.25,.11-.4,.11h-.01Zm.79-6.63c-.41-.01-.62-.26-.62-.75,0-.24,.06-.52,.18-.84s.26-.56,.41-.71c.08-.08,.16-.14,.24-.18s.19-.05,.31-.05c.22,0,.38,.05,.48,.16s.16,.29,.16,.54c0,.31-.05,.61-.16,.89s-.25,.51-.43,.68-.37,.26-.55,.26h-.02Z"/><path class="k" d="M1664.26,611.49c.66,0,.98,.08,.98,.23,0,.18-.15,.27-.44,.28-.36,.02-.69,.12-1,.3s-.58,.43-.82,.74-.43,.66-.56,1.06-.2,.8-.2,1.24c0,.48,.11,.87,.34,1.16s.52,.44,.88,.44c.33,0,.63-.17,.88-.51s.38-.74,.38-1.2c0-.37-.08-.72-.23-1.05s-.38-.6-.68-.83c-.13-.1-.19-.17-.19-.22,0-.06,.09-.16,.27-.28,.2-.14,.43-.25,.68-.34s.46-.14,.63-.14c.2,0,.39,.05,.56,.16s.34,.25,.47,.44,.24,.41,.31,.66,.11,.51,.11,.79c0,.47-.09,.93-.26,1.38s-.41,.82-.69,1.1c-.37,.36-.81,.65-1.34,.87s-1.02,.34-1.49,.34-.91-.08-1.36-.24-.81-.37-1.07-.63c-.35-.35-.53-.85-.53-1.5,0-.51,.13-1.02,.38-1.53s.59-.97,1.02-1.39,.9-.74,1.42-.98,1.04-.36,1.57-.36Z"/><path class="k" d="M1670.68,614.65l.4-.46c.4-.45,.72-.78,.96-1,.23-.22,.45-.38,.63-.47s.38-.15,.57-.15c.31,0,.53,.08,.66,.25s.19,.46,.19,.87c0,.17-.02,.42-.05,.76-.05,.44-.08,.86-.08,1.25,0,.44,.02,.8,.07,1.07,.03,.17,.08,.33,.14,.5,.04,.16,.07,.27,.07,.32,0,.07-.03,.13-.08,.16-.14,.12-.32,.22-.54,.31s-.41,.13-.57,.13c-.25,0-.48-.09-.68-.26s-.36-.41-.47-.71-.17-.65-.17-1.03c0-.26,.03-.56,.08-.9l-.03-.03c-.19,.21-.34,.38-.46,.5s-.23,.24-.33,.35c-.49,.56-.91,1.07-1.25,1.52-.13,.18-.25,.33-.36,.46-.16,.16-.35,.24-.55,.24-.28,0-.51-.11-.69-.32s-.26-.48-.26-.82c0-.21,.02-.46,.07-.76s.11-.62,.19-.96,.18-.69,.29-1.05,.23-.7,.37-1.03c.2-.54,.45-.96,.74-1.27,.2-.2,.44-.3,.72-.3,.46,0,.69,.3,.69,.89,0,.44-.09,1.06-.27,1.87l.03,.03Z"/><path class="k" d="M1677.38,618.41c.26-.01,.5-.14,.71-.38s.32-.5,.32-.78c0-.19-.06-.35-.19-.46-.14-.14-.44-.27-.92-.4-.7-.2-1.15-.43-1.37-.68-.2-.2-.3-.44-.3-.73,0-.51,.18-1.01,.55-1.52s.84-.92,1.41-1.24,1.15-.48,1.73-.48c.28,0,.55,.07,.79,.2s.44,.31,.59,.52,.22,.45,.22,.71-.08,.51-.24,.78-.36,.49-.6,.67-.47,.27-.68,.27c-.12,0-.23-.03-.32-.08s-.14-.11-.14-.17,.02-.15,.05-.27c.1-.38,.15-.71,.15-.99s-.08-.54-.25-.78c-.22,.15-.36,.27-.42,.36-.17,.19-.3,.41-.39,.66-.1,.25-.15,.49-.15,.71,0,.16,.04,.28,.11,.38,.07,.09,.19,.17,.36,.24,.16,.07,.41,.14,.75,.22,.56,.14,.95,.27,1.18,.4,.05,.03,.13,.09,.24,.19,.17,.18,.25,.41,.25,.7,0,.3-.09,.61-.28,.92s-.48,.63-.88,.96c-.42,.36-.84,.61-1.26,.77-.42,.15-.88,.23-1.39,.23s-.87-.1-1.15-.29-.42-.46-.42-.79c0-.24,.09-.48,.28-.72s.41-.44,.69-.6,.54-.23,.81-.23c.2,0,.3,.04,.3,.13,0,.04-.03,.12-.09,.22-.17,.31-.26,.59-.26,.85,0,.18,.07,.36,.2,.53Z"/></g></g></g></svg>