<?xml version="1.0" encoding="UTF-8"?><svg id="a" xmlns="http://www.w3.org/2000/svg" xmlns:xlink="http://www.w3.org/1999/xlink" viewBox="0 0 2500 2500"><defs><style>.d{fill:url(#c);}.e{fill:none;}.f{fill:#081624;}</style><linearGradient id="c" x1="1600.45" y1="1154.1" x2="1600.45" y2="553.93" gradientTransform="matrix(1, 0, 0, 1, 0, 0)" gradientUnits="userSpaceOnUse"><stop offset="0" stop-color="#eb3d1f"/><stop offset="1" stop-color="#141466"/></linearGradient></defs><g><g><path class="f" d="M1317.41,1219.56l-35.73-88.29M1818.3,278.6h-79.88"/><path class="f" d="M1818.3,279.11v43.12c-30.25,3.21-58.09,16.73-83.55,40.57-25.51,23.89-49.35,66.08-71.66,126.54l-63.34,166.13-.14-11.01-.46-42.35c-.13-11.59,1.92-23.11,6.03-33.95l2.47-6.5c18.45-48.51,48.27-101.69,87.82-154.39,30.72-40.89,42.39-68.11,44.34-107.56,.84-17.29-2.42-14.36-4,3.58-2.14,23.93-12.13,48.42-29.97,73.56-16.36,23.05-45.12,60.18-47.63,61.53-4.37,2.34,9.3-46.77,18.48-69.62,1.94-4.83,3.63-8.82,4.94-10.58,1.77-2.32,1.05-2.01-1.76,.96-11.47,12.1-24.21,43.08-28.81,76.81-2.51,18.26-3.67,21.98-9.57,31-7.85,12.04-32.34,62.92-36.34,75.61-5.43,17.23-5.05,.49,1.43-54.84,.43-3.66,.48-6.92,1.06-10.96,1.96-13.73,3.43-25.56,5.09-36.62v-.05c3.32-19.8,7.28-33.79,18.15-57.98,3.11-6.91,7.28-14.61,11.55-23.58,20.63-43.45,21.33-45.4,9.01-26.16-13.8,21.61-27.56,46.89-30.16,55.3-3.21,10.46-5.11,5.62-5.3-13.24-.23-21.42-7.81-71.1-11.8-77.19-1.63-2.46-1.35,4.23,.65,16.08,3.86,23.14,4.41,43.26,.42,82.95-7.67-18.96-21.42-34.06-41.22-45.4-27.83-15.89-70.45-25.42-127.7-28.62v-43.12h381.98Z"/><path class="f" d="M1381.53,1227.13l-29.74,78.02-80.16,210.18h-40.61L791.75,457.79c-25.51-62.08-50.56-99.86-75.23-113.38-24.63-13.52-45.73-20.31-63.24-20.31v-45.49h520.45v45.49c-39.78,0-75.23,2.79-106.23,8.36-31.04,5.58-50.93,21.1-59.67,46.56-8.78,25.46-1.21,69.24,22.63,131.28l248.84,615.11,2.37,5.86,35.64,88.43s.05-.09,.09-.14l6.46,15.99,30.3-79.46,11.43,29.65,15.94,41.4Z"/></g><g id="b" transform="translate(-404.10947,-34.457619)"><path class="d" d="M1839.63,989.4c-22.86,23.65-66.13,51.72-100.65,65.34-25.46,10.04-60.5,17.8-100.51,22.31-50.14,5.67-89.82,11.85-106.14,16.59-23.04,6.68-76.29,31.56-111.56,51-6.35,3.5-11.26,9.13-13.84,15.91l-25.39,66.59-15.94-41.4-11.43-29.6,.05-.14,22.49-58.92s7.76-28.35,24.49-70.08c23.51-58.5,24.72-63.38,23.05-91.31-1.77-29.14-21.93-77.28-43.12-102.98-10.32-12.5-6.13-12.08,4.93,.51,21.19,24.02,38.34,54.42,43.96,77.7,5.86,24.49,7.34-13.29,1.86-47.17-6.83-41.82-16.77-66.96-44.75-112.92-5.67-9.29-9.25-16.59-7.99-16.22,4.41,1.39,22.91,26.3,32.95,44.38,27.46,49.4,38.15,88.9,35.32,132.53-.33,5.67-.93,11.38-1.72,17.19-2.74,19.42-16.82,65.43-30.86,100.61-6.04,15.24-13.29,36.29-16.08,46.7l-5.07,18.96,5.67-7.9c18.63-26.02,45.87-61.66,71.33-93.59,4.09-5.16,8.13-10.22,12.08-15.1,70.54-87.04,73.75-92.15,89.31-143.64,15.66-51.77,17.05-79.51,5.62-121.93-.28-.98-.51-1.91-.79-2.88-5.2-18.68-11.15-33.55-27.42-66.13-5.67-11.2-12.5-24.54-21-40.85-35.13-67.38-40.29-81.14-51.72-137.64-9.06-44.89-15.52-64.03-31.88-94.89-8.09-15.38-14.64-28.39-14.64-29.23,.19-.56,1.81-.56,3.67,.05,1.81,.56,10.6,14.41,19.52,30.81,8.88,16.4,16.31,29.28,16.54,28.58,.19-.65-1.86-15.33-4.55-32.62-2.7-17.29-4.23-31.79-3.39-32.2,.84-.42,1.67-.28,1.91,.33,.19,.6,2.28,6.23,4.6,12.41,4.69,12.45,8.5,37.13,10.64,69.29,2.04,29.97,15.85,95.17,21.51,101.63,.98,1.07,1.67-5.95,1.58-15.57-.37-34.94,9.71-75.93,24.3-98.7,5.62-8.74,10.32-9.11,6.13-.51-12.45,25.7-20.07,56.09-21.84,87.45-.93,16.96,3.11,52.32,7.53,65.57,1.44,4.41,14.03,27.28,27.93,50.88,3.35,5.67,6.69,11.57,9.94,17.33,10.36,18.31,19.56,35.78,22.63,43.17,3.95,9.57,7.48,17.29,7.95,17.29,.37-.23,.42-15.06,.09-32.99-.98-52.37-1.07-80.39,1.21-111.01,1.67-22.21,4.55-45.87,9.25-81.13,3.53-26.86,6.13-48.05,7.85-65.48,4-39.68,3.44-59.81-.42-82.95-2-11.85-2.28-18.54-.65-16.08,4,6.09,11.57,55.76,11.8,77.19,.19,18.87,2.09,23.7,5.3,13.24,2.6-8.41,16.36-33.69,30.16-55.3,12.32-19.24,11.62-17.29-9.01,26.16-19.19,40.34-25.42,56.09-29.69,81.55v.05c-.98,5.86-1.86,12.17-2.74,19.47-.98,7.9-1.86,15.24-2.7,22.07-7.16,60.13-7.76,78.72-2.14,60.87,4-12.69,28.49-63.57,36.34-75.61,5.9-9.02,7.06-12.73,9.57-31,4.6-33.74,16.54-65.52,28.81-76.81,2.93-2.7,3.76-2.93,2-.6-7.48,10.04-28.95,82.67-23.65,79.83,2.51-1.35,31.27-38.48,47.63-61.53,17.84-25.14,27.83-49.63,29.97-73.56,1.58-17.94,4.83-20.86,4-3.58-1.95,39.45-13.15,66.96-43.87,107.85-39.55,52.7-69.84,105.58-88.29,154.09l-1.28,3.38c-4.9,12.91-7.33,26.61-7.18,40.42l.42,39.01,.14,11.01,.56,48.89,18.26-33.83c16.12-29.74,19.14-36.85,25.09-59.48,3.72-14.13,7.48-33.88,8.36-43.91,1.77-21.14,4.79-27.42,6.37-13.34,3.3,29.51-9.29,76.86-32.02,120.49-18.31,35.22-27.05,62.78-30.02,94.8-3.21,33.92-22.49,103.21-35.83,128.63-5.3,10.13-9.34,19.05-8.97,19.8,1.49,2.74,29.32-18.45,41.22-31.27,19.52-21.05,27.51-35.6,37.59-68.12,4.83-15.75,9.71-34.11,10.73-40.75,1.02-6.65,2.74-11.8,3.81-11.48,3.58,1.07,.51,25.56-6.64,52.79-14.59,55.53-34.85,83.55-80.72,111.71-22.58,13.89-27,17.66-37.36,32.02-6.46,8.92-25.6,34.15-42.47,56.09-10.87,14.13-22.35,29.32-33.23,44.01-19.42,26.3-36.99,50.88-45.96,64.64l-7.2,11.06,28.02-14.54c.74-.37,1.49-.79,2.28-1.21,15.8-8.04,42.24-20.26,60.36-27.83,92.66-38.66,115.34-60.08,166.17-156.88,37.41-71.24,59.57-100.7,101.4-134.9,19.66-16.08,61.94-39.82,76.3-42.89l8.92-1.86-6.04,3.95c-3.35,2.14-13.85,8.64-23.37,14.36-23.23,13.94-58.27,42.84-77.65,63.94-22.58,24.58-35.18,44.01-66.82,102.84-37.69,70.08-56.23,95.91-84.95,118.4-20.31,15.89-20.17,15.66-8.78,13.66,14.82-2.6,53.9-7.95,77.19-10.5,17.01-1.86,23.75-4.18,45.87-15.94,29.14-15.47,48.33-32.02,67.61-58.37,13.75-18.77,13.57-13.38-.23,6.92-12.04,17.75-25.42,31.6-43.59,45.08-8.04,5.95-14.31,11.34-13.99,11.99s11.85-2.14,25.56-6.09c31.46-9.15,73.89-31.6,100.37-53.11,20.73-16.82,27.18-19.33,13.66-5.3Z"/></g><line class="e" x1="1354.16" y1="1156.13" x2="1351.79" y2="1162.35"/></g><g><g><path class="f" d="M511.37,1641.1v8.31c-11.08,1.8-20.97,7.71-29.65,17.74-6.29,7.49-15.65,25.08-28.08,52.78l-104.89,232.7h-7.41l-104.44-242.13c-12.58-29.2-21-46.34-25.27-51.44-4.27-5.09-12.32-8.31-24.15-9.66v-8.31h146v8.31h-4.94c-13.18,0-22.16,1.65-26.95,4.94-3.45,2.25-5.17,5.54-5.17,9.88,0,2.7,.6,5.88,1.8,9.55,1.2,3.67,5.24,13.52,12.13,29.54l64.91,151.61,60.2-134.99c7.19-16.32,11.6-27.25,13.25-32.79,1.65-5.54,2.47-10.25,2.47-14.15,0-4.49-1.2-8.46-3.59-11.9-2.4-3.44-5.92-6.06-10.56-7.86-6.44-2.54-14.98-3.82-25.61-3.82v-8.31h99.95Z"/><path class="f" d="M687.42,1658.62v123.98h6.06c19.32,0,33.32-6.06,42-18.19,8.68-12.13,14.22-30.02,16.62-53.68h8.54v159.47h-8.54c-1.8-17.37-5.58-31.59-11.34-42.68-5.77-11.08-12.47-18.53-20.1-22.35s-18.72-5.73-33.24-5.73v85.8c0,16.77,.71,27.03,2.13,30.77,1.42,3.75,4.08,6.82,7.97,9.21,3.89,2.4,10.18,3.59,18.87,3.59h18.19c28.45,0,51.25-6.59,68.39-19.77,17.14-13.17,29.46-33.24,36.95-60.2h8.31l-13.7,96.81h-263.24v-8.31h10.11c8.83,0,15.95-1.57,21.34-4.72,3.89-2.09,6.89-5.69,8.98-10.78,1.65-3.59,2.47-13.03,2.47-28.3v-200.35c0-13.77-.38-22.24-1.12-25.38-1.5-5.24-4.27-9.28-8.31-12.13-5.69-4.19-13.48-6.29-23.36-6.29h-10.11v-8.31h254.93v90.07h-8.54c-4.34-22.01-10.44-37.81-18.3-47.39-7.86-9.58-18.98-16.62-33.36-21.11-8.39-2.7-24.11-4.04-47.17-4.04h-31.45Z"/><path class="f" d="M1029.46,1641.1l150.26,188.9v-130.95c0-18.27-2.62-30.62-7.86-37.06-7.19-8.68-19.24-12.88-36.16-12.58v-8.31h100.62v8.31c-12.88,1.65-21.53,3.78-25.94,6.4-4.42,2.62-7.86,6.89-10.33,12.8-2.47,5.92-3.71,16.06-3.71,30.43v253.58h-7.64l-205.97-253.58v193.61c0,17.52,4,29.35,12.02,35.49,8.01,6.14,17.18,9.21,27.51,9.21h7.19v8.31h-108.04v-8.31c16.77-.15,28.45-3.59,35.04-10.33,6.59-6.74,9.88-18.19,9.88-34.37v-214.95l-6.51-8.09c-6.44-8.09-12.13-13.4-17.07-15.95-4.94-2.54-12.06-3.97-21.34-4.27v-8.31h108.04Z"/><path class="f" d="M1470.77,1636.83c48.52-1.8,87.93,12.35,118.26,42.45s45.48,67.76,45.48,112.98c0,38.63-11.31,72.63-33.92,101.97-29.95,38.93-72.25,58.4-126.9,58.4s-97.18-18.57-127.13-55.7c-23.66-29.35-35.49-64.16-35.49-104.44,0-45.22,15.39-82.92,46.16-113.09,30.77-30.17,68.62-44.36,113.54-42.56Zm2.7,14.38c-27.85,0-49.04,14.23-63.56,42.68-11.83,23.36-17.74,56.9-17.74,100.62,0,51.96,9.13,90.37,27.4,115.22,12.73,17.37,30.55,26.05,53.46,26.05,15.42,0,28.3-3.74,38.63-11.23,13.17-9.58,23.43-24.89,30.77-45.93,7.33-21.04,11.01-48.48,11.01-82.32,0-40.28-3.75-70.42-11.23-90.41-7.49-19.99-17.04-34.1-28.64-42.34-11.61-8.23-24.97-12.35-40.09-12.35Z"/><path class="f" d="M1707.69,1641.1h157.23v8.31h-7.86c-11.83,0-19.96,1.24-24.37,3.71-4.42,2.47-7.56,5.88-9.43,10.22-1.87,4.34-2.81,15.2-2.81,32.57v149.14c0,27.25,2.06,45.3,6.18,54.13,4.12,8.84,10.89,16.17,20.33,22.01s21.34,8.76,35.71,8.76c16.47,0,30.51-3.71,42.11-11.12,11.6-7.41,20.29-17.63,26.05-30.66,5.76-13.03,8.65-35.71,8.65-68.06v-124.21c0-13.62-1.42-23.36-4.27-29.2-2.85-5.84-6.44-9.88-10.78-12.13-6.74-3.44-16.25-5.17-28.53-5.17v-8.31h105.34v8.31h-6.29c-8.54,0-15.65,1.72-21.34,5.17-5.69,3.45-9.81,8.61-12.35,15.5-1.95,4.79-2.92,13.4-2.92,25.83v115.67c0,35.79-2.36,61.62-7.08,77.49-4.72,15.87-16.21,30.47-34.48,43.8-18.27,13.33-43.2,19.99-74.79,19.99-26.36,0-46.72-3.52-61.09-10.56-19.62-9.58-33.47-21.86-41.55-36.84-8.09-14.97-12.13-35.11-12.13-60.42v-149.14c0-17.52-.98-28.41-2.92-32.68-1.95-4.27-5.32-7.67-10.11-10.22-4.79-2.54-13.63-3.74-26.5-3.59v-8.31Z"/><path class="f" d="M2291.18,1634.13l2.47,101.52h-9.21c-4.34-25.45-15.01-45.93-32.01-61.43-17-15.5-35.38-23.25-55.14-23.25-15.27,0-27.37,4.08-36.27,12.24-8.91,8.16-13.36,17.56-13.36,28.19,0,6.74,1.57,12.73,4.72,17.97,4.34,7.04,11.3,14,20.89,20.89,7.04,4.94,23.28,13.7,48.74,26.28,35.64,17.52,59.67,34.07,72.1,49.64,12.28,15.58,18.42,33.39,18.42,53.46,0,25.46-9.92,47.36-29.76,65.7-19.84,18.34-45.03,27.51-75.58,27.51-9.58,0-18.64-.98-27.18-2.92-8.54-1.95-19.24-5.62-32.12-11.01-7.19-2.99-13.1-4.49-17.74-4.49-3.9,0-8.01,1.5-12.35,4.49-4.34,3-7.86,7.56-10.56,13.7h-8.31v-115h8.31c6.59,32.34,19.28,57.02,38.07,74.01,18.79,17,39.04,25.49,60.76,25.49,16.77,0,30.13-4.57,40.09-13.7,9.96-9.13,14.94-19.77,14.94-31.89,0-7.19-1.91-14.15-5.73-20.89s-9.62-13.14-17.41-19.2c-7.79-6.06-21.56-13.96-41.33-23.7-27.7-13.62-47.62-25.23-59.75-34.81-12.13-9.58-21.45-20.29-27.96-32.12-6.51-11.83-9.77-24.85-9.77-39.08,0-24.26,8.91-44.92,26.73-61.99,17.82-17.07,40.28-25.61,67.38-25.61,9.88,0,19.46,1.2,28.75,3.59,7.04,1.8,15.61,5.13,25.72,10,10.11,4.87,17.18,7.3,21.23,7.3s6.96-1.2,9.21-3.59c2.25-2.39,4.34-8.16,6.29-17.29h6.74Z"/></g><g><g><rect class="f" x="270" y="2129.41" width="298" height="35"/><rect class="f" x="1932" y="2129.41" width="298" height="35"/></g><g><path class="f" d="M749.15,2075.69v3.88c-5.15,.84-9.73,3.6-13.77,8.29-2.92,3.5-7.27,11.72-13.04,24.67l-48.7,108.76h-3.44l-48.5-113.17c-5.84-13.65-9.75-21.66-11.73-24.04-1.98-2.38-5.72-3.88-11.21-4.51v-3.88h67.79v3.88h-2.29c-6.12,0-10.29,.77-12.52,2.31-1.6,1.05-2.4,2.59-2.4,4.62,0,1.26,.28,2.75,.83,4.46,.55,1.72,2.43,6.32,5.63,13.8l30.14,70.86,27.95-63.09c3.34-7.63,5.39-12.74,6.15-15.33,.76-2.59,1.15-4.79,1.15-6.61,0-2.1-.56-3.95-1.67-5.56-1.11-1.61-2.75-2.83-4.9-3.67-2.99-1.19-6.95-1.78-11.89-1.78v-3.88h46.41Z"/><path class="f" d="M830.9,2083.87v57.95h2.82c8.97,0,15.47-2.83,19.5-8.5,4.03-5.67,6.6-14.03,7.72-25.09h3.96v74.53h-3.96c-.83-8.12-2.59-14.77-5.27-19.95-2.68-5.18-5.79-8.66-9.33-10.45-3.55-1.78-8.69-2.68-15.43-2.68v40.1c0,7.84,.33,12.63,.99,14.38,.66,1.75,1.89,3.18,3.7,4.3,1.81,1.12,4.73,1.68,8.76,1.68h8.45c13.21,0,23.8-3.08,31.76-9.24,7.96-6.16,13.68-15.54,17.16-28.13h3.86l-6.36,45.25h-122.23v-3.88h4.69c4.1,0,7.4-.73,9.91-2.2,1.81-.98,3.2-2.66,4.17-5.04,.76-1.68,1.15-6.09,1.15-13.23v-93.64c0-6.44-.17-10.39-.52-11.86-.7-2.45-1.98-4.34-3.86-5.67-2.64-1.96-6.26-2.94-10.85-2.94h-4.69v-3.88h118.37v42.1h-3.96c-2.02-10.29-4.85-17.67-8.5-22.15-3.65-4.48-8.81-7.77-15.49-9.87-3.9-1.26-11.2-1.89-21.9-1.89h-14.6Z"/><path class="f" d="M989.71,2075.69l69.77,88.29v-61.2c0-8.54-1.22-14.31-3.65-17.32-3.34-4.06-8.93-6.02-16.79-5.88v-3.88h46.72v3.88c-5.98,.77-10,1.77-12.05,2.99-2.05,1.23-3.65,3.22-4.8,5.98-1.15,2.77-1.72,7.51-1.72,14.22v118.52h-3.55l-95.64-118.52v90.49c0,8.19,1.86,13.72,5.58,16.59,3.72,2.87,7.98,4.3,12.78,4.3h3.34v3.88h-50.16v-3.88c7.79-.07,13.21-1.68,16.27-4.83,3.06-3.15,4.59-8.5,4.59-16.06v-100.46l-3.02-3.78c-2.99-3.78-5.63-6.26-7.93-7.45-2.29-1.19-5.6-1.85-9.91-1.99v-3.88h50.16Z"/><path class="f" d="M1246.88,2075.69v38.53h-3.76c-2.23-8.89-4.69-15.27-7.4-19.16-2.71-3.88-6.43-6.98-11.16-9.29-2.64-1.26-7.27-1.89-13.87-1.89h-10.53v109.81c0,7.28,.4,11.83,1.2,13.65,.8,1.82,2.36,3.41,4.69,4.78,2.33,1.36,5.51,2.05,9.54,2.05h4.69v3.88h-74.05v-3.88h4.69c4.1,0,7.4-.73,9.91-2.2,1.81-.98,3.23-2.66,4.28-5.04,.76-1.68,1.15-6.09,1.15-13.23v-109.81h-10.22c-9.53,0-16.44,2.03-20.75,6.09-6.05,5.67-9.87,13.75-11.47,24.25h-3.96v-38.53h127.03Z"/><path class="f" d="M1280.96,2075.69h73.01v3.88h-3.65c-5.49,0-9.27,.58-11.32,1.73-2.05,1.15-3.51,2.75-4.38,4.78-.87,2.03-1.3,7.1-1.3,15.22v69.71c0,12.74,.96,21.17,2.87,25.3,1.91,4.13,5.06,7.56,9.44,10.29s9.91,4.09,16.58,4.09c7.65,0,14.17-1.73,19.55-5.2,5.39-3.46,9.42-8.24,12.1-14.33,2.68-6.09,4.02-16.69,4.02-31.81v-58.05c0-6.37-.66-10.92-1.98-13.65-1.32-2.73-2.99-4.62-5.01-5.67-3.13-1.61-7.54-2.41-13.25-2.41v-3.88h48.91v3.88h-2.92c-3.96,0-7.27,.81-9.91,2.41-2.64,1.61-4.55,4.02-5.74,7.24-.9,2.24-1.36,6.26-1.36,12.07v54.06c0,16.73-1.1,28.8-3.29,36.22-2.19,7.42-7.53,14.24-16.01,20.47-8.48,6.23-20.06,9.34-34.73,9.34-12.24,0-21.69-1.64-28.37-4.93-9.11-4.48-15.54-10.22-19.29-17.22-3.75-7-5.63-16.41-5.63-28.24v-69.71c0-8.19-.45-13.28-1.36-15.27-.9-1.99-2.47-3.59-4.69-4.78-2.23-1.19-6.33-1.75-12.31-1.68v-3.88Z"/><path class="f" d="M1508.3,2153.16v39.89c0,7.7,.47,12.54,1.41,14.54,.94,1.99,2.59,3.59,4.95,4.78,2.36,1.19,6.78,1.78,13.24,1.78v3.88h-72.38v-3.88c6.53,0,10.97-.61,13.3-1.84,2.33-1.22,3.96-2.82,4.9-4.78,.94-1.96,1.41-6.79,1.41-14.49v-92.38c0-7.7-.47-12.54-1.41-14.54-.94-1.99-2.59-3.59-4.95-4.78-2.36-1.19-6.78-1.78-13.24-1.78v-3.88h65.7c17.1,0,29.62,1.19,37.55,3.57,7.93,2.38,14.39,6.77,19.4,13.17,5.01,6.4,7.51,13.91,7.51,22.52,0,10.5-3.76,19.18-11.26,26.03-4.8,4.34-11.51,7.59-20.13,9.76l34,48.18c4.45,6.23,7.61,10.11,9.49,11.65,2.85,2.17,6.15,3.36,9.91,3.57v3.88h-44.53l-45.58-64.88h-9.28Zm0-69.81v62.36h5.95c9.66,0,16.9-.89,21.69-2.68,4.8-1.78,8.57-5,11.32-9.66,2.75-4.65,4.12-10.72,4.12-18.21,0-10.85-2.52-18.86-7.56-24.04-5.04-5.18-13.16-7.77-24.35-7.77h-11.16Z"/><path class="f" d="M1685.37,2083.87v57.95h2.82c8.97,0,15.47-2.83,19.5-8.5,4.03-5.67,6.6-14.03,7.72-25.09h3.96v74.53h-3.96c-.83-8.12-2.59-14.77-5.27-19.95-2.68-5.18-5.79-8.66-9.33-10.45-3.55-1.78-8.69-2.68-15.43-2.68v40.1c0,7.84,.33,12.63,.99,14.38,.66,1.75,1.89,3.18,3.7,4.3,1.81,1.12,4.73,1.68,8.76,1.68h8.45c13.21,0,23.8-3.08,31.76-9.24,7.96-6.16,13.68-15.54,17.16-28.13h3.86l-6.36,45.25h-122.23v-3.88h4.69c4.1,0,7.4-.73,9.91-2.2,1.81-.98,3.2-2.66,4.17-5.04,.76-1.68,1.15-6.09,1.15-13.23v-93.64c0-6.44-.17-10.39-.52-11.86-.7-2.45-1.98-4.34-3.86-5.67-2.64-1.96-6.26-2.94-10.85-2.94h-4.69v-3.88h118.37v42.1h-3.96c-2.02-10.29-4.85-17.67-8.5-22.15-3.65-4.48-8.81-7.77-15.49-9.87-3.9-1.26-11.2-1.89-21.9-1.89h-14.6Z"/><path class="f" d="M1891.33,2072.43l1.15,47.45h-4.28c-2.02-11.9-6.97-21.47-14.86-28.71-7.89-7.24-16.43-10.87-25.6-10.87-7.09,0-12.71,1.91-16.84,5.72-4.14,3.81-6.21,8.21-6.21,13.17,0,3.15,.73,5.95,2.19,8.4,2.02,3.29,5.25,6.54,9.7,9.76,3.27,2.31,10.81,6.4,22.63,12.28,16.55,8.19,27.71,15.92,33.48,23.2,5.7,7.28,8.55,15.61,8.55,24.98,0,11.9-4.61,22.13-13.82,30.71-9.21,8.57-20.91,12.86-35.1,12.86-4.45,0-8.66-.46-12.62-1.36-3.96-.91-8.93-2.62-14.91-5.14-3.34-1.4-6.09-2.1-8.24-2.1-1.81,0-3.72,.7-5.74,2.1-2.02,1.4-3.65,3.53-4.9,6.4h-3.86v-53.75h3.86c3.06,15.12,8.95,26.65,17.68,34.59,8.72,7.94,18.13,11.92,28.21,11.92,7.79,0,13.99-2.13,18.62-6.4,4.62-4.27,6.94-9.24,6.94-14.91,0-3.36-.89-6.61-2.66-9.76-1.77-3.15-4.47-6.14-8.08-8.98-3.62-2.83-10.01-6.53-19.19-11.08-12.86-6.37-22.11-11.79-27.74-16.27-5.63-4.48-9.96-9.48-12.98-15.01-3.02-5.53-4.54-11.62-4.54-18.27,0-11.34,4.14-21,12.41-28.97,8.27-7.98,18.7-11.97,31.29-11.97,4.59,0,9.04,.56,13.35,1.68,3.27,.84,7.25,2.4,11.94,4.67,4.69,2.27,7.98,3.41,9.86,3.41s3.23-.56,4.28-1.68c1.04-1.12,2.02-3.81,2.92-8.08h3.13Z"/></g></g></g></svg>