<?xml version="1.0" encoding="UTF-8"?><svg id="a" xmlns="http://www.w3.org/2000/svg" xmlns:xlink="http://www.w3.org/1999/xlink" viewBox="0 0 1500 500"><defs><style>.d{fill:#fdffce;}.e{filter:url(#b);}.f{fill:#00063e;}</style><filter id="b" filterUnits="userSpaceOnUse"><feOffset dx="7" dy="7"/><feGaussianBlur result="c" stdDeviation="5"/><feFlood flood-color="#000" flood-opacity=".8"/><feComposite in2="c" operator="in"/><feComposite in="SourceGraphic"/></filter></defs><rect class="d" width="1500" height="500"/><g><g class="e"><g><path class="f" d="M462.09,240.55h0c-1.27,1.26-3.33,1.25-4.59-.02L316.87,99.9c-19.47-19.47-19.47-51.03,0-70.47l9.36-9.36c1.27-1.27,3.33-1.27,4.61,0l131.26,131.26c24.65,24.62,24.65,64.58,0,89.23Z"/><path class="f" d="M462.09,479.94h0c-1.27,1.27-3.33,1.27-4.61,0l-140.62-140.62c-19.47-19.47-19.47-51.04,0-70.51l9.36-9.36c1.27-1.27,3.33-1.27,4.61,0l131.26,131.26c24.64,24.64,24.64,64.59,0,89.23Z"/><path class="f" d="M462.09,360.23h0c-1.27,1.27-3.33,1.27-4.61,0l-140.62-140.62c-19.47-19.47-19.47-51.03,0-70.5l9.36-9.36c1.27-1.27,3.33-1.27,4.61,0l131.26,131.29c24.65,24.62,24.65,64.58,0,89.2Z"/></g><g><path class="f" d="M603.97,257.48c-8.18-8.28-13.94-15.62-17.27-22.05-3.33-6.42-4.99-13.29-4.99-20.62,0-11.03,3.35-21.4,10.06-31.11,6.71-9.7,15.7-17.41,26.97-23.12,11.27-5.71,23.38-8.56,36.32-8.56,14.65,0,25.92,3.05,33.82,9.13,7.9,6.09,11.84,14.7,11.84,25.83,0,5.33-1.43,10.84-4.28,16.55-2.85,5.71-6.8,11.04-11.84,15.98-3.42,3.42-6.61,6.02-9.56,7.78-2.95,1.76-5.42,2.64-7.42,2.64-2.47,0-3.71-1.9-3.71-5.71,0,.1,.19-1.38,.57-4.42,.57-4.47,.86-8.47,.86-11.99,0-4.95-.74-9.92-2.21-14.91-1.48-4.99-3.38-9.18-5.71-12.56-2.33-3.38-4.54-5.07-6.64-5.07-1.05,0-2.24,.81-3.57,2.43-2.57,2.67-4.57,5.98-5.99,9.93-1.43,3.95-2.14,7.64-2.14,11.07,0,4.29,.61,8.26,1.83,11.93,1.22,3.67,3.36,7.4,6.41,11.2,3.05,3.8,7.1,7.98,12.15,12.53,8,7.22,14.17,13.54,18.5,18.96,4.33,5.42,7.49,10.82,9.49,16.2,2,5.38,3,11.2,3,17.48,0,11.04-2.9,21.69-8.7,31.96-5.8,10.27-13.48,18.57-23.04,24.9-9.56,6.33-19.43,9.49-29.61,9.49s-19.17-2.09-28.4-6.28c-9.23-4.19-17.89-10.18-25.97-17.98-8.37-8.28-12.56-15.6-12.56-21.97,0-3.9,1.86-7.71,5.57-11.42,3.8-3.8,8.49-7.04,14.06-9.7,5.57-2.66,10.25-4,14.06-4,2.19,0,4.04,.55,5.57,1.64,1.52,1.09,2.88,2.95,4.07,5.57,1.19,2.62,2.35,6.16,3.5,10.63,1.81,6.37,3.47,11.11,4.99,14.2,1.52,3.09,3.66,6.16,6.42,9.2,2.85,2.85,5.85,4.28,8.99,4.28,3.8,0,6.8-1.5,8.99-4.5,2.19-3,3.28-7.12,3.28-12.35,0-8.18-2.9-16.37-8.69-24.56-1.71-2.76-3.58-5.21-5.63-7.35-2.04-2.14-6.49-6.25-13.35-12.33-2.1-1.71-5.43-4.7-10-8.97Z"/><path class="f" d="M822.2,175v-2.28c0-3.52-.48-5.28-1.43-5.28-1.24,0-3.16,1.9-5.78,5.71-2.62,3.81-4.97,8.04-7.06,12.7-5.23,11.89-9.85,24.47-13.84,37.74-4,13.27-7.09,26.52-9.28,39.74-.76,5.14-1.57,10.7-2.43,16.7l.71,.57c9.51-9.8,16.6-16.74,21.26-20.83,4.66-4.09,10.7-8.75,18.12-13.98,9.32-6.47,17.03-9.7,23.12-9.7,3.9,0,6.92,1.4,9.06,4.21,2.14,2.81,3.21,6.68,3.21,11.63,0,2.85-.57,6.94-1.71,12.27-2,11.23-3,20.69-3,28.4,0,3.52,.29,7.23,.86,11.13,.48,3.05,2.04,9.18,4.71,18.41,2.19,7.04,3.28,10.94,3.28,11.7,0,1.33-1.57,2.95-4.71,4.85-10.08,6.66-19.36,9.99-27.83,9.99-6.94,0-12.58-3.38-16.91-10.14-4.33-6.76-6.49-15.57-6.49-26.43,0-4.28,.43-9.48,1.28-15.57l-.71-.57c-13.51,13.92-22.54,23.31-27.1,28.18-16.94,16.36-29.97,24.53-39.1,24.53-4.19,0-7.64-2.78-10.35-8.35-2.71-5.57-4.07-12.82-4.07-21.76,0-19.21,5.94-43.76,17.84-73.63,4.76-11.61,9.8-22.71,15.13-33.32,5.33-10.61,10.42-19.76,15.27-27.47,3.52-5.42,7.21-10.15,11.06-14.2,3.85-4.04,7.75-7.42,11.7-10.13,3.95-2.71,7.97-4.73,12.06-6.06,4.09-1.33,8.18-2,12.27-2,10.18,0,18.48,3.14,24.9,9.42,6.42,6.28,9.63,14.32,9.63,24.12,0,6.85-1.95,14.13-5.85,21.83-3.9,7.71-9.37,15.03-16.41,21.97-4.47,4.38-9.54,8.25-15.2,11.63-5.66,3.38-10.06,5.07-13.2,5.07-.95,0-1.81-.33-2.57-1-.76-.66-1.14-1.52-1.14-2.57,0-1.43,1.24-4.52,3.71-9.28,2.85-5.23,5.66-11.63,8.42-19.19,2.76-7.56,4.87-14.74,6.35-21.55,1.47-6.8,2.21-12.53,2.21-17.19Z"/><path class="f" d="M986.26,205.4c14.17,0,21.26,1.67,21.26,4.99,0,3.81-3.19,5.85-9.56,6.14-7.71,.48-14.89,2.66-21.55,6.56-6.66,3.9-12.58,9.23-17.77,15.98-5.19,6.76-9.23,14.36-12.13,22.83-2.9,8.47-4.35,17.41-4.35,26.83,0,10.37,2.43,18.72,7.28,25.04,4.85,6.33,11.18,9.49,18.98,9.49,7.23,0,13.56-3.71,18.98-11.13,5.42-7.42,8.13-16.08,8.13-25.97,0-8.08-1.69-15.67-5.07-22.76-3.38-7.09-8.3-13.06-14.77-17.91-2.76-2.19-4.14-3.76-4.14-4.71,0-1.33,1.95-3.38,5.85-6.14,4.37-2.95,9.28-5.42,14.7-7.42,5.42-2,9.99-3,13.7-3,4.28,0,8.35,1.12,12.2,3.35,3.85,2.24,7.25,5.42,10.2,9.56,2.95,4.14,5.21,8.9,6.78,14.27,1.57,5.38,2.35,11.11,2.35,17.19,0,10.08-1.9,20.05-5.71,29.89-3.81,9.85-8.8,17.81-14.98,23.9-7.99,7.71-17.62,14.01-28.9,18.91-11.27,4.9-22,7.35-32.18,7.35s-19.72-1.71-29.47-5.14c-9.75-3.42-17.48-7.94-23.19-13.56-7.61-7.61-11.42-18.41-11.42-32.39,0-11.03,2.71-22.07,8.13-33.1,5.42-11.03,12.77-21.05,22.05-30.04,9.28-8.99,19.5-16.08,30.68-21.26,11.18-5.18,22.47-7.78,33.89-7.78Z"/><path class="f" d="M1121.06,273.71l8.6-10.02c8.7-9.63,15.59-16.81,20.67-21.53,5.08-4.72,9.65-8.12,13.69-10.22,4.04-2.1,8.15-3.15,12.33-3.15,6.75,0,11.5,1.81,14.26,5.42,2.76,3.62,4.14,9.89,4.14,18.84,0,3.71-.38,9.18-1.14,16.41-1.14,9.61-1.71,18.65-1.71,27.11,0,9.51,.48,17.22,1.43,23.12,.66,3.62,1.66,7.23,3,10.84,.95,3.42,1.43,5.76,1.43,6.99,0,1.52-.57,2.71-1.71,3.57-2.95,2.57-6.85,4.8-11.7,6.71-4.85,1.9-8.94,2.85-12.27,2.85-5.42,0-10.35-1.86-14.77-5.57-4.42-3.71-7.85-8.85-10.27-15.41-2.43-6.56-3.64-13.98-3.64-22.26,0-5.52,.57-12.03,1.71-19.55l-.57-.57c-4.09,4.57-7.4,8.18-9.92,10.84-2.52,2.66-4.88,5.19-7.06,7.56-10.65,12.18-19.69,23.17-27.11,32.96-2.85,3.81-5.47,7.13-7.85,9.99-3.52,3.52-7.52,5.28-11.99,5.28-6.09,0-11.04-2.28-14.84-6.85-3.81-4.57-5.71-10.46-5.71-17.69,0-4.47,.52-9.94,1.57-16.41,1.05-6.47,2.45-13.39,4.21-20.76,1.76-7.37,3.85-14.96,6.28-22.76,2.43-7.8,5.07-15.22,7.92-22.26,4.37-11.7,9.7-20.83,15.98-27.4,4.28-4.28,9.46-6.42,15.55-6.42,9.89,0,14.84,6.42,14.84,19.26,0,9.42-1.97,22.91-5.91,40.48l.57,.57Z"/><g><path class="f" d="M1035.31,174.87c12.05,6.52-11.11,24.81-24.81,24.81s-24.81-11.11-24.81-24.81,24.81-38.52,24.81-24.81,10.63,17.14,24.81,24.81Z"/><path class="f" d="M959.1,174.87c12.05,6.52-11.11,24.81-24.81,24.81s-24.81-11.11-24.81-24.81,24.81-38.52,24.81-24.81,10.63,17.14,24.81,24.81Z"/></g></g></g><g><path class="f" d="M593.11,449.42c-2.59,0-4.38-.58-5.36-1.73-.98-1.15-1.47-2.62-1.47-4.41,0-1.67,.35-3.66,1.04-5.97,.69-2.3,1.41-4.52,2.16-6.66,.98-2.82,2.16-6.14,3.54-9.94,1.38-3.8,2.87-7.78,4.45-11.93,1.58-4.15,3.2-8.24,4.84-12.27,1.64-4.03,3.24-7.69,4.8-10.98-3.98,.06-7.3,.14-9.98,.26-2.68,.12-5.09,.27-7.22,.48-2.13,.2-4.47,.53-7,.99,.17-1.96,1.18-3.49,3.03-4.58,1.84-1.09,4.32-1.87,7.43-2.33,3.11-.46,6.66-.69,10.63-.69s7.53,.16,10.68,.48c3.14,.32,6.09,.62,8.86,.91,2.77,.29,5.53,.46,8.3,.52-1.96,1.79-4.21,2.91-6.74,3.37-2.54,.46-5.22,.69-8.04,.69-.63,0-1.3-.01-1.99-.04-.69-.03-1.38-.04-2.07-.04h-2.07c-1.84,4.61-3.96,10.43-6.35,17.46-2.39,7.03-4.8,14.95-7.22,23.77-.81,3.06-1.54,5.79-2.2,8.21-.66,2.42-1.18,4.64-1.56,6.66-.38,2.02-.56,3.98-.56,5.88v.95c0,.35,.03,.66,.09,.95Z"/><path class="f" d="M627.69,445.19c-1.1,0-1.96-.92-2.59-2.77-.63-1.84-.95-3.92-.95-6.22,0-2.77,.46-6.05,1.38-9.86,.92-3.8,2.13-7.81,3.63-12.02,1.5-4.21,3.18-8.33,5.06-12.36,1.87-4.03,3.79-7.69,5.75-10.98,1.96-3.28,3.8-5.91,5.53-7.87,1.73-1.96,3.23-2.94,4.49-2.94,1.04,0,1.77,.62,2.2,1.86,.43,1.24,.65,2.44,.65,3.59,0,1.61-.36,3.57-1.08,5.88-.72,2.31-1.72,4.77-2.98,7.39-1.27,2.62-2.74,5.2-4.41,7.74-1.67,2.54-3.49,4.86-5.45,6.96-1.96,2.1-3.95,3.76-5.96,4.97-.69,1.67-1.28,3.54-1.77,5.62-.49,2.07-.85,4.11-1.08,6.09-.23,1.99-.35,3.76-.35,5.32,0,.63,.01,1.18,.04,1.64,.03,.46,.07,.89,.13,1.3,.81-2.36,1.69-4.65,2.64-6.87,.95-2.22,1.97-4.26,3.07-6.14,1.09-1.87,2.26-3.51,3.5-4.93,1.24-1.41,2.55-2.51,3.93-3.28,1.38-.78,2.85-1.17,4.41-1.17s2.9,.39,3.85,1.17c.95,.78,1.64,1.76,2.07,2.94,.43,1.18,.65,2.41,.65,3.67,0,1.79-.3,3.52-.91,5.19-.61,1.67-1.23,3.28-1.86,4.84-.63,1.56-.95,3.06-.95,4.5,0,1.15,.24,1.99,.73,2.51,.49,.52,1.11,.78,1.86,.78,1.32,0,2.81-.63,4.45-1.9,1.64-1.27,3.27-2.95,4.88-5.06,1.61-2.1,3-4.39,4.15-6.87l1.12,1.04c-1.21,2.82-2.68,5.37-4.41,7.65-1.73,2.28-3.63,4.08-5.71,5.4-2.07,1.32-4.24,1.99-6.48,1.99-1.96,0-3.44-.52-4.45-1.56-1.01-1.04-1.51-2.33-1.51-3.89,0-1.21,.23-2.56,.69-4.06,.46-1.5,.91-3.03,1.34-4.58,.43-1.56,.65-3.03,.65-4.41,0-1.5-.32-2.56-.95-3.2-.63-.63-1.41-.95-2.33-.95-1.44,0-2.74,.58-3.89,1.73-1.15,1.15-2.2,2.64-3.16,4.45-.95,1.82-1.84,3.73-2.68,5.75-.84,2.02-1.63,3.93-2.38,5.75-.75,1.82-1.5,3.3-2.25,4.45-.75,1.15-1.53,1.73-2.33,1.73Zm6.4-30c1.61-1.27,3.18-2.88,4.71-4.84,1.53-1.96,2.95-4.05,4.28-6.27,1.33-2.22,2.51-4.39,3.54-6.53,1.04-2.13,1.84-4.06,2.42-5.79,.58-1.73,.86-3.03,.86-3.89,0-.29-.03-.48-.09-.56-.06-.09-.14-.13-.26-.13-.4,0-1.23,.79-2.46,2.38-1.24,1.59-2.67,3.7-4.28,6.35-1.61,2.65-3.2,5.65-4.75,8.99-1.56,3.34-2.88,6.77-3.98,10.29Z"/><path class="f" d="M675.32,444.15c-2.25,0-3.92-.71-5.01-2.12-1.1-1.41-1.64-3.13-1.64-5.14,0-1.32,.25-3,.73-5.01,.49-2.02,1.14-4.13,1.95-6.35,.81-2.22,1.74-4.31,2.81-6.27,1.07-1.96,2.2-3.56,3.41-4.8,1.21-1.24,2.39-1.86,3.54-1.86,.52,0,.96,.16,1.34,.48,.37,.32,.56,.79,.56,1.43,0,.69-.45,1.81-1.34,3.37-.89,1.56-1.95,3.34-3.16,5.36-1.21,2.02-2.26,4.14-3.16,6.35-.89,2.22-1.34,4.34-1.34,6.35s.35,3.46,1.04,4.15c.69,.69,1.76,1.04,3.2,1.04,1.96,0,4.05-.98,6.27-2.94,2.22-1.96,4.57-5.39,7.05-10.29l.78,.86c-1.67,4.96-4.08,8.76-7.22,11.41-3.14,2.65-6.41,3.98-9.81,3.98Zm10.37-39.59c-.92,0-1.74-.23-2.46-.69-.72-.46-1.08-1.18-1.08-2.16,0-1.21,.7-2.26,2.12-3.15,1.41-.89,2.81-1.34,4.19-1.34,.86,0,1.56,.2,2.07,.61,.52,.4,.78,1.1,.78,2.08,0,1.1-.59,2.15-1.77,3.15-1.18,1.01-2.46,1.51-3.85,1.51Z"/><path class="f" d="M722.17,443.63c-2.02,0-3.53-.52-4.54-1.56-1.01-1.04-1.51-2.36-1.51-3.98,0-1.21,.22-2.48,.65-3.8,.43-1.32,.85-2.69,1.25-4.11,.4-1.41,.6-2.78,.6-4.11,0-1.61-.33-2.72-.99-3.33-.66-.61-1.48-.91-2.46-.91-1.79,0-3.6,.73-5.45,2.2-1.84,1.47-3.63,3.34-5.36,5.62-1.73,2.28-3.34,4.62-4.84,7.04-1.5,2.42-2.82,4.58-3.98,6.48-.92,0-1.8-.16-2.64-.48-.83-.32-1.48-.79-1.95-1.43,0-.29,.3-1.18,.91-2.68,.61-1.5,1.31-3.34,2.12-5.53,.81-2.19,1.53-4.44,2.16-6.74,.63-2.3,.95-4.41,.95-6.31,.35-.4,.89-.81,1.64-1.21,.75-.4,1.53-.6,2.33-.6,1.56,0,2.33,.75,2.33,2.25,0,.92-.26,2.46-.78,4.62-.52,2.16-1.18,4.42-1.99,6.79,1.56-2.36,3.3-4.71,5.23-7.05,1.93-2.33,3.99-4.28,6.18-5.84,2.19-1.56,4.38-2.33,6.57-2.33s3.88,.81,4.88,2.42c1.01,1.61,1.51,3.4,1.51,5.36,0,1.79-.29,3.44-.86,4.97-.58,1.53-1.17,3-1.77,4.41-.6,1.41-.91,2.84-.91,4.28,0,1.21,.24,2.06,.73,2.55,.49,.49,1.11,.73,1.86,.73,1.44,0,2.88-.68,4.32-2.03,1.44-1.35,2.84-3.07,4.19-5.14,1.35-2.07,2.55-4.18,3.59-6.31l.95,1.12c-1.21,2.82-2.56,5.33-4.06,7.52-1.5,2.19-3.14,3.92-4.93,5.19-1.79,1.27-3.77,1.9-5.96,1.9Z"/><path class="f" d="M764.53,445.19c-1.61,0-3-.55-4.15-1.64-1.15-1.1-2.06-2.48-2.72-4.15-.66-1.67-1.15-3.38-1.47-5.14-.32-1.76-.48-3.3-.48-4.63,.63,0,1.56-.16,2.77-.48,1.21-.32,2.45-.81,3.72-1.47,1.27-.66,2.35-1.53,3.24-2.59,.89-1.07,1.34-2.32,1.34-3.76,0-1.21-.43-2.16-1.3-2.85-.86-.69-1.87-1.04-3.03-1.04-1.79,0-3.46,.62-5.01,1.86-1.56,1.24-2.95,2.85-4.19,4.84-1.24,1.99-2.35,4.11-3.33,6.35-.98,2.25-1.82,4.38-2.51,6.4-.69,2.02-1.27,3.69-1.73,5.01-.35,1.04-.84,1.74-1.47,2.12-.63,.37-1.3,.56-1.99,.56-.98,0-1.69-.4-2.12-1.21-.43-.81-.69-1.83-.78-3.07-.09-1.24-.13-2.52-.13-3.85,0-3,.49-6.45,1.47-10.37,.98-3.92,2.29-8,3.93-12.23,1.64-4.24,3.44-8.34,5.4-12.32,1.96-3.98,3.92-7.58,5.88-10.81,1.96-3.23,3.77-5.79,5.45-7.69,1.67-1.9,3.03-2.85,4.06-2.85,.81,0,1.45,.55,1.95,1.64,.49,1.1,.73,2.42,.73,3.98,0,1.96-.43,4.16-1.3,6.61-.86,2.45-2.09,4.91-3.67,7.39-1.59,2.48-3.46,4.81-5.62,7-2.16,2.19-4.51,4.06-7.05,5.62-1.9,4.67-3.33,9.21-4.28,13.62-.95,4.41-1.43,8.11-1.43,11.11,.92-2.3,2.03-4.84,3.33-7.61,1.3-2.77,2.78-5.42,4.45-7.95,1.67-2.54,3.49-4.61,5.45-6.22,1.96-1.61,4.01-2.42,6.14-2.42s3.95,.75,5.45,2.25c1.5,1.5,2.25,3.31,2.25,5.45,0,1.84-.48,3.41-1.43,4.71-.95,1.3-2.1,2.33-3.46,3.11-1.35,.78-2.71,1.35-4.06,1.73-1.35,.38-2.46,.56-3.33,.56,.06,.46,.23,1.3,.52,2.51,.29,1.21,.71,2.48,1.25,3.8,.55,1.33,1.22,2.46,2.03,3.41,.81,.95,1.79,1.43,2.94,1.43,1.67,0,3.26-.63,4.75-1.9,1.5-1.27,2.92-2.95,4.28-5.06,1.35-2.1,2.61-4.48,3.76-7.13l.86,.86c-.81,2.82-2.05,5.49-3.72,8-1.67,2.51-3.53,4.55-5.58,6.14-2.05,1.58-4.08,2.38-6.09,2.38Zm-12.62-36.22c2.65-2.13,4.97-4.55,6.96-7.26,1.99-2.71,3.53-5.32,4.62-7.82,1.09-2.51,1.64-4.48,1.64-5.92,0-.29-.01-.49-.04-.61-.03-.11-.1-.17-.22-.17-.58,0-1.57,1.01-2.98,3.03-1.41,2.02-3.01,4.68-4.8,8-1.79,3.31-3.52,6.9-5.19,10.76Z"/><path class="f" d="M816.57,448.21c-3,0-5.23-.98-6.7-2.94-1.47-1.96-2.2-4.61-2.2-7.95,0-2.88,.49-6.28,1.47-10.2,.98-3.92,2.28-8.02,3.89-12.32,1.61-4.29,3.41-8.48,5.4-12.58,1.99-4.09,3.99-7.79,6.01-11.11,2.02-3.31,3.92-5.97,5.71-7.95,1.79-1.99,3.26-2.98,4.41-2.98,.98,0,1.69,.61,2.12,1.82,.43,1.21,.65,2.42,.65,3.63,0,1.61-.35,3.57-1.04,5.88-.69,2.31-1.67,4.77-2.94,7.39-1.27,2.62-2.74,5.2-4.41,7.74-1.67,2.54-3.47,4.86-5.4,6.96-1.93,2.1-3.91,3.76-5.92,4.97-.35,.64-.85,1.95-1.51,3.93-.66,1.99-1.27,4.27-1.82,6.83-.55,2.57-.82,5.06-.82,7.48s.36,4.31,1.08,5.84c.72,1.53,1.95,2.29,3.67,2.29s3.4-.68,5.19-2.03c1.79-1.35,3.23-3.1,4.32-5.23-2.13-1.09-3.72-2.69-4.75-4.8-1.04-2.1-1.56-4.22-1.56-6.35,0-2.77,.72-4.98,2.16-6.66,1.44-1.67,3.14-2.51,5.1-2.51,1.67,0,3,.68,3.98,2.03,.98,1.35,1.47,3.33,1.47,5.92,0,1.9-.26,3.86-.78,5.88-.52,2.02-1.27,3.98-2.25,5.88,.35,.06,.71,.12,1.08,.17,.37,.06,.76,.09,1.17,.09,2.07,0,3.8-.5,5.19-1.51,1.38-1.01,2.55-2.25,3.5-3.72,.95-1.47,1.74-2.87,2.38-4.19l1.04,1.12c-1.61,3.98-3.53,6.61-5.75,7.91-2.22,1.3-4.42,1.95-6.61,1.95-.46,0-.92-.03-1.38-.09-.46-.06-.92-.12-1.38-.17-1.56,2.65-3.47,4.91-5.75,6.79-2.28,1.87-4.94,2.81-8,2.81Zm1.99-33.02c1.61-1.27,3.18-2.88,4.71-4.84,1.53-1.96,2.95-4.05,4.28-6.27,1.33-2.22,2.51-4.39,3.54-6.53,1.04-2.13,1.84-4.06,2.42-5.79,.58-1.73,.86-3.03,.86-3.89,0-.29-.03-.48-.09-.56-.06-.09-.14-.13-.26-.13-.46,0-1.34,.82-2.64,2.46-1.3,1.64-2.74,3.83-4.32,6.57-1.59,2.74-3.16,5.76-4.71,9.08-1.56,3.31-2.82,6.61-3.8,9.9Zm10.03,20.75c.63-1.33,1.12-2.72,1.47-4.19,.35-1.47,.52-2.98,.52-4.54,0-2.02-.27-3.6-.82-4.75-.55-1.15-1.23-1.73-2.03-1.73-.86,0-1.63,.59-2.29,1.77-.66,1.18-.99,2.67-.99,4.45,0,1.56,.32,3.2,.95,4.93,.63,1.73,1.7,3.08,3.2,4.06Z"/><path class="f" d="M856.24,445.71c-3.52,0-6.15-.97-7.91-2.9-1.76-1.93-2.64-4.31-2.64-7.13,0-2.59,.65-5.33,1.95-8.21,1.3-2.88,3.03-5.59,5.19-8.13,2.16-2.54,4.54-4.59,7.13-6.18,2.59-1.58,5.16-2.38,7.69-2.38,1.33,0,2.55,.35,3.67,1.04,1.12,.69,1.69,2.1,1.69,4.24s-.65,4.25-1.95,6.18c-1.3,1.93-3,3.65-5.1,5.14-2.1,1.5-4.41,2.72-6.92,3.67-2.51,.95-5,1.54-7.48,1.77-.12,.58-.2,1.12-.26,1.64-.06,.52-.09,1.01-.09,1.47,0,.86,.1,1.73,.3,2.59,.2,.86,.56,1.66,1.08,2.38,.52,.72,1.22,1.28,2.12,1.69,.89,.4,2,.61,3.33,.61,2.48,0,4.93-.71,7.35-2.12,2.42-1.41,4.67-3.27,6.74-5.58,2.07-2.3,3.83-4.84,5.27-7.61l1.04,.78c-1.56,3.46-3.53,6.45-5.92,8.99-2.39,2.54-4.99,4.51-7.78,5.92-2.8,1.41-5.63,2.12-8.51,2.12Zm-4.24-14.52c1.56-.52,3.31-1.28,5.27-2.29,1.96-1.01,3.85-2.2,5.66-3.59,1.82-1.38,3.31-2.91,4.5-4.58,1.18-1.67,1.77-3.43,1.77-5.27,0-.63-.12-1.12-.35-1.47-.23-.35-.72-.52-1.47-.52-1.38,0-2.85,.53-4.41,1.6-1.56,1.07-3.06,2.46-4.49,4.19-1.44,1.73-2.74,3.63-3.89,5.71-1.15,2.07-2.02,4.15-2.59,6.22Z"/><path class="f" d="M884.17,445.97c-1.79,0-3.3-.59-4.54-1.77-1.24-1.18-1.86-2.98-1.86-5.4,0-2.08,.46-4.31,1.38-6.7,.92-2.39,2.19-4.75,3.8-7.09,1.61-2.33,3.44-4.47,5.49-6.4,2.05-1.93,4.21-3.47,6.48-4.62,2.28-1.15,4.54-1.73,6.79-1.73s4.12,.59,5.62,1.77c1.5,1.18,2.25,2.75,2.25,4.71,0,1.44-.39,2.42-1.17,2.94-.78,.52-1.8,.78-3.07,.78,.11-.46,.22-.96,.3-1.51,.09-.55,.13-1.05,.13-1.51,0-1.32-.32-2.46-.95-3.41-.63-.95-1.73-1.43-3.28-1.43s-3.26,.56-4.93,1.69c-1.67,1.12-3.28,2.62-4.84,4.49-1.56,1.87-2.94,3.91-4.15,6.09-1.21,2.19-2.16,4.35-2.85,6.48-.69,2.13-1.04,4.04-1.04,5.71,0,2.25,.78,3.37,2.33,3.37,1.32,0,2.77-.62,4.32-1.86,1.56-1.24,3.16-2.82,4.8-4.75,1.64-1.93,3.21-3.93,4.71-6.01,1.5-2.07,2.82-3.98,3.98-5.71,.23-.35,.37-.52,.43-.52,.35,.06,.79,.17,1.34,.35,.55,.17,1.02,.4,1.43,.69,.4,.29,.61,.66,.61,1.12,0,.52-.26,1.23-.78,2.12-.52,.89-1.1,1.92-1.73,3.07-.63,1.15-1.21,2.32-1.73,3.5-.52,1.18-.78,2.29-.78,3.33,0,.86,.23,1.72,.69,2.55,.46,.84,1.21,1.25,2.25,1.25,1.56,0,3.6-1.14,6.14-3.41,2.54-2.28,5.1-5.69,7.69-10.24l.86,.86c-1.21,3.11-2.77,5.85-4.67,8.21-1.9,2.36-3.93,4.21-6.09,5.53-2.16,1.32-4.28,1.99-6.35,1.99s-3.7-.63-4.71-1.9c-1.01-1.27-1.51-2.65-1.51-4.15,0-.35,.03-.73,.09-1.17,.06-.43,.11-.88,.17-1.34-2.48,3.34-4.74,5.85-6.79,7.52-2.05,1.67-4.14,2.51-6.27,2.51Z"/><path class="f" d="M928.51,444.5c-1.96,0-3.53-.88-4.71-2.64-1.18-1.76-1.77-3.79-1.77-6.09,0-1.67,.27-3.6,.82-5.79,.55-2.19,1.22-4.35,2.03-6.48,.81-2.13,1.64-3.89,2.51-5.27,.86-1.38,1.61-2.08,2.25-2.08,.29,0,.78,.16,1.47,.48,.69,.32,1.27,.73,1.73,1.25-.63,.98-1.41,2.48-2.33,4.49-.92,2.02-1.73,4.18-2.42,6.48-.69,2.31-1.04,4.44-1.04,6.4,0,.46,.06,1.17,.17,2.12,.11,.95,.4,1.8,.86,2.55,.46,.75,1.15,1.12,2.07,1.12,1.09,0,2.22-.56,3.37-1.69,1.15-1.12,2.32-2.58,3.5-4.37,1.18-1.79,2.32-3.72,3.41-5.79,1.09-2.08,2.12-4.06,3.07-5.97,.95-1.9,1.74-3.49,2.38-4.75,.35,.06,.85,.17,1.51,.35,.66,.17,1.27,.4,1.82,.69,.55,.29,.82,.69,.82,1.21,0,.23-.29,.99-.86,2.29-.58,1.3-1.25,2.88-2.03,4.75-.78,1.87-1.46,3.76-2.03,5.66-.58,1.9-.86,3.57-.86,5.01,0,1.04,.22,1.87,.65,2.51,.43,.64,1.17,.95,2.2,.95,1.21,0,2.68-.55,4.41-1.64,1.73-1.09,3.49-2.69,5.27-4.8,1.79-2.1,3.37-4.62,4.75-7.56l1.12,.78c-1.21,3.11-2.8,5.86-4.75,8.26-1.96,2.39-4.03,4.25-6.22,5.58-2.19,1.32-4.32,1.99-6.4,1.99-1.5,0-2.69-.29-3.59-.86-.89-.58-1.53-1.35-1.9-2.33-.38-.98-.56-2.05-.56-3.2,0-.69,.06-1.4,.17-2.12,.12-.72,.26-1.45,.43-2.2-1.04,1.9-2.16,3.67-3.37,5.32-1.21,1.64-2.48,2.95-3.8,3.93-1.33,.98-2.71,1.47-4.15,1.47Z"/><path class="f" d="M971.56,445.88c-2.48,0-4.38-.72-5.71-2.16-1.33-1.44-1.99-3.57-1.99-6.4,0-2.54,.48-5.66,1.43-9.38,.95-3.72,2.15-7.53,3.59-11.45-.58-.12-1.12-.22-1.64-.3-.52-.09-1.01-.22-1.47-.39v-1.56c.46,.06,1.01,.12,1.64,.17,.63,.06,1.35,.12,2.16,.17,1.21-3.11,2.51-6.12,3.89-9.03,1.38-2.91,2.75-5.5,4.11-7.78,1.35-2.28,2.65-4.09,3.89-5.45,1.24-1.35,2.29-2.03,3.16-2.03,.46,0,.88,.16,1.25,.48,.37,.32,.56,.79,.56,1.43,0,.98-.61,2.58-1.82,4.8-1.21,2.22-2.71,4.86-4.5,7.91-1.79,3.06-3.52,6.37-5.19,9.94h3.2c1.9,0,3.9-.03,6.01-.09,2.1-.06,4.22-.2,6.35-.43v1.56c-3.17,.35-6.01,.61-8.51,.78-2.51,.17-4.74,.26-6.7,.26h-1.3c-1.33,3.06-2.45,6.2-3.37,9.42-.92,3.23-1.38,6.37-1.38,9.42,0,2.48,.37,4.25,1.12,5.32,.75,1.07,1.99,1.6,3.72,1.6,3,0,5.93-1.33,8.82-3.98,2.88-2.65,5.42-6.25,7.61-10.81l1.12,.86c-1.38,3.23-3.13,6.14-5.23,8.73-2.1,2.59-4.42,4.64-6.96,6.14-2.54,1.5-5.16,2.25-7.87,2.25Z"/><path class="f" d="M999.39,444.15c-2.25,0-3.92-.71-5.01-2.12-1.1-1.41-1.64-3.13-1.64-5.14,0-1.32,.25-3,.73-5.01,.49-2.02,1.14-4.13,1.95-6.35,.81-2.22,1.74-4.31,2.81-6.27,1.07-1.96,2.2-3.56,3.41-4.8,1.21-1.24,2.39-1.86,3.54-1.86,.52,0,.96,.16,1.34,.48,.37,.32,.56,.79,.56,1.43,0,.69-.45,1.81-1.34,3.37-.89,1.56-1.95,3.34-3.16,5.36-1.21,2.02-2.26,4.14-3.15,6.35-.89,2.22-1.34,4.34-1.34,6.35s.35,3.46,1.04,4.15c.69,.69,1.76,1.04,3.2,1.04,1.96,0,4.05-.98,6.27-2.94,2.22-1.96,4.57-5.39,7.05-10.29l.78,.86c-1.67,4.96-4.08,8.76-7.22,11.41-3.14,2.65-6.41,3.98-9.81,3.98Zm10.37-39.59c-.92,0-1.74-.23-2.46-.69-.72-.46-1.08-1.18-1.08-2.16,0-1.21,.71-2.26,2.12-3.15,1.41-.89,2.81-1.34,4.19-1.34,.86,0,1.56,.2,2.07,.61,.52,.4,.78,1.1,.78,2.08,0,1.1-.59,2.15-1.77,3.15-1.18,1.01-2.46,1.51-3.85,1.51Z"/><path class="f" d="M1017.2,466.11c-.58,0-1.24-.19-1.99-.56-.75-.38-1.4-1.11-1.95-2.2-.55-1.1-.82-2.71-.82-4.84,0-2.54,.43-5.83,1.3-9.9,.86-4.06,2.05-8.54,3.54-13.44,1.5-4.9,3.23-9.93,5.19-15.08,1.96-5.16,4.08-10.14,6.35-14.95,2.28-4.81,4.61-9.13,7-12.97,2.39-3.83,4.74-6.87,7.04-9.12,2.3-2.25,4.5-3.37,6.57-3.37,1.21,0,2,.38,2.38,1.12,.37,.75,.56,1.64,.56,2.68,0,2.48-.68,5.19-2.03,8.13-1.35,2.94-3.16,5.89-5.4,8.86-2.25,2.97-4.73,5.79-7.43,8.47-2.71,2.68-5.45,4.97-8.21,6.87-.29,.69-.56,1.4-.82,2.12-.26,.72-.53,1.46-.82,2.2,.63,.12,1.14,.45,1.51,.99,.37,.55,.59,1.14,.65,1.77,.4,2.59,.83,4.91,1.3,6.96,.46,2.05,1.17,3.65,2.12,4.8,.95,1.15,2.32,1.73,4.11,1.73,2.02,0,3.72-.74,5.1-2.2,1.38-1.47,2.88-3.56,4.5-6.27l1.3,.86c-1.44,3.46-3.27,5.96-5.49,7.52-2.22,1.56-4.16,2.33-5.84,2.33-1.04,0-2.12-.26-3.24-.78-1.12-.52-2.18-1.21-3.15-2.07,0,3.63-.39,7.23-1.17,10.81-.78,3.57-1.8,6.83-3.07,9.77-1.27,2.94-2.68,5.3-4.24,7.09-1.56,1.79-3.17,2.68-4.84,2.68Zm2.25-4.15c.63,0,1.35-.58,2.16-1.73,.81-1.15,1.6-2.67,2.38-4.54,.78-1.87,1.48-3.93,2.12-6.18,.63-2.25,1.15-4.5,1.56-6.74,.4-2.25,.61-4.26,.61-6.05s-.23-3.41-.69-4.88c-.46-1.47-1.21-3.21-2.25-5.23-1.44,4.32-2.74,8.5-3.89,12.53-1.15,4.03-2.05,7.66-2.68,10.89-.63,3.23-.95,5.82-.95,7.78,0,2.77,.55,4.15,1.64,4.15Zm11.24-49.71c3.75-3.46,6.99-6.93,9.72-10.42,2.74-3.49,4.85-6.6,6.35-9.34,1.5-2.74,2.25-4.68,2.25-5.84,0-.81-.4-1.21-1.21-1.21-1.5,0-3.2,1.22-5.1,3.67-1.9,2.45-3.89,5.69-5.96,9.73-2.08,4.03-4.09,8.5-6.05,13.4Z"/><path class="f" d="M1056.1,444.5c-1.96,0-3.53-.88-4.71-2.64-1.18-1.76-1.77-3.79-1.77-6.09,0-1.67,.27-3.6,.82-5.79,.55-2.19,1.22-4.35,2.03-6.48,.81-2.13,1.64-3.89,2.51-5.27,.86-1.38,1.61-2.08,2.25-2.08,.29,0,.78,.16,1.47,.48,.69,.32,1.27,.73,1.73,1.25-.63,.98-1.41,2.48-2.33,4.49-.92,2.02-1.73,4.18-2.42,6.48-.69,2.31-1.04,4.44-1.04,6.4,0,.46,.06,1.17,.17,2.12,.11,.95,.4,1.8,.86,2.55,.46,.75,1.15,1.12,2.08,1.12,1.09,0,2.22-.56,3.37-1.69,1.15-1.12,2.32-2.58,3.5-4.37,1.18-1.79,2.32-3.72,3.41-5.79,1.09-2.08,2.12-4.06,3.07-5.97,.95-1.9,1.74-3.49,2.38-4.75,.35,.06,.85,.17,1.51,.35,.66,.17,1.27,.4,1.82,.69,.55,.29,.82,.69,.82,1.21,0,.23-.29,.99-.86,2.29-.58,1.3-1.25,2.88-2.03,4.75-.78,1.87-1.46,3.76-2.03,5.66-.58,1.9-.86,3.57-.86,5.01,0,1.04,.22,1.87,.65,2.51,.43,.64,1.17,.95,2.2,.95,1.21,0,2.68-.55,4.41-1.64,1.73-1.09,3.49-2.69,5.27-4.8,1.79-2.1,3.37-4.62,4.75-7.56l1.12,.78c-1.21,3.11-2.8,5.86-4.75,8.26-1.96,2.39-4.03,4.25-6.22,5.58-2.19,1.32-4.32,1.99-6.4,1.99-1.5,0-2.7-.29-3.59-.86-.89-.58-1.53-1.35-1.9-2.33-.38-.98-.56-2.05-.56-3.2,0-.69,.06-1.4,.17-2.12,.12-.72,.26-1.45,.43-2.2-1.04,1.9-2.16,3.67-3.37,5.32-1.21,1.64-2.48,2.95-3.8,3.93-1.33,.98-2.71,1.47-4.15,1.47Z"/><path class="f" d="M1098.98,444.5c-2.48,0-4.25-.85-5.32-2.55-1.07-1.7-1.6-3.82-1.6-6.35,0-2.77,.52-6.05,1.56-9.86,1.04-3.8,2.41-7.81,4.11-12.02,1.7-4.21,3.56-8.31,5.58-12.32,2.02-4.01,4.03-7.65,6.05-10.94,2.02-3.28,3.88-5.91,5.58-7.87,1.7-1.96,3.04-2.94,4.02-2.94,.63,0,1.15,.36,1.56,1.08,.4,.72,.72,1.59,.95,2.59,.23,1.01,.35,1.92,.35,2.72,0,1.56-.39,3.59-1.17,6.09-.78,2.51-1.87,5.3-3.28,8.39-1.41,3.08-3.08,6.2-5.01,9.34-1.93,3.14-4.03,6.15-6.31,9.03-2.28,2.88-4.68,5.36-7.22,7.43-.35,1.56-.62,3.07-.82,4.54-.2,1.47-.3,2.87-.3,4.19,0,4.44,1.27,6.66,3.8,6.66,1.38,0,2.78-.59,4.19-1.77,1.41-1.18,2.77-2.69,4.06-4.54,1.3-1.84,2.43-3.8,3.41-5.88,.58-3,1.44-6.21,2.59-9.64,1.15-3.43,2.48-6.87,3.98-10.33,1.5-3.46,3.08-6.77,4.75-9.94,1.67-3.17,3.31-5.99,4.93-8.47,1.61-2.48,3.11-4.44,4.49-5.88,1.38-1.44,2.51-2.16,3.37-2.16,.63,0,1.15,.36,1.56,1.08,.4,.72,.72,1.59,.95,2.59,.23,1.01,.35,1.92,.35,2.72,0,1.9-.49,4.39-1.47,7.48-.98,3.08-2.38,6.38-4.19,9.9-1.82,3.52-4.01,6.99-6.57,10.42-2.56,3.43-5.43,6.44-8.6,9.03-.35,1.56-.62,3.07-.82,4.54-.2,1.47-.3,2.87-.3,4.19,0,4.44,1.27,6.66,3.8,6.66,1.56,0,3.1-.69,4.62-2.07,1.53-1.38,2.97-3.13,4.32-5.23,1.35-2.1,2.52-4.28,3.5-6.53l1.3,.69c-2.31,4.9-4.81,8.77-7.52,11.63-2.71,2.85-5.62,4.28-8.73,4.28-2.77,0-4.67-1.04-5.71-3.11-1.04-2.07-1.41-4.67-1.12-7.78-2.02,3.4-4.16,6.07-6.44,8-2.28,1.93-4.68,2.9-7.22,2.9Zm.61-21.09c2.02-2.02,3.98-4.34,5.88-6.96,1.9-2.62,3.67-5.34,5.32-8.17,1.64-2.82,3.1-5.56,4.37-8.21,1.27-2.65,2.25-5.03,2.94-7.13,.69-2.1,1.04-3.73,1.04-4.88,0-.58-.07-.95-.22-1.12-.14-.17-.27-.26-.39-.26-.46,0-1.25,.74-2.38,2.2-1.12,1.47-2.44,3.44-3.93,5.92-1.5,2.48-3.03,5.3-4.58,8.47-1.56,3.17-3.04,6.48-4.45,9.94-1.41,3.46-2.61,6.86-3.59,10.2Zm20.49,0c2.54-2.54,4.85-5.33,6.96-8.39,2.1-3.05,3.93-6.11,5.49-9.16,1.56-3.05,2.77-5.85,3.63-8.39,.86-2.54,1.3-4.52,1.3-5.96,0-.58-.07-.95-.22-1.12-.14-.17-.27-.26-.39-.26-.58,0-1.54,.94-2.9,2.81-1.35,1.87-2.88,4.4-4.58,7.56-1.7,3.17-3.37,6.74-5.01,10.72-1.64,3.98-3.07,8.04-4.28,12.19Z"/><path class="f" d="M1140.73,466.11c-1.44,0-2.71-.39-3.8-1.17-1.09-.78-1.64-1.92-1.64-3.41,0-1.85,.46-3.49,1.38-4.93,.92-1.44,2.16-2.77,3.72-3.98,1.56-1.21,3.34-2.36,5.36-3.46,2.02-1.1,4.12-2.19,6.31-3.28,.81-2.13,1.63-4.51,2.46-7.13,.83-2.62,1.63-5.52,2.38-8.69-1.84,3-3.82,5.58-5.92,7.74-2.1,2.16-4.34,3.24-6.7,3.24-1.1,0-2.18-.24-3.24-.73-1.07-.49-1.95-1.25-2.64-2.29-.69-1.04-1.04-2.36-1.04-3.98s.27-3.49,.82-5.62c.55-2.13,1.22-4.21,2.03-6.22,.81-2.02,1.64-3.69,2.51-5.01,.86-1.32,1.61-1.99,2.25-1.99,.23,0,.65,.09,1.25,.26,.61,.17,1.18,.42,1.73,.74,.55,.32,.82,.65,.82,.99-.52,.75-1.1,1.81-1.73,3.2-.63,1.38-1.25,2.93-1.86,4.62-.61,1.7-1.11,3.36-1.51,4.97-.4,1.61-.61,3-.61,4.15,0,1.04,.23,1.87,.69,2.51,.46,.64,1.27,.95,2.42,.95,1.09,0,2.32-.53,3.67-1.6,1.35-1.07,2.71-2.43,4.06-4.11,1.35-1.67,2.61-3.46,3.76-5.36,.17-.63,.33-1.28,.48-1.95,.14-.66,.27-1.34,.39-2.03,.17-.81,.59-1.74,1.25-2.81,.66-1.07,1.71-1.6,3.16-1.6,.29,0,.58,.01,.86,.04,.29,.03,.6,.1,.95,.22,0,.92-.27,2.64-.82,5.14-.55,2.51-1.33,5.43-2.33,8.77-1.01,3.34-2.2,6.77-3.59,10.29,2.71-1.04,5.36-2.75,7.95-5.14,2.59-2.39,4.7-5.58,6.31-9.55l1.12,.86c-.86,2.77-2.18,5.17-3.93,7.22-1.76,2.05-3.73,3.8-5.92,5.27-2.19,1.47-4.35,2.69-6.48,3.67-1.5,3.69-3.13,7.15-4.88,10.37-1.76,3.23-3.6,5.84-5.53,7.82-1.93,1.99-3.91,2.98-5.92,2.98Zm-.43-2.77c.86,0,2.32-1.14,4.37-3.41,2.05-2.28,4.22-6.27,6.53-11.97-2.36,1.27-4.55,2.52-6.57,3.76-2.02,1.24-3.63,2.58-4.84,4.02-1.21,1.44-1.81,3.11-1.81,5.01,0,.46,.17,1.01,.52,1.64,.35,.63,.95,.95,1.81,.95Z"/></g></g></svg>